G04 DesignSpark PCB PRO Gerber Version 10.0 Build 5299*
%FSLAX35Y35*%
%MOIN*%
%ADD73C,0.01181*%
%ADD75C,0.01600*%
%ADD74C,0.02400*%
%ADD83C,0.03500*%
%ADD79C,0.03543*%
%ADD81C,0.03937*%
%ADD80C,0.04331*%
%ADD82C,0.13780*%
%ADD77C,0.16535*%
%ADD78C,0.16929*%
%ADD76C,0.18504*%
X0Y0D02*
D02*
D73*
X191102Y62493D03*
X195969Y57376D03*
Y138498D03*
X199463Y135128D03*
X201086Y62368D03*
X202459Y132383D03*
X204705Y124231D03*
X205989Y57251D03*
X207076Y120901D03*
X209323Y117932D03*
X210945Y62368D03*
X211694Y114783D03*
X215989Y57501D03*
X221054Y62493D03*
X225772Y101681D03*
X225955Y57501D03*
X228168Y98811D03*
X230415Y96190D03*
X231039Y62493D03*
Y66487D03*
X231663Y76096D03*
X235989Y57626D03*
X240274Y76221D03*
X242645Y69731D03*
X245989Y57626D03*
X246697Y154833D03*
X248272Y284833D03*
X249847Y157333D03*
X252022Y284833D03*
X253753Y69981D03*
X255989Y57501D03*
X258870Y69981D03*
X263612Y135877D03*
X263737Y269292D03*
X265859Y138373D03*
Y266172D03*
X265989Y57501D03*
Y69981D03*
X270976Y68109D03*
X275989Y57501D03*
X277590Y117932D03*
X279961Y121150D03*
X285989Y57501D03*
X289946Y124231D03*
X292442Y127381D03*
X294938Y130511D03*
X295989Y57501D03*
X297309Y133680D03*
X299680Y136830D03*
X302052Y148981D03*
X305989Y57750D03*
X306544Y151228D03*
X309290Y153599D03*
X312036Y155970D03*
X315919Y57875D03*
X319399Y160963D03*
X325989Y58125D03*
X330382Y158467D03*
X335989Y58000D03*
X345989Y58125D03*
X355989Y58250D03*
X360898Y56086D03*
X368136D03*
X381302Y56211D03*
D02*
D74*
X146195Y126083D03*
X155907Y136082D03*
X163695Y146082D03*
X176000Y59498D03*
X182445Y83582D03*
X185860Y59498D03*
X192445Y83582D03*
D02*
D75*
X67445Y440729D03*
X100772Y296083D03*
Y326083D03*
Y396083D03*
Y426083D03*
X102445Y440979D03*
X117445Y66082D03*
Y91082D03*
X125772Y296083D03*
Y326083D03*
Y341083D03*
Y381083D03*
X130772Y396083D03*
Y426083D03*
X131049Y66082D03*
Y91082D03*
X152445Y449465D03*
X174945Y161082D03*
Y166082D03*
X177445Y77332D03*
X180772Y331083D03*
X182445Y106082D03*
X184522Y146082D03*
Y201083D03*
Y246082D03*
Y281083D03*
X190772Y391083D03*
X192445Y106082D03*
Y146083D03*
Y201083D03*
Y246082D03*
Y281083D03*
X202445Y449465D03*
X214522Y281083D03*
X214945Y101082D03*
Y201083D03*
Y246082D03*
X219945Y127332D03*
Y158582D03*
X222022Y166083D03*
X222445Y201083D03*
Y246082D03*
Y281083D03*
X234971Y166083D03*
X235096Y201083D03*
Y246082D03*
Y281083D03*
X246639Y127391D03*
X252445Y449465D03*
X253272Y201083D03*
X254522Y166082D03*
Y246082D03*
X259522Y166082D03*
X259945Y201083D03*
Y246082D03*
Y281083D03*
X262489Y104052D03*
Y109169D03*
X284945Y166082D03*
Y201083D03*
Y246082D03*
Y281083D03*
X286195Y68582D03*
X302445Y449465D03*
X340772Y90906D03*
Y146082D03*
Y201083D03*
Y246082D03*
X352445Y449465D03*
X360772Y91280D03*
X360773Y76304D03*
X372022Y341083D03*
X392387Y66082D03*
Y91082D03*
X394522Y341083D03*
Y381083D03*
X402445Y449465D03*
X405772Y296083D03*
Y326083D03*
Y396083D03*
Y426083D03*
X430772Y296083D03*
Y326083D03*
Y396083D03*
Y426083D03*
Y449465D03*
D02*
D76*
X155437Y90059D03*
X376540Y71161D03*
D02*
D77*
X156264Y106594D03*
D02*
D78*
X375713Y86909D03*
D02*
D79*
X67445Y426082D03*
X67485Y115996D03*
Y125996D03*
Y135996D03*
Y145996D03*
Y155996D03*
Y165996D03*
Y175996D03*
Y185996D03*
Y195996D03*
Y206088D03*
Y216072D03*
Y225807D03*
Y235807D03*
Y245807D03*
Y255807D03*
Y265807D03*
Y275807D03*
Y285807D03*
Y295807D03*
Y305807D03*
Y315807D03*
Y325807D03*
Y335807D03*
Y345807D03*
Y355807D03*
Y365807D03*
Y375807D03*
Y385807D03*
Y396009D03*
Y406009D03*
Y416009D03*
X77445Y325807D03*
Y385807D03*
X77485Y115996D03*
Y125996D03*
Y135996D03*
Y145996D03*
Y155996D03*
Y165996D03*
Y175996D03*
Y185996D03*
Y195996D03*
Y206088D03*
Y216072D03*
Y225807D03*
Y235807D03*
Y245807D03*
Y255807D03*
Y265807D03*
Y275807D03*
Y285807D03*
Y295807D03*
Y305807D03*
Y315807D03*
Y335807D03*
Y345807D03*
Y355807D03*
Y365807D03*
Y375807D03*
Y396009D03*
Y406009D03*
Y416009D03*
Y425962D03*
X87445Y185996D03*
Y225807D03*
Y325807D03*
Y365807D03*
Y385807D03*
X87485Y115996D03*
Y125996D03*
Y135996D03*
Y145996D03*
Y155996D03*
Y165996D03*
Y175996D03*
Y195996D03*
Y206088D03*
Y216072D03*
Y235807D03*
Y245807D03*
Y255807D03*
Y265807D03*
Y275807D03*
Y285807D03*
Y295807D03*
Y305807D03*
Y315807D03*
Y335807D03*
Y345807D03*
Y355807D03*
Y375807D03*
Y396009D03*
Y406009D03*
Y416009D03*
Y426082D03*
X97437Y116121D03*
Y126121D03*
Y136121D03*
Y146121D03*
Y156121D03*
Y166121D03*
Y176121D03*
Y186121D03*
Y196121D03*
X97445Y345807D03*
Y355807D03*
Y385807D03*
X97485Y206088D03*
Y216072D03*
Y225807D03*
Y235807D03*
Y245807D03*
Y255807D03*
Y265807D03*
Y275807D03*
Y285807D03*
Y335807D03*
Y365807D03*
Y375807D03*
X107437Y116121D03*
Y126121D03*
Y136121D03*
Y146121D03*
Y156121D03*
Y166121D03*
Y176121D03*
Y186121D03*
Y196121D03*
X107445Y245807D03*
Y275807D03*
X107469Y336008D03*
Y346008D03*
Y356008D03*
Y366008D03*
Y376008D03*
Y386008D03*
X107485Y206088D03*
Y216072D03*
Y225807D03*
Y235807D03*
Y255807D03*
Y265807D03*
Y285807D03*
X117437Y126121D03*
Y136121D03*
Y146121D03*
Y156121D03*
Y166121D03*
Y176121D03*
Y186121D03*
Y196121D03*
X117445Y116121D03*
X117453Y206338D03*
Y216322D03*
Y226057D03*
Y236057D03*
Y246057D03*
Y256057D03*
Y266057D03*
Y276057D03*
Y286057D03*
X117469Y336008D03*
Y346008D03*
Y356008D03*
Y366008D03*
Y376008D03*
Y386008D03*
X127445Y116082D03*
Y126121D03*
Y136082D03*
Y146082D03*
Y156082D03*
Y206082D03*
Y256082D03*
X352445Y106082D03*
Y156082D03*
Y206082D03*
Y256082D03*
X362445Y196082D03*
X362485Y105807D03*
Y115807D03*
Y125807D03*
Y135807D03*
Y145807D03*
Y155807D03*
Y165807D03*
Y175807D03*
Y185807D03*
Y205807D03*
Y215807D03*
Y225807D03*
Y235807D03*
Y245807D03*
Y255807D03*
X372485Y105807D03*
Y115807D03*
Y125807D03*
Y135807D03*
Y145807D03*
Y155807D03*
Y165807D03*
Y175807D03*
Y185807D03*
Y195807D03*
Y205807D03*
Y215807D03*
Y225807D03*
Y235807D03*
Y245807D03*
Y255807D03*
X382485Y105807D03*
Y115807D03*
Y125807D03*
Y135807D03*
Y145807D03*
Y155807D03*
Y165807D03*
Y175807D03*
Y185807D03*
Y195807D03*
Y205807D03*
Y215807D03*
Y225807D03*
Y235807D03*
Y245807D03*
Y255807D03*
X392485Y105807D03*
Y115807D03*
Y125807D03*
Y135807D03*
Y145807D03*
Y155807D03*
Y165807D03*
Y175807D03*
Y185807D03*
Y195807D03*
Y205807D03*
Y215807D03*
Y225807D03*
Y235807D03*
Y245807D03*
Y255807D03*
Y265807D03*
Y275807D03*
Y285807D03*
X402485Y65807D03*
Y75807D03*
Y85807D03*
Y95807D03*
Y105807D03*
Y115807D03*
Y125807D03*
Y135807D03*
Y145807D03*
Y155807D03*
Y165807D03*
Y175807D03*
Y185807D03*
Y195807D03*
Y205807D03*
Y215807D03*
Y225807D03*
Y235807D03*
Y245807D03*
Y255807D03*
Y265807D03*
Y275807D03*
Y285807D03*
Y335807D03*
Y345807D03*
Y355807D03*
Y365807D03*
Y375807D03*
Y385807D03*
X412485Y65807D03*
Y75807D03*
Y85807D03*
Y95807D03*
Y105807D03*
Y115807D03*
Y125807D03*
Y135807D03*
Y145807D03*
Y155807D03*
Y165807D03*
Y175807D03*
Y185807D03*
Y195807D03*
Y205807D03*
Y215807D03*
Y225807D03*
Y235807D03*
Y245807D03*
Y255807D03*
Y265807D03*
Y275807D03*
Y285807D03*
Y335807D03*
Y345807D03*
Y355807D03*
Y365807D03*
Y375807D03*
Y385807D03*
X422485Y65807D03*
Y75807D03*
Y85807D03*
Y95807D03*
Y105807D03*
Y115807D03*
Y125807D03*
Y135807D03*
Y145807D03*
Y155807D03*
Y165807D03*
Y175807D03*
Y185807D03*
Y195807D03*
Y205807D03*
Y215807D03*
Y225807D03*
Y235807D03*
Y245807D03*
Y255807D03*
Y265807D03*
Y275807D03*
Y285807D03*
Y335807D03*
Y345807D03*
Y355807D03*
Y365807D03*
Y375807D03*
Y385807D03*
X432485Y65807D03*
Y75807D03*
Y85807D03*
Y95807D03*
Y105807D03*
Y115807D03*
Y125807D03*
Y135807D03*
Y145807D03*
Y155807D03*
Y165807D03*
Y175807D03*
Y185807D03*
Y195807D03*
Y205807D03*
Y215807D03*
Y225807D03*
Y235807D03*
Y245807D03*
Y255807D03*
Y265807D03*
Y275807D03*
Y285807D03*
Y335807D03*
Y345807D03*
Y355807D03*
Y365807D03*
Y375807D03*
Y385807D03*
D02*
D80*
X206124Y83834D03*
X216124D03*
X226124D03*
X236124D03*
X246124D03*
X256124D03*
D02*
D81*
X145772Y301082D03*
Y321082D03*
X145794Y401082D03*
Y421082D03*
X155772Y301082D03*
Y321082D03*
X155794Y401082D03*
Y421082D03*
X165772Y301082D03*
Y321082D03*
X165794Y401082D03*
Y421082D03*
X175772Y301082D03*
Y321082D03*
X175794Y401082D03*
Y421082D03*
X185772Y301082D03*
Y321082D03*
X185794Y401082D03*
Y421082D03*
X195772Y301082D03*
Y321082D03*
X195794Y401082D03*
Y421082D03*
X205772Y301082D03*
Y321082D03*
X205794Y401082D03*
Y421082D03*
X215772Y301082D03*
Y321082D03*
X215794Y401082D03*
Y421082D03*
X225772Y301082D03*
Y321082D03*
X225794Y401082D03*
Y421082D03*
X235772Y301082D03*
Y321082D03*
X235794Y401082D03*
Y421082D03*
X245772Y301082D03*
Y321082D03*
X245794Y401082D03*
Y421082D03*
X255772Y301082D03*
Y321082D03*
X255794Y401082D03*
Y421082D03*
X265772Y301082D03*
Y321082D03*
X265794Y401082D03*
Y421082D03*
X275772Y301082D03*
Y321082D03*
X275794Y401082D03*
Y421082D03*
X285772Y301082D03*
Y321082D03*
X285794Y401082D03*
Y421082D03*
X295772Y301082D03*
Y321082D03*
X295794Y401082D03*
Y421082D03*
X305772Y301082D03*
Y321082D03*
X305794Y401082D03*
Y421082D03*
X315772Y301082D03*
Y321082D03*
X315794Y401082D03*
Y421082D03*
X325772Y301082D03*
Y321082D03*
X325794Y401082D03*
Y421082D03*
X335772Y301082D03*
Y321082D03*
X335794Y401082D03*
Y421082D03*
X345772Y301082D03*
Y321082D03*
X345794Y401082D03*
Y421082D03*
X355772Y301082D03*
Y321082D03*
X355794Y401082D03*
Y421082D03*
X365772Y301082D03*
Y321082D03*
X365794Y401082D03*
Y421082D03*
X375772Y301082D03*
Y321082D03*
X375794Y401082D03*
Y421082D03*
X385772Y301082D03*
Y321082D03*
X385794Y401082D03*
Y421082D03*
D02*
D82*
X112012Y311082D03*
X112035Y411082D03*
X419532Y311082D03*
X419554Y411082D03*
D02*
D83*
X135772Y265906D03*
Y275906D03*
Y366123D03*
Y376123D03*
X375772Y266031D03*
Y276031D03*
Y366123D03*
Y376123D03*
X0Y0D02*
M02*
