G04 DesignSpark PCB PRO Gerber Version 10.0 Build 5299*
%FSLAX35Y35*%
%MOIN*%
%ADD12C,0.00500*%
%ADD84C,0.10000*%
X0Y0D02*
D02*
D12*
X77445Y433269D02*
Y434519D01*
X77758Y435144D01*
X78070Y435457D01*
X78695Y435769D01*
X79320D01*
X79945Y435457D01*
X80258Y435144D01*
X80570Y434519D01*
Y433269D01*
X80258Y432644D01*
X79945Y432332D01*
X79320Y432019D01*
X78695D01*
X78070Y432332D01*
X77758Y432644D01*
X77445Y433269D01*
X79633Y448229D02*
X80570D01*
Y447917D01*
X80258Y447292D01*
X79945Y446979D01*
X79320Y446667D01*
X78695D01*
X78070Y446979D01*
X77758Y447292D01*
X77445Y447917D01*
Y449167D01*
X77758Y449792D01*
X78070Y450104D01*
X78695Y450417D01*
X79320D01*
X79945Y450104D01*
X80258Y449792D01*
X80570Y449167D01*
X77485Y123183D02*
Y124433D01*
X77797Y125059D01*
X78110Y125371D01*
X78735Y125683D01*
X79360D01*
X79985Y125371D01*
X80297Y125059D01*
X80610Y124433D01*
Y123183D01*
X80297Y122559D01*
X79985Y122246D01*
X79360Y121933D01*
X78735D01*
X78110Y122246D01*
X77797Y122559D01*
X77485Y123183D01*
Y133183D02*
Y134433D01*
X77797Y135059D01*
X78110Y135371D01*
X78735Y135683D01*
X79360D01*
X79985Y135371D01*
X80297Y135059D01*
X80610Y134433D01*
Y133183D01*
X80297Y132559D01*
X79985Y132246D01*
X79360Y131933D01*
X78735D01*
X78110Y132246D01*
X77797Y132559D01*
X77485Y133183D01*
Y143183D02*
Y144433D01*
X77797Y145059D01*
X78110Y145371D01*
X78735Y145683D01*
X79360D01*
X79985Y145371D01*
X80297Y145059D01*
X80610Y144433D01*
Y143183D01*
X80297Y142559D01*
X79985Y142246D01*
X79360Y141933D01*
X78735D01*
X78110Y142246D01*
X77797Y142559D01*
X77485Y143183D01*
Y153183D02*
Y154433D01*
X77797Y155059D01*
X78110Y155371D01*
X78735Y155683D01*
X79360D01*
X79985Y155371D01*
X80297Y155059D01*
X80610Y154433D01*
Y153183D01*
X80297Y152559D01*
X79985Y152246D01*
X79360Y151933D01*
X78735D01*
X78110Y152246D01*
X77797Y152559D01*
X77485Y153183D01*
Y163183D02*
Y164433D01*
X77797Y165059D01*
X78110Y165371D01*
X78735Y165683D01*
X79360D01*
X79985Y165371D01*
X80297Y165059D01*
X80610Y164433D01*
Y163183D01*
X80297Y162559D01*
X79985Y162246D01*
X79360Y161933D01*
X78735D01*
X78110Y162246D01*
X77797Y162559D01*
X77485Y163183D01*
Y173183D02*
Y174433D01*
X77797Y175059D01*
X78110Y175371D01*
X78735Y175683D01*
X79360D01*
X79985Y175371D01*
X80297Y175059D01*
X80610Y174433D01*
Y173183D01*
X80297Y172559D01*
X79985Y172246D01*
X79360Y171933D01*
X78735D01*
X78110Y172246D01*
X77797Y172559D01*
X77485Y173183D01*
Y183183D02*
Y184433D01*
X77797Y185059D01*
X78110Y185371D01*
X78735Y185683D01*
X79360D01*
X79985Y185371D01*
X80297Y185059D01*
X80610Y184433D01*
Y183183D01*
X80297Y182559D01*
X79985Y182246D01*
X79360Y181933D01*
X78735D01*
X78110Y182246D01*
X77797Y182559D01*
X77485Y183183D01*
Y193183D02*
Y194433D01*
X77797Y195059D01*
X78110Y195371D01*
X78735Y195683D01*
X79360D01*
X79985Y195371D01*
X80297Y195059D01*
X80610Y194433D01*
Y193183D01*
X80297Y192559D01*
X79985Y192246D01*
X79360Y191933D01*
X78735D01*
X78110Y192246D01*
X77797Y192559D01*
X77485Y193183D01*
Y203183D02*
Y204433D01*
X77797Y205059D01*
X78110Y205371D01*
X78735Y205683D01*
X79360D01*
X79985Y205371D01*
X80297Y205059D01*
X80610Y204433D01*
Y203183D01*
X80297Y202559D01*
X79985Y202246D01*
X79360Y201933D01*
X78735D01*
X78110Y202246D01*
X77797Y202559D01*
X77485Y203183D01*
Y213276D02*
Y214526D01*
X77797Y215151D01*
X78110Y215463D01*
X78735Y215776D01*
X79360D01*
X79985Y215463D01*
X80297Y215151D01*
X80610Y214526D01*
Y213276D01*
X80297Y212651D01*
X79985Y212338D01*
X79360Y212026D01*
X78735D01*
X78110Y212338D01*
X77797Y212651D01*
X77485Y213276D01*
Y223260D02*
Y224510D01*
X77797Y225135D01*
X78110Y225448D01*
X78735Y225760D01*
X79360D01*
X79985Y225448D01*
X80297Y225135D01*
X80610Y224510D01*
Y223260D01*
X80297Y222635D01*
X79985Y222322D01*
X79360Y222010D01*
X78735D01*
X78110Y222322D01*
X77797Y222635D01*
X77485Y223260D01*
Y232994D02*
Y234244D01*
X77797Y234870D01*
X78110Y235182D01*
X78735Y235494D01*
X79360D01*
X79985Y235182D01*
X80297Y234870D01*
X80610Y234244D01*
Y232994D01*
X80297Y232370D01*
X79985Y232057D01*
X79360Y231744D01*
X78735D01*
X78110Y232057D01*
X77797Y232370D01*
X77485Y232994D01*
Y242994D02*
Y244244D01*
X77797Y244870D01*
X78110Y245182D01*
X78735Y245494D01*
X79360D01*
X79985Y245182D01*
X80297Y244870D01*
X80610Y244244D01*
Y242994D01*
X80297Y242370D01*
X79985Y242057D01*
X79360Y241744D01*
X78735D01*
X78110Y242057D01*
X77797Y242370D01*
X77485Y242994D01*
Y252994D02*
Y254244D01*
X77797Y254870D01*
X78110Y255182D01*
X78735Y255494D01*
X79360D01*
X79985Y255182D01*
X80297Y254870D01*
X80610Y254244D01*
Y252994D01*
X80297Y252370D01*
X79985Y252057D01*
X79360Y251744D01*
X78735D01*
X78110Y252057D01*
X77797Y252370D01*
X77485Y252994D01*
Y262994D02*
Y264244D01*
X77797Y264870D01*
X78110Y265182D01*
X78735Y265494D01*
X79360D01*
X79985Y265182D01*
X80297Y264870D01*
X80610Y264244D01*
Y262994D01*
X80297Y262370D01*
X79985Y262057D01*
X79360Y261744D01*
X78735D01*
X78110Y262057D01*
X77797Y262370D01*
X77485Y262994D01*
Y272994D02*
Y274244D01*
X77797Y274870D01*
X78110Y275182D01*
X78735Y275494D01*
X79360D01*
X79985Y275182D01*
X80297Y274870D01*
X80610Y274244D01*
Y272994D01*
X80297Y272370D01*
X79985Y272057D01*
X79360Y271744D01*
X78735D01*
X78110Y272057D01*
X77797Y272370D01*
X77485Y272994D01*
Y282994D02*
Y284244D01*
X77797Y284870D01*
X78110Y285182D01*
X78735Y285494D01*
X79360D01*
X79985Y285182D01*
X80297Y284870D01*
X80610Y284244D01*
Y282994D01*
X80297Y282370D01*
X79985Y282057D01*
X79360Y281744D01*
X78735D01*
X78110Y282057D01*
X77797Y282370D01*
X77485Y282994D01*
Y292994D02*
Y294244D01*
X77797Y294870D01*
X78110Y295182D01*
X78735Y295494D01*
X79360D01*
X79985Y295182D01*
X80297Y294870D01*
X80610Y294244D01*
Y292994D01*
X80297Y292370D01*
X79985Y292057D01*
X79360Y291744D01*
X78735D01*
X78110Y292057D01*
X77797Y292370D01*
X77485Y292994D01*
Y302994D02*
Y304244D01*
X77797Y304870D01*
X78110Y305182D01*
X78735Y305494D01*
X79360D01*
X79985Y305182D01*
X80297Y304870D01*
X80610Y304244D01*
Y302994D01*
X80297Y302370D01*
X79985Y302057D01*
X79360Y301744D01*
X78735D01*
X78110Y302057D01*
X77797Y302370D01*
X77485Y302994D01*
Y312994D02*
Y314244D01*
X77797Y314870D01*
X78110Y315182D01*
X78735Y315494D01*
X79360D01*
X79985Y315182D01*
X80297Y314870D01*
X80610Y314244D01*
Y312994D01*
X80297Y312370D01*
X79985Y312057D01*
X79360Y311744D01*
X78735D01*
X78110Y312057D01*
X77797Y312370D01*
X77485Y312994D01*
Y322994D02*
Y324244D01*
X77797Y324870D01*
X78110Y325182D01*
X78735Y325494D01*
X79360D01*
X79985Y325182D01*
X80297Y324870D01*
X80610Y324244D01*
Y322994D01*
X80297Y322370D01*
X79985Y322057D01*
X79360Y321744D01*
X78735D01*
X78110Y322057D01*
X77797Y322370D01*
X77485Y322994D01*
Y332994D02*
Y334244D01*
X77797Y334870D01*
X78110Y335182D01*
X78735Y335494D01*
X79360D01*
X79985Y335182D01*
X80297Y334870D01*
X80610Y334244D01*
Y332994D01*
X80297Y332370D01*
X79985Y332057D01*
X79360Y331744D01*
X78735D01*
X78110Y332057D01*
X77797Y332370D01*
X77485Y332994D01*
Y342994D02*
Y344244D01*
X77797Y344870D01*
X78110Y345182D01*
X78735Y345494D01*
X79360D01*
X79985Y345182D01*
X80297Y344870D01*
X80610Y344244D01*
Y342994D01*
X80297Y342370D01*
X79985Y342057D01*
X79360Y341744D01*
X78735D01*
X78110Y342057D01*
X77797Y342370D01*
X77485Y342994D01*
Y352994D02*
Y354244D01*
X77797Y354870D01*
X78110Y355182D01*
X78735Y355494D01*
X79360D01*
X79985Y355182D01*
X80297Y354870D01*
X80610Y354244D01*
Y352994D01*
X80297Y352370D01*
X79985Y352057D01*
X79360Y351744D01*
X78735D01*
X78110Y352057D01*
X77797Y352370D01*
X77485Y352994D01*
Y362994D02*
Y364244D01*
X77797Y364870D01*
X78110Y365182D01*
X78735Y365494D01*
X79360D01*
X79985Y365182D01*
X80297Y364870D01*
X80610Y364244D01*
Y362994D01*
X80297Y362370D01*
X79985Y362057D01*
X79360Y361744D01*
X78735D01*
X78110Y362057D01*
X77797Y362370D01*
X77485Y362994D01*
Y372994D02*
Y374244D01*
X77797Y374870D01*
X78110Y375182D01*
X78735Y375494D01*
X79360D01*
X79985Y375182D01*
X80297Y374870D01*
X80610Y374244D01*
Y372994D01*
X80297Y372370D01*
X79985Y372057D01*
X79360Y371744D01*
X78735D01*
X78110Y372057D01*
X77797Y372370D01*
X77485Y372994D01*
Y382994D02*
Y384244D01*
X77797Y384870D01*
X78110Y385182D01*
X78735Y385494D01*
X79360D01*
X79985Y385182D01*
X80297Y384870D01*
X80610Y384244D01*
Y382994D01*
X80297Y382370D01*
X79985Y382057D01*
X79360Y381744D01*
X78735D01*
X78110Y382057D01*
X77797Y382370D01*
X77485Y382994D01*
Y392994D02*
Y394244D01*
X77797Y394870D01*
X78110Y395182D01*
X78735Y395494D01*
X79360D01*
X79985Y395182D01*
X80297Y394870D01*
X80610Y394244D01*
Y392994D01*
X80297Y392370D01*
X79985Y392057D01*
X79360Y391744D01*
X78735D01*
X78110Y392057D01*
X77797Y392370D01*
X77485Y392994D01*
Y403197D02*
Y404447D01*
X77797Y405072D01*
X78110Y405385D01*
X78735Y405697D01*
X79360D01*
X79985Y405385D01*
X80297Y405072D01*
X80610Y404447D01*
Y403197D01*
X80297Y402572D01*
X79985Y402259D01*
X79360Y401947D01*
X78735D01*
X78110Y402259D01*
X77797Y402572D01*
X77485Y403197D01*
Y413197D02*
Y414447D01*
X77797Y415072D01*
X78110Y415385D01*
X78735Y415697D01*
X79360D01*
X79985Y415385D01*
X80297Y415072D01*
X80610Y414447D01*
Y413197D01*
X80297Y412572D01*
X79985Y412259D01*
X79360Y411947D01*
X78735D01*
X78110Y412259D01*
X77797Y412572D01*
X77485Y413197D01*
Y423197D02*
Y424447D01*
X77797Y425072D01*
X78110Y425385D01*
X78735Y425697D01*
X79360D01*
X79985Y425385D01*
X80297Y425072D01*
X80610Y424447D01*
Y423197D01*
X80297Y422572D01*
X79985Y422259D01*
X79360Y421947D01*
X78735D01*
X78110Y422259D01*
X77797Y422572D01*
X77485Y423197D01*
X87445Y332994D02*
Y334244D01*
X87758Y334870D01*
X88070Y335182D01*
X88695Y335494D01*
X89320D01*
X89945Y335182D01*
X90258Y334870D01*
X90570Y334244D01*
Y332994D01*
X90258Y332370D01*
X89945Y332057D01*
X89320Y331744D01*
X88695D01*
X88070Y332057D01*
X87758Y332370D01*
X87445Y332994D01*
Y392994D02*
Y394244D01*
X87758Y394870D01*
X88070Y395182D01*
X88695Y395494D01*
X89320D01*
X89945Y395182D01*
X90258Y394870D01*
X90570Y394244D01*
Y392994D01*
X90258Y392370D01*
X89945Y392057D01*
X89320Y391744D01*
X88695D01*
X88070Y392057D01*
X87758Y392370D01*
X87445Y392994D01*
X87485Y123183D02*
Y124433D01*
X87797Y125059D01*
X88110Y125371D01*
X88735Y125683D01*
X89360D01*
X89985Y125371D01*
X90297Y125059D01*
X90610Y124433D01*
Y123183D01*
X90297Y122559D01*
X89985Y122246D01*
X89360Y121933D01*
X88735D01*
X88110Y122246D01*
X87797Y122559D01*
X87485Y123183D01*
Y133183D02*
Y134433D01*
X87797Y135059D01*
X88110Y135371D01*
X88735Y135683D01*
X89360D01*
X89985Y135371D01*
X90297Y135059D01*
X90610Y134433D01*
Y133183D01*
X90297Y132559D01*
X89985Y132246D01*
X89360Y131933D01*
X88735D01*
X88110Y132246D01*
X87797Y132559D01*
X87485Y133183D01*
Y143183D02*
Y144433D01*
X87797Y145059D01*
X88110Y145371D01*
X88735Y145683D01*
X89360D01*
X89985Y145371D01*
X90297Y145059D01*
X90610Y144433D01*
Y143183D01*
X90297Y142559D01*
X89985Y142246D01*
X89360Y141933D01*
X88735D01*
X88110Y142246D01*
X87797Y142559D01*
X87485Y143183D01*
Y153183D02*
Y154433D01*
X87797Y155059D01*
X88110Y155371D01*
X88735Y155683D01*
X89360D01*
X89985Y155371D01*
X90297Y155059D01*
X90610Y154433D01*
Y153183D01*
X90297Y152559D01*
X89985Y152246D01*
X89360Y151933D01*
X88735D01*
X88110Y152246D01*
X87797Y152559D01*
X87485Y153183D01*
Y163183D02*
Y164433D01*
X87797Y165059D01*
X88110Y165371D01*
X88735Y165683D01*
X89360D01*
X89985Y165371D01*
X90297Y165059D01*
X90610Y164433D01*
Y163183D01*
X90297Y162559D01*
X89985Y162246D01*
X89360Y161933D01*
X88735D01*
X88110Y162246D01*
X87797Y162559D01*
X87485Y163183D01*
Y173183D02*
Y174433D01*
X87797Y175059D01*
X88110Y175371D01*
X88735Y175683D01*
X89360D01*
X89985Y175371D01*
X90297Y175059D01*
X90610Y174433D01*
Y173183D01*
X90297Y172559D01*
X89985Y172246D01*
X89360Y171933D01*
X88735D01*
X88110Y172246D01*
X87797Y172559D01*
X87485Y173183D01*
Y183183D02*
Y184433D01*
X87797Y185059D01*
X88110Y185371D01*
X88735Y185683D01*
X89360D01*
X89985Y185371D01*
X90297Y185059D01*
X90610Y184433D01*
Y183183D01*
X90297Y182559D01*
X89985Y182246D01*
X89360Y181933D01*
X88735D01*
X88110Y182246D01*
X87797Y182559D01*
X87485Y183183D01*
Y193183D02*
Y194433D01*
X87797Y195059D01*
X88110Y195371D01*
X88735Y195683D01*
X89360D01*
X89985Y195371D01*
X90297Y195059D01*
X90610Y194433D01*
Y193183D01*
X90297Y192559D01*
X89985Y192246D01*
X89360Y191933D01*
X88735D01*
X88110Y192246D01*
X87797Y192559D01*
X87485Y193183D01*
Y203183D02*
Y204433D01*
X87797Y205059D01*
X88110Y205371D01*
X88735Y205683D01*
X89360D01*
X89985Y205371D01*
X90297Y205059D01*
X90610Y204433D01*
Y203183D01*
X90297Y202559D01*
X89985Y202246D01*
X89360Y201933D01*
X88735D01*
X88110Y202246D01*
X87797Y202559D01*
X87485Y203183D01*
Y213276D02*
Y214526D01*
X87797Y215151D01*
X88110Y215463D01*
X88735Y215776D01*
X89360D01*
X89985Y215463D01*
X90297Y215151D01*
X90610Y214526D01*
Y213276D01*
X90297Y212651D01*
X89985Y212338D01*
X89360Y212026D01*
X88735D01*
X88110Y212338D01*
X87797Y212651D01*
X87485Y213276D01*
Y223260D02*
Y224510D01*
X87797Y225135D01*
X88110Y225448D01*
X88735Y225760D01*
X89360D01*
X89985Y225448D01*
X90297Y225135D01*
X90610Y224510D01*
Y223260D01*
X90297Y222635D01*
X89985Y222322D01*
X89360Y222010D01*
X88735D01*
X88110Y222322D01*
X87797Y222635D01*
X87485Y223260D01*
Y232994D02*
Y234244D01*
X87797Y234870D01*
X88110Y235182D01*
X88735Y235494D01*
X89360D01*
X89985Y235182D01*
X90297Y234870D01*
X90610Y234244D01*
Y232994D01*
X90297Y232370D01*
X89985Y232057D01*
X89360Y231744D01*
X88735D01*
X88110Y232057D01*
X87797Y232370D01*
X87485Y232994D01*
Y242994D02*
Y244244D01*
X87797Y244870D01*
X88110Y245182D01*
X88735Y245494D01*
X89360D01*
X89985Y245182D01*
X90297Y244870D01*
X90610Y244244D01*
Y242994D01*
X90297Y242370D01*
X89985Y242057D01*
X89360Y241744D01*
X88735D01*
X88110Y242057D01*
X87797Y242370D01*
X87485Y242994D01*
Y252994D02*
Y254244D01*
X87797Y254870D01*
X88110Y255182D01*
X88735Y255494D01*
X89360D01*
X89985Y255182D01*
X90297Y254870D01*
X90610Y254244D01*
Y252994D01*
X90297Y252370D01*
X89985Y252057D01*
X89360Y251744D01*
X88735D01*
X88110Y252057D01*
X87797Y252370D01*
X87485Y252994D01*
Y262994D02*
Y264244D01*
X87797Y264870D01*
X88110Y265182D01*
X88735Y265494D01*
X89360D01*
X89985Y265182D01*
X90297Y264870D01*
X90610Y264244D01*
Y262994D01*
X90297Y262370D01*
X89985Y262057D01*
X89360Y261744D01*
X88735D01*
X88110Y262057D01*
X87797Y262370D01*
X87485Y262994D01*
Y272994D02*
Y274244D01*
X87797Y274870D01*
X88110Y275182D01*
X88735Y275494D01*
X89360D01*
X89985Y275182D01*
X90297Y274870D01*
X90610Y274244D01*
Y272994D01*
X90297Y272370D01*
X89985Y272057D01*
X89360Y271744D01*
X88735D01*
X88110Y272057D01*
X87797Y272370D01*
X87485Y272994D01*
Y282994D02*
Y284244D01*
X87797Y284870D01*
X88110Y285182D01*
X88735Y285494D01*
X89360D01*
X89985Y285182D01*
X90297Y284870D01*
X90610Y284244D01*
Y282994D01*
X90297Y282370D01*
X89985Y282057D01*
X89360Y281744D01*
X88735D01*
X88110Y282057D01*
X87797Y282370D01*
X87485Y282994D01*
Y292994D02*
Y294244D01*
X87797Y294870D01*
X88110Y295182D01*
X88735Y295494D01*
X89360D01*
X89985Y295182D01*
X90297Y294870D01*
X90610Y294244D01*
Y292994D01*
X90297Y292370D01*
X89985Y292057D01*
X89360Y291744D01*
X88735D01*
X88110Y292057D01*
X87797Y292370D01*
X87485Y292994D01*
Y302994D02*
Y304244D01*
X87797Y304870D01*
X88110Y305182D01*
X88735Y305494D01*
X89360D01*
X89985Y305182D01*
X90297Y304870D01*
X90610Y304244D01*
Y302994D01*
X90297Y302370D01*
X89985Y302057D01*
X89360Y301744D01*
X88735D01*
X88110Y302057D01*
X87797Y302370D01*
X87485Y302994D01*
Y312994D02*
Y314244D01*
X87797Y314870D01*
X88110Y315182D01*
X88735Y315494D01*
X89360D01*
X89985Y315182D01*
X90297Y314870D01*
X90610Y314244D01*
Y312994D01*
X90297Y312370D01*
X89985Y312057D01*
X89360Y311744D01*
X88735D01*
X88110Y312057D01*
X87797Y312370D01*
X87485Y312994D01*
Y322994D02*
Y324244D01*
X87797Y324870D01*
X88110Y325182D01*
X88735Y325494D01*
X89360D01*
X89985Y325182D01*
X90297Y324870D01*
X90610Y324244D01*
Y322994D01*
X90297Y322370D01*
X89985Y322057D01*
X89360Y321744D01*
X88735D01*
X88110Y322057D01*
X87797Y322370D01*
X87485Y322994D01*
Y342994D02*
Y344244D01*
X87797Y344870D01*
X88110Y345182D01*
X88735Y345494D01*
X89360D01*
X89985Y345182D01*
X90297Y344870D01*
X90610Y344244D01*
Y342994D01*
X90297Y342370D01*
X89985Y342057D01*
X89360Y341744D01*
X88735D01*
X88110Y342057D01*
X87797Y342370D01*
X87485Y342994D01*
Y352994D02*
Y354244D01*
X87797Y354870D01*
X88110Y355182D01*
X88735Y355494D01*
X89360D01*
X89985Y355182D01*
X90297Y354870D01*
X90610Y354244D01*
Y352994D01*
X90297Y352370D01*
X89985Y352057D01*
X89360Y351744D01*
X88735D01*
X88110Y352057D01*
X87797Y352370D01*
X87485Y352994D01*
Y362994D02*
Y364244D01*
X87797Y364870D01*
X88110Y365182D01*
X88735Y365494D01*
X89360D01*
X89985Y365182D01*
X90297Y364870D01*
X90610Y364244D01*
Y362994D01*
X90297Y362370D01*
X89985Y362057D01*
X89360Y361744D01*
X88735D01*
X88110Y362057D01*
X87797Y362370D01*
X87485Y362994D01*
Y372994D02*
Y374244D01*
X87797Y374870D01*
X88110Y375182D01*
X88735Y375494D01*
X89360D01*
X89985Y375182D01*
X90297Y374870D01*
X90610Y374244D01*
Y372994D01*
X90297Y372370D01*
X89985Y372057D01*
X89360Y371744D01*
X88735D01*
X88110Y372057D01*
X87797Y372370D01*
X87485Y372994D01*
Y382994D02*
Y384244D01*
X87797Y384870D01*
X88110Y385182D01*
X88735Y385494D01*
X89360D01*
X89985Y385182D01*
X90297Y384870D01*
X90610Y384244D01*
Y382994D01*
X90297Y382370D01*
X89985Y382057D01*
X89360Y381744D01*
X88735D01*
X88110Y382057D01*
X87797Y382370D01*
X87485Y382994D01*
Y403197D02*
Y404447D01*
X87797Y405072D01*
X88110Y405385D01*
X88735Y405697D01*
X89360D01*
X89985Y405385D01*
X90297Y405072D01*
X90610Y404447D01*
Y403197D01*
X90297Y402572D01*
X89985Y402259D01*
X89360Y401947D01*
X88735D01*
X88110Y402259D01*
X87797Y402572D01*
X87485Y403197D01*
Y413197D02*
Y414447D01*
X87797Y415072D01*
X88110Y415385D01*
X88735Y415697D01*
X89360D01*
X89985Y415385D01*
X90297Y415072D01*
X90610Y414447D01*
Y413197D01*
X90297Y412572D01*
X89985Y412259D01*
X89360Y411947D01*
X88735D01*
X88110Y412259D01*
X87797Y412572D01*
X87485Y413197D01*
Y423197D02*
Y424447D01*
X87797Y425072D01*
X88110Y425385D01*
X88735Y425697D01*
X89360D01*
X89985Y425385D01*
X90297Y425072D01*
X90610Y424447D01*
Y423197D01*
X90297Y422572D01*
X89985Y422259D01*
X89360Y421947D01*
X88735D01*
X88110Y422259D01*
X87797Y422572D01*
X87485Y423197D01*
Y433150D02*
Y434400D01*
X87797Y435025D01*
X88110Y435337D01*
X88735Y435650D01*
X89360D01*
X89985Y435337D01*
X90297Y435025D01*
X90610Y434400D01*
Y433150D01*
X90297Y432525D01*
X89985Y432212D01*
X89360Y431900D01*
X88735D01*
X88110Y432212D01*
X87797Y432525D01*
X87485Y433150D01*
X97445Y193183D02*
Y194433D01*
X97758Y195059D01*
X98070Y195371D01*
X98695Y195683D01*
X99320D01*
X99945Y195371D01*
X100258Y195059D01*
X100570Y194433D01*
Y193183D01*
X100258Y192559D01*
X99945Y192246D01*
X99320Y191933D01*
X98695D01*
X98070Y192246D01*
X97758Y192559D01*
X97445Y193183D01*
Y232994D02*
Y234244D01*
X97758Y234870D01*
X98070Y235182D01*
X98695Y235494D01*
X99320D01*
X99945Y235182D01*
X100258Y234870D01*
X100570Y234244D01*
Y232994D01*
X100258Y232370D01*
X99945Y232057D01*
X99320Y231744D01*
X98695D01*
X98070Y232057D01*
X97758Y232370D01*
X97445Y232994D01*
Y332994D02*
Y334244D01*
X97758Y334870D01*
X98070Y335182D01*
X98695Y335494D01*
X99320D01*
X99945Y335182D01*
X100258Y334870D01*
X100570Y334244D01*
Y332994D01*
X100258Y332370D01*
X99945Y332057D01*
X99320Y331744D01*
X98695D01*
X98070Y332057D01*
X97758Y332370D01*
X97445Y332994D01*
Y372994D02*
Y374244D01*
X97758Y374870D01*
X98070Y375182D01*
X98695Y375494D01*
X99320D01*
X99945Y375182D01*
X100258Y374870D01*
X100570Y374244D01*
Y372994D01*
X100258Y372370D01*
X99945Y372057D01*
X99320Y371744D01*
X98695D01*
X98070Y372057D01*
X97758Y372370D01*
X97445Y372994D01*
Y392994D02*
Y394244D01*
X97758Y394870D01*
X98070Y395182D01*
X98695Y395494D01*
X99320D01*
X99945Y395182D01*
X100258Y394870D01*
X100570Y394244D01*
Y392994D01*
X100258Y392370D01*
X99945Y392057D01*
X99320Y391744D01*
X98695D01*
X98070Y392057D01*
X97758Y392370D01*
X97445Y392994D01*
X97485Y123183D02*
Y124433D01*
X97797Y125059D01*
X98110Y125371D01*
X98735Y125683D01*
X99360D01*
X99985Y125371D01*
X100297Y125059D01*
X100610Y124433D01*
Y123183D01*
X100297Y122559D01*
X99985Y122246D01*
X99360Y121933D01*
X98735D01*
X98110Y122246D01*
X97797Y122559D01*
X97485Y123183D01*
Y133183D02*
Y134433D01*
X97797Y135059D01*
X98110Y135371D01*
X98735Y135683D01*
X99360D01*
X99985Y135371D01*
X100297Y135059D01*
X100610Y134433D01*
Y133183D01*
X100297Y132559D01*
X99985Y132246D01*
X99360Y131933D01*
X98735D01*
X98110Y132246D01*
X97797Y132559D01*
X97485Y133183D01*
Y143183D02*
Y144433D01*
X97797Y145059D01*
X98110Y145371D01*
X98735Y145683D01*
X99360D01*
X99985Y145371D01*
X100297Y145059D01*
X100610Y144433D01*
Y143183D01*
X100297Y142559D01*
X99985Y142246D01*
X99360Y141933D01*
X98735D01*
X98110Y142246D01*
X97797Y142559D01*
X97485Y143183D01*
Y153183D02*
Y154433D01*
X97797Y155059D01*
X98110Y155371D01*
X98735Y155683D01*
X99360D01*
X99985Y155371D01*
X100297Y155059D01*
X100610Y154433D01*
Y153183D01*
X100297Y152559D01*
X99985Y152246D01*
X99360Y151933D01*
X98735D01*
X98110Y152246D01*
X97797Y152559D01*
X97485Y153183D01*
Y163183D02*
Y164433D01*
X97797Y165059D01*
X98110Y165371D01*
X98735Y165683D01*
X99360D01*
X99985Y165371D01*
X100297Y165059D01*
X100610Y164433D01*
Y163183D01*
X100297Y162559D01*
X99985Y162246D01*
X99360Y161933D01*
X98735D01*
X98110Y162246D01*
X97797Y162559D01*
X97485Y163183D01*
Y173183D02*
Y174433D01*
X97797Y175059D01*
X98110Y175371D01*
X98735Y175683D01*
X99360D01*
X99985Y175371D01*
X100297Y175059D01*
X100610Y174433D01*
Y173183D01*
X100297Y172559D01*
X99985Y172246D01*
X99360Y171933D01*
X98735D01*
X98110Y172246D01*
X97797Y172559D01*
X97485Y173183D01*
Y183183D02*
Y184433D01*
X97797Y185059D01*
X98110Y185371D01*
X98735Y185683D01*
X99360D01*
X99985Y185371D01*
X100297Y185059D01*
X100610Y184433D01*
Y183183D01*
X100297Y182559D01*
X99985Y182246D01*
X99360Y181933D01*
X98735D01*
X98110Y182246D01*
X97797Y182559D01*
X97485Y183183D01*
Y203183D02*
Y204433D01*
X97797Y205059D01*
X98110Y205371D01*
X98735Y205683D01*
X99360D01*
X99985Y205371D01*
X100297Y205059D01*
X100610Y204433D01*
Y203183D01*
X100297Y202559D01*
X99985Y202246D01*
X99360Y201933D01*
X98735D01*
X98110Y202246D01*
X97797Y202559D01*
X97485Y203183D01*
Y213276D02*
Y214526D01*
X97797Y215151D01*
X98110Y215463D01*
X98735Y215776D01*
X99360D01*
X99985Y215463D01*
X100297Y215151D01*
X100610Y214526D01*
Y213276D01*
X100297Y212651D01*
X99985Y212338D01*
X99360Y212026D01*
X98735D01*
X98110Y212338D01*
X97797Y212651D01*
X97485Y213276D01*
Y223260D02*
Y224510D01*
X97797Y225135D01*
X98110Y225448D01*
X98735Y225760D01*
X99360D01*
X99985Y225448D01*
X100297Y225135D01*
X100610Y224510D01*
Y223260D01*
X100297Y222635D01*
X99985Y222322D01*
X99360Y222010D01*
X98735D01*
X98110Y222322D01*
X97797Y222635D01*
X97485Y223260D01*
Y242994D02*
Y244244D01*
X97797Y244870D01*
X98110Y245182D01*
X98735Y245494D01*
X99360D01*
X99985Y245182D01*
X100297Y244870D01*
X100610Y244244D01*
Y242994D01*
X100297Y242370D01*
X99985Y242057D01*
X99360Y241744D01*
X98735D01*
X98110Y242057D01*
X97797Y242370D01*
X97485Y242994D01*
Y252994D02*
Y254244D01*
X97797Y254870D01*
X98110Y255182D01*
X98735Y255494D01*
X99360D01*
X99985Y255182D01*
X100297Y254870D01*
X100610Y254244D01*
Y252994D01*
X100297Y252370D01*
X99985Y252057D01*
X99360Y251744D01*
X98735D01*
X98110Y252057D01*
X97797Y252370D01*
X97485Y252994D01*
Y262994D02*
Y264244D01*
X97797Y264870D01*
X98110Y265182D01*
X98735Y265494D01*
X99360D01*
X99985Y265182D01*
X100297Y264870D01*
X100610Y264244D01*
Y262994D01*
X100297Y262370D01*
X99985Y262057D01*
X99360Y261744D01*
X98735D01*
X98110Y262057D01*
X97797Y262370D01*
X97485Y262994D01*
Y272994D02*
Y274244D01*
X97797Y274870D01*
X98110Y275182D01*
X98735Y275494D01*
X99360D01*
X99985Y275182D01*
X100297Y274870D01*
X100610Y274244D01*
Y272994D01*
X100297Y272370D01*
X99985Y272057D01*
X99360Y271744D01*
X98735D01*
X98110Y272057D01*
X97797Y272370D01*
X97485Y272994D01*
Y282994D02*
Y284244D01*
X97797Y284870D01*
X98110Y285182D01*
X98735Y285494D01*
X99360D01*
X99985Y285182D01*
X100297Y284870D01*
X100610Y284244D01*
Y282994D01*
X100297Y282370D01*
X99985Y282057D01*
X99360Y281744D01*
X98735D01*
X98110Y282057D01*
X97797Y282370D01*
X97485Y282994D01*
Y292994D02*
Y294244D01*
X97797Y294870D01*
X98110Y295182D01*
X98735Y295494D01*
X99360D01*
X99985Y295182D01*
X100297Y294870D01*
X100610Y294244D01*
Y292994D01*
X100297Y292370D01*
X99985Y292057D01*
X99360Y291744D01*
X98735D01*
X98110Y292057D01*
X97797Y292370D01*
X97485Y292994D01*
Y302994D02*
Y304244D01*
X97797Y304870D01*
X98110Y305182D01*
X98735Y305494D01*
X99360D01*
X99985Y305182D01*
X100297Y304870D01*
X100610Y304244D01*
Y302994D01*
X100297Y302370D01*
X99985Y302057D01*
X99360Y301744D01*
X98735D01*
X98110Y302057D01*
X97797Y302370D01*
X97485Y302994D01*
Y312994D02*
Y314244D01*
X97797Y314870D01*
X98110Y315182D01*
X98735Y315494D01*
X99360D01*
X99985Y315182D01*
X100297Y314870D01*
X100610Y314244D01*
Y312994D01*
X100297Y312370D01*
X99985Y312057D01*
X99360Y311744D01*
X98735D01*
X98110Y312057D01*
X97797Y312370D01*
X97485Y312994D01*
Y322994D02*
Y324244D01*
X97797Y324870D01*
X98110Y325182D01*
X98735Y325494D01*
X99360D01*
X99985Y325182D01*
X100297Y324870D01*
X100610Y324244D01*
Y322994D01*
X100297Y322370D01*
X99985Y322057D01*
X99360Y321744D01*
X98735D01*
X98110Y322057D01*
X97797Y322370D01*
X97485Y322994D01*
Y342994D02*
Y344244D01*
X97797Y344870D01*
X98110Y345182D01*
X98735Y345494D01*
X99360D01*
X99985Y345182D01*
X100297Y344870D01*
X100610Y344244D01*
Y342994D01*
X100297Y342370D01*
X99985Y342057D01*
X99360Y341744D01*
X98735D01*
X98110Y342057D01*
X97797Y342370D01*
X97485Y342994D01*
Y352994D02*
Y354244D01*
X97797Y354870D01*
X98110Y355182D01*
X98735Y355494D01*
X99360D01*
X99985Y355182D01*
X100297Y354870D01*
X100610Y354244D01*
Y352994D01*
X100297Y352370D01*
X99985Y352057D01*
X99360Y351744D01*
X98735D01*
X98110Y352057D01*
X97797Y352370D01*
X97485Y352994D01*
Y362994D02*
Y364244D01*
X97797Y364870D01*
X98110Y365182D01*
X98735Y365494D01*
X99360D01*
X99985Y365182D01*
X100297Y364870D01*
X100610Y364244D01*
Y362994D01*
X100297Y362370D01*
X99985Y362057D01*
X99360Y361744D01*
X98735D01*
X98110Y362057D01*
X97797Y362370D01*
X97485Y362994D01*
Y382994D02*
Y384244D01*
X97797Y384870D01*
X98110Y385182D01*
X98735Y385494D01*
X99360D01*
X99985Y385182D01*
X100297Y384870D01*
X100610Y384244D01*
Y382994D01*
X100297Y382370D01*
X99985Y382057D01*
X99360Y381744D01*
X98735D01*
X98110Y382057D01*
X97797Y382370D01*
X97485Y382994D01*
Y403197D02*
Y404447D01*
X97797Y405072D01*
X98110Y405385D01*
X98735Y405697D01*
X99360D01*
X99985Y405385D01*
X100297Y405072D01*
X100610Y404447D01*
Y403197D01*
X100297Y402572D01*
X99985Y402259D01*
X99360Y401947D01*
X98735D01*
X98110Y402259D01*
X97797Y402572D01*
X97485Y403197D01*
Y413197D02*
Y414447D01*
X97797Y415072D01*
X98110Y415385D01*
X98735Y415697D01*
X99360D01*
X99985Y415385D01*
X100297Y415072D01*
X100610Y414447D01*
Y413197D01*
X100297Y412572D01*
X99985Y412259D01*
X99360Y411947D01*
X98735D01*
X98110Y412259D01*
X97797Y412572D01*
X97485Y413197D01*
Y423197D02*
Y424447D01*
X97797Y425072D01*
X98110Y425385D01*
X98735Y425697D01*
X99360D01*
X99985Y425385D01*
X100297Y425072D01*
X100610Y424447D01*
Y423197D01*
X100297Y422572D01*
X99985Y422259D01*
X99360Y421947D01*
X98735D01*
X98110Y422259D01*
X97797Y422572D01*
X97485Y423197D01*
Y433269D02*
Y434519D01*
X97797Y435144D01*
X98110Y435457D01*
X98735Y435769D01*
X99360D01*
X99985Y435457D01*
X100297Y435144D01*
X100610Y434519D01*
Y433269D01*
X100297Y432644D01*
X99985Y432332D01*
X99360Y432019D01*
X98735D01*
X98110Y432332D01*
X97797Y432644D01*
X97485Y433269D01*
X107437Y123308D02*
Y124558D01*
X107750Y125183D01*
X108063Y125496D01*
X108687Y125808D01*
X109313D01*
X109937Y125496D01*
X110250Y125183D01*
X110563Y124558D01*
Y123308D01*
X110250Y122683D01*
X109937Y122371D01*
X109313Y122058D01*
X108687D01*
X108063Y122371D01*
X107750Y122683D01*
X107437Y123308D01*
Y133308D02*
Y134558D01*
X107750Y135183D01*
X108063Y135496D01*
X108687Y135808D01*
X109313D01*
X109937Y135496D01*
X110250Y135183D01*
X110563Y134558D01*
Y133308D01*
X110250Y132683D01*
X109937Y132371D01*
X109313Y132058D01*
X108687D01*
X108063Y132371D01*
X107750Y132683D01*
X107437Y133308D01*
Y143308D02*
Y144558D01*
X107750Y145183D01*
X108063Y145496D01*
X108687Y145808D01*
X109313D01*
X109937Y145496D01*
X110250Y145183D01*
X110563Y144558D01*
Y143308D01*
X110250Y142683D01*
X109937Y142371D01*
X109313Y142058D01*
X108687D01*
X108063Y142371D01*
X107750Y142683D01*
X107437Y143308D01*
Y153308D02*
Y154558D01*
X107750Y155183D01*
X108063Y155496D01*
X108687Y155808D01*
X109313D01*
X109937Y155496D01*
X110250Y155183D01*
X110563Y154558D01*
Y153308D01*
X110250Y152683D01*
X109937Y152371D01*
X109313Y152058D01*
X108687D01*
X108063Y152371D01*
X107750Y152683D01*
X107437Y153308D01*
Y163308D02*
Y164558D01*
X107750Y165183D01*
X108063Y165496D01*
X108687Y165808D01*
X109313D01*
X109937Y165496D01*
X110250Y165183D01*
X110563Y164558D01*
Y163308D01*
X110250Y162683D01*
X109937Y162371D01*
X109313Y162058D01*
X108687D01*
X108063Y162371D01*
X107750Y162683D01*
X107437Y163308D01*
Y173308D02*
Y174558D01*
X107750Y175183D01*
X108063Y175496D01*
X108687Y175808D01*
X109313D01*
X109937Y175496D01*
X110250Y175183D01*
X110563Y174558D01*
Y173308D01*
X110250Y172683D01*
X109937Y172371D01*
X109313Y172058D01*
X108687D01*
X108063Y172371D01*
X107750Y172683D01*
X107437Y173308D01*
Y183308D02*
Y184558D01*
X107750Y185183D01*
X108063Y185496D01*
X108687Y185808D01*
X109313D01*
X109937Y185496D01*
X110250Y185183D01*
X110563Y184558D01*
Y183308D01*
X110250Y182683D01*
X109937Y182371D01*
X109313Y182058D01*
X108687D01*
X108063Y182371D01*
X107750Y182683D01*
X107437Y183308D01*
Y193308D02*
Y194558D01*
X107750Y195183D01*
X108063Y195496D01*
X108687Y195808D01*
X109313D01*
X109937Y195496D01*
X110250Y195183D01*
X110563Y194558D01*
Y193308D01*
X110250Y192683D01*
X109937Y192371D01*
X109313Y192058D01*
X108687D01*
X108063Y192371D01*
X107750Y192683D01*
X107437Y193308D01*
Y203308D02*
Y204558D01*
X107750Y205183D01*
X108063Y205496D01*
X108687Y205808D01*
X109313D01*
X109937Y205496D01*
X110250Y205183D01*
X110563Y204558D01*
Y203308D01*
X110250Y202683D01*
X109937Y202371D01*
X109313Y202058D01*
X108687D01*
X108063Y202371D01*
X107750Y202683D01*
X107437Y203308D01*
X107445Y352994D02*
Y354244D01*
X107758Y354870D01*
X108070Y355182D01*
X108695Y355494D01*
X109320D01*
X109945Y355182D01*
X110258Y354870D01*
X110570Y354244D01*
Y352994D01*
X110258Y352370D01*
X109945Y352057D01*
X109320Y351744D01*
X108695D01*
X108070Y352057D01*
X107758Y352370D01*
X107445Y352994D01*
Y362994D02*
Y364244D01*
X107758Y364870D01*
X108070Y365182D01*
X108695Y365494D01*
X109320D01*
X109945Y365182D01*
X110258Y364870D01*
X110570Y364244D01*
Y362994D01*
X110258Y362370D01*
X109945Y362057D01*
X109320Y361744D01*
X108695D01*
X108070Y362057D01*
X107758Y362370D01*
X107445Y362994D01*
Y392994D02*
Y394244D01*
X107758Y394870D01*
X108070Y395182D01*
X108695Y395494D01*
X109320D01*
X109945Y395182D01*
X110258Y394870D01*
X110570Y394244D01*
Y392994D01*
X110258Y392370D01*
X109945Y392057D01*
X109320Y391744D01*
X108695D01*
X108070Y392057D01*
X107758Y392370D01*
X107445Y392994D01*
X107485Y213276D02*
Y214526D01*
X107797Y215151D01*
X108110Y215463D01*
X108735Y215776D01*
X109360D01*
X109985Y215463D01*
X110297Y215151D01*
X110610Y214526D01*
Y213276D01*
X110297Y212651D01*
X109985Y212338D01*
X109360Y212026D01*
X108735D01*
X108110Y212338D01*
X107797Y212651D01*
X107485Y213276D01*
Y223260D02*
Y224510D01*
X107797Y225135D01*
X108110Y225448D01*
X108735Y225760D01*
X109360D01*
X109985Y225448D01*
X110297Y225135D01*
X110610Y224510D01*
Y223260D01*
X110297Y222635D01*
X109985Y222322D01*
X109360Y222010D01*
X108735D01*
X108110Y222322D01*
X107797Y222635D01*
X107485Y223260D01*
Y232994D02*
Y234244D01*
X107797Y234870D01*
X108110Y235182D01*
X108735Y235494D01*
X109360D01*
X109985Y235182D01*
X110297Y234870D01*
X110610Y234244D01*
Y232994D01*
X110297Y232370D01*
X109985Y232057D01*
X109360Y231744D01*
X108735D01*
X108110Y232057D01*
X107797Y232370D01*
X107485Y232994D01*
Y242994D02*
Y244244D01*
X107797Y244870D01*
X108110Y245182D01*
X108735Y245494D01*
X109360D01*
X109985Y245182D01*
X110297Y244870D01*
X110610Y244244D01*
Y242994D01*
X110297Y242370D01*
X109985Y242057D01*
X109360Y241744D01*
X108735D01*
X108110Y242057D01*
X107797Y242370D01*
X107485Y242994D01*
Y252994D02*
Y254244D01*
X107797Y254870D01*
X108110Y255182D01*
X108735Y255494D01*
X109360D01*
X109985Y255182D01*
X110297Y254870D01*
X110610Y254244D01*
Y252994D01*
X110297Y252370D01*
X109985Y252057D01*
X109360Y251744D01*
X108735D01*
X108110Y252057D01*
X107797Y252370D01*
X107485Y252994D01*
Y262994D02*
Y264244D01*
X107797Y264870D01*
X108110Y265182D01*
X108735Y265494D01*
X109360D01*
X109985Y265182D01*
X110297Y264870D01*
X110610Y264244D01*
Y262994D01*
X110297Y262370D01*
X109985Y262057D01*
X109360Y261744D01*
X108735D01*
X108110Y262057D01*
X107797Y262370D01*
X107485Y262994D01*
Y272994D02*
Y274244D01*
X107797Y274870D01*
X108110Y275182D01*
X108735Y275494D01*
X109360D01*
X109985Y275182D01*
X110297Y274870D01*
X110610Y274244D01*
Y272994D01*
X110297Y272370D01*
X109985Y272057D01*
X109360Y271744D01*
X108735D01*
X108110Y272057D01*
X107797Y272370D01*
X107485Y272994D01*
Y282994D02*
Y284244D01*
X107797Y284870D01*
X108110Y285182D01*
X108735Y285494D01*
X109360D01*
X109985Y285182D01*
X110297Y284870D01*
X110610Y284244D01*
Y282994D01*
X110297Y282370D01*
X109985Y282057D01*
X109360Y281744D01*
X108735D01*
X108110Y282057D01*
X107797Y282370D01*
X107485Y282994D01*
Y292994D02*
Y294244D01*
X107797Y294870D01*
X108110Y295182D01*
X108735Y295494D01*
X109360D01*
X109985Y295182D01*
X110297Y294870D01*
X110610Y294244D01*
Y292994D01*
X110297Y292370D01*
X109985Y292057D01*
X109360Y291744D01*
X108735D01*
X108110Y292057D01*
X107797Y292370D01*
X107485Y292994D01*
Y342994D02*
Y344244D01*
X107797Y344870D01*
X108110Y345182D01*
X108735Y345494D01*
X109360D01*
X109985Y345182D01*
X110297Y344870D01*
X110610Y344244D01*
Y342994D01*
X110297Y342370D01*
X109985Y342057D01*
X109360Y341744D01*
X108735D01*
X108110Y342057D01*
X107797Y342370D01*
X107485Y342994D01*
Y372994D02*
Y374244D01*
X107797Y374870D01*
X108110Y375182D01*
X108735Y375494D01*
X109360D01*
X109985Y375182D01*
X110297Y374870D01*
X110610Y374244D01*
Y372994D01*
X110297Y372370D01*
X109985Y372057D01*
X109360Y371744D01*
X108735D01*
X108110Y372057D01*
X107797Y372370D01*
X107485Y372994D01*
Y382994D02*
Y384244D01*
X107797Y384870D01*
X108110Y385182D01*
X108735Y385494D01*
X109360D01*
X109985Y385182D01*
X110297Y384870D01*
X110610Y384244D01*
Y382994D01*
X110297Y382370D01*
X109985Y382057D01*
X109360Y381744D01*
X108735D01*
X108110Y382057D01*
X107797Y382370D01*
X107485Y382994D01*
X112959Y303583D02*
X113897D01*
Y303270D01*
X113585Y302645D01*
X113272Y302333D01*
X112647Y302020D01*
X112022D01*
X111397Y302333D01*
X111085Y302645D01*
X110772Y303270D01*
Y304520D01*
X111085Y305145D01*
X111397Y305458D01*
X112022Y305770D01*
X112647D01*
X113272Y305458D01*
X113585Y305145D01*
X113897Y304520D01*
X112959Y333583D02*
X113897D01*
Y333270D01*
X113585Y332645D01*
X113272Y332333D01*
X112647Y332020D01*
X112022D01*
X111397Y332333D01*
X111085Y332645D01*
X110772Y333270D01*
Y334520D01*
X111085Y335145D01*
X111397Y335458D01*
X112022Y335770D01*
X112647D01*
X113272Y335458D01*
X113585Y335145D01*
X113897Y334520D01*
X112959Y403583D02*
X113897D01*
Y403270D01*
X113585Y402645D01*
X113272Y402333D01*
X112647Y402020D01*
X112022D01*
X111397Y402333D01*
X111085Y402645D01*
X110772Y403270D01*
Y404520D01*
X111085Y405145D01*
X111397Y405458D01*
X112022Y405770D01*
X112647D01*
X113272Y405458D01*
X113585Y405145D01*
X113897Y404520D01*
X112959Y433583D02*
X113897D01*
Y433270D01*
X113585Y432645D01*
X113272Y432333D01*
X112647Y432020D01*
X112022D01*
X111397Y432333D01*
X111085Y432645D01*
X110772Y433270D01*
Y434520D01*
X111085Y435145D01*
X111397Y435458D01*
X112022Y435770D01*
X112647D01*
X113272Y435458D01*
X113585Y435145D01*
X113897Y434520D01*
X114633Y448479D02*
X115570D01*
Y448166D01*
X115258Y447541D01*
X114945Y447229D01*
X114320Y446916D01*
X113695D01*
X113070Y447229D01*
X112758Y447541D01*
X112445Y448166D01*
Y449416D01*
X112758Y450041D01*
X113070Y450354D01*
X113695Y450666D01*
X114320D01*
X114945Y450354D01*
X115258Y450041D01*
X115570Y449416D01*
X117437Y123308D02*
Y124558D01*
X117750Y125183D01*
X118063Y125496D01*
X118687Y125808D01*
X119313D01*
X119937Y125496D01*
X120250Y125183D01*
X120563Y124558D01*
Y123308D01*
X120250Y122683D01*
X119937Y122371D01*
X119313Y122058D01*
X118687D01*
X118063Y122371D01*
X117750Y122683D01*
X117437Y123308D01*
Y133308D02*
Y134558D01*
X117750Y135183D01*
X118063Y135496D01*
X118687Y135808D01*
X119313D01*
X119937Y135496D01*
X120250Y135183D01*
X120563Y134558D01*
Y133308D01*
X120250Y132683D01*
X119937Y132371D01*
X119313Y132058D01*
X118687D01*
X118063Y132371D01*
X117750Y132683D01*
X117437Y133308D01*
Y143308D02*
Y144558D01*
X117750Y145183D01*
X118063Y145496D01*
X118687Y145808D01*
X119313D01*
X119937Y145496D01*
X120250Y145183D01*
X120563Y144558D01*
Y143308D01*
X120250Y142683D01*
X119937Y142371D01*
X119313Y142058D01*
X118687D01*
X118063Y142371D01*
X117750Y142683D01*
X117437Y143308D01*
Y153308D02*
Y154558D01*
X117750Y155183D01*
X118063Y155496D01*
X118687Y155808D01*
X119313D01*
X119937Y155496D01*
X120250Y155183D01*
X120563Y154558D01*
Y153308D01*
X120250Y152683D01*
X119937Y152371D01*
X119313Y152058D01*
X118687D01*
X118063Y152371D01*
X117750Y152683D01*
X117437Y153308D01*
Y163308D02*
Y164558D01*
X117750Y165183D01*
X118063Y165496D01*
X118687Y165808D01*
X119313D01*
X119937Y165496D01*
X120250Y165183D01*
X120563Y164558D01*
Y163308D01*
X120250Y162683D01*
X119937Y162371D01*
X119313Y162058D01*
X118687D01*
X118063Y162371D01*
X117750Y162683D01*
X117437Y163308D01*
Y173308D02*
Y174558D01*
X117750Y175183D01*
X118063Y175496D01*
X118687Y175808D01*
X119313D01*
X119937Y175496D01*
X120250Y175183D01*
X120563Y174558D01*
Y173308D01*
X120250Y172683D01*
X119937Y172371D01*
X119313Y172058D01*
X118687D01*
X118063Y172371D01*
X117750Y172683D01*
X117437Y173308D01*
Y183308D02*
Y184558D01*
X117750Y185183D01*
X118063Y185496D01*
X118687Y185808D01*
X119313D01*
X119937Y185496D01*
X120250Y185183D01*
X120563Y184558D01*
Y183308D01*
X120250Y182683D01*
X119937Y182371D01*
X119313Y182058D01*
X118687D01*
X118063Y182371D01*
X117750Y182683D01*
X117437Y183308D01*
Y193308D02*
Y194558D01*
X117750Y195183D01*
X118063Y195496D01*
X118687Y195808D01*
X119313D01*
X119937Y195496D01*
X120250Y195183D01*
X120563Y194558D01*
Y193308D01*
X120250Y192683D01*
X119937Y192371D01*
X119313Y192058D01*
X118687D01*
X118063Y192371D01*
X117750Y192683D01*
X117437Y193308D01*
Y203308D02*
Y204558D01*
X117750Y205183D01*
X118063Y205496D01*
X118687Y205808D01*
X119313D01*
X119937Y205496D01*
X120250Y205183D01*
X120563Y204558D01*
Y203308D01*
X120250Y202683D01*
X119937Y202371D01*
X119313Y202058D01*
X118687D01*
X118063Y202371D01*
X117750Y202683D01*
X117437Y203308D01*
X117445Y252994D02*
Y254244D01*
X117758Y254870D01*
X118070Y255182D01*
X118695Y255494D01*
X119320D01*
X119945Y255182D01*
X120258Y254870D01*
X120570Y254244D01*
Y252994D01*
X120258Y252370D01*
X119945Y252057D01*
X119320Y251744D01*
X118695D01*
X118070Y252057D01*
X117758Y252370D01*
X117445Y252994D01*
Y282994D02*
Y284244D01*
X117758Y284870D01*
X118070Y285182D01*
X118695Y285494D01*
X119320D01*
X119945Y285182D01*
X120258Y284870D01*
X120570Y284244D01*
Y282994D01*
X120258Y282370D01*
X119945Y282057D01*
X119320Y281744D01*
X118695D01*
X118070Y282057D01*
X117758Y282370D01*
X117445Y282994D01*
X117469Y343196D02*
Y344446D01*
X117781Y345071D01*
X118094Y345383D01*
X118719Y345696D01*
X119344D01*
X119969Y345383D01*
X120281Y345071D01*
X120594Y344446D01*
Y343196D01*
X120281Y342571D01*
X119969Y342258D01*
X119344Y341946D01*
X118719D01*
X118094Y342258D01*
X117781Y342571D01*
X117469Y343196D01*
Y353196D02*
Y354446D01*
X117781Y355071D01*
X118094Y355383D01*
X118719Y355696D01*
X119344D01*
X119969Y355383D01*
X120281Y355071D01*
X120594Y354446D01*
Y353196D01*
X120281Y352571D01*
X119969Y352258D01*
X119344Y351946D01*
X118719D01*
X118094Y352258D01*
X117781Y352571D01*
X117469Y353196D01*
Y363196D02*
Y364446D01*
X117781Y365071D01*
X118094Y365383D01*
X118719Y365696D01*
X119344D01*
X119969Y365383D01*
X120281Y365071D01*
X120594Y364446D01*
Y363196D01*
X120281Y362571D01*
X119969Y362258D01*
X119344Y361946D01*
X118719D01*
X118094Y362258D01*
X117781Y362571D01*
X117469Y363196D01*
Y373196D02*
Y374446D01*
X117781Y375071D01*
X118094Y375383D01*
X118719Y375696D01*
X119344D01*
X119969Y375383D01*
X120281Y375071D01*
X120594Y374446D01*
Y373196D01*
X120281Y372571D01*
X119969Y372258D01*
X119344Y371946D01*
X118719D01*
X118094Y372258D01*
X117781Y372571D01*
X117469Y373196D01*
Y383196D02*
Y384446D01*
X117781Y385071D01*
X118094Y385383D01*
X118719Y385696D01*
X119344D01*
X119969Y385383D01*
X120281Y385071D01*
X120594Y384446D01*
Y383196D01*
X120281Y382571D01*
X119969Y382258D01*
X119344Y381946D01*
X118719D01*
X118094Y382258D01*
X117781Y382571D01*
X117469Y383196D01*
Y393196D02*
Y394446D01*
X117781Y395071D01*
X118094Y395383D01*
X118719Y395696D01*
X119344D01*
X119969Y395383D01*
X120281Y395071D01*
X120594Y394446D01*
Y393196D01*
X120281Y392571D01*
X119969Y392258D01*
X119344Y391946D01*
X118719D01*
X118094Y392258D01*
X117781Y392571D01*
X117469Y393196D01*
X117485Y213276D02*
Y214526D01*
X117797Y215151D01*
X118110Y215463D01*
X118735Y215776D01*
X119360D01*
X119985Y215463D01*
X120297Y215151D01*
X120610Y214526D01*
Y213276D01*
X120297Y212651D01*
X119985Y212338D01*
X119360Y212026D01*
X118735D01*
X118110Y212338D01*
X117797Y212651D01*
X117485Y213276D01*
Y223260D02*
Y224510D01*
X117797Y225135D01*
X118110Y225448D01*
X118735Y225760D01*
X119360D01*
X119985Y225448D01*
X120297Y225135D01*
X120610Y224510D01*
Y223260D01*
X120297Y222635D01*
X119985Y222322D01*
X119360Y222010D01*
X118735D01*
X118110Y222322D01*
X117797Y222635D01*
X117485Y223260D01*
Y232994D02*
Y234244D01*
X117797Y234870D01*
X118110Y235182D01*
X118735Y235494D01*
X119360D01*
X119985Y235182D01*
X120297Y234870D01*
X120610Y234244D01*
Y232994D01*
X120297Y232370D01*
X119985Y232057D01*
X119360Y231744D01*
X118735D01*
X118110Y232057D01*
X117797Y232370D01*
X117485Y232994D01*
Y242994D02*
Y244244D01*
X117797Y244870D01*
X118110Y245182D01*
X118735Y245494D01*
X119360D01*
X119985Y245182D01*
X120297Y244870D01*
X120610Y244244D01*
Y242994D01*
X120297Y242370D01*
X119985Y242057D01*
X119360Y241744D01*
X118735D01*
X118110Y242057D01*
X117797Y242370D01*
X117485Y242994D01*
Y262994D02*
Y264244D01*
X117797Y264870D01*
X118110Y265182D01*
X118735Y265494D01*
X119360D01*
X119985Y265182D01*
X120297Y264870D01*
X120610Y264244D01*
Y262994D01*
X120297Y262370D01*
X119985Y262057D01*
X119360Y261744D01*
X118735D01*
X118110Y262057D01*
X117797Y262370D01*
X117485Y262994D01*
Y272994D02*
Y274244D01*
X117797Y274870D01*
X118110Y275182D01*
X118735Y275494D01*
X119360D01*
X119985Y275182D01*
X120297Y274870D01*
X120610Y274244D01*
Y272994D01*
X120297Y272370D01*
X119985Y272057D01*
X119360Y271744D01*
X118735D01*
X118110Y272057D01*
X117797Y272370D01*
X117485Y272994D01*
Y292994D02*
Y294244D01*
X117797Y294870D01*
X118110Y295182D01*
X118735Y295494D01*
X119360D01*
X119985Y295182D01*
X120297Y294870D01*
X120610Y294244D01*
Y292994D01*
X120297Y292370D01*
X119985Y292057D01*
X119360Y291744D01*
X118735D01*
X118110Y292057D01*
X117797Y292370D01*
X117485Y292994D01*
X122012Y318269D02*
Y319519D01*
X122325Y320144D01*
X122637Y320457D01*
X123262Y320769D01*
X123887D01*
X124512Y320457D01*
X124825Y320144D01*
X125137Y319519D01*
Y318269D01*
X124825Y317644D01*
X124512Y317332D01*
X123887Y317019D01*
X123262D01*
X122637Y317332D01*
X122325Y317644D01*
X122012Y318269D01*
X124200Y317957D02*
X125137Y317019D01*
X122035Y418269D02*
Y419519D01*
X122347Y420144D01*
X122660Y420457D01*
X123285Y420769D01*
X123910D01*
X124535Y420457D01*
X124847Y420144D01*
X125160Y419519D01*
Y418269D01*
X124847Y417644D01*
X124535Y417332D01*
X123910Y417019D01*
X123285D01*
X122660Y417332D01*
X122347Y417644D01*
X122035Y418269D01*
X124222Y417957D02*
X125160Y417019D01*
X127437Y133308D02*
Y134558D01*
X127750Y135183D01*
X128063Y135496D01*
X128687Y135808D01*
X129313D01*
X129937Y135496D01*
X130250Y135183D01*
X130563Y134558D01*
Y133308D01*
X130250Y132683D01*
X129937Y132371D01*
X129313Y132058D01*
X128687D01*
X128063Y132371D01*
X127750Y132683D01*
X127437Y133308D01*
Y143308D02*
Y144558D01*
X127750Y145183D01*
X128063Y145496D01*
X128687Y145808D01*
X129313D01*
X129937Y145496D01*
X130250Y145183D01*
X130563Y144558D01*
Y143308D01*
X130250Y142683D01*
X129937Y142371D01*
X129313Y142058D01*
X128687D01*
X128063Y142371D01*
X127750Y142683D01*
X127437Y143308D01*
Y153308D02*
Y154558D01*
X127750Y155183D01*
X128063Y155496D01*
X128687Y155808D01*
X129313D01*
X129937Y155496D01*
X130250Y155183D01*
X130563Y154558D01*
Y153308D01*
X130250Y152683D01*
X129937Y152371D01*
X129313Y152058D01*
X128687D01*
X128063Y152371D01*
X127750Y152683D01*
X127437Y153308D01*
Y163308D02*
Y164558D01*
X127750Y165183D01*
X128063Y165496D01*
X128687Y165808D01*
X129313D01*
X129937Y165496D01*
X130250Y165183D01*
X130563Y164558D01*
Y163308D01*
X130250Y162683D01*
X129937Y162371D01*
X129313Y162058D01*
X128687D01*
X128063Y162371D01*
X127750Y162683D01*
X127437Y163308D01*
Y173308D02*
Y174558D01*
X127750Y175183D01*
X128063Y175496D01*
X128687Y175808D01*
X129313D01*
X129937Y175496D01*
X130250Y175183D01*
X130563Y174558D01*
Y173308D01*
X130250Y172683D01*
X129937Y172371D01*
X129313Y172058D01*
X128687D01*
X128063Y172371D01*
X127750Y172683D01*
X127437Y173308D01*
Y183308D02*
Y184558D01*
X127750Y185183D01*
X128063Y185496D01*
X128687Y185808D01*
X129313D01*
X129937Y185496D01*
X130250Y185183D01*
X130563Y184558D01*
Y183308D01*
X130250Y182683D01*
X129937Y182371D01*
X129313Y182058D01*
X128687D01*
X128063Y182371D01*
X127750Y182683D01*
X127437Y183308D01*
Y193308D02*
Y194558D01*
X127750Y195183D01*
X128063Y195496D01*
X128687Y195808D01*
X129313D01*
X129937Y195496D01*
X130250Y195183D01*
X130563Y194558D01*
Y193308D01*
X130250Y192683D01*
X129937Y192371D01*
X129313Y192058D01*
X128687D01*
X128063Y192371D01*
X127750Y192683D01*
X127437Y193308D01*
Y203308D02*
Y204558D01*
X127750Y205183D01*
X128063Y205496D01*
X128687Y205808D01*
X129313D01*
X129937Y205496D01*
X130250Y205183D01*
X130563Y204558D01*
Y203308D01*
X130250Y202683D01*
X129937Y202371D01*
X129313Y202058D01*
X128687D01*
X128063Y202371D01*
X127750Y202683D01*
X127437Y203308D01*
X129633Y73582D02*
X130570D01*
Y73269D01*
X130258Y72644D01*
X129945Y72332D01*
X129320Y72019D01*
X128695D01*
X128070Y72332D01*
X127758Y72644D01*
X127445Y73269D01*
Y74519D01*
X127758Y75144D01*
X128070Y75457D01*
X128695Y75769D01*
X129320D01*
X129945Y75457D01*
X130258Y75144D01*
X130570Y74519D01*
X129633Y98582D02*
X130570D01*
Y98269D01*
X130258Y97644D01*
X129945Y97332D01*
X129320Y97019D01*
X128695D01*
X128070Y97332D01*
X127758Y97644D01*
X127445Y98269D01*
Y99519D01*
X127758Y100144D01*
X128070Y100457D01*
X128695Y100769D01*
X129320D01*
X129945Y100457D01*
X130258Y100144D01*
X130570Y99519D01*
X127445Y123308D02*
Y124558D01*
X127758Y125183D01*
X128070Y125496D01*
X128695Y125808D01*
X129320D01*
X129945Y125496D01*
X130258Y125183D01*
X130570Y124558D01*
Y123308D01*
X130258Y122683D01*
X129945Y122371D01*
X129320Y122058D01*
X128695D01*
X128070Y122371D01*
X127758Y122683D01*
X127445Y123308D01*
X127453Y213525D02*
Y214775D01*
X127766Y215400D01*
X128078Y215713D01*
X128703Y216025D01*
X129328D01*
X129953Y215713D01*
X130266Y215400D01*
X130578Y214775D01*
Y213525D01*
X130266Y212900D01*
X129953Y212588D01*
X129328Y212275D01*
X128703D01*
X128078Y212588D01*
X127766Y212900D01*
X127453Y213525D01*
Y223509D02*
Y224759D01*
X127766Y225385D01*
X128078Y225697D01*
X128703Y226009D01*
X129328D01*
X129953Y225697D01*
X130266Y225385D01*
X130578Y224759D01*
Y223509D01*
X130266Y222885D01*
X129953Y222572D01*
X129328Y222259D01*
X128703D01*
X128078Y222572D01*
X127766Y222885D01*
X127453Y223509D01*
Y233244D02*
Y234494D01*
X127766Y235119D01*
X128078Y235432D01*
X128703Y235744D01*
X129328D01*
X129953Y235432D01*
X130266Y235119D01*
X130578Y234494D01*
Y233244D01*
X130266Y232619D01*
X129953Y232307D01*
X129328Y231994D01*
X128703D01*
X128078Y232307D01*
X127766Y232619D01*
X127453Y233244D01*
Y243244D02*
Y244494D01*
X127766Y245119D01*
X128078Y245432D01*
X128703Y245744D01*
X129328D01*
X129953Y245432D01*
X130266Y245119D01*
X130578Y244494D01*
Y243244D01*
X130266Y242619D01*
X129953Y242307D01*
X129328Y241994D01*
X128703D01*
X128078Y242307D01*
X127766Y242619D01*
X127453Y243244D01*
Y253244D02*
Y254494D01*
X127766Y255119D01*
X128078Y255432D01*
X128703Y255744D01*
X129328D01*
X129953Y255432D01*
X130266Y255119D01*
X130578Y254494D01*
Y253244D01*
X130266Y252619D01*
X129953Y252307D01*
X129328Y251994D01*
X128703D01*
X128078Y252307D01*
X127766Y252619D01*
X127453Y253244D01*
Y263244D02*
Y264494D01*
X127766Y265119D01*
X128078Y265432D01*
X128703Y265744D01*
X129328D01*
X129953Y265432D01*
X130266Y265119D01*
X130578Y264494D01*
Y263244D01*
X130266Y262619D01*
X129953Y262307D01*
X129328Y261994D01*
X128703D01*
X128078Y262307D01*
X127766Y262619D01*
X127453Y263244D01*
Y273244D02*
Y274494D01*
X127766Y275119D01*
X128078Y275432D01*
X128703Y275744D01*
X129328D01*
X129953Y275432D01*
X130266Y275119D01*
X130578Y274494D01*
Y273244D01*
X130266Y272619D01*
X129953Y272307D01*
X129328Y271994D01*
X128703D01*
X128078Y272307D01*
X127766Y272619D01*
X127453Y273244D01*
Y283244D02*
Y284494D01*
X127766Y285119D01*
X128078Y285432D01*
X128703Y285744D01*
X129328D01*
X129953Y285432D01*
X130266Y285119D01*
X130578Y284494D01*
Y283244D01*
X130266Y282619D01*
X129953Y282307D01*
X129328Y281994D01*
X128703D01*
X128078Y282307D01*
X127766Y282619D01*
X127453Y283244D01*
Y293244D02*
Y294494D01*
X127766Y295119D01*
X128078Y295432D01*
X128703Y295744D01*
X129328D01*
X129953Y295432D01*
X130266Y295119D01*
X130578Y294494D01*
Y293244D01*
X130266Y292619D01*
X129953Y292307D01*
X129328Y291994D01*
X128703D01*
X128078Y292307D01*
X127766Y292619D01*
X127453Y293244D01*
X127469Y343196D02*
Y344446D01*
X127781Y345071D01*
X128094Y345383D01*
X128719Y345696D01*
X129344D01*
X129969Y345383D01*
X130281Y345071D01*
X130594Y344446D01*
Y343196D01*
X130281Y342571D01*
X129969Y342258D01*
X129344Y341946D01*
X128719D01*
X128094Y342258D01*
X127781Y342571D01*
X127469Y343196D01*
Y353196D02*
Y354446D01*
X127781Y355071D01*
X128094Y355383D01*
X128719Y355696D01*
X129344D01*
X129969Y355383D01*
X130281Y355071D01*
X130594Y354446D01*
Y353196D01*
X130281Y352571D01*
X129969Y352258D01*
X129344Y351946D01*
X128719D01*
X128094Y352258D01*
X127781Y352571D01*
X127469Y353196D01*
Y363196D02*
Y364446D01*
X127781Y365071D01*
X128094Y365383D01*
X128719Y365696D01*
X129344D01*
X129969Y365383D01*
X130281Y365071D01*
X130594Y364446D01*
Y363196D01*
X130281Y362571D01*
X129969Y362258D01*
X129344Y361946D01*
X128719D01*
X128094Y362258D01*
X127781Y362571D01*
X127469Y363196D01*
Y373196D02*
Y374446D01*
X127781Y375071D01*
X128094Y375383D01*
X128719Y375696D01*
X129344D01*
X129969Y375383D01*
X130281Y375071D01*
X130594Y374446D01*
Y373196D01*
X130281Y372571D01*
X129969Y372258D01*
X129344Y371946D01*
X128719D01*
X128094Y372258D01*
X127781Y372571D01*
X127469Y373196D01*
Y383196D02*
Y384446D01*
X127781Y385071D01*
X128094Y385383D01*
X128719Y385696D01*
X129344D01*
X129969Y385383D01*
X130281Y385071D01*
X130594Y384446D01*
Y383196D01*
X130281Y382571D01*
X129969Y382258D01*
X129344Y381946D01*
X128719D01*
X128094Y382258D01*
X127781Y382571D01*
X127469Y383196D01*
Y393196D02*
Y394446D01*
X127781Y395071D01*
X128094Y395383D01*
X128719Y395696D01*
X129344D01*
X129969Y395383D01*
X130281Y395071D01*
X130594Y394446D01*
Y393196D01*
X130281Y392571D01*
X129969Y392258D01*
X129344Y391946D01*
X128719D01*
X128094Y392258D01*
X127781Y392571D01*
X127469Y393196D01*
X137959Y303583D02*
X138897D01*
Y303270D01*
X138585Y302645D01*
X138272Y302333D01*
X137647Y302020D01*
X137022D01*
X136397Y302333D01*
X136085Y302645D01*
X135772Y303270D01*
Y304520D01*
X136085Y305145D01*
X136397Y305458D01*
X137022Y305770D01*
X137647D01*
X138272Y305458D01*
X138585Y305145D01*
X138897Y304520D01*
X137959Y333583D02*
X138897D01*
Y333270D01*
X138585Y332645D01*
X138272Y332333D01*
X137647Y332020D01*
X137022D01*
X136397Y332333D01*
X136085Y332645D01*
X135772Y333270D01*
Y334520D01*
X136085Y335145D01*
X136397Y335458D01*
X137022Y335770D01*
X137647D01*
X138272Y335458D01*
X138585Y335145D01*
X138897Y334520D01*
X137959Y348583D02*
X138897D01*
Y348270D01*
X138585Y347645D01*
X138272Y347333D01*
X137647Y347020D01*
X137022D01*
X136397Y347333D01*
X136085Y347645D01*
X135772Y348270D01*
Y349520D01*
X136085Y350145D01*
X136397Y350458D01*
X137022Y350770D01*
X137647D01*
X138272Y350458D01*
X138585Y350145D01*
X138897Y349520D01*
X137959Y388583D02*
X138897D01*
Y388270D01*
X138585Y387645D01*
X138272Y387333D01*
X137647Y387020D01*
X137022D01*
X136397Y387333D01*
X136085Y387645D01*
X135772Y388270D01*
Y389520D01*
X136085Y390145D01*
X136397Y390458D01*
X137022Y390770D01*
X137647D01*
X138272Y390458D01*
X138585Y390145D01*
X138897Y389520D01*
X137445Y123269D02*
Y124519D01*
X137758Y125144D01*
X138070Y125457D01*
X138695Y125769D01*
X139320D01*
X139945Y125457D01*
X140258Y125144D01*
X140570Y124519D01*
Y123269D01*
X140258Y122644D01*
X139945Y122332D01*
X139320Y122019D01*
X138695D01*
X138070Y122332D01*
X137758Y122644D01*
X137445Y123269D01*
Y133308D02*
Y134558D01*
X137758Y135183D01*
X138070Y135496D01*
X138695Y135808D01*
X139320D01*
X139945Y135496D01*
X140258Y135183D01*
X140570Y134558D01*
Y133308D01*
X140258Y132683D01*
X139945Y132371D01*
X139320Y132058D01*
X138695D01*
X138070Y132371D01*
X137758Y132683D01*
X137445Y133308D01*
Y143269D02*
Y144519D01*
X137758Y145144D01*
X138070Y145457D01*
X138695Y145769D01*
X139320D01*
X139945Y145457D01*
X140258Y145144D01*
X140570Y144519D01*
Y143269D01*
X140258Y142644D01*
X139945Y142332D01*
X139320Y142019D01*
X138695D01*
X138070Y142332D01*
X137758Y142644D01*
X137445Y143269D01*
Y153269D02*
Y154519D01*
X137758Y155144D01*
X138070Y155457D01*
X138695Y155769D01*
X139320D01*
X139945Y155457D01*
X140258Y155144D01*
X140570Y154519D01*
Y153269D01*
X140258Y152644D01*
X139945Y152332D01*
X139320Y152019D01*
X138695D01*
X138070Y152332D01*
X137758Y152644D01*
X137445Y153269D01*
Y163269D02*
Y164519D01*
X137758Y165144D01*
X138070Y165457D01*
X138695Y165769D01*
X139320D01*
X139945Y165457D01*
X140258Y165144D01*
X140570Y164519D01*
Y163269D01*
X140258Y162644D01*
X139945Y162332D01*
X139320Y162019D01*
X138695D01*
X138070Y162332D01*
X137758Y162644D01*
X137445Y163269D01*
Y213269D02*
Y214519D01*
X137758Y215144D01*
X138070Y215457D01*
X138695Y215769D01*
X139320D01*
X139945Y215457D01*
X140258Y215144D01*
X140570Y214519D01*
Y213269D01*
X140258Y212644D01*
X139945Y212332D01*
X139320Y212019D01*
X138695D01*
X138070Y212332D01*
X137758Y212644D01*
X137445Y213269D01*
Y263269D02*
Y264519D01*
X137758Y265144D01*
X138070Y265457D01*
X138695Y265769D01*
X139320D01*
X139945Y265457D01*
X140258Y265144D01*
X140570Y264519D01*
Y263269D01*
X140258Y262644D01*
X139945Y262332D01*
X139320Y262019D01*
X138695D01*
X138070Y262332D01*
X137758Y262644D01*
X137445Y263269D01*
X142959Y403583D02*
X143897D01*
Y403270D01*
X143585Y402645D01*
X143272Y402333D01*
X142647Y402020D01*
X142022D01*
X141397Y402333D01*
X141085Y402645D01*
X140772Y403270D01*
Y404520D01*
X141085Y405145D01*
X141397Y405458D01*
X142022Y405770D01*
X142647D01*
X143272Y405458D01*
X143585Y405145D01*
X143897Y404520D01*
X142959Y433583D02*
X143897D01*
Y433270D01*
X143585Y432645D01*
X143272Y432333D01*
X142647Y432020D01*
X142022D01*
X141397Y432333D01*
X141085Y432645D01*
X140772Y433270D01*
Y434520D01*
X141085Y435145D01*
X141397Y435458D01*
X142022Y435770D01*
X142647D01*
X143272Y435458D01*
X143585Y435145D01*
X143897Y434520D01*
X143236Y73582D02*
X144174D01*
Y73269D01*
X143861Y72644D01*
X143549Y72332D01*
X142924Y72019D01*
X142299D01*
X141674Y72332D01*
X141361Y72644D01*
X141049Y73269D01*
Y74519D01*
X141361Y75144D01*
X141674Y75457D01*
X142299Y75769D01*
X142924D01*
X143549Y75457D01*
X143861Y75144D01*
X144174Y74519D01*
X143236Y98582D02*
X144174D01*
Y98269D01*
X143861Y97644D01*
X143549Y97332D01*
X142924Y97019D01*
X142299D01*
X141674Y97332D01*
X141361Y97644D01*
X141049Y98269D01*
Y99519D01*
X141361Y100144D01*
X141674Y100457D01*
X142299Y100769D01*
X142924D01*
X143549Y100457D01*
X143861Y100144D01*
X144174Y99519D01*
X145772Y271844D02*
Y275594D01*
Y273719D02*
X146709D01*
X148897Y275594D01*
X146709Y273719D02*
X148897Y271844D01*
X145772Y281844D02*
Y285594D01*
Y283719D02*
X146709D01*
X148897Y285594D01*
X146709Y283719D02*
X148897Y281844D01*
X145772Y372061D02*
Y375811D01*
Y373936D02*
X146709D01*
X148897Y375811D01*
X146709Y373936D02*
X148897Y372061D01*
X145772Y382061D02*
Y385811D01*
Y383936D02*
X146709D01*
X148897Y385811D01*
X146709Y383936D02*
X148897Y382061D01*
X158897Y307644D02*
X158585Y307332D01*
X157959Y307019D01*
X157022D01*
X156397Y307332D01*
X156085Y307644D01*
X155772Y308269D01*
Y309519D01*
X156085Y310144D01*
X156397Y310457D01*
X157022Y310769D01*
X157959D01*
X158585Y310457D01*
X158897Y310144D01*
Y327644D02*
X158585Y327332D01*
X157959Y327019D01*
X157022D01*
X156397Y327332D01*
X156085Y327644D01*
X155772Y328269D01*
Y329519D01*
X156085Y330144D01*
X156397Y330457D01*
X157022Y330769D01*
X157959D01*
X158585Y330457D01*
X158897Y330144D01*
X158920Y407644D02*
X158607Y407332D01*
X157982Y407019D01*
X157044D01*
X156420Y407332D01*
X156107Y407644D01*
X155794Y408269D01*
Y409519D01*
X156107Y410144D01*
X156420Y410457D01*
X157044Y410769D01*
X157982D01*
X158607Y410457D01*
X158920Y410144D01*
Y427644D02*
X158607Y427332D01*
X157982Y427019D01*
X157044D01*
X156420Y427332D01*
X156107Y427644D01*
X155794Y428269D01*
Y429519D01*
X156107Y430144D01*
X156420Y430457D01*
X157044Y430769D01*
X157982D01*
X158607Y430457D01*
X158920Y430144D01*
X156195Y132020D02*
Y135770D01*
X157758Y133895D01*
X159320Y135770D01*
Y132020D01*
X164633Y456965D02*
X165570D01*
Y456653D01*
X165258Y456028D01*
X164945Y455715D01*
X164320Y455403D01*
X163695D01*
X163070Y455715D01*
X162758Y456028D01*
X162445Y456653D01*
Y457903D01*
X162758Y458528D01*
X163070Y458841D01*
X163695Y459153D01*
X164320D01*
X164945Y458841D01*
X165258Y458528D01*
X165570Y457903D01*
X165437Y95996D02*
Y99746D01*
Y97872D02*
X168563D01*
Y95996D02*
Y99746D01*
X168897Y307644D02*
X168585Y307332D01*
X167959Y307019D01*
X167022D01*
X166397Y307332D01*
X166085Y307644D01*
X165772Y308269D01*
Y309519D01*
X166085Y310144D01*
X166397Y310457D01*
X167022Y310769D01*
X167959D01*
X168585Y310457D01*
X168897Y310144D01*
Y327644D02*
X168585Y327332D01*
X167959Y327019D01*
X167022D01*
X166397Y327332D01*
X166085Y327644D01*
X165772Y328269D01*
Y329519D01*
X166085Y330144D01*
X166397Y330457D01*
X167022Y330769D01*
X167959D01*
X168585Y330457D01*
X168897Y330144D01*
X168920Y407644D02*
X168607Y407332D01*
X167982Y407019D01*
X167044D01*
X166420Y407332D01*
X166107Y407644D01*
X165794Y408269D01*
Y409519D01*
X166107Y410144D01*
X166420Y410457D01*
X167044Y410769D01*
X167982D01*
X168607Y410457D01*
X168920Y410144D01*
Y427644D02*
X168607Y427332D01*
X167982Y427019D01*
X167044D01*
X166420Y427332D01*
X166107Y427644D01*
X165794Y428269D01*
Y429519D01*
X166107Y430144D01*
X166420Y430457D01*
X167044Y430769D01*
X167982D01*
X168607Y430457D01*
X168920Y430144D01*
X165907Y142019D02*
Y145769D01*
X167470Y143894D01*
X169032Y145769D01*
Y142019D01*
X166264Y116282D02*
Y112532D01*
X169389D01*
X173695Y152019D02*
Y155769D01*
X175258Y153894D01*
X176820Y155769D01*
Y152019D01*
X178897Y307644D02*
X178585Y307332D01*
X177959Y307019D01*
X177022D01*
X176397Y307332D01*
X176085Y307644D01*
X175772Y308269D01*
Y309519D01*
X176085Y310144D01*
X176397Y310457D01*
X177022Y310769D01*
X177959D01*
X178585Y310457D01*
X178897Y310144D01*
Y327644D02*
X178585Y327332D01*
X177959Y327019D01*
X177022D01*
X176397Y327332D01*
X176085Y327644D01*
X175772Y328269D01*
Y329519D01*
X176085Y330144D01*
X176397Y330457D01*
X177022Y330769D01*
X177959D01*
X178585Y330457D01*
X178897Y330144D01*
X178920Y407644D02*
X178607Y407332D01*
X177982Y407019D01*
X177044D01*
X176420Y407332D01*
X176107Y407644D01*
X175794Y408269D01*
Y409519D01*
X176107Y410144D01*
X176420Y410457D01*
X177044Y410769D01*
X177982D01*
X178607Y410457D01*
X178920Y410144D01*
Y427644D02*
X178607Y427332D01*
X177982Y427019D01*
X177044D01*
X176420Y427332D01*
X176107Y427644D01*
X175794Y428269D01*
Y429519D01*
X176107Y430144D01*
X176420Y430457D01*
X177044Y430769D01*
X177982D01*
X178607Y430457D01*
X178920Y430144D01*
X187133Y168582D02*
X188070D01*
Y168269D01*
X187758Y167644D01*
X187445Y167332D01*
X186820Y167019D01*
X186195D01*
X185570Y167332D01*
X185258Y167644D01*
X184945Y168269D01*
Y169519D01*
X185258Y170144D01*
X185570Y170457D01*
X186195Y170769D01*
X186820D01*
X187445Y170457D01*
X187758Y170144D01*
X188070Y169519D01*
X187133Y173582D02*
X188070D01*
Y173269D01*
X187758Y172644D01*
X187445Y172332D01*
X186820Y172019D01*
X186195D01*
X185570Y172332D01*
X185258Y172644D01*
X184945Y173269D01*
Y174519D01*
X185258Y175144D01*
X185570Y175457D01*
X186195Y175769D01*
X186820D01*
X187445Y175457D01*
X187758Y175144D01*
X188070Y174519D01*
X188897Y307644D02*
X188585Y307332D01*
X187959Y307019D01*
X187022D01*
X186397Y307332D01*
X186085Y307644D01*
X185772Y308269D01*
Y309519D01*
X186085Y310144D01*
X186397Y310457D01*
X187022Y310769D01*
X187959D01*
X188585Y310457D01*
X188897Y310144D01*
Y327644D02*
X188585Y327332D01*
X187959Y327019D01*
X187022D01*
X186397Y327332D01*
X186085Y327644D01*
X185772Y328269D01*
Y329519D01*
X186085Y330144D01*
X186397Y330457D01*
X187022Y330769D01*
X187959D01*
X188585Y330457D01*
X188897Y330144D01*
X188920Y407644D02*
X188607Y407332D01*
X187982Y407019D01*
X187044D01*
X186420Y407332D01*
X186107Y407644D01*
X185794Y408269D01*
Y409519D01*
X186107Y410144D01*
X186420Y410457D01*
X187044Y410769D01*
X187982D01*
X188607Y410457D01*
X188920Y410144D01*
Y427644D02*
X188607Y427332D01*
X187982Y427019D01*
X187044D01*
X186420Y427332D01*
X186107Y427644D01*
X185794Y428269D01*
Y429519D01*
X186107Y430144D01*
X186420Y430457D01*
X187044Y430769D01*
X187982D01*
X188607Y430457D01*
X188920Y430144D01*
X186000Y65435D02*
Y69185D01*
X187563Y67310D01*
X189126Y69185D01*
Y65435D01*
X189633Y84832D02*
X190570D01*
Y84519D01*
X190258Y83894D01*
X189945Y83582D01*
X189320Y83269D01*
X188695D01*
X188070Y83582D01*
X187758Y83894D01*
X187445Y84519D01*
Y85769D01*
X187758Y86394D01*
X188070Y86707D01*
X188695Y87019D01*
X189320D01*
X189945Y86707D01*
X190258Y86394D01*
X190570Y85769D01*
X192959Y338583D02*
X193897D01*
Y338270D01*
X193585Y337645D01*
X193272Y337333D01*
X192647Y337020D01*
X192022D01*
X191397Y337333D01*
X191085Y337645D01*
X190772Y338270D01*
Y339520D01*
X191085Y340145D01*
X191397Y340458D01*
X192022Y340770D01*
X192647D01*
X193272Y340458D01*
X193585Y340145D01*
X193897Y339520D01*
X192445Y89519D02*
Y93269D01*
X194008Y91394D01*
X195570Y93269D01*
Y89519D01*
X194633Y113582D02*
X195570D01*
Y113269D01*
X195258Y112644D01*
X194945Y112332D01*
X194320Y112019D01*
X193695D01*
X193070Y112332D01*
X192758Y112644D01*
X192445Y113269D01*
Y114519D01*
X192758Y115144D01*
X193070Y115457D01*
X193695Y115769D01*
X194320D01*
X194945Y115457D01*
X195258Y115144D01*
X195570Y114519D01*
X196709Y153582D02*
X197647D01*
Y153269D01*
X197335Y152644D01*
X197022Y152332D01*
X196397Y152019D01*
X195772D01*
X195147Y152332D01*
X194835Y152644D01*
X194522Y153269D01*
Y154519D01*
X194835Y155144D01*
X195147Y155457D01*
X195772Y155769D01*
X196397D01*
X197022Y155457D01*
X197335Y155144D01*
X197647Y154519D01*
X196709Y208583D02*
X197647D01*
Y208270D01*
X197335Y207645D01*
X197022Y207333D01*
X196397Y207020D01*
X195772D01*
X195147Y207333D01*
X194835Y207645D01*
X194522Y208270D01*
Y209520D01*
X194835Y210145D01*
X195147Y210458D01*
X195772Y210770D01*
X196397D01*
X197022Y210458D01*
X197335Y210145D01*
X197647Y209520D01*
X196709Y253582D02*
X197647D01*
Y253269D01*
X197335Y252644D01*
X197022Y252332D01*
X196397Y252019D01*
X195772D01*
X195147Y252332D01*
X194835Y252644D01*
X194522Y253269D01*
Y254519D01*
X194835Y255144D01*
X195147Y255457D01*
X195772Y255769D01*
X196397D01*
X197022Y255457D01*
X197335Y255144D01*
X197647Y254519D01*
X196709Y288583D02*
X197647D01*
Y288270D01*
X197335Y287645D01*
X197022Y287333D01*
X196397Y287020D01*
X195772D01*
X195147Y287333D01*
X194835Y287645D01*
X194522Y288270D01*
Y289520D01*
X194835Y290145D01*
X195147Y290458D01*
X195772Y290770D01*
X196397D01*
X197022Y290458D01*
X197335Y290145D01*
X197647Y289520D01*
X198897Y307644D02*
X198585Y307332D01*
X197959Y307019D01*
X197022D01*
X196397Y307332D01*
X196085Y307644D01*
X195772Y308269D01*
Y309519D01*
X196085Y310144D01*
X196397Y310457D01*
X197022Y310769D01*
X197959D01*
X198585Y310457D01*
X198897Y310144D01*
Y327644D02*
X198585Y327332D01*
X197959Y327019D01*
X197022D01*
X196397Y327332D01*
X196085Y327644D01*
X195772Y328269D01*
Y329519D01*
X196085Y330144D01*
X196397Y330457D01*
X197022Y330769D01*
X197959D01*
X198585Y330457D01*
X198897Y330144D01*
X198920Y407644D02*
X198607Y407332D01*
X197982Y407019D01*
X197044D01*
X196420Y407332D01*
X196107Y407644D01*
X195794Y408269D01*
Y409519D01*
X196107Y410144D01*
X196420Y410457D01*
X197044Y410769D01*
X197982D01*
X198607Y410457D01*
X198920Y410144D01*
Y427644D02*
X198607Y427332D01*
X197982Y427019D01*
X197044D01*
X196420Y427332D01*
X196107Y427644D01*
X195794Y428269D01*
Y429519D01*
X196107Y430144D01*
X196420Y430457D01*
X197044Y430769D01*
X197982D01*
X198607Y430457D01*
X198920Y430144D01*
X195860Y65435D02*
Y69185D01*
X197422Y67310D01*
X198985Y69185D01*
Y65435D01*
X202959Y398583D02*
X203897D01*
Y398270D01*
X203585Y397645D01*
X203272Y397333D01*
X202647Y397020D01*
X202022D01*
X201397Y397333D01*
X201085Y397645D01*
X200772Y398270D01*
Y399520D01*
X201085Y400145D01*
X201397Y400458D01*
X202022Y400770D01*
X202647D01*
X203272Y400458D01*
X203585Y400145D01*
X203897Y399520D01*
X201102Y68430D02*
Y72180D01*
X204227D01*
X203602Y70306D02*
X201102D01*
Y68430D02*
X204227D01*
X202445Y89519D02*
Y93269D01*
X204008Y91394D01*
X205570Y93269D01*
Y89519D01*
X204633Y113582D02*
X205570D01*
Y113269D01*
X205258Y112644D01*
X204945Y112332D01*
X204320Y112019D01*
X203695D01*
X203070Y112332D01*
X202758Y112644D01*
X202445Y113269D01*
Y114519D01*
X202758Y115144D01*
X203070Y115457D01*
X203695Y115769D01*
X204320D01*
X204945Y115457D01*
X205258Y115144D01*
X205570Y114519D01*
X204633Y153583D02*
X205570D01*
Y153270D01*
X205258Y152645D01*
X204945Y152333D01*
X204320Y152020D01*
X203695D01*
X203070Y152333D01*
X202758Y152645D01*
X202445Y153270D01*
Y154520D01*
X202758Y155145D01*
X203070Y155458D01*
X203695Y155770D01*
X204320D01*
X204945Y155458D01*
X205258Y155145D01*
X205570Y154520D01*
X204633Y208583D02*
X205570D01*
Y208270D01*
X205258Y207645D01*
X204945Y207333D01*
X204320Y207020D01*
X203695D01*
X203070Y207333D01*
X202758Y207645D01*
X202445Y208270D01*
Y209520D01*
X202758Y210145D01*
X203070Y210458D01*
X203695Y210770D01*
X204320D01*
X204945Y210458D01*
X205258Y210145D01*
X205570Y209520D01*
X204633Y253582D02*
X205570D01*
Y253269D01*
X205258Y252644D01*
X204945Y252332D01*
X204320Y252019D01*
X203695D01*
X203070Y252332D01*
X202758Y252644D01*
X202445Y253269D01*
Y254519D01*
X202758Y255144D01*
X203070Y255457D01*
X203695Y255769D01*
X204320D01*
X204945Y255457D01*
X205258Y255144D01*
X205570Y254519D01*
X204633Y288583D02*
X205570D01*
Y288270D01*
X205258Y287645D01*
X204945Y287333D01*
X204320Y287020D01*
X203695D01*
X203070Y287333D01*
X202758Y287645D01*
X202445Y288270D01*
Y289520D01*
X202758Y290145D01*
X203070Y290458D01*
X203695Y290770D01*
X204320D01*
X204945Y290458D01*
X205258Y290145D01*
X205570Y289520D01*
X208897Y307644D02*
X208585Y307332D01*
X207959Y307019D01*
X207022D01*
X206397Y307332D01*
X206085Y307644D01*
X205772Y308269D01*
Y309519D01*
X206085Y310144D01*
X206397Y310457D01*
X207022Y310769D01*
X207959D01*
X208585Y310457D01*
X208897Y310144D01*
Y327644D02*
X208585Y327332D01*
X207959Y327019D01*
X207022D01*
X206397Y327332D01*
X206085Y327644D01*
X205772Y328269D01*
Y329519D01*
X206085Y330144D01*
X206397Y330457D01*
X207022Y330769D01*
X207959D01*
X208585Y330457D01*
X208897Y330144D01*
X208920Y407644D02*
X208607Y407332D01*
X207982Y407019D01*
X207044D01*
X206420Y407332D01*
X206107Y407644D01*
X205794Y408269D01*
Y409519D01*
X206107Y410144D01*
X206420Y410457D01*
X207044Y410769D01*
X207982D01*
X208607Y410457D01*
X208920Y410144D01*
Y427644D02*
X208607Y427332D01*
X207982Y427019D01*
X207044D01*
X206420Y427332D01*
X206107Y427644D01*
X205794Y428269D01*
Y429519D01*
X206107Y430144D01*
X206420Y430457D01*
X207044Y430769D01*
X207982D01*
X208607Y430457D01*
X208920Y430144D01*
X205969Y63313D02*
Y67063D01*
X209094D01*
X208469Y65189D02*
X205969D01*
Y63313D02*
X209094D01*
X205969Y144435D02*
Y148185D01*
X209094D01*
X208469Y146311D02*
X205969D01*
Y144435D02*
X209094D01*
X209463Y141066D02*
Y144816D01*
X212589D01*
X211963Y142941D02*
X209463D01*
Y141066D02*
X212589D01*
X211086Y68306D02*
Y72056D01*
X214211D01*
X213586Y70181D02*
X211086D01*
Y68306D02*
X214211D01*
X214633Y456965D02*
X215570D01*
Y456653D01*
X215258Y456028D01*
X214945Y455715D01*
X214320Y455403D01*
X213695D01*
X213070Y455715D01*
X212758Y456028D01*
X212445Y456653D01*
Y457903D01*
X212758Y458528D01*
X213070Y458841D01*
X213695Y459153D01*
X214320D01*
X214945Y458841D01*
X215258Y458528D01*
X215570Y457903D01*
X212459Y138320D02*
Y142070D01*
X215584D01*
X214959Y140195D02*
X212459D01*
Y138320D02*
X215584D01*
X214705Y130169D02*
Y133919D01*
X217830D01*
X217205Y132044D02*
X214705D01*
Y130169D02*
X217830D01*
X218897Y307644D02*
X218585Y307332D01*
X217959Y307019D01*
X217022D01*
X216397Y307332D01*
X216085Y307644D01*
X215772Y308269D01*
Y309519D01*
X216085Y310144D01*
X216397Y310457D01*
X217022Y310769D01*
X217959D01*
X218585Y310457D01*
X218897Y310144D01*
Y327644D02*
X218585Y327332D01*
X217959Y327019D01*
X217022D01*
X216397Y327332D01*
X216085Y327644D01*
X215772Y328269D01*
Y329519D01*
X216085Y330144D01*
X216397Y330457D01*
X217022Y330769D01*
X217959D01*
X218585Y330457D01*
X218897Y330144D01*
X218920Y407644D02*
X218607Y407332D01*
X217982Y407019D01*
X217044D01*
X216420Y407332D01*
X216107Y407644D01*
X215794Y408269D01*
Y409519D01*
X216107Y410144D01*
X216420Y410457D01*
X217044Y410769D01*
X217982D01*
X218607Y410457D01*
X218920Y410144D01*
Y427644D02*
X218607Y427332D01*
X217982Y427019D01*
X217044D01*
X216420Y427332D01*
X216107Y427644D01*
X215794Y428269D01*
Y429519D01*
X216107Y430144D01*
X216420Y430457D01*
X217044Y430769D01*
X217982D01*
X218607Y430457D01*
X218920Y430144D01*
X215989Y63189D02*
Y66939D01*
X219114D01*
X218489Y65064D02*
X215989D01*
Y63189D02*
X219114D01*
X216124Y89772D02*
Y93522D01*
X218311D01*
X218937Y93209D01*
X219249Y92584D01*
X218937Y91959D01*
X218311Y91647D01*
X216124D01*
X217076Y126838D02*
Y130588D01*
X220202D01*
X219576Y128713D02*
X217076D01*
Y126838D02*
X220202D01*
X219323Y123870D02*
Y127620D01*
X222448D01*
X221823Y125745D02*
X219323D01*
Y123870D02*
X222448D01*
X220945Y68306D02*
Y72056D01*
X224070D01*
X223445Y70181D02*
X220945D01*
Y68306D02*
X224070D01*
X221694Y120720D02*
Y124470D01*
X224819D01*
X224194Y122595D02*
X221694D01*
Y120720D02*
X224819D01*
X226709Y288583D02*
X227647D01*
Y288270D01*
X227335Y287645D01*
X227022Y287333D01*
X226397Y287020D01*
X225772D01*
X225147Y287333D01*
X224835Y287645D01*
X224522Y288270D01*
Y289520D01*
X224835Y290145D01*
X225147Y290458D01*
X225772Y290770D01*
X226397D01*
X227022Y290458D01*
X227335Y290145D01*
X227647Y289520D01*
X227133Y108582D02*
X228070D01*
Y108269D01*
X227758Y107644D01*
X227445Y107332D01*
X226820Y107019D01*
X226195D01*
X225570Y107332D01*
X225258Y107644D01*
X224945Y108269D01*
Y109519D01*
X225258Y110144D01*
X225570Y110457D01*
X226195Y110769D01*
X226820D01*
X227445Y110457D01*
X227758Y110144D01*
X228070Y109519D01*
X227133Y208583D02*
X228070D01*
Y208270D01*
X227758Y207645D01*
X227445Y207333D01*
X226820Y207020D01*
X226195D01*
X225570Y207333D01*
X225258Y207645D01*
X224945Y208270D01*
Y209520D01*
X225258Y210145D01*
X225570Y210458D01*
X226195Y210770D01*
X226820D01*
X227445Y210458D01*
X227758Y210145D01*
X228070Y209520D01*
X227133Y253582D02*
X228070D01*
Y253269D01*
X227758Y252644D01*
X227445Y252332D01*
X226820Y252019D01*
X226195D01*
X225570Y252332D01*
X225258Y252644D01*
X224945Y253269D01*
Y254519D01*
X225258Y255144D01*
X225570Y255457D01*
X226195Y255769D01*
X226820D01*
X227445Y255457D01*
X227758Y255144D01*
X228070Y254519D01*
X228897Y307644D02*
X228585Y307332D01*
X227959Y307019D01*
X227022D01*
X226397Y307332D01*
X226085Y307644D01*
X225772Y308269D01*
Y309519D01*
X226085Y310144D01*
X226397Y310457D01*
X227022Y310769D01*
X227959D01*
X228585Y310457D01*
X228897Y310144D01*
Y327644D02*
X228585Y327332D01*
X227959Y327019D01*
X227022D01*
X226397Y327332D01*
X226085Y327644D01*
X225772Y328269D01*
Y329519D01*
X226085Y330144D01*
X226397Y330457D01*
X227022Y330769D01*
X227959D01*
X228585Y330457D01*
X228897Y330144D01*
X228920Y407644D02*
X228607Y407332D01*
X227982Y407019D01*
X227044D01*
X226420Y407332D01*
X226107Y407644D01*
X225794Y408269D01*
Y409519D01*
X226107Y410144D01*
X226420Y410457D01*
X227044Y410769D01*
X227982D01*
X228607Y410457D01*
X228920Y410144D01*
Y427644D02*
X228607Y427332D01*
X227982Y427019D01*
X227044D01*
X226420Y427332D01*
X226107Y427644D01*
X225794Y428269D01*
Y429519D01*
X226107Y430144D01*
X226420Y430457D01*
X227044Y430769D01*
X227982D01*
X228607Y430457D01*
X228920Y430144D01*
X225989Y63438D02*
Y67188D01*
X229114D01*
X228489Y65313D02*
X225989D01*
Y63438D02*
X229114D01*
X226124Y89772D02*
Y93522D01*
X228311D01*
X228937Y93209D01*
X229249Y92584D01*
X228937Y91959D01*
X228311Y91647D01*
X226124D01*
X232133Y134832D02*
X233070D01*
Y134519D01*
X232758Y133894D01*
X232445Y133582D01*
X231820Y133269D01*
X231195D01*
X230570Y133582D01*
X230258Y133894D01*
X229945Y134519D01*
Y135769D01*
X230258Y136394D01*
X230570Y136707D01*
X231195Y137019D01*
X231820D01*
X232445Y136707D01*
X232758Y136394D01*
X233070Y135769D01*
X232133Y166082D02*
X233070D01*
Y165769D01*
X232758Y165144D01*
X232445Y164832D01*
X231820Y164519D01*
X231195D01*
X230570Y164832D01*
X230258Y165144D01*
X229945Y165769D01*
Y167019D01*
X230258Y167644D01*
X230570Y167957D01*
X231195Y168269D01*
X231820D01*
X232445Y167957D01*
X232758Y167644D01*
X233070Y167019D01*
X231054Y68430D02*
Y72180D01*
X234180D01*
X233554Y70306D02*
X231054D01*
Y68430D02*
X234180D01*
X234209Y173583D02*
X235147D01*
Y173270D01*
X234835Y172645D01*
X234522Y172333D01*
X233897Y172020D01*
X233272D01*
X232647Y172333D01*
X232335Y172645D01*
X232022Y173270D01*
Y174520D01*
X232335Y175145D01*
X232647Y175458D01*
X233272Y175770D01*
X233897D01*
X234522Y175458D01*
X234835Y175145D01*
X235147Y174520D01*
X234633Y208583D02*
X235570D01*
Y208270D01*
X235258Y207645D01*
X234945Y207333D01*
X234320Y207020D01*
X233695D01*
X233070Y207333D01*
X232758Y207645D01*
X232445Y208270D01*
Y209520D01*
X232758Y210145D01*
X233070Y210458D01*
X233695Y210770D01*
X234320D01*
X234945Y210458D01*
X235258Y210145D01*
X235570Y209520D01*
X234633Y253582D02*
X235570D01*
Y253269D01*
X235258Y252644D01*
X234945Y252332D01*
X234320Y252019D01*
X233695D01*
X233070Y252332D01*
X232758Y252644D01*
X232445Y253269D01*
Y254519D01*
X232758Y255144D01*
X233070Y255457D01*
X233695Y255769D01*
X234320D01*
X234945Y255457D01*
X235258Y255144D01*
X235570Y254519D01*
X234633Y288583D02*
X235570D01*
Y288270D01*
X235258Y287645D01*
X234945Y287333D01*
X234320Y287020D01*
X233695D01*
X233070Y287333D01*
X232758Y287645D01*
X232445Y288270D01*
Y289520D01*
X232758Y290145D01*
X233070Y290458D01*
X233695Y290770D01*
X234320D01*
X234945Y290458D01*
X235258Y290145D01*
X235570Y289520D01*
X235772Y107619D02*
Y111369D01*
X238897D01*
X238272Y109494D02*
X235772D01*
Y107619D02*
X238897D01*
Y307644D02*
X238585Y307332D01*
X237959Y307019D01*
X237022D01*
X236397Y307332D01*
X236085Y307644D01*
X235772Y308269D01*
Y309519D01*
X236085Y310144D01*
X236397Y310457D01*
X237022Y310769D01*
X237959D01*
X238585Y310457D01*
X238897Y310144D01*
Y327644D02*
X238585Y327332D01*
X237959Y327019D01*
X237022D01*
X236397Y327332D01*
X236085Y327644D01*
X235772Y328269D01*
Y329519D01*
X236085Y330144D01*
X236397Y330457D01*
X237022Y330769D01*
X237959D01*
X238585Y330457D01*
X238897Y330144D01*
X238920Y407644D02*
X238607Y407332D01*
X237982Y407019D01*
X237044D01*
X236420Y407332D01*
X236107Y407644D01*
X235794Y408269D01*
Y409519D01*
X236107Y410144D01*
X236420Y410457D01*
X237044Y410769D01*
X237982D01*
X238607Y410457D01*
X238920Y410144D01*
Y427644D02*
X238607Y427332D01*
X237982Y427019D01*
X237044D01*
X236420Y427332D01*
X236107Y427644D01*
X235794Y428269D01*
Y429519D01*
X236107Y430144D01*
X236420Y430457D01*
X237044Y430769D01*
X237982D01*
X238607Y430457D01*
X238920Y430144D01*
X235955Y63438D02*
Y67188D01*
X239080D01*
X238455Y65313D02*
X235955D01*
Y63438D02*
X239080D01*
X236124Y89772D02*
Y93522D01*
X238311D01*
X238937Y93209D01*
X239249Y92584D01*
X238937Y91959D01*
X238311Y91647D01*
X236124D01*
X238168Y104748D02*
Y108498D01*
X241293D01*
X240668Y106623D02*
X238168D01*
Y104748D02*
X241293D01*
X240415Y102127D02*
Y105877D01*
X243540D01*
X242915Y104002D02*
X240415D01*
Y102127D02*
X243540D01*
X241039Y68430D02*
Y72180D01*
X244164D01*
X243539Y70306D02*
X241039D01*
Y68430D02*
X244164D01*
X241039Y72424D02*
Y76174D01*
X244164D01*
X243539Y74299D02*
X241039D01*
Y72424D02*
X244164D01*
X241663Y82034D02*
Y85784D01*
X244788D01*
X244163Y83909D02*
X241663D01*
Y82034D02*
X244788D01*
X247159Y173583D02*
X248096D01*
Y173270D01*
X247784Y172645D01*
X247471Y172333D01*
X246846Y172020D01*
X246221D01*
X245596Y172333D01*
X245284Y172645D01*
X244971Y173270D01*
Y174520D01*
X245284Y175145D01*
X245596Y175458D01*
X246221Y175770D01*
X246846D01*
X247471Y175458D01*
X247784Y175145D01*
X248096Y174520D01*
X247283Y208583D02*
X248221D01*
Y208270D01*
X247909Y207645D01*
X247596Y207333D01*
X246971Y207020D01*
X246346D01*
X245721Y207333D01*
X245409Y207645D01*
X245096Y208270D01*
Y209520D01*
X245409Y210145D01*
X245721Y210458D01*
X246346Y210770D01*
X246971D01*
X247596Y210458D01*
X247909Y210145D01*
X248221Y209520D01*
X247283Y253582D02*
X248221D01*
Y253269D01*
X247909Y252644D01*
X247596Y252332D01*
X246971Y252019D01*
X246346D01*
X245721Y252332D01*
X245409Y252644D01*
X245096Y253269D01*
Y254519D01*
X245409Y255144D01*
X245721Y255457D01*
X246346Y255769D01*
X246971D01*
X247596Y255457D01*
X247909Y255144D01*
X248221Y254519D01*
X247283Y288583D02*
X248221D01*
Y288270D01*
X247909Y287645D01*
X247596Y287333D01*
X246971Y287020D01*
X246346D01*
X245721Y287333D01*
X245409Y287645D01*
X245096Y288270D01*
Y289520D01*
X245409Y290145D01*
X245721Y290458D01*
X246346Y290770D01*
X246971D01*
X247596Y290458D01*
X247909Y290145D01*
X248221Y289520D01*
X248897Y307644D02*
X248585Y307332D01*
X247959Y307019D01*
X247022D01*
X246397Y307332D01*
X246085Y307644D01*
X245772Y308269D01*
Y309519D01*
X246085Y310144D01*
X246397Y310457D01*
X247022Y310769D01*
X247959D01*
X248585Y310457D01*
X248897Y310144D01*
Y327644D02*
X248585Y327332D01*
X247959Y327019D01*
X247022D01*
X246397Y327332D01*
X246085Y327644D01*
X245772Y328269D01*
Y329519D01*
X246085Y330144D01*
X246397Y330457D01*
X247022Y330769D01*
X247959D01*
X248585Y330457D01*
X248897Y330144D01*
X248920Y407644D02*
X248607Y407332D01*
X247982Y407019D01*
X247044D01*
X246420Y407332D01*
X246107Y407644D01*
X245794Y408269D01*
Y409519D01*
X246107Y410144D01*
X246420Y410457D01*
X247044Y410769D01*
X247982D01*
X248607Y410457D01*
X248920Y410144D01*
Y427644D02*
X248607Y427332D01*
X247982Y427019D01*
X247044D01*
X246420Y427332D01*
X246107Y427644D01*
X245794Y428269D01*
Y429519D01*
X246107Y430144D01*
X246420Y430457D01*
X247044Y430769D01*
X247982D01*
X248607Y430457D01*
X248920Y430144D01*
X245989Y63563D02*
Y67313D01*
X249114D01*
X248489Y65438D02*
X245989D01*
Y63563D02*
X249114D01*
X246124Y89772D02*
Y93522D01*
X248311D01*
X248937Y93209D01*
X249249Y92584D01*
X248937Y91959D01*
X248311Y91647D01*
X246124D01*
X250274Y82159D02*
Y85909D01*
X253399D01*
X252774Y84034D02*
X250274D01*
Y82159D02*
X253399D01*
X252645Y75669D02*
Y79419D01*
X255770D01*
X255145Y77544D02*
X252645D01*
Y75669D02*
X255770D01*
X258897Y307644D02*
X258585Y307332D01*
X257959Y307019D01*
X257022D01*
X256397Y307332D01*
X256085Y307644D01*
X255772Y308269D01*
Y309519D01*
X256085Y310144D01*
X256397Y310457D01*
X257022Y310769D01*
X257959D01*
X258585Y310457D01*
X258897Y310144D01*
Y327644D02*
X258585Y327332D01*
X257959Y327019D01*
X257022D01*
X256397Y327332D01*
X256085Y327644D01*
X255772Y328269D01*
Y329519D01*
X256085Y330144D01*
X256397Y330457D01*
X257022Y330769D01*
X257959D01*
X258585Y330457D01*
X258897Y330144D01*
X258920Y407644D02*
X258607Y407332D01*
X257982Y407019D01*
X257044D01*
X256420Y407332D01*
X256107Y407644D01*
X255794Y408269D01*
Y409519D01*
X256107Y410144D01*
X256420Y410457D01*
X257044Y410769D01*
X257982D01*
X258607Y410457D01*
X258920Y410144D01*
Y427644D02*
X258607Y427332D01*
X257982Y427019D01*
X257044D01*
X256420Y427332D01*
X256107Y427644D01*
X255794Y428269D01*
Y429519D01*
X256107Y430144D01*
X256420Y430457D01*
X257044Y430769D01*
X257982D01*
X258607Y430457D01*
X258920Y430144D01*
X255989Y63563D02*
Y67313D01*
X259114D01*
X258489Y65438D02*
X255989D01*
Y63563D02*
X259114D01*
X256124Y89772D02*
Y93522D01*
X258311D01*
X258937Y93209D01*
X259249Y92584D01*
X258937Y91959D01*
X258311Y91647D01*
X256124D01*
X258826Y134891D02*
X259764D01*
Y134578D01*
X259452Y133953D01*
X259139Y133641D01*
X258514Y133328D01*
X257889D01*
X257264Y133641D01*
X256952Y133953D01*
X256639Y134578D01*
Y135828D01*
X256952Y136453D01*
X257264Y136766D01*
X257889Y137078D01*
X258514D01*
X259139Y136766D01*
X259452Y136453D01*
X259764Y135828D01*
X256697Y160770D02*
Y164520D01*
X259822D01*
X259197Y162645D02*
X256697D01*
Y160770D02*
X259822D01*
X258272Y290770D02*
Y294520D01*
X261397D01*
X260772Y292645D02*
X258272D01*
Y290770D02*
X261397D01*
X259847Y163270D02*
Y167020D01*
X262972D01*
X262347Y165145D02*
X259847D01*
Y163270D02*
X262972D01*
X262022Y290770D02*
Y294520D01*
X265147D01*
X264522Y292645D02*
X262022D01*
Y290770D02*
X265147D01*
X264633Y456965D02*
X265570D01*
Y456653D01*
X265258Y456028D01*
X264945Y455715D01*
X264320Y455403D01*
X263695D01*
X263070Y455715D01*
X262758Y456028D01*
X262445Y456653D01*
Y457903D01*
X262758Y458528D01*
X263070Y458841D01*
X263695Y459153D01*
X264320D01*
X264945Y458841D01*
X265258Y458528D01*
X265570Y457903D01*
X265459Y208583D02*
X266397D01*
Y208270D01*
X266085Y207645D01*
X265772Y207333D01*
X265147Y207020D01*
X264522D01*
X263897Y207333D01*
X263585Y207645D01*
X263272Y208270D01*
Y209520D01*
X263585Y210145D01*
X263897Y210458D01*
X264522Y210770D01*
X265147D01*
X265772Y210458D01*
X266085Y210145D01*
X266397Y209520D01*
X263753Y75919D02*
Y79669D01*
X266878D01*
X266253Y77794D02*
X263753D01*
Y75919D02*
X266878D01*
X266709Y173582D02*
X267647D01*
Y173269D01*
X267335Y172644D01*
X267022Y172332D01*
X266397Y172019D01*
X265772D01*
X265147Y172332D01*
X264835Y172644D01*
X264522Y173269D01*
Y174519D01*
X264835Y175144D01*
X265147Y175457D01*
X265772Y175769D01*
X266397D01*
X267022Y175457D01*
X267335Y175144D01*
X267647Y174519D01*
X266709Y253582D02*
X267647D01*
Y253269D01*
X267335Y252644D01*
X267022Y252332D01*
X266397Y252019D01*
X265772D01*
X265147Y252332D01*
X264835Y252644D01*
X264522Y253269D01*
Y254519D01*
X264835Y255144D01*
X265147Y255457D01*
X265772Y255769D01*
X266397D01*
X267022Y255457D01*
X267335Y255144D01*
X267647Y254519D01*
X268897Y307644D02*
X268585Y307332D01*
X267959Y307019D01*
X267022D01*
X266397Y307332D01*
X266085Y307644D01*
X265772Y308269D01*
Y309519D01*
X266085Y310144D01*
X266397Y310457D01*
X267022Y310769D01*
X267959D01*
X268585Y310457D01*
X268897Y310144D01*
Y327644D02*
X268585Y327332D01*
X267959Y327019D01*
X267022D01*
X266397Y327332D01*
X266085Y327644D01*
X265772Y328269D01*
Y329519D01*
X266085Y330144D01*
X266397Y330457D01*
X267022Y330769D01*
X267959D01*
X268585Y330457D01*
X268897Y330144D01*
X268920Y407644D02*
X268607Y407332D01*
X267982Y407019D01*
X267044D01*
X266420Y407332D01*
X266107Y407644D01*
X265794Y408269D01*
Y409519D01*
X266107Y410144D01*
X266420Y410457D01*
X267044Y410769D01*
X267982D01*
X268607Y410457D01*
X268920Y410144D01*
Y427644D02*
X268607Y427332D01*
X267982Y427019D01*
X267044D01*
X266420Y427332D01*
X266107Y427644D01*
X265794Y428269D01*
Y429519D01*
X266107Y430144D01*
X266420Y430457D01*
X267044Y430769D01*
X267982D01*
X268607Y430457D01*
X268920Y430144D01*
X265989Y63438D02*
Y67188D01*
X269114D01*
X268489Y65313D02*
X265989D01*
Y63438D02*
X269114D01*
X266124Y89772D02*
Y93522D01*
X268311D01*
X268937Y93209D01*
X269249Y92584D01*
X268937Y91959D01*
X268311Y91647D01*
X266124D01*
X268870Y75919D02*
Y79669D01*
X271995D01*
X271370Y77794D02*
X268870D01*
Y75919D02*
X271995D01*
X271709Y173582D02*
X272647D01*
Y173269D01*
X272335Y172644D01*
X272022Y172332D01*
X271397Y172019D01*
X270772D01*
X270147Y172332D01*
X269835Y172644D01*
X269522Y173269D01*
Y174519D01*
X269835Y175144D01*
X270147Y175457D01*
X270772Y175769D01*
X271397D01*
X272022Y175457D01*
X272335Y175144D01*
X272647Y174519D01*
X272133Y208583D02*
X273070D01*
Y208270D01*
X272758Y207645D01*
X272445Y207333D01*
X271820Y207020D01*
X271195D01*
X270570Y207333D01*
X270258Y207645D01*
X269945Y208270D01*
Y209520D01*
X270258Y210145D01*
X270570Y210458D01*
X271195Y210770D01*
X271820D01*
X272445Y210458D01*
X272758Y210145D01*
X273070Y209520D01*
X272133Y253582D02*
X273070D01*
Y253269D01*
X272758Y252644D01*
X272445Y252332D01*
X271820Y252019D01*
X271195D01*
X270570Y252332D01*
X270258Y252644D01*
X269945Y253269D01*
Y254519D01*
X270258Y255144D01*
X270570Y255457D01*
X271195Y255769D01*
X271820D01*
X272445Y255457D01*
X272758Y255144D01*
X273070Y254519D01*
X272133Y288583D02*
X273070D01*
Y288270D01*
X272758Y287645D01*
X272445Y287333D01*
X271820Y287020D01*
X271195D01*
X270570Y287333D01*
X270258Y287645D01*
X269945Y288270D01*
Y289520D01*
X270258Y290145D01*
X270570Y290458D01*
X271195Y290770D01*
X271820D01*
X272445Y290458D01*
X272758Y290145D01*
X273070Y289520D01*
X274676Y111552D02*
X275614D01*
Y111240D01*
X275302Y110615D01*
X274989Y110302D01*
X274364Y109990D01*
X273739D01*
X273114Y110302D01*
X272802Y110615D01*
X272489Y111240D01*
Y112490D01*
X272802Y113115D01*
X273114Y113428D01*
X273739Y113740D01*
X274364D01*
X274989Y113428D01*
X275302Y113115D01*
X275614Y112490D01*
X274676Y116669D02*
X275614D01*
Y116357D01*
X275302Y115732D01*
X274989Y115419D01*
X274364Y115107D01*
X273739D01*
X273114Y115419D01*
X272802Y115732D01*
X272489Y116357D01*
Y117607D01*
X272802Y118232D01*
X273114Y118544D01*
X273739Y118857D01*
X274364D01*
X274989Y118544D01*
X275302Y118232D01*
X275614Y117607D01*
X273612Y141815D02*
Y145565D01*
X276737D01*
X276112Y143690D02*
X273612D01*
Y141815D02*
X276737D01*
X273737Y275229D02*
Y278979D01*
X276862D01*
X276237Y277104D02*
X273737D01*
Y275229D02*
X276862D01*
X278897Y307644D02*
X278585Y307332D01*
X277959Y307019D01*
X277022D01*
X276397Y307332D01*
X276085Y307644D01*
X275772Y308269D01*
Y309519D01*
X276085Y310144D01*
X276397Y310457D01*
X277022Y310769D01*
X277959D01*
X278585Y310457D01*
X278897Y310144D01*
Y327644D02*
X278585Y327332D01*
X277959Y327019D01*
X277022D01*
X276397Y327332D01*
X276085Y327644D01*
X275772Y328269D01*
Y329519D01*
X276085Y330144D01*
X276397Y330457D01*
X277022Y330769D01*
X277959D01*
X278585Y330457D01*
X278897Y330144D01*
X278920Y407644D02*
X278607Y407332D01*
X277982Y407019D01*
X277044D01*
X276420Y407332D01*
X276107Y407644D01*
X275794Y408269D01*
Y409519D01*
X276107Y410144D01*
X276420Y410457D01*
X277044Y410769D01*
X277982D01*
X278607Y410457D01*
X278920Y410144D01*
Y427644D02*
X278607Y427332D01*
X277982Y427019D01*
X277044D01*
X276420Y427332D01*
X276107Y427644D01*
X275794Y428269D01*
Y429519D01*
X276107Y430144D01*
X276420Y430457D01*
X277044Y430769D01*
X277982D01*
X278607Y430457D01*
X278920Y430144D01*
X275859Y144311D02*
Y148061D01*
X278984D01*
X278359Y146186D02*
X275859D01*
Y144311D02*
X278984D01*
X275859Y272109D02*
Y275859D01*
X278984D01*
X278359Y273984D02*
X275859D01*
Y272109D02*
X278984D01*
X275989Y63438D02*
Y67188D01*
X279114D01*
X278489Y65313D02*
X275989D01*
Y63438D02*
X279114D01*
X275989Y75919D02*
Y79669D01*
X279114D01*
X278489Y77794D02*
X275989D01*
Y75919D02*
X279114D01*
X280976Y74046D02*
Y77796D01*
X284101D01*
X283476Y75922D02*
X280976D01*
Y74046D02*
X284101D01*
X288897Y307644D02*
X288585Y307332D01*
X287959Y307019D01*
X287022D01*
X286397Y307332D01*
X286085Y307644D01*
X285772Y308269D01*
Y309519D01*
X286085Y310144D01*
X286397Y310457D01*
X287022Y310769D01*
X287959D01*
X288585Y310457D01*
X288897Y310144D01*
Y327644D02*
X288585Y327332D01*
X287959Y327019D01*
X287022D01*
X286397Y327332D01*
X286085Y327644D01*
X285772Y328269D01*
Y329519D01*
X286085Y330144D01*
X286397Y330457D01*
X287022Y330769D01*
X287959D01*
X288585Y330457D01*
X288897Y330144D01*
X288920Y407644D02*
X288607Y407332D01*
X287982Y407019D01*
X287044D01*
X286420Y407332D01*
X286107Y407644D01*
X285794Y408269D01*
Y409519D01*
X286107Y410144D01*
X286420Y410457D01*
X287044Y410769D01*
X287982D01*
X288607Y410457D01*
X288920Y410144D01*
Y427644D02*
X288607Y427332D01*
X287982Y427019D01*
X287044D01*
X286420Y427332D01*
X286107Y427644D01*
X285794Y428269D01*
Y429519D01*
X286107Y430144D01*
X286420Y430457D01*
X287044Y430769D01*
X287982D01*
X288607Y430457D01*
X288920Y430144D01*
X285989Y63438D02*
Y67188D01*
X289114D01*
X288489Y65313D02*
X285989D01*
Y63438D02*
X289114D01*
X287590Y123870D02*
Y127620D01*
X290715D01*
X290090Y125745D02*
X287590D01*
Y123870D02*
X290715D01*
X289961Y127088D02*
Y130838D01*
X293087D01*
X292461Y128963D02*
X289961D01*
Y127088D02*
X293087D01*
X297133Y173582D02*
X298070D01*
Y173269D01*
X297758Y172644D01*
X297445Y172332D01*
X296820Y172019D01*
X296195D01*
X295570Y172332D01*
X295258Y172644D01*
X294945Y173269D01*
Y174519D01*
X295258Y175144D01*
X295570Y175457D01*
X296195Y175769D01*
X296820D01*
X297445Y175457D01*
X297758Y175144D01*
X298070Y174519D01*
X297133Y208583D02*
X298070D01*
Y208270D01*
X297758Y207645D01*
X297445Y207333D01*
X296820Y207020D01*
X296195D01*
X295570Y207333D01*
X295258Y207645D01*
X294945Y208270D01*
Y209520D01*
X295258Y210145D01*
X295570Y210458D01*
X296195Y210770D01*
X296820D01*
X297445Y210458D01*
X297758Y210145D01*
X298070Y209520D01*
X297133Y253582D02*
X298070D01*
Y253269D01*
X297758Y252644D01*
X297445Y252332D01*
X296820Y252019D01*
X296195D01*
X295570Y252332D01*
X295258Y252644D01*
X294945Y253269D01*
Y254519D01*
X295258Y255144D01*
X295570Y255457D01*
X296195Y255769D01*
X296820D01*
X297445Y255457D01*
X297758Y255144D01*
X298070Y254519D01*
X297133Y288583D02*
X298070D01*
Y288270D01*
X297758Y287645D01*
X297445Y287333D01*
X296820Y287020D01*
X296195D01*
X295570Y287333D01*
X295258Y287645D01*
X294945Y288270D01*
Y289520D01*
X295258Y290145D01*
X295570Y290458D01*
X296195Y290770D01*
X296820D01*
X297445Y290458D01*
X297758Y290145D01*
X298070Y289520D01*
X298897Y307644D02*
X298585Y307332D01*
X297959Y307019D01*
X297022D01*
X296397Y307332D01*
X296085Y307644D01*
X295772Y308269D01*
Y309519D01*
X296085Y310144D01*
X296397Y310457D01*
X297022Y310769D01*
X297959D01*
X298585Y310457D01*
X298897Y310144D01*
Y327644D02*
X298585Y327332D01*
X297959Y327019D01*
X297022D01*
X296397Y327332D01*
X296085Y327644D01*
X295772Y328269D01*
Y329519D01*
X296085Y330144D01*
X296397Y330457D01*
X297022Y330769D01*
X297959D01*
X298585Y330457D01*
X298897Y330144D01*
X298920Y407644D02*
X298607Y407332D01*
X297982Y407019D01*
X297044D01*
X296420Y407332D01*
X296107Y407644D01*
X295794Y408269D01*
Y409519D01*
X296107Y410144D01*
X296420Y410457D01*
X297044Y410769D01*
X297982D01*
X298607Y410457D01*
X298920Y410144D01*
Y427644D02*
X298607Y427332D01*
X297982Y427019D01*
X297044D01*
X296420Y427332D01*
X296107Y427644D01*
X295794Y428269D01*
Y429519D01*
X296107Y430144D01*
X296420Y430457D01*
X297044Y430769D01*
X297982D01*
X298607Y430457D01*
X298920Y430144D01*
X295989Y63438D02*
Y67188D01*
X299114D01*
X298489Y65313D02*
X295989D01*
Y63438D02*
X299114D01*
X298383Y76082D02*
X299320D01*
Y75769D01*
X299008Y75144D01*
X298695Y74832D01*
X298070Y74519D01*
X297445D01*
X296820Y74832D01*
X296508Y75144D01*
X296195Y75769D01*
Y77019D01*
X296508Y77644D01*
X296820Y77957D01*
X297445Y78269D01*
X298070D01*
X298695Y77957D01*
X299008Y77644D01*
X299320Y77019D01*
X299946Y130169D02*
Y133919D01*
X303071D01*
X302446Y132044D02*
X299946D01*
Y130169D02*
X303071D01*
X302442Y133319D02*
Y137069D01*
X305567D01*
X304942Y135194D02*
X302442D01*
Y133319D02*
X305567D01*
X304938Y136448D02*
Y140198D01*
X308063D01*
X307438Y138323D02*
X304938D01*
Y136448D02*
X308063D01*
X308897Y307644D02*
X308585Y307332D01*
X307959Y307019D01*
X307022D01*
X306397Y307332D01*
X306085Y307644D01*
X305772Y308269D01*
Y309519D01*
X306085Y310144D01*
X306397Y310457D01*
X307022Y310769D01*
X307959D01*
X308585Y310457D01*
X308897Y310144D01*
Y327644D02*
X308585Y327332D01*
X307959Y327019D01*
X307022D01*
X306397Y327332D01*
X306085Y327644D01*
X305772Y328269D01*
Y329519D01*
X306085Y330144D01*
X306397Y330457D01*
X307022Y330769D01*
X307959D01*
X308585Y330457D01*
X308897Y330144D01*
X308920Y407644D02*
X308607Y407332D01*
X307982Y407019D01*
X307044D01*
X306420Y407332D01*
X306107Y407644D01*
X305794Y408269D01*
Y409519D01*
X306107Y410144D01*
X306420Y410457D01*
X307044Y410769D01*
X307982D01*
X308607Y410457D01*
X308920Y410144D01*
Y427644D02*
X308607Y427332D01*
X307982Y427019D01*
X307044D01*
X306420Y427332D01*
X306107Y427644D01*
X305794Y428269D01*
Y429519D01*
X306107Y430144D01*
X306420Y430457D01*
X307044Y430769D01*
X307982D01*
X308607Y430457D01*
X308920Y430144D01*
X305989Y63438D02*
Y67188D01*
X309114D01*
X308489Y65313D02*
X305989D01*
Y63438D02*
X309114D01*
X307309Y139618D02*
Y143368D01*
X310434D01*
X309809Y141493D02*
X307309D01*
Y139618D02*
X310434D01*
X309680Y142767D02*
Y146517D01*
X312806D01*
X312180Y144643D02*
X309680D01*
Y142767D02*
X312806D01*
X312052Y154919D02*
Y158669D01*
X315177D01*
X314552Y156794D02*
X312052D01*
Y154919D02*
X315177D01*
X314633Y456965D02*
X315570D01*
Y456653D01*
X315258Y456028D01*
X314945Y455715D01*
X314320Y455403D01*
X313695D01*
X313070Y455715D01*
X312758Y456028D01*
X312445Y456653D01*
Y457903D01*
X312758Y458528D01*
X313070Y458841D01*
X313695Y459153D01*
X314320D01*
X314945Y458841D01*
X315258Y458528D01*
X315570Y457903D01*
X318897Y307644D02*
X318585Y307332D01*
X317959Y307019D01*
X317022D01*
X316397Y307332D01*
X316085Y307644D01*
X315772Y308269D01*
Y309519D01*
X316085Y310144D01*
X316397Y310457D01*
X317022Y310769D01*
X317959D01*
X318585Y310457D01*
X318897Y310144D01*
Y327644D02*
X318585Y327332D01*
X317959Y327019D01*
X317022D01*
X316397Y327332D01*
X316085Y327644D01*
X315772Y328269D01*
Y329519D01*
X316085Y330144D01*
X316397Y330457D01*
X317022Y330769D01*
X317959D01*
X318585Y330457D01*
X318897Y330144D01*
X318920Y407644D02*
X318607Y407332D01*
X317982Y407019D01*
X317044D01*
X316420Y407332D01*
X316107Y407644D01*
X315794Y408269D01*
Y409519D01*
X316107Y410144D01*
X316420Y410457D01*
X317044Y410769D01*
X317982D01*
X318607Y410457D01*
X318920Y410144D01*
Y427644D02*
X318607Y427332D01*
X317982Y427019D01*
X317044D01*
X316420Y427332D01*
X316107Y427644D01*
X315794Y428269D01*
Y429519D01*
X316107Y430144D01*
X316420Y430457D01*
X317044Y430769D01*
X317982D01*
X318607Y430457D01*
X318920Y430144D01*
X315989Y63688D02*
Y67438D01*
X319114D01*
X318489Y65563D02*
X315989D01*
Y63688D02*
X319114D01*
X316544Y157165D02*
Y160915D01*
X319670D01*
X319044Y159041D02*
X316544D01*
Y157165D02*
X319670D01*
X319290Y159537D02*
Y163287D01*
X322415D01*
X321790Y161412D02*
X319290D01*
Y159537D02*
X322415D01*
X322036Y161908D02*
Y165658D01*
X325161D01*
X324536Y163783D02*
X322036D01*
Y161908D02*
X325161D01*
X328897Y307644D02*
X328585Y307332D01*
X327959Y307019D01*
X327022D01*
X326397Y307332D01*
X326085Y307644D01*
X325772Y308269D01*
Y309519D01*
X326085Y310144D01*
X326397Y310457D01*
X327022Y310769D01*
X327959D01*
X328585Y310457D01*
X328897Y310144D01*
Y327644D02*
X328585Y327332D01*
X327959Y327019D01*
X327022D01*
X326397Y327332D01*
X326085Y327644D01*
X325772Y328269D01*
Y329519D01*
X326085Y330144D01*
X326397Y330457D01*
X327022Y330769D01*
X327959D01*
X328585Y330457D01*
X328897Y330144D01*
X328920Y407644D02*
X328607Y407332D01*
X327982Y407019D01*
X327044D01*
X326420Y407332D01*
X326107Y407644D01*
X325794Y408269D01*
Y409519D01*
X326107Y410144D01*
X326420Y410457D01*
X327044Y410769D01*
X327982D01*
X328607Y410457D01*
X328920Y410144D01*
Y427644D02*
X328607Y427332D01*
X327982Y427019D01*
X327044D01*
X326420Y427332D01*
X326107Y427644D01*
X325794Y428269D01*
Y429519D01*
X326107Y430144D01*
X326420Y430457D01*
X327044Y430769D01*
X327982D01*
X328607Y430457D01*
X328920Y430144D01*
X325919Y63813D02*
Y67563D01*
X329044D01*
X328419Y65688D02*
X325919D01*
Y63813D02*
X329044D01*
X329399Y166900D02*
Y170650D01*
X332524D01*
X331899Y168775D02*
X329399D01*
Y166900D02*
X332524D01*
X338897Y307644D02*
X338585Y307332D01*
X337959Y307019D01*
X337022D01*
X336397Y307332D01*
X336085Y307644D01*
X335772Y308269D01*
Y309519D01*
X336085Y310144D01*
X336397Y310457D01*
X337022Y310769D01*
X337959D01*
X338585Y310457D01*
X338897Y310144D01*
Y327644D02*
X338585Y327332D01*
X337959Y327019D01*
X337022D01*
X336397Y327332D01*
X336085Y327644D01*
X335772Y328269D01*
Y329519D01*
X336085Y330144D01*
X336397Y330457D01*
X337022Y330769D01*
X337959D01*
X338585Y330457D01*
X338897Y330144D01*
X338920Y407644D02*
X338607Y407332D01*
X337982Y407019D01*
X337044D01*
X336420Y407332D01*
X336107Y407644D01*
X335794Y408269D01*
Y409519D01*
X336107Y410144D01*
X336420Y410457D01*
X337044Y410769D01*
X337982D01*
X338607Y410457D01*
X338920Y410144D01*
Y427644D02*
X338607Y427332D01*
X337982Y427019D01*
X337044D01*
X336420Y427332D01*
X336107Y427644D01*
X335794Y428269D01*
Y429519D01*
X336107Y430144D01*
X336420Y430457D01*
X337044Y430769D01*
X337982D01*
X338607Y430457D01*
X338920Y430144D01*
X335989Y64062D02*
Y67812D01*
X339114D01*
X338489Y65937D02*
X335989D01*
Y64062D02*
X339114D01*
X340382Y164404D02*
Y168154D01*
X343507D01*
X342882Y166279D02*
X340382D01*
Y164404D02*
X343507D01*
X348897Y307644D02*
X348585Y307332D01*
X347959Y307019D01*
X347022D01*
X346397Y307332D01*
X346085Y307644D01*
X345772Y308269D01*
Y309519D01*
X346085Y310144D01*
X346397Y310457D01*
X347022Y310769D01*
X347959D01*
X348585Y310457D01*
X348897Y310144D01*
Y327644D02*
X348585Y327332D01*
X347959Y327019D01*
X347022D01*
X346397Y327332D01*
X346085Y327644D01*
X345772Y328269D01*
Y329519D01*
X346085Y330144D01*
X346397Y330457D01*
X347022Y330769D01*
X347959D01*
X348585Y330457D01*
X348897Y330144D01*
X348920Y407644D02*
X348607Y407332D01*
X347982Y407019D01*
X347044D01*
X346420Y407332D01*
X346107Y407644D01*
X345794Y408269D01*
Y409519D01*
X346107Y410144D01*
X346420Y410457D01*
X347044Y410769D01*
X347982D01*
X348607Y410457D01*
X348920Y410144D01*
Y427644D02*
X348607Y427332D01*
X347982Y427019D01*
X347044D01*
X346420Y427332D01*
X346107Y427644D01*
X345794Y428269D01*
Y429519D01*
X346107Y430144D01*
X346420Y430457D01*
X347044Y430769D01*
X347982D01*
X348607Y430457D01*
X348920Y430144D01*
X345989Y63937D02*
Y67687D01*
X349114D01*
X348489Y65813D02*
X345989D01*
Y63937D02*
X349114D01*
X352959Y98406D02*
X353897D01*
Y98093D01*
X353585Y97469D01*
X353272Y97156D01*
X352647Y96843D01*
X352022D01*
X351397Y97156D01*
X351085Y97469D01*
X350772Y98093D01*
Y99343D01*
X351085Y99969D01*
X351397Y100281D01*
X352022Y100593D01*
X352647D01*
X353272Y100281D01*
X353585Y99969D01*
X353897Y99343D01*
X352959Y153582D02*
X353897D01*
Y153269D01*
X353585Y152644D01*
X353272Y152332D01*
X352647Y152019D01*
X352022D01*
X351397Y152332D01*
X351085Y152644D01*
X350772Y153269D01*
Y154519D01*
X351085Y155144D01*
X351397Y155457D01*
X352022Y155769D01*
X352647D01*
X353272Y155457D01*
X353585Y155144D01*
X353897Y154519D01*
X352959Y208583D02*
X353897D01*
Y208270D01*
X353585Y207645D01*
X353272Y207333D01*
X352647Y207020D01*
X352022D01*
X351397Y207333D01*
X351085Y207645D01*
X350772Y208270D01*
Y209520D01*
X351085Y210145D01*
X351397Y210458D01*
X352022Y210770D01*
X352647D01*
X353272Y210458D01*
X353585Y210145D01*
X353897Y209520D01*
X352959Y253582D02*
X353897D01*
Y253269D01*
X353585Y252644D01*
X353272Y252332D01*
X352647Y252019D01*
X352022D01*
X351397Y252332D01*
X351085Y252644D01*
X350772Y253269D01*
Y254519D01*
X351085Y255144D01*
X351397Y255457D01*
X352022Y255769D01*
X352647D01*
X353272Y255457D01*
X353585Y255144D01*
X353897Y254519D01*
X358897Y307644D02*
X358585Y307332D01*
X357959Y307019D01*
X357022D01*
X356397Y307332D01*
X356085Y307644D01*
X355772Y308269D01*
Y309519D01*
X356085Y310144D01*
X356397Y310457D01*
X357022Y310769D01*
X357959D01*
X358585Y310457D01*
X358897Y310144D01*
Y327644D02*
X358585Y327332D01*
X357959Y327019D01*
X357022D01*
X356397Y327332D01*
X356085Y327644D01*
X355772Y328269D01*
Y329519D01*
X356085Y330144D01*
X356397Y330457D01*
X357022Y330769D01*
X357959D01*
X358585Y330457D01*
X358897Y330144D01*
X358920Y407644D02*
X358607Y407332D01*
X357982Y407019D01*
X357044D01*
X356420Y407332D01*
X356107Y407644D01*
X355794Y408269D01*
Y409519D01*
X356107Y410144D01*
X356420Y410457D01*
X357044Y410769D01*
X357982D01*
X358607Y410457D01*
X358920Y410144D01*
Y427644D02*
X358607Y427332D01*
X357982Y427019D01*
X357044D01*
X356420Y427332D01*
X356107Y427644D01*
X355794Y428269D01*
Y429519D01*
X356107Y430144D01*
X356420Y430457D01*
X357044Y430769D01*
X357982D01*
X358607Y430457D01*
X358920Y430144D01*
X355989Y64062D02*
Y67812D01*
X359114D01*
X358489Y65937D02*
X355989D01*
Y64062D02*
X359114D01*
X362445Y113269D02*
Y114519D01*
X362758Y115144D01*
X363070Y115457D01*
X363695Y115769D01*
X364320D01*
X364945Y115457D01*
X365258Y115144D01*
X365570Y114519D01*
Y113269D01*
X365258Y112644D01*
X364945Y112332D01*
X364320Y112019D01*
X363695D01*
X363070Y112332D01*
X362758Y112644D01*
X362445Y113269D01*
Y163269D02*
Y164519D01*
X362758Y165144D01*
X363070Y165457D01*
X363695Y165769D01*
X364320D01*
X364945Y165457D01*
X365258Y165144D01*
X365570Y164519D01*
Y163269D01*
X365258Y162644D01*
X364945Y162332D01*
X364320Y162019D01*
X363695D01*
X363070Y162332D01*
X362758Y162644D01*
X362445Y163269D01*
Y213269D02*
Y214519D01*
X362758Y215144D01*
X363070Y215457D01*
X363695Y215769D01*
X364320D01*
X364945Y215457D01*
X365258Y215144D01*
X365570Y214519D01*
Y213269D01*
X365258Y212644D01*
X364945Y212332D01*
X364320Y212019D01*
X363695D01*
X363070Y212332D01*
X362758Y212644D01*
X362445Y213269D01*
Y263269D02*
Y264519D01*
X362758Y265144D01*
X363070Y265457D01*
X363695Y265769D01*
X364320D01*
X364945Y265457D01*
X365258Y265144D01*
X365570Y264519D01*
Y263269D01*
X365258Y262644D01*
X364945Y262332D01*
X364320Y262019D01*
X363695D01*
X363070Y262332D01*
X362758Y262644D01*
X362445Y263269D01*
X364633Y456965D02*
X365570D01*
Y456653D01*
X365258Y456028D01*
X364945Y455715D01*
X364320Y455403D01*
X363695D01*
X363070Y455715D01*
X362758Y456028D01*
X362445Y456653D01*
Y457903D01*
X362758Y458528D01*
X363070Y458841D01*
X363695Y459153D01*
X364320D01*
X364945Y458841D01*
X365258Y458528D01*
X365570Y457903D01*
X368897Y307644D02*
X368585Y307332D01*
X367959Y307019D01*
X367022D01*
X366397Y307332D01*
X366085Y307644D01*
X365772Y308269D01*
Y309519D01*
X366085Y310144D01*
X366397Y310457D01*
X367022Y310769D01*
X367959D01*
X368585Y310457D01*
X368897Y310144D01*
Y327644D02*
X368585Y327332D01*
X367959Y327019D01*
X367022D01*
X366397Y327332D01*
X366085Y327644D01*
X365772Y328269D01*
Y329519D01*
X366085Y330144D01*
X366397Y330457D01*
X367022Y330769D01*
X367959D01*
X368585Y330457D01*
X368897Y330144D01*
X368920Y407644D02*
X368607Y407332D01*
X367982Y407019D01*
X367044D01*
X366420Y407332D01*
X366107Y407644D01*
X365794Y408269D01*
Y409519D01*
X366107Y410144D01*
X366420Y410457D01*
X367044Y410769D01*
X367982D01*
X368607Y410457D01*
X368920Y410144D01*
Y427644D02*
X368607Y427332D01*
X367982Y427019D01*
X367044D01*
X366420Y427332D01*
X366107Y427644D01*
X365794Y428269D01*
Y429519D01*
X366107Y430144D01*
X366420Y430457D01*
X367044Y430769D01*
X367982D01*
X368607Y430457D01*
X368920Y430144D01*
X365989Y64187D02*
Y67937D01*
X369114D01*
X368489Y66062D02*
X365989D01*
Y64187D02*
X369114D01*
X372959Y98780D02*
X373897D01*
Y98468D01*
X373585Y97843D01*
X373272Y97530D01*
X372647Y97218D01*
X372022D01*
X371397Y97530D01*
X371085Y97843D01*
X370772Y98468D01*
Y99718D01*
X371085Y100343D01*
X371397Y100656D01*
X372022Y100968D01*
X372647D01*
X373272Y100656D01*
X373585Y100343D01*
X373897Y99718D01*
X372960Y83804D02*
X373898D01*
Y83491D01*
X373585Y82867D01*
X373273Y82554D01*
X372648Y82241D01*
X372023D01*
X371398Y82554D01*
X371085Y82867D01*
X370773Y83491D01*
Y84741D01*
X371085Y85367D01*
X371398Y85679D01*
X372023Y85991D01*
X372648D01*
X373273Y85679D01*
X373585Y85367D01*
X373898Y84741D01*
X370898Y62023D02*
Y65773D01*
X374023D01*
X373398Y63898D02*
X370898D01*
Y62023D02*
X374023D01*
X372445Y203269D02*
Y204519D01*
X372758Y205144D01*
X373070Y205457D01*
X373695Y205769D01*
X374320D01*
X374945Y205457D01*
X375258Y205144D01*
X375570Y204519D01*
Y203269D01*
X375258Y202644D01*
X374945Y202332D01*
X374320Y202019D01*
X373695D01*
X373070Y202332D01*
X372758Y202644D01*
X372445Y203269D01*
X372485Y112994D02*
Y114244D01*
X372797Y114870D01*
X373110Y115182D01*
X373735Y115494D01*
X374360D01*
X374985Y115182D01*
X375297Y114870D01*
X375610Y114244D01*
Y112994D01*
X375297Y112370D01*
X374985Y112057D01*
X374360Y111744D01*
X373735D01*
X373110Y112057D01*
X372797Y112370D01*
X372485Y112994D01*
Y122994D02*
Y124244D01*
X372797Y124870D01*
X373110Y125182D01*
X373735Y125494D01*
X374360D01*
X374985Y125182D01*
X375297Y124870D01*
X375610Y124244D01*
Y122994D01*
X375297Y122370D01*
X374985Y122057D01*
X374360Y121744D01*
X373735D01*
X373110Y122057D01*
X372797Y122370D01*
X372485Y122994D01*
Y132994D02*
Y134244D01*
X372797Y134870D01*
X373110Y135182D01*
X373735Y135494D01*
X374360D01*
X374985Y135182D01*
X375297Y134870D01*
X375610Y134244D01*
Y132994D01*
X375297Y132370D01*
X374985Y132057D01*
X374360Y131744D01*
X373735D01*
X373110Y132057D01*
X372797Y132370D01*
X372485Y132994D01*
Y142994D02*
Y144244D01*
X372797Y144870D01*
X373110Y145182D01*
X373735Y145494D01*
X374360D01*
X374985Y145182D01*
X375297Y144870D01*
X375610Y144244D01*
Y142994D01*
X375297Y142370D01*
X374985Y142057D01*
X374360Y141744D01*
X373735D01*
X373110Y142057D01*
X372797Y142370D01*
X372485Y142994D01*
Y152994D02*
Y154244D01*
X372797Y154870D01*
X373110Y155182D01*
X373735Y155494D01*
X374360D01*
X374985Y155182D01*
X375297Y154870D01*
X375610Y154244D01*
Y152994D01*
X375297Y152370D01*
X374985Y152057D01*
X374360Y151744D01*
X373735D01*
X373110Y152057D01*
X372797Y152370D01*
X372485Y152994D01*
Y162994D02*
Y164244D01*
X372797Y164870D01*
X373110Y165182D01*
X373735Y165494D01*
X374360D01*
X374985Y165182D01*
X375297Y164870D01*
X375610Y164244D01*
Y162994D01*
X375297Y162370D01*
X374985Y162057D01*
X374360Y161744D01*
X373735D01*
X373110Y162057D01*
X372797Y162370D01*
X372485Y162994D01*
Y172994D02*
Y174244D01*
X372797Y174870D01*
X373110Y175182D01*
X373735Y175494D01*
X374360D01*
X374985Y175182D01*
X375297Y174870D01*
X375610Y174244D01*
Y172994D01*
X375297Y172370D01*
X374985Y172057D01*
X374360Y171744D01*
X373735D01*
X373110Y172057D01*
X372797Y172370D01*
X372485Y172994D01*
Y182994D02*
Y184244D01*
X372797Y184870D01*
X373110Y185182D01*
X373735Y185494D01*
X374360D01*
X374985Y185182D01*
X375297Y184870D01*
X375610Y184244D01*
Y182994D01*
X375297Y182370D01*
X374985Y182057D01*
X374360Y181744D01*
X373735D01*
X373110Y182057D01*
X372797Y182370D01*
X372485Y182994D01*
Y192994D02*
Y194244D01*
X372797Y194870D01*
X373110Y195182D01*
X373735Y195494D01*
X374360D01*
X374985Y195182D01*
X375297Y194870D01*
X375610Y194244D01*
Y192994D01*
X375297Y192370D01*
X374985Y192057D01*
X374360Y191744D01*
X373735D01*
X373110Y192057D01*
X372797Y192370D01*
X372485Y192994D01*
Y212994D02*
Y214244D01*
X372797Y214870D01*
X373110Y215182D01*
X373735Y215494D01*
X374360D01*
X374985Y215182D01*
X375297Y214870D01*
X375610Y214244D01*
Y212994D01*
X375297Y212370D01*
X374985Y212057D01*
X374360Y211744D01*
X373735D01*
X373110Y212057D01*
X372797Y212370D01*
X372485Y212994D01*
Y222994D02*
Y224244D01*
X372797Y224870D01*
X373110Y225182D01*
X373735Y225494D01*
X374360D01*
X374985Y225182D01*
X375297Y224870D01*
X375610Y224244D01*
Y222994D01*
X375297Y222370D01*
X374985Y222057D01*
X374360Y221744D01*
X373735D01*
X373110Y222057D01*
X372797Y222370D01*
X372485Y222994D01*
Y232994D02*
Y234244D01*
X372797Y234870D01*
X373110Y235182D01*
X373735Y235494D01*
X374360D01*
X374985Y235182D01*
X375297Y234870D01*
X375610Y234244D01*
Y232994D01*
X375297Y232370D01*
X374985Y232057D01*
X374360Y231744D01*
X373735D01*
X373110Y232057D01*
X372797Y232370D01*
X372485Y232994D01*
Y242994D02*
Y244244D01*
X372797Y244870D01*
X373110Y245182D01*
X373735Y245494D01*
X374360D01*
X374985Y245182D01*
X375297Y244870D01*
X375610Y244244D01*
Y242994D01*
X375297Y242370D01*
X374985Y242057D01*
X374360Y241744D01*
X373735D01*
X373110Y242057D01*
X372797Y242370D01*
X372485Y242994D01*
Y252994D02*
Y254244D01*
X372797Y254870D01*
X373110Y255182D01*
X373735Y255494D01*
X374360D01*
X374985Y255182D01*
X375297Y254870D01*
X375610Y254244D01*
Y252994D01*
X375297Y252370D01*
X374985Y252057D01*
X374360Y251744D01*
X373735D01*
X373110Y252057D01*
X372797Y252370D01*
X372485Y252994D01*
Y262994D02*
Y264244D01*
X372797Y264870D01*
X373110Y265182D01*
X373735Y265494D01*
X374360D01*
X374985Y265182D01*
X375297Y264870D01*
X375610Y264244D01*
Y262994D01*
X375297Y262370D01*
X374985Y262057D01*
X374360Y261744D01*
X373735D01*
X373110Y262057D01*
X372797Y262370D01*
X372485Y262994D01*
X378897Y307644D02*
X378585Y307332D01*
X377959Y307019D01*
X377022D01*
X376397Y307332D01*
X376085Y307644D01*
X375772Y308269D01*
Y309519D01*
X376085Y310144D01*
X376397Y310457D01*
X377022Y310769D01*
X377959D01*
X378585Y310457D01*
X378897Y310144D01*
Y327644D02*
X378585Y327332D01*
X377959Y327019D01*
X377022D01*
X376397Y327332D01*
X376085Y327644D01*
X375772Y328269D01*
Y329519D01*
X376085Y330144D01*
X376397Y330457D01*
X377022Y330769D01*
X377959D01*
X378585Y330457D01*
X378897Y330144D01*
X378920Y407644D02*
X378607Y407332D01*
X377982Y407019D01*
X377044D01*
X376420Y407332D01*
X376107Y407644D01*
X375794Y408269D01*
Y409519D01*
X376107Y410144D01*
X376420Y410457D01*
X377044Y410769D01*
X377982D01*
X378607Y410457D01*
X378920Y410144D01*
Y427644D02*
X378607Y427332D01*
X377982Y427019D01*
X377044D01*
X376420Y427332D01*
X376107Y427644D01*
X375794Y428269D01*
Y429519D01*
X376107Y430144D01*
X376420Y430457D01*
X377044Y430769D01*
X377982D01*
X378607Y430457D01*
X378920Y430144D01*
X378136Y62023D02*
Y65773D01*
X381261D01*
X380636Y63898D02*
X378136D01*
Y62023D02*
X381261D01*
X384209Y348583D02*
X385147D01*
Y348270D01*
X384835Y347645D01*
X384522Y347333D01*
X383897Y347020D01*
X383272D01*
X382647Y347333D01*
X382335Y347645D01*
X382022Y348270D01*
Y349520D01*
X382335Y350145D01*
X382647Y350458D01*
X383272Y350770D01*
X383897D01*
X384522Y350458D01*
X384835Y350145D01*
X385147Y349520D01*
X382485Y112994D02*
Y114244D01*
X382797Y114870D01*
X383110Y115182D01*
X383735Y115494D01*
X384360D01*
X384985Y115182D01*
X385297Y114870D01*
X385610Y114244D01*
Y112994D01*
X385297Y112370D01*
X384985Y112057D01*
X384360Y111744D01*
X383735D01*
X383110Y112057D01*
X382797Y112370D01*
X382485Y112994D01*
Y122994D02*
Y124244D01*
X382797Y124870D01*
X383110Y125182D01*
X383735Y125494D01*
X384360D01*
X384985Y125182D01*
X385297Y124870D01*
X385610Y124244D01*
Y122994D01*
X385297Y122370D01*
X384985Y122057D01*
X384360Y121744D01*
X383735D01*
X383110Y122057D01*
X382797Y122370D01*
X382485Y122994D01*
Y132994D02*
Y134244D01*
X382797Y134870D01*
X383110Y135182D01*
X383735Y135494D01*
X384360D01*
X384985Y135182D01*
X385297Y134870D01*
X385610Y134244D01*
Y132994D01*
X385297Y132370D01*
X384985Y132057D01*
X384360Y131744D01*
X383735D01*
X383110Y132057D01*
X382797Y132370D01*
X382485Y132994D01*
Y142994D02*
Y144244D01*
X382797Y144870D01*
X383110Y145182D01*
X383735Y145494D01*
X384360D01*
X384985Y145182D01*
X385297Y144870D01*
X385610Y144244D01*
Y142994D01*
X385297Y142370D01*
X384985Y142057D01*
X384360Y141744D01*
X383735D01*
X383110Y142057D01*
X382797Y142370D01*
X382485Y142994D01*
Y152994D02*
Y154244D01*
X382797Y154870D01*
X383110Y155182D01*
X383735Y155494D01*
X384360D01*
X384985Y155182D01*
X385297Y154870D01*
X385610Y154244D01*
Y152994D01*
X385297Y152370D01*
X384985Y152057D01*
X384360Y151744D01*
X383735D01*
X383110Y152057D01*
X382797Y152370D01*
X382485Y152994D01*
Y162994D02*
Y164244D01*
X382797Y164870D01*
X383110Y165182D01*
X383735Y165494D01*
X384360D01*
X384985Y165182D01*
X385297Y164870D01*
X385610Y164244D01*
Y162994D01*
X385297Y162370D01*
X384985Y162057D01*
X384360Y161744D01*
X383735D01*
X383110Y162057D01*
X382797Y162370D01*
X382485Y162994D01*
Y172994D02*
Y174244D01*
X382797Y174870D01*
X383110Y175182D01*
X383735Y175494D01*
X384360D01*
X384985Y175182D01*
X385297Y174870D01*
X385610Y174244D01*
Y172994D01*
X385297Y172370D01*
X384985Y172057D01*
X384360Y171744D01*
X383735D01*
X383110Y172057D01*
X382797Y172370D01*
X382485Y172994D01*
Y182994D02*
Y184244D01*
X382797Y184870D01*
X383110Y185182D01*
X383735Y185494D01*
X384360D01*
X384985Y185182D01*
X385297Y184870D01*
X385610Y184244D01*
Y182994D01*
X385297Y182370D01*
X384985Y182057D01*
X384360Y181744D01*
X383735D01*
X383110Y182057D01*
X382797Y182370D01*
X382485Y182994D01*
Y192994D02*
Y194244D01*
X382797Y194870D01*
X383110Y195182D01*
X383735Y195494D01*
X384360D01*
X384985Y195182D01*
X385297Y194870D01*
X385610Y194244D01*
Y192994D01*
X385297Y192370D01*
X384985Y192057D01*
X384360Y191744D01*
X383735D01*
X383110Y192057D01*
X382797Y192370D01*
X382485Y192994D01*
Y202994D02*
Y204244D01*
X382797Y204870D01*
X383110Y205182D01*
X383735Y205494D01*
X384360D01*
X384985Y205182D01*
X385297Y204870D01*
X385610Y204244D01*
Y202994D01*
X385297Y202370D01*
X384985Y202057D01*
X384360Y201744D01*
X383735D01*
X383110Y202057D01*
X382797Y202370D01*
X382485Y202994D01*
Y212994D02*
Y214244D01*
X382797Y214870D01*
X383110Y215182D01*
X383735Y215494D01*
X384360D01*
X384985Y215182D01*
X385297Y214870D01*
X385610Y214244D01*
Y212994D01*
X385297Y212370D01*
X384985Y212057D01*
X384360Y211744D01*
X383735D01*
X383110Y212057D01*
X382797Y212370D01*
X382485Y212994D01*
Y222994D02*
Y224244D01*
X382797Y224870D01*
X383110Y225182D01*
X383735Y225494D01*
X384360D01*
X384985Y225182D01*
X385297Y224870D01*
X385610Y224244D01*
Y222994D01*
X385297Y222370D01*
X384985Y222057D01*
X384360Y221744D01*
X383735D01*
X383110Y222057D01*
X382797Y222370D01*
X382485Y222994D01*
Y232994D02*
Y234244D01*
X382797Y234870D01*
X383110Y235182D01*
X383735Y235494D01*
X384360D01*
X384985Y235182D01*
X385297Y234870D01*
X385610Y234244D01*
Y232994D01*
X385297Y232370D01*
X384985Y232057D01*
X384360Y231744D01*
X383735D01*
X383110Y232057D01*
X382797Y232370D01*
X382485Y232994D01*
Y242994D02*
Y244244D01*
X382797Y244870D01*
X383110Y245182D01*
X383735Y245494D01*
X384360D01*
X384985Y245182D01*
X385297Y244870D01*
X385610Y244244D01*
Y242994D01*
X385297Y242370D01*
X384985Y242057D01*
X384360Y241744D01*
X383735D01*
X383110Y242057D01*
X382797Y242370D01*
X382485Y242994D01*
Y252994D02*
Y254244D01*
X382797Y254870D01*
X383110Y255182D01*
X383735Y255494D01*
X384360D01*
X384985Y255182D01*
X385297Y254870D01*
X385610Y254244D01*
Y252994D01*
X385297Y252370D01*
X384985Y252057D01*
X384360Y251744D01*
X383735D01*
X383110Y252057D01*
X382797Y252370D01*
X382485Y252994D01*
Y262994D02*
Y264244D01*
X382797Y264870D01*
X383110Y265182D01*
X383735Y265494D01*
X384360D01*
X384985Y265182D01*
X385297Y264870D01*
X385610Y264244D01*
Y262994D01*
X385297Y262370D01*
X384985Y262057D01*
X384360Y261744D01*
X383735D01*
X383110Y262057D01*
X382797Y262370D01*
X382485Y262994D01*
X385713Y92847D02*
Y96597D01*
X388838Y92847D01*
Y96597D01*
X385772Y271969D02*
Y275719D01*
Y273844D02*
X386709D01*
X388897Y275719D01*
X386709Y273844D02*
X388897Y271969D01*
X385772Y281969D02*
Y285719D01*
Y283844D02*
X386709D01*
X388897Y285719D01*
X386709Y283844D02*
X388897Y281969D01*
Y307644D02*
X388585Y307332D01*
X387959Y307019D01*
X387022D01*
X386397Y307332D01*
X386085Y307644D01*
X385772Y308269D01*
Y309519D01*
X386085Y310144D01*
X386397Y310457D01*
X387022Y310769D01*
X387959D01*
X388585Y310457D01*
X388897Y310144D01*
Y327644D02*
X388585Y327332D01*
X387959Y327019D01*
X387022D01*
X386397Y327332D01*
X386085Y327644D01*
X385772Y328269D01*
Y329519D01*
X386085Y330144D01*
X386397Y330457D01*
X387022Y330769D01*
X387959D01*
X388585Y330457D01*
X388897Y330144D01*
X385772Y372061D02*
Y375811D01*
Y373936D02*
X386709D01*
X388897Y375811D01*
X386709Y373936D02*
X388897Y372061D01*
X385772Y382061D02*
Y385811D01*
Y383936D02*
X386709D01*
X388897Y385811D01*
X386709Y383936D02*
X388897Y382061D01*
X388920Y407644D02*
X388607Y407332D01*
X387982Y407019D01*
X387044D01*
X386420Y407332D01*
X386107Y407644D01*
X385794Y408269D01*
Y409519D01*
X386107Y410144D01*
X386420Y410457D01*
X387044Y410769D01*
X387982D01*
X388607Y410457D01*
X388920Y410144D01*
Y427644D02*
X388607Y427332D01*
X387982Y427019D01*
X387044D01*
X386420Y427332D01*
X386107Y427644D01*
X385794Y428269D01*
Y429519D01*
X386107Y430144D01*
X386420Y430457D01*
X387044Y430769D01*
X387982D01*
X388607Y430457D01*
X388920Y430144D01*
X386540Y77099D02*
Y80849D01*
Y78974D02*
X389665D01*
Y77099D02*
Y80849D01*
X391302Y62148D02*
Y65898D01*
X394427D01*
X393802Y64023D02*
X391302D01*
Y62148D02*
X394427D01*
X392485Y112994D02*
Y114244D01*
X392797Y114870D01*
X393110Y115182D01*
X393735Y115494D01*
X394360D01*
X394985Y115182D01*
X395297Y114870D01*
X395610Y114244D01*
Y112994D01*
X395297Y112370D01*
X394985Y112057D01*
X394360Y111744D01*
X393735D01*
X393110Y112057D01*
X392797Y112370D01*
X392485Y112994D01*
Y122994D02*
Y124244D01*
X392797Y124870D01*
X393110Y125182D01*
X393735Y125494D01*
X394360D01*
X394985Y125182D01*
X395297Y124870D01*
X395610Y124244D01*
Y122994D01*
X395297Y122370D01*
X394985Y122057D01*
X394360Y121744D01*
X393735D01*
X393110Y122057D01*
X392797Y122370D01*
X392485Y122994D01*
Y132994D02*
Y134244D01*
X392797Y134870D01*
X393110Y135182D01*
X393735Y135494D01*
X394360D01*
X394985Y135182D01*
X395297Y134870D01*
X395610Y134244D01*
Y132994D01*
X395297Y132370D01*
X394985Y132057D01*
X394360Y131744D01*
X393735D01*
X393110Y132057D01*
X392797Y132370D01*
X392485Y132994D01*
Y142994D02*
Y144244D01*
X392797Y144870D01*
X393110Y145182D01*
X393735Y145494D01*
X394360D01*
X394985Y145182D01*
X395297Y144870D01*
X395610Y144244D01*
Y142994D01*
X395297Y142370D01*
X394985Y142057D01*
X394360Y141744D01*
X393735D01*
X393110Y142057D01*
X392797Y142370D01*
X392485Y142994D01*
Y152994D02*
Y154244D01*
X392797Y154870D01*
X393110Y155182D01*
X393735Y155494D01*
X394360D01*
X394985Y155182D01*
X395297Y154870D01*
X395610Y154244D01*
Y152994D01*
X395297Y152370D01*
X394985Y152057D01*
X394360Y151744D01*
X393735D01*
X393110Y152057D01*
X392797Y152370D01*
X392485Y152994D01*
Y162994D02*
Y164244D01*
X392797Y164870D01*
X393110Y165182D01*
X393735Y165494D01*
X394360D01*
X394985Y165182D01*
X395297Y164870D01*
X395610Y164244D01*
Y162994D01*
X395297Y162370D01*
X394985Y162057D01*
X394360Y161744D01*
X393735D01*
X393110Y162057D01*
X392797Y162370D01*
X392485Y162994D01*
Y172994D02*
Y174244D01*
X392797Y174870D01*
X393110Y175182D01*
X393735Y175494D01*
X394360D01*
X394985Y175182D01*
X395297Y174870D01*
X395610Y174244D01*
Y172994D01*
X395297Y172370D01*
X394985Y172057D01*
X394360Y171744D01*
X393735D01*
X393110Y172057D01*
X392797Y172370D01*
X392485Y172994D01*
Y182994D02*
Y184244D01*
X392797Y184870D01*
X393110Y185182D01*
X393735Y185494D01*
X394360D01*
X394985Y185182D01*
X395297Y184870D01*
X395610Y184244D01*
Y182994D01*
X395297Y182370D01*
X394985Y182057D01*
X394360Y181744D01*
X393735D01*
X393110Y182057D01*
X392797Y182370D01*
X392485Y182994D01*
Y192994D02*
Y194244D01*
X392797Y194870D01*
X393110Y195182D01*
X393735Y195494D01*
X394360D01*
X394985Y195182D01*
X395297Y194870D01*
X395610Y194244D01*
Y192994D01*
X395297Y192370D01*
X394985Y192057D01*
X394360Y191744D01*
X393735D01*
X393110Y192057D01*
X392797Y192370D01*
X392485Y192994D01*
Y202994D02*
Y204244D01*
X392797Y204870D01*
X393110Y205182D01*
X393735Y205494D01*
X394360D01*
X394985Y205182D01*
X395297Y204870D01*
X395610Y204244D01*
Y202994D01*
X395297Y202370D01*
X394985Y202057D01*
X394360Y201744D01*
X393735D01*
X393110Y202057D01*
X392797Y202370D01*
X392485Y202994D01*
Y212994D02*
Y214244D01*
X392797Y214870D01*
X393110Y215182D01*
X393735Y215494D01*
X394360D01*
X394985Y215182D01*
X395297Y214870D01*
X395610Y214244D01*
Y212994D01*
X395297Y212370D01*
X394985Y212057D01*
X394360Y211744D01*
X393735D01*
X393110Y212057D01*
X392797Y212370D01*
X392485Y212994D01*
Y222994D02*
Y224244D01*
X392797Y224870D01*
X393110Y225182D01*
X393735Y225494D01*
X394360D01*
X394985Y225182D01*
X395297Y224870D01*
X395610Y224244D01*
Y222994D01*
X395297Y222370D01*
X394985Y222057D01*
X394360Y221744D01*
X393735D01*
X393110Y222057D01*
X392797Y222370D01*
X392485Y222994D01*
Y232994D02*
Y234244D01*
X392797Y234870D01*
X393110Y235182D01*
X393735Y235494D01*
X394360D01*
X394985Y235182D01*
X395297Y234870D01*
X395610Y234244D01*
Y232994D01*
X395297Y232370D01*
X394985Y232057D01*
X394360Y231744D01*
X393735D01*
X393110Y232057D01*
X392797Y232370D01*
X392485Y232994D01*
Y242994D02*
Y244244D01*
X392797Y244870D01*
X393110Y245182D01*
X393735Y245494D01*
X394360D01*
X394985Y245182D01*
X395297Y244870D01*
X395610Y244244D01*
Y242994D01*
X395297Y242370D01*
X394985Y242057D01*
X394360Y241744D01*
X393735D01*
X393110Y242057D01*
X392797Y242370D01*
X392485Y242994D01*
Y252994D02*
Y254244D01*
X392797Y254870D01*
X393110Y255182D01*
X393735Y255494D01*
X394360D01*
X394985Y255182D01*
X395297Y254870D01*
X395610Y254244D01*
Y252994D01*
X395297Y252370D01*
X394985Y252057D01*
X394360Y251744D01*
X393735D01*
X393110Y252057D01*
X392797Y252370D01*
X392485Y252994D01*
Y262994D02*
Y264244D01*
X392797Y264870D01*
X393110Y265182D01*
X393735Y265494D01*
X394360D01*
X394985Y265182D01*
X395297Y264870D01*
X395610Y264244D01*
Y262994D01*
X395297Y262370D01*
X394985Y262057D01*
X394360Y261744D01*
X393735D01*
X393110Y262057D01*
X392797Y262370D01*
X392485Y262994D01*
X398897Y307644D02*
X398585Y307332D01*
X397959Y307019D01*
X397022D01*
X396397Y307332D01*
X396085Y307644D01*
X395772Y308269D01*
Y309519D01*
X396085Y310144D01*
X396397Y310457D01*
X397022Y310769D01*
X397959D01*
X398585Y310457D01*
X398897Y310144D01*
Y327644D02*
X398585Y327332D01*
X397959Y327019D01*
X397022D01*
X396397Y327332D01*
X396085Y327644D01*
X395772Y328269D01*
Y329519D01*
X396085Y330144D01*
X396397Y330457D01*
X397022Y330769D01*
X397959D01*
X398585Y330457D01*
X398897Y330144D01*
X398920Y407644D02*
X398607Y407332D01*
X397982Y407019D01*
X397044D01*
X396420Y407332D01*
X396107Y407644D01*
X395794Y408269D01*
Y409519D01*
X396107Y410144D01*
X396420Y410457D01*
X397044Y410769D01*
X397982D01*
X398607Y410457D01*
X398920Y410144D01*
Y427644D02*
X398607Y427332D01*
X397982Y427019D01*
X397044D01*
X396420Y427332D01*
X396107Y427644D01*
X395794Y428269D01*
Y429519D01*
X396107Y430144D01*
X396420Y430457D01*
X397044Y430769D01*
X397982D01*
X398607Y430457D01*
X398920Y430144D01*
X404574Y73582D02*
X405512D01*
Y73269D01*
X405199Y72644D01*
X404887Y72332D01*
X404262Y72019D01*
X403637D01*
X403012Y72332D01*
X402699Y72644D01*
X402387Y73269D01*
Y74519D01*
X402699Y75144D01*
X403012Y75457D01*
X403637Y75769D01*
X404262D01*
X404887Y75457D01*
X405199Y75144D01*
X405512Y74519D01*
X404574Y98582D02*
X405512D01*
Y98269D01*
X405199Y97644D01*
X404887Y97332D01*
X404262Y97019D01*
X403637D01*
X403012Y97332D01*
X402699Y97644D01*
X402387Y98269D01*
Y99519D01*
X402699Y100144D01*
X403012Y100457D01*
X403637Y100769D01*
X404262D01*
X404887Y100457D01*
X405199Y100144D01*
X405512Y99519D01*
X402485Y112994D02*
Y114244D01*
X402797Y114870D01*
X403110Y115182D01*
X403735Y115494D01*
X404360D01*
X404985Y115182D01*
X405297Y114870D01*
X405610Y114244D01*
Y112994D01*
X405297Y112370D01*
X404985Y112057D01*
X404360Y111744D01*
X403735D01*
X403110Y112057D01*
X402797Y112370D01*
X402485Y112994D01*
Y122994D02*
Y124244D01*
X402797Y124870D01*
X403110Y125182D01*
X403735Y125494D01*
X404360D01*
X404985Y125182D01*
X405297Y124870D01*
X405610Y124244D01*
Y122994D01*
X405297Y122370D01*
X404985Y122057D01*
X404360Y121744D01*
X403735D01*
X403110Y122057D01*
X402797Y122370D01*
X402485Y122994D01*
Y132994D02*
Y134244D01*
X402797Y134870D01*
X403110Y135182D01*
X403735Y135494D01*
X404360D01*
X404985Y135182D01*
X405297Y134870D01*
X405610Y134244D01*
Y132994D01*
X405297Y132370D01*
X404985Y132057D01*
X404360Y131744D01*
X403735D01*
X403110Y132057D01*
X402797Y132370D01*
X402485Y132994D01*
Y142994D02*
Y144244D01*
X402797Y144870D01*
X403110Y145182D01*
X403735Y145494D01*
X404360D01*
X404985Y145182D01*
X405297Y144870D01*
X405610Y144244D01*
Y142994D01*
X405297Y142370D01*
X404985Y142057D01*
X404360Y141744D01*
X403735D01*
X403110Y142057D01*
X402797Y142370D01*
X402485Y142994D01*
Y152994D02*
Y154244D01*
X402797Y154870D01*
X403110Y155182D01*
X403735Y155494D01*
X404360D01*
X404985Y155182D01*
X405297Y154870D01*
X405610Y154244D01*
Y152994D01*
X405297Y152370D01*
X404985Y152057D01*
X404360Y151744D01*
X403735D01*
X403110Y152057D01*
X402797Y152370D01*
X402485Y152994D01*
Y162994D02*
Y164244D01*
X402797Y164870D01*
X403110Y165182D01*
X403735Y165494D01*
X404360D01*
X404985Y165182D01*
X405297Y164870D01*
X405610Y164244D01*
Y162994D01*
X405297Y162370D01*
X404985Y162057D01*
X404360Y161744D01*
X403735D01*
X403110Y162057D01*
X402797Y162370D01*
X402485Y162994D01*
Y172994D02*
Y174244D01*
X402797Y174870D01*
X403110Y175182D01*
X403735Y175494D01*
X404360D01*
X404985Y175182D01*
X405297Y174870D01*
X405610Y174244D01*
Y172994D01*
X405297Y172370D01*
X404985Y172057D01*
X404360Y171744D01*
X403735D01*
X403110Y172057D01*
X402797Y172370D01*
X402485Y172994D01*
Y182994D02*
Y184244D01*
X402797Y184870D01*
X403110Y185182D01*
X403735Y185494D01*
X404360D01*
X404985Y185182D01*
X405297Y184870D01*
X405610Y184244D01*
Y182994D01*
X405297Y182370D01*
X404985Y182057D01*
X404360Y181744D01*
X403735D01*
X403110Y182057D01*
X402797Y182370D01*
X402485Y182994D01*
Y192994D02*
Y194244D01*
X402797Y194870D01*
X403110Y195182D01*
X403735Y195494D01*
X404360D01*
X404985Y195182D01*
X405297Y194870D01*
X405610Y194244D01*
Y192994D01*
X405297Y192370D01*
X404985Y192057D01*
X404360Y191744D01*
X403735D01*
X403110Y192057D01*
X402797Y192370D01*
X402485Y192994D01*
Y202994D02*
Y204244D01*
X402797Y204870D01*
X403110Y205182D01*
X403735Y205494D01*
X404360D01*
X404985Y205182D01*
X405297Y204870D01*
X405610Y204244D01*
Y202994D01*
X405297Y202370D01*
X404985Y202057D01*
X404360Y201744D01*
X403735D01*
X403110Y202057D01*
X402797Y202370D01*
X402485Y202994D01*
Y212994D02*
Y214244D01*
X402797Y214870D01*
X403110Y215182D01*
X403735Y215494D01*
X404360D01*
X404985Y215182D01*
X405297Y214870D01*
X405610Y214244D01*
Y212994D01*
X405297Y212370D01*
X404985Y212057D01*
X404360Y211744D01*
X403735D01*
X403110Y212057D01*
X402797Y212370D01*
X402485Y212994D01*
Y222994D02*
Y224244D01*
X402797Y224870D01*
X403110Y225182D01*
X403735Y225494D01*
X404360D01*
X404985Y225182D01*
X405297Y224870D01*
X405610Y224244D01*
Y222994D01*
X405297Y222370D01*
X404985Y222057D01*
X404360Y221744D01*
X403735D01*
X403110Y222057D01*
X402797Y222370D01*
X402485Y222994D01*
Y232994D02*
Y234244D01*
X402797Y234870D01*
X403110Y235182D01*
X403735Y235494D01*
X404360D01*
X404985Y235182D01*
X405297Y234870D01*
X405610Y234244D01*
Y232994D01*
X405297Y232370D01*
X404985Y232057D01*
X404360Y231744D01*
X403735D01*
X403110Y232057D01*
X402797Y232370D01*
X402485Y232994D01*
Y242994D02*
Y244244D01*
X402797Y244870D01*
X403110Y245182D01*
X403735Y245494D01*
X404360D01*
X404985Y245182D01*
X405297Y244870D01*
X405610Y244244D01*
Y242994D01*
X405297Y242370D01*
X404985Y242057D01*
X404360Y241744D01*
X403735D01*
X403110Y242057D01*
X402797Y242370D01*
X402485Y242994D01*
Y252994D02*
Y254244D01*
X402797Y254870D01*
X403110Y255182D01*
X403735Y255494D01*
X404360D01*
X404985Y255182D01*
X405297Y254870D01*
X405610Y254244D01*
Y252994D01*
X405297Y252370D01*
X404985Y252057D01*
X404360Y251744D01*
X403735D01*
X403110Y252057D01*
X402797Y252370D01*
X402485Y252994D01*
Y262994D02*
Y264244D01*
X402797Y264870D01*
X403110Y265182D01*
X403735Y265494D01*
X404360D01*
X404985Y265182D01*
X405297Y264870D01*
X405610Y264244D01*
Y262994D01*
X405297Y262370D01*
X404985Y262057D01*
X404360Y261744D01*
X403735D01*
X403110Y262057D01*
X402797Y262370D01*
X402485Y262994D01*
Y272994D02*
Y274244D01*
X402797Y274870D01*
X403110Y275182D01*
X403735Y275494D01*
X404360D01*
X404985Y275182D01*
X405297Y274870D01*
X405610Y274244D01*
Y272994D01*
X405297Y272370D01*
X404985Y272057D01*
X404360Y271744D01*
X403735D01*
X403110Y272057D01*
X402797Y272370D01*
X402485Y272994D01*
Y282994D02*
Y284244D01*
X402797Y284870D01*
X403110Y285182D01*
X403735Y285494D01*
X404360D01*
X404985Y285182D01*
X405297Y284870D01*
X405610Y284244D01*
Y282994D01*
X405297Y282370D01*
X404985Y282057D01*
X404360Y281744D01*
X403735D01*
X403110Y282057D01*
X402797Y282370D01*
X402485Y282994D01*
Y292994D02*
Y294244D01*
X402797Y294870D01*
X403110Y295182D01*
X403735Y295494D01*
X404360D01*
X404985Y295182D01*
X405297Y294870D01*
X405610Y294244D01*
Y292994D01*
X405297Y292370D01*
X404985Y292057D01*
X404360Y291744D01*
X403735D01*
X403110Y292057D01*
X402797Y292370D01*
X402485Y292994D01*
X406709Y348583D02*
X407647D01*
Y348270D01*
X407335Y347645D01*
X407022Y347333D01*
X406397Y347020D01*
X405772D01*
X405147Y347333D01*
X404835Y347645D01*
X404522Y348270D01*
Y349520D01*
X404835Y350145D01*
X405147Y350458D01*
X405772Y350770D01*
X406397D01*
X407022Y350458D01*
X407335Y350145D01*
X407647Y349520D01*
X406709Y388583D02*
X407647D01*
Y388270D01*
X407335Y387645D01*
X407022Y387333D01*
X406397Y387020D01*
X405772D01*
X405147Y387333D01*
X404835Y387645D01*
X404522Y388270D01*
Y389520D01*
X404835Y390145D01*
X405147Y390458D01*
X405772Y390770D01*
X406397D01*
X407022Y390458D01*
X407335Y390145D01*
X407647Y389520D01*
X414633Y456965D02*
X415570D01*
Y456653D01*
X415258Y456028D01*
X414945Y455715D01*
X414320Y455403D01*
X413695D01*
X413070Y455715D01*
X412758Y456028D01*
X412445Y456653D01*
Y457903D01*
X412758Y458528D01*
X413070Y458841D01*
X413695Y459153D01*
X414320D01*
X414945Y458841D01*
X415258Y458528D01*
X415570Y457903D01*
X412485Y72994D02*
Y74244D01*
X412797Y74870D01*
X413110Y75182D01*
X413735Y75494D01*
X414360D01*
X414985Y75182D01*
X415297Y74870D01*
X415610Y74244D01*
Y72994D01*
X415297Y72370D01*
X414985Y72057D01*
X414360Y71744D01*
X413735D01*
X413110Y72057D01*
X412797Y72370D01*
X412485Y72994D01*
Y82994D02*
Y84244D01*
X412797Y84870D01*
X413110Y85182D01*
X413735Y85494D01*
X414360D01*
X414985Y85182D01*
X415297Y84870D01*
X415610Y84244D01*
Y82994D01*
X415297Y82370D01*
X414985Y82057D01*
X414360Y81744D01*
X413735D01*
X413110Y82057D01*
X412797Y82370D01*
X412485Y82994D01*
Y92994D02*
Y94244D01*
X412797Y94870D01*
X413110Y95182D01*
X413735Y95494D01*
X414360D01*
X414985Y95182D01*
X415297Y94870D01*
X415610Y94244D01*
Y92994D01*
X415297Y92370D01*
X414985Y92057D01*
X414360Y91744D01*
X413735D01*
X413110Y92057D01*
X412797Y92370D01*
X412485Y92994D01*
Y102994D02*
Y104244D01*
X412797Y104870D01*
X413110Y105182D01*
X413735Y105494D01*
X414360D01*
X414985Y105182D01*
X415297Y104870D01*
X415610Y104244D01*
Y102994D01*
X415297Y102370D01*
X414985Y102057D01*
X414360Y101744D01*
X413735D01*
X413110Y102057D01*
X412797Y102370D01*
X412485Y102994D01*
Y112994D02*
Y114244D01*
X412797Y114870D01*
X413110Y115182D01*
X413735Y115494D01*
X414360D01*
X414985Y115182D01*
X415297Y114870D01*
X415610Y114244D01*
Y112994D01*
X415297Y112370D01*
X414985Y112057D01*
X414360Y111744D01*
X413735D01*
X413110Y112057D01*
X412797Y112370D01*
X412485Y112994D01*
Y122994D02*
Y124244D01*
X412797Y124870D01*
X413110Y125182D01*
X413735Y125494D01*
X414360D01*
X414985Y125182D01*
X415297Y124870D01*
X415610Y124244D01*
Y122994D01*
X415297Y122370D01*
X414985Y122057D01*
X414360Y121744D01*
X413735D01*
X413110Y122057D01*
X412797Y122370D01*
X412485Y122994D01*
Y132994D02*
Y134244D01*
X412797Y134870D01*
X413110Y135182D01*
X413735Y135494D01*
X414360D01*
X414985Y135182D01*
X415297Y134870D01*
X415610Y134244D01*
Y132994D01*
X415297Y132370D01*
X414985Y132057D01*
X414360Y131744D01*
X413735D01*
X413110Y132057D01*
X412797Y132370D01*
X412485Y132994D01*
Y142994D02*
Y144244D01*
X412797Y144870D01*
X413110Y145182D01*
X413735Y145494D01*
X414360D01*
X414985Y145182D01*
X415297Y144870D01*
X415610Y144244D01*
Y142994D01*
X415297Y142370D01*
X414985Y142057D01*
X414360Y141744D01*
X413735D01*
X413110Y142057D01*
X412797Y142370D01*
X412485Y142994D01*
Y152994D02*
Y154244D01*
X412797Y154870D01*
X413110Y155182D01*
X413735Y155494D01*
X414360D01*
X414985Y155182D01*
X415297Y154870D01*
X415610Y154244D01*
Y152994D01*
X415297Y152370D01*
X414985Y152057D01*
X414360Y151744D01*
X413735D01*
X413110Y152057D01*
X412797Y152370D01*
X412485Y152994D01*
Y162994D02*
Y164244D01*
X412797Y164870D01*
X413110Y165182D01*
X413735Y165494D01*
X414360D01*
X414985Y165182D01*
X415297Y164870D01*
X415610Y164244D01*
Y162994D01*
X415297Y162370D01*
X414985Y162057D01*
X414360Y161744D01*
X413735D01*
X413110Y162057D01*
X412797Y162370D01*
X412485Y162994D01*
Y172994D02*
Y174244D01*
X412797Y174870D01*
X413110Y175182D01*
X413735Y175494D01*
X414360D01*
X414985Y175182D01*
X415297Y174870D01*
X415610Y174244D01*
Y172994D01*
X415297Y172370D01*
X414985Y172057D01*
X414360Y171744D01*
X413735D01*
X413110Y172057D01*
X412797Y172370D01*
X412485Y172994D01*
Y182994D02*
Y184244D01*
X412797Y184870D01*
X413110Y185182D01*
X413735Y185494D01*
X414360D01*
X414985Y185182D01*
X415297Y184870D01*
X415610Y184244D01*
Y182994D01*
X415297Y182370D01*
X414985Y182057D01*
X414360Y181744D01*
X413735D01*
X413110Y182057D01*
X412797Y182370D01*
X412485Y182994D01*
Y192994D02*
Y194244D01*
X412797Y194870D01*
X413110Y195182D01*
X413735Y195494D01*
X414360D01*
X414985Y195182D01*
X415297Y194870D01*
X415610Y194244D01*
Y192994D01*
X415297Y192370D01*
X414985Y192057D01*
X414360Y191744D01*
X413735D01*
X413110Y192057D01*
X412797Y192370D01*
X412485Y192994D01*
Y202994D02*
Y204244D01*
X412797Y204870D01*
X413110Y205182D01*
X413735Y205494D01*
X414360D01*
X414985Y205182D01*
X415297Y204870D01*
X415610Y204244D01*
Y202994D01*
X415297Y202370D01*
X414985Y202057D01*
X414360Y201744D01*
X413735D01*
X413110Y202057D01*
X412797Y202370D01*
X412485Y202994D01*
Y212994D02*
Y214244D01*
X412797Y214870D01*
X413110Y215182D01*
X413735Y215494D01*
X414360D01*
X414985Y215182D01*
X415297Y214870D01*
X415610Y214244D01*
Y212994D01*
X415297Y212370D01*
X414985Y212057D01*
X414360Y211744D01*
X413735D01*
X413110Y212057D01*
X412797Y212370D01*
X412485Y212994D01*
Y222994D02*
Y224244D01*
X412797Y224870D01*
X413110Y225182D01*
X413735Y225494D01*
X414360D01*
X414985Y225182D01*
X415297Y224870D01*
X415610Y224244D01*
Y222994D01*
X415297Y222370D01*
X414985Y222057D01*
X414360Y221744D01*
X413735D01*
X413110Y222057D01*
X412797Y222370D01*
X412485Y222994D01*
Y232994D02*
Y234244D01*
X412797Y234870D01*
X413110Y235182D01*
X413735Y235494D01*
X414360D01*
X414985Y235182D01*
X415297Y234870D01*
X415610Y234244D01*
Y232994D01*
X415297Y232370D01*
X414985Y232057D01*
X414360Y231744D01*
X413735D01*
X413110Y232057D01*
X412797Y232370D01*
X412485Y232994D01*
Y242994D02*
Y244244D01*
X412797Y244870D01*
X413110Y245182D01*
X413735Y245494D01*
X414360D01*
X414985Y245182D01*
X415297Y244870D01*
X415610Y244244D01*
Y242994D01*
X415297Y242370D01*
X414985Y242057D01*
X414360Y241744D01*
X413735D01*
X413110Y242057D01*
X412797Y242370D01*
X412485Y242994D01*
Y252994D02*
Y254244D01*
X412797Y254870D01*
X413110Y255182D01*
X413735Y255494D01*
X414360D01*
X414985Y255182D01*
X415297Y254870D01*
X415610Y254244D01*
Y252994D01*
X415297Y252370D01*
X414985Y252057D01*
X414360Y251744D01*
X413735D01*
X413110Y252057D01*
X412797Y252370D01*
X412485Y252994D01*
Y262994D02*
Y264244D01*
X412797Y264870D01*
X413110Y265182D01*
X413735Y265494D01*
X414360D01*
X414985Y265182D01*
X415297Y264870D01*
X415610Y264244D01*
Y262994D01*
X415297Y262370D01*
X414985Y262057D01*
X414360Y261744D01*
X413735D01*
X413110Y262057D01*
X412797Y262370D01*
X412485Y262994D01*
Y272994D02*
Y274244D01*
X412797Y274870D01*
X413110Y275182D01*
X413735Y275494D01*
X414360D01*
X414985Y275182D01*
X415297Y274870D01*
X415610Y274244D01*
Y272994D01*
X415297Y272370D01*
X414985Y272057D01*
X414360Y271744D01*
X413735D01*
X413110Y272057D01*
X412797Y272370D01*
X412485Y272994D01*
Y282994D02*
Y284244D01*
X412797Y284870D01*
X413110Y285182D01*
X413735Y285494D01*
X414360D01*
X414985Y285182D01*
X415297Y284870D01*
X415610Y284244D01*
Y282994D01*
X415297Y282370D01*
X414985Y282057D01*
X414360Y281744D01*
X413735D01*
X413110Y282057D01*
X412797Y282370D01*
X412485Y282994D01*
Y292994D02*
Y294244D01*
X412797Y294870D01*
X413110Y295182D01*
X413735Y295494D01*
X414360D01*
X414985Y295182D01*
X415297Y294870D01*
X415610Y294244D01*
Y292994D01*
X415297Y292370D01*
X414985Y292057D01*
X414360Y291744D01*
X413735D01*
X413110Y292057D01*
X412797Y292370D01*
X412485Y292994D01*
Y342994D02*
Y344244D01*
X412797Y344870D01*
X413110Y345182D01*
X413735Y345494D01*
X414360D01*
X414985Y345182D01*
X415297Y344870D01*
X415610Y344244D01*
Y342994D01*
X415297Y342370D01*
X414985Y342057D01*
X414360Y341744D01*
X413735D01*
X413110Y342057D01*
X412797Y342370D01*
X412485Y342994D01*
Y352994D02*
Y354244D01*
X412797Y354870D01*
X413110Y355182D01*
X413735Y355494D01*
X414360D01*
X414985Y355182D01*
X415297Y354870D01*
X415610Y354244D01*
Y352994D01*
X415297Y352370D01*
X414985Y352057D01*
X414360Y351744D01*
X413735D01*
X413110Y352057D01*
X412797Y352370D01*
X412485Y352994D01*
Y362994D02*
Y364244D01*
X412797Y364870D01*
X413110Y365182D01*
X413735Y365494D01*
X414360D01*
X414985Y365182D01*
X415297Y364870D01*
X415610Y364244D01*
Y362994D01*
X415297Y362370D01*
X414985Y362057D01*
X414360Y361744D01*
X413735D01*
X413110Y362057D01*
X412797Y362370D01*
X412485Y362994D01*
Y372994D02*
Y374244D01*
X412797Y374870D01*
X413110Y375182D01*
X413735Y375494D01*
X414360D01*
X414985Y375182D01*
X415297Y374870D01*
X415610Y374244D01*
Y372994D01*
X415297Y372370D01*
X414985Y372057D01*
X414360Y371744D01*
X413735D01*
X413110Y372057D01*
X412797Y372370D01*
X412485Y372994D01*
Y382994D02*
Y384244D01*
X412797Y384870D01*
X413110Y385182D01*
X413735Y385494D01*
X414360D01*
X414985Y385182D01*
X415297Y384870D01*
X415610Y384244D01*
Y382994D01*
X415297Y382370D01*
X414985Y382057D01*
X414360Y381744D01*
X413735D01*
X413110Y382057D01*
X412797Y382370D01*
X412485Y382994D01*
Y392994D02*
Y394244D01*
X412797Y394870D01*
X413110Y395182D01*
X413735Y395494D01*
X414360D01*
X414985Y395182D01*
X415297Y394870D01*
X415610Y394244D01*
Y392994D01*
X415297Y392370D01*
X414985Y392057D01*
X414360Y391744D01*
X413735D01*
X413110Y392057D01*
X412797Y392370D01*
X412485Y392994D01*
X417959Y303583D02*
X418897D01*
Y303270D01*
X418585Y302645D01*
X418272Y302333D01*
X417647Y302020D01*
X417022D01*
X416397Y302333D01*
X416085Y302645D01*
X415772Y303270D01*
Y304520D01*
X416085Y305145D01*
X416397Y305458D01*
X417022Y305770D01*
X417647D01*
X418272Y305458D01*
X418585Y305145D01*
X418897Y304520D01*
X417959Y333583D02*
X418897D01*
Y333270D01*
X418585Y332645D01*
X418272Y332333D01*
X417647Y332020D01*
X417022D01*
X416397Y332333D01*
X416085Y332645D01*
X415772Y333270D01*
Y334520D01*
X416085Y335145D01*
X416397Y335458D01*
X417022Y335770D01*
X417647D01*
X418272Y335458D01*
X418585Y335145D01*
X418897Y334520D01*
X417959Y403583D02*
X418897D01*
Y403270D01*
X418585Y402645D01*
X418272Y402333D01*
X417647Y402020D01*
X417022D01*
X416397Y402333D01*
X416085Y402645D01*
X415772Y403270D01*
Y404520D01*
X416085Y405145D01*
X416397Y405458D01*
X417022Y405770D01*
X417647D01*
X418272Y405458D01*
X418585Y405145D01*
X418897Y404520D01*
X417959Y433583D02*
X418897D01*
Y433270D01*
X418585Y432645D01*
X418272Y432333D01*
X417647Y432020D01*
X417022D01*
X416397Y432333D01*
X416085Y432645D01*
X415772Y433270D01*
Y434520D01*
X416085Y435145D01*
X416397Y435458D01*
X417022Y435770D01*
X417647D01*
X418272Y435458D01*
X418585Y435145D01*
X418897Y434520D01*
X422485Y72994D02*
Y74244D01*
X422797Y74870D01*
X423110Y75182D01*
X423735Y75494D01*
X424360D01*
X424985Y75182D01*
X425297Y74870D01*
X425610Y74244D01*
Y72994D01*
X425297Y72370D01*
X424985Y72057D01*
X424360Y71744D01*
X423735D01*
X423110Y72057D01*
X422797Y72370D01*
X422485Y72994D01*
Y82994D02*
Y84244D01*
X422797Y84870D01*
X423110Y85182D01*
X423735Y85494D01*
X424360D01*
X424985Y85182D01*
X425297Y84870D01*
X425610Y84244D01*
Y82994D01*
X425297Y82370D01*
X424985Y82057D01*
X424360Y81744D01*
X423735D01*
X423110Y82057D01*
X422797Y82370D01*
X422485Y82994D01*
Y92994D02*
Y94244D01*
X422797Y94870D01*
X423110Y95182D01*
X423735Y95494D01*
X424360D01*
X424985Y95182D01*
X425297Y94870D01*
X425610Y94244D01*
Y92994D01*
X425297Y92370D01*
X424985Y92057D01*
X424360Y91744D01*
X423735D01*
X423110Y92057D01*
X422797Y92370D01*
X422485Y92994D01*
Y102994D02*
Y104244D01*
X422797Y104870D01*
X423110Y105182D01*
X423735Y105494D01*
X424360D01*
X424985Y105182D01*
X425297Y104870D01*
X425610Y104244D01*
Y102994D01*
X425297Y102370D01*
X424985Y102057D01*
X424360Y101744D01*
X423735D01*
X423110Y102057D01*
X422797Y102370D01*
X422485Y102994D01*
Y112994D02*
Y114244D01*
X422797Y114870D01*
X423110Y115182D01*
X423735Y115494D01*
X424360D01*
X424985Y115182D01*
X425297Y114870D01*
X425610Y114244D01*
Y112994D01*
X425297Y112370D01*
X424985Y112057D01*
X424360Y111744D01*
X423735D01*
X423110Y112057D01*
X422797Y112370D01*
X422485Y112994D01*
Y122994D02*
Y124244D01*
X422797Y124870D01*
X423110Y125182D01*
X423735Y125494D01*
X424360D01*
X424985Y125182D01*
X425297Y124870D01*
X425610Y124244D01*
Y122994D01*
X425297Y122370D01*
X424985Y122057D01*
X424360Y121744D01*
X423735D01*
X423110Y122057D01*
X422797Y122370D01*
X422485Y122994D01*
Y132994D02*
Y134244D01*
X422797Y134870D01*
X423110Y135182D01*
X423735Y135494D01*
X424360D01*
X424985Y135182D01*
X425297Y134870D01*
X425610Y134244D01*
Y132994D01*
X425297Y132370D01*
X424985Y132057D01*
X424360Y131744D01*
X423735D01*
X423110Y132057D01*
X422797Y132370D01*
X422485Y132994D01*
Y142994D02*
Y144244D01*
X422797Y144870D01*
X423110Y145182D01*
X423735Y145494D01*
X424360D01*
X424985Y145182D01*
X425297Y144870D01*
X425610Y144244D01*
Y142994D01*
X425297Y142370D01*
X424985Y142057D01*
X424360Y141744D01*
X423735D01*
X423110Y142057D01*
X422797Y142370D01*
X422485Y142994D01*
Y152994D02*
Y154244D01*
X422797Y154870D01*
X423110Y155182D01*
X423735Y155494D01*
X424360D01*
X424985Y155182D01*
X425297Y154870D01*
X425610Y154244D01*
Y152994D01*
X425297Y152370D01*
X424985Y152057D01*
X424360Y151744D01*
X423735D01*
X423110Y152057D01*
X422797Y152370D01*
X422485Y152994D01*
Y162994D02*
Y164244D01*
X422797Y164870D01*
X423110Y165182D01*
X423735Y165494D01*
X424360D01*
X424985Y165182D01*
X425297Y164870D01*
X425610Y164244D01*
Y162994D01*
X425297Y162370D01*
X424985Y162057D01*
X424360Y161744D01*
X423735D01*
X423110Y162057D01*
X422797Y162370D01*
X422485Y162994D01*
Y172994D02*
Y174244D01*
X422797Y174870D01*
X423110Y175182D01*
X423735Y175494D01*
X424360D01*
X424985Y175182D01*
X425297Y174870D01*
X425610Y174244D01*
Y172994D01*
X425297Y172370D01*
X424985Y172057D01*
X424360Y171744D01*
X423735D01*
X423110Y172057D01*
X422797Y172370D01*
X422485Y172994D01*
Y182994D02*
Y184244D01*
X422797Y184870D01*
X423110Y185182D01*
X423735Y185494D01*
X424360D01*
X424985Y185182D01*
X425297Y184870D01*
X425610Y184244D01*
Y182994D01*
X425297Y182370D01*
X424985Y182057D01*
X424360Y181744D01*
X423735D01*
X423110Y182057D01*
X422797Y182370D01*
X422485Y182994D01*
Y192994D02*
Y194244D01*
X422797Y194870D01*
X423110Y195182D01*
X423735Y195494D01*
X424360D01*
X424985Y195182D01*
X425297Y194870D01*
X425610Y194244D01*
Y192994D01*
X425297Y192370D01*
X424985Y192057D01*
X424360Y191744D01*
X423735D01*
X423110Y192057D01*
X422797Y192370D01*
X422485Y192994D01*
Y202994D02*
Y204244D01*
X422797Y204870D01*
X423110Y205182D01*
X423735Y205494D01*
X424360D01*
X424985Y205182D01*
X425297Y204870D01*
X425610Y204244D01*
Y202994D01*
X425297Y202370D01*
X424985Y202057D01*
X424360Y201744D01*
X423735D01*
X423110Y202057D01*
X422797Y202370D01*
X422485Y202994D01*
Y212994D02*
Y214244D01*
X422797Y214870D01*
X423110Y215182D01*
X423735Y215494D01*
X424360D01*
X424985Y215182D01*
X425297Y214870D01*
X425610Y214244D01*
Y212994D01*
X425297Y212370D01*
X424985Y212057D01*
X424360Y211744D01*
X423735D01*
X423110Y212057D01*
X422797Y212370D01*
X422485Y212994D01*
Y222994D02*
Y224244D01*
X422797Y224870D01*
X423110Y225182D01*
X423735Y225494D01*
X424360D01*
X424985Y225182D01*
X425297Y224870D01*
X425610Y224244D01*
Y222994D01*
X425297Y222370D01*
X424985Y222057D01*
X424360Y221744D01*
X423735D01*
X423110Y222057D01*
X422797Y222370D01*
X422485Y222994D01*
Y232994D02*
Y234244D01*
X422797Y234870D01*
X423110Y235182D01*
X423735Y235494D01*
X424360D01*
X424985Y235182D01*
X425297Y234870D01*
X425610Y234244D01*
Y232994D01*
X425297Y232370D01*
X424985Y232057D01*
X424360Y231744D01*
X423735D01*
X423110Y232057D01*
X422797Y232370D01*
X422485Y232994D01*
Y242994D02*
Y244244D01*
X422797Y244870D01*
X423110Y245182D01*
X423735Y245494D01*
X424360D01*
X424985Y245182D01*
X425297Y244870D01*
X425610Y244244D01*
Y242994D01*
X425297Y242370D01*
X424985Y242057D01*
X424360Y241744D01*
X423735D01*
X423110Y242057D01*
X422797Y242370D01*
X422485Y242994D01*
Y252994D02*
Y254244D01*
X422797Y254870D01*
X423110Y255182D01*
X423735Y255494D01*
X424360D01*
X424985Y255182D01*
X425297Y254870D01*
X425610Y254244D01*
Y252994D01*
X425297Y252370D01*
X424985Y252057D01*
X424360Y251744D01*
X423735D01*
X423110Y252057D01*
X422797Y252370D01*
X422485Y252994D01*
Y262994D02*
Y264244D01*
X422797Y264870D01*
X423110Y265182D01*
X423735Y265494D01*
X424360D01*
X424985Y265182D01*
X425297Y264870D01*
X425610Y264244D01*
Y262994D01*
X425297Y262370D01*
X424985Y262057D01*
X424360Y261744D01*
X423735D01*
X423110Y262057D01*
X422797Y262370D01*
X422485Y262994D01*
Y272994D02*
Y274244D01*
X422797Y274870D01*
X423110Y275182D01*
X423735Y275494D01*
X424360D01*
X424985Y275182D01*
X425297Y274870D01*
X425610Y274244D01*
Y272994D01*
X425297Y272370D01*
X424985Y272057D01*
X424360Y271744D01*
X423735D01*
X423110Y272057D01*
X422797Y272370D01*
X422485Y272994D01*
Y282994D02*
Y284244D01*
X422797Y284870D01*
X423110Y285182D01*
X423735Y285494D01*
X424360D01*
X424985Y285182D01*
X425297Y284870D01*
X425610Y284244D01*
Y282994D01*
X425297Y282370D01*
X424985Y282057D01*
X424360Y281744D01*
X423735D01*
X423110Y282057D01*
X422797Y282370D01*
X422485Y282994D01*
Y292994D02*
Y294244D01*
X422797Y294870D01*
X423110Y295182D01*
X423735Y295494D01*
X424360D01*
X424985Y295182D01*
X425297Y294870D01*
X425610Y294244D01*
Y292994D01*
X425297Y292370D01*
X424985Y292057D01*
X424360Y291744D01*
X423735D01*
X423110Y292057D01*
X422797Y292370D01*
X422485Y292994D01*
Y342994D02*
Y344244D01*
X422797Y344870D01*
X423110Y345182D01*
X423735Y345494D01*
X424360D01*
X424985Y345182D01*
X425297Y344870D01*
X425610Y344244D01*
Y342994D01*
X425297Y342370D01*
X424985Y342057D01*
X424360Y341744D01*
X423735D01*
X423110Y342057D01*
X422797Y342370D01*
X422485Y342994D01*
Y352994D02*
Y354244D01*
X422797Y354870D01*
X423110Y355182D01*
X423735Y355494D01*
X424360D01*
X424985Y355182D01*
X425297Y354870D01*
X425610Y354244D01*
Y352994D01*
X425297Y352370D01*
X424985Y352057D01*
X424360Y351744D01*
X423735D01*
X423110Y352057D01*
X422797Y352370D01*
X422485Y352994D01*
Y362994D02*
Y364244D01*
X422797Y364870D01*
X423110Y365182D01*
X423735Y365494D01*
X424360D01*
X424985Y365182D01*
X425297Y364870D01*
X425610Y364244D01*
Y362994D01*
X425297Y362370D01*
X424985Y362057D01*
X424360Y361744D01*
X423735D01*
X423110Y362057D01*
X422797Y362370D01*
X422485Y362994D01*
Y372994D02*
Y374244D01*
X422797Y374870D01*
X423110Y375182D01*
X423735Y375494D01*
X424360D01*
X424985Y375182D01*
X425297Y374870D01*
X425610Y374244D01*
Y372994D01*
X425297Y372370D01*
X424985Y372057D01*
X424360Y371744D01*
X423735D01*
X423110Y372057D01*
X422797Y372370D01*
X422485Y372994D01*
Y382994D02*
Y384244D01*
X422797Y384870D01*
X423110Y385182D01*
X423735Y385494D01*
X424360D01*
X424985Y385182D01*
X425297Y384870D01*
X425610Y384244D01*
Y382994D01*
X425297Y382370D01*
X424985Y382057D01*
X424360Y381744D01*
X423735D01*
X423110Y382057D01*
X422797Y382370D01*
X422485Y382994D01*
Y392994D02*
Y394244D01*
X422797Y394870D01*
X423110Y395182D01*
X423735Y395494D01*
X424360D01*
X424985Y395182D01*
X425297Y394870D01*
X425610Y394244D01*
Y392994D01*
X425297Y392370D01*
X424985Y392057D01*
X424360Y391744D01*
X423735D01*
X423110Y392057D01*
X422797Y392370D01*
X422485Y392994D01*
X429532Y318269D02*
Y319519D01*
X429844Y320144D01*
X430157Y320457D01*
X430782Y320769D01*
X431407D01*
X432032Y320457D01*
X432344Y320144D01*
X432657Y319519D01*
Y318269D01*
X432344Y317644D01*
X432032Y317332D01*
X431407Y317019D01*
X430782D01*
X430157Y317332D01*
X429844Y317644D01*
X429532Y318269D01*
X431719Y317957D02*
X432657Y317019D01*
X429554Y418269D02*
Y419519D01*
X429867Y420144D01*
X430180Y420457D01*
X430804Y420769D01*
X431430D01*
X432054Y420457D01*
X432367Y420144D01*
X432680Y419519D01*
Y418269D01*
X432367Y417644D01*
X432054Y417332D01*
X431430Y417019D01*
X430804D01*
X430180Y417332D01*
X429867Y417644D01*
X429554Y418269D01*
X431742Y417957D02*
X432680Y417019D01*
X432485Y72994D02*
Y74244D01*
X432797Y74870D01*
X433110Y75182D01*
X433735Y75494D01*
X434360D01*
X434985Y75182D01*
X435297Y74870D01*
X435610Y74244D01*
Y72994D01*
X435297Y72370D01*
X434985Y72057D01*
X434360Y71744D01*
X433735D01*
X433110Y72057D01*
X432797Y72370D01*
X432485Y72994D01*
Y82994D02*
Y84244D01*
X432797Y84870D01*
X433110Y85182D01*
X433735Y85494D01*
X434360D01*
X434985Y85182D01*
X435297Y84870D01*
X435610Y84244D01*
Y82994D01*
X435297Y82370D01*
X434985Y82057D01*
X434360Y81744D01*
X433735D01*
X433110Y82057D01*
X432797Y82370D01*
X432485Y82994D01*
Y92994D02*
Y94244D01*
X432797Y94870D01*
X433110Y95182D01*
X433735Y95494D01*
X434360D01*
X434985Y95182D01*
X435297Y94870D01*
X435610Y94244D01*
Y92994D01*
X435297Y92370D01*
X434985Y92057D01*
X434360Y91744D01*
X433735D01*
X433110Y92057D01*
X432797Y92370D01*
X432485Y92994D01*
Y102994D02*
Y104244D01*
X432797Y104870D01*
X433110Y105182D01*
X433735Y105494D01*
X434360D01*
X434985Y105182D01*
X435297Y104870D01*
X435610Y104244D01*
Y102994D01*
X435297Y102370D01*
X434985Y102057D01*
X434360Y101744D01*
X433735D01*
X433110Y102057D01*
X432797Y102370D01*
X432485Y102994D01*
Y112994D02*
Y114244D01*
X432797Y114870D01*
X433110Y115182D01*
X433735Y115494D01*
X434360D01*
X434985Y115182D01*
X435297Y114870D01*
X435610Y114244D01*
Y112994D01*
X435297Y112370D01*
X434985Y112057D01*
X434360Y111744D01*
X433735D01*
X433110Y112057D01*
X432797Y112370D01*
X432485Y112994D01*
Y122994D02*
Y124244D01*
X432797Y124870D01*
X433110Y125182D01*
X433735Y125494D01*
X434360D01*
X434985Y125182D01*
X435297Y124870D01*
X435610Y124244D01*
Y122994D01*
X435297Y122370D01*
X434985Y122057D01*
X434360Y121744D01*
X433735D01*
X433110Y122057D01*
X432797Y122370D01*
X432485Y122994D01*
Y132994D02*
Y134244D01*
X432797Y134870D01*
X433110Y135182D01*
X433735Y135494D01*
X434360D01*
X434985Y135182D01*
X435297Y134870D01*
X435610Y134244D01*
Y132994D01*
X435297Y132370D01*
X434985Y132057D01*
X434360Y131744D01*
X433735D01*
X433110Y132057D01*
X432797Y132370D01*
X432485Y132994D01*
Y142994D02*
Y144244D01*
X432797Y144870D01*
X433110Y145182D01*
X433735Y145494D01*
X434360D01*
X434985Y145182D01*
X435297Y144870D01*
X435610Y144244D01*
Y142994D01*
X435297Y142370D01*
X434985Y142057D01*
X434360Y141744D01*
X433735D01*
X433110Y142057D01*
X432797Y142370D01*
X432485Y142994D01*
Y152994D02*
Y154244D01*
X432797Y154870D01*
X433110Y155182D01*
X433735Y155494D01*
X434360D01*
X434985Y155182D01*
X435297Y154870D01*
X435610Y154244D01*
Y152994D01*
X435297Y152370D01*
X434985Y152057D01*
X434360Y151744D01*
X433735D01*
X433110Y152057D01*
X432797Y152370D01*
X432485Y152994D01*
Y162994D02*
Y164244D01*
X432797Y164870D01*
X433110Y165182D01*
X433735Y165494D01*
X434360D01*
X434985Y165182D01*
X435297Y164870D01*
X435610Y164244D01*
Y162994D01*
X435297Y162370D01*
X434985Y162057D01*
X434360Y161744D01*
X433735D01*
X433110Y162057D01*
X432797Y162370D01*
X432485Y162994D01*
Y172994D02*
Y174244D01*
X432797Y174870D01*
X433110Y175182D01*
X433735Y175494D01*
X434360D01*
X434985Y175182D01*
X435297Y174870D01*
X435610Y174244D01*
Y172994D01*
X435297Y172370D01*
X434985Y172057D01*
X434360Y171744D01*
X433735D01*
X433110Y172057D01*
X432797Y172370D01*
X432485Y172994D01*
Y182994D02*
Y184244D01*
X432797Y184870D01*
X433110Y185182D01*
X433735Y185494D01*
X434360D01*
X434985Y185182D01*
X435297Y184870D01*
X435610Y184244D01*
Y182994D01*
X435297Y182370D01*
X434985Y182057D01*
X434360Y181744D01*
X433735D01*
X433110Y182057D01*
X432797Y182370D01*
X432485Y182994D01*
Y192994D02*
Y194244D01*
X432797Y194870D01*
X433110Y195182D01*
X433735Y195494D01*
X434360D01*
X434985Y195182D01*
X435297Y194870D01*
X435610Y194244D01*
Y192994D01*
X435297Y192370D01*
X434985Y192057D01*
X434360Y191744D01*
X433735D01*
X433110Y192057D01*
X432797Y192370D01*
X432485Y192994D01*
Y202994D02*
Y204244D01*
X432797Y204870D01*
X433110Y205182D01*
X433735Y205494D01*
X434360D01*
X434985Y205182D01*
X435297Y204870D01*
X435610Y204244D01*
Y202994D01*
X435297Y202370D01*
X434985Y202057D01*
X434360Y201744D01*
X433735D01*
X433110Y202057D01*
X432797Y202370D01*
X432485Y202994D01*
Y212994D02*
Y214244D01*
X432797Y214870D01*
X433110Y215182D01*
X433735Y215494D01*
X434360D01*
X434985Y215182D01*
X435297Y214870D01*
X435610Y214244D01*
Y212994D01*
X435297Y212370D01*
X434985Y212057D01*
X434360Y211744D01*
X433735D01*
X433110Y212057D01*
X432797Y212370D01*
X432485Y212994D01*
Y222994D02*
Y224244D01*
X432797Y224870D01*
X433110Y225182D01*
X433735Y225494D01*
X434360D01*
X434985Y225182D01*
X435297Y224870D01*
X435610Y224244D01*
Y222994D01*
X435297Y222370D01*
X434985Y222057D01*
X434360Y221744D01*
X433735D01*
X433110Y222057D01*
X432797Y222370D01*
X432485Y222994D01*
Y232994D02*
Y234244D01*
X432797Y234870D01*
X433110Y235182D01*
X433735Y235494D01*
X434360D01*
X434985Y235182D01*
X435297Y234870D01*
X435610Y234244D01*
Y232994D01*
X435297Y232370D01*
X434985Y232057D01*
X434360Y231744D01*
X433735D01*
X433110Y232057D01*
X432797Y232370D01*
X432485Y232994D01*
Y242994D02*
Y244244D01*
X432797Y244870D01*
X433110Y245182D01*
X433735Y245494D01*
X434360D01*
X434985Y245182D01*
X435297Y244870D01*
X435610Y244244D01*
Y242994D01*
X435297Y242370D01*
X434985Y242057D01*
X434360Y241744D01*
X433735D01*
X433110Y242057D01*
X432797Y242370D01*
X432485Y242994D01*
Y252994D02*
Y254244D01*
X432797Y254870D01*
X433110Y255182D01*
X433735Y255494D01*
X434360D01*
X434985Y255182D01*
X435297Y254870D01*
X435610Y254244D01*
Y252994D01*
X435297Y252370D01*
X434985Y252057D01*
X434360Y251744D01*
X433735D01*
X433110Y252057D01*
X432797Y252370D01*
X432485Y252994D01*
Y262994D02*
Y264244D01*
X432797Y264870D01*
X433110Y265182D01*
X433735Y265494D01*
X434360D01*
X434985Y265182D01*
X435297Y264870D01*
X435610Y264244D01*
Y262994D01*
X435297Y262370D01*
X434985Y262057D01*
X434360Y261744D01*
X433735D01*
X433110Y262057D01*
X432797Y262370D01*
X432485Y262994D01*
Y272994D02*
Y274244D01*
X432797Y274870D01*
X433110Y275182D01*
X433735Y275494D01*
X434360D01*
X434985Y275182D01*
X435297Y274870D01*
X435610Y274244D01*
Y272994D01*
X435297Y272370D01*
X434985Y272057D01*
X434360Y271744D01*
X433735D01*
X433110Y272057D01*
X432797Y272370D01*
X432485Y272994D01*
Y282994D02*
Y284244D01*
X432797Y284870D01*
X433110Y285182D01*
X433735Y285494D01*
X434360D01*
X434985Y285182D01*
X435297Y284870D01*
X435610Y284244D01*
Y282994D01*
X435297Y282370D01*
X434985Y282057D01*
X434360Y281744D01*
X433735D01*
X433110Y282057D01*
X432797Y282370D01*
X432485Y282994D01*
Y292994D02*
Y294244D01*
X432797Y294870D01*
X433110Y295182D01*
X433735Y295494D01*
X434360D01*
X434985Y295182D01*
X435297Y294870D01*
X435610Y294244D01*
Y292994D01*
X435297Y292370D01*
X434985Y292057D01*
X434360Y291744D01*
X433735D01*
X433110Y292057D01*
X432797Y292370D01*
X432485Y292994D01*
Y342994D02*
Y344244D01*
X432797Y344870D01*
X433110Y345182D01*
X433735Y345494D01*
X434360D01*
X434985Y345182D01*
X435297Y344870D01*
X435610Y344244D01*
Y342994D01*
X435297Y342370D01*
X434985Y342057D01*
X434360Y341744D01*
X433735D01*
X433110Y342057D01*
X432797Y342370D01*
X432485Y342994D01*
Y352994D02*
Y354244D01*
X432797Y354870D01*
X433110Y355182D01*
X433735Y355494D01*
X434360D01*
X434985Y355182D01*
X435297Y354870D01*
X435610Y354244D01*
Y352994D01*
X435297Y352370D01*
X434985Y352057D01*
X434360Y351744D01*
X433735D01*
X433110Y352057D01*
X432797Y352370D01*
X432485Y352994D01*
Y362994D02*
Y364244D01*
X432797Y364870D01*
X433110Y365182D01*
X433735Y365494D01*
X434360D01*
X434985Y365182D01*
X435297Y364870D01*
X435610Y364244D01*
Y362994D01*
X435297Y362370D01*
X434985Y362057D01*
X434360Y361744D01*
X433735D01*
X433110Y362057D01*
X432797Y362370D01*
X432485Y362994D01*
Y372994D02*
Y374244D01*
X432797Y374870D01*
X433110Y375182D01*
X433735Y375494D01*
X434360D01*
X434985Y375182D01*
X435297Y374870D01*
X435610Y374244D01*
Y372994D01*
X435297Y372370D01*
X434985Y372057D01*
X434360Y371744D01*
X433735D01*
X433110Y372057D01*
X432797Y372370D01*
X432485Y372994D01*
Y382994D02*
Y384244D01*
X432797Y384870D01*
X433110Y385182D01*
X433735Y385494D01*
X434360D01*
X434985Y385182D01*
X435297Y384870D01*
X435610Y384244D01*
Y382994D01*
X435297Y382370D01*
X434985Y382057D01*
X434360Y381744D01*
X433735D01*
X433110Y382057D01*
X432797Y382370D01*
X432485Y382994D01*
Y392994D02*
Y394244D01*
X432797Y394870D01*
X433110Y395182D01*
X433735Y395494D01*
X434360D01*
X434985Y395182D01*
X435297Y394870D01*
X435610Y394244D01*
Y392994D01*
X435297Y392370D01*
X434985Y392057D01*
X434360Y391744D01*
X433735D01*
X433110Y392057D01*
X432797Y392370D01*
X432485Y392994D01*
X442959Y303583D02*
X443897D01*
Y303270D01*
X443585Y302645D01*
X443272Y302333D01*
X442647Y302020D01*
X442022D01*
X441397Y302333D01*
X441085Y302645D01*
X440772Y303270D01*
Y304520D01*
X441085Y305145D01*
X441397Y305458D01*
X442022Y305770D01*
X442647D01*
X443272Y305458D01*
X443585Y305145D01*
X443897Y304520D01*
X442959Y333583D02*
X443897D01*
Y333270D01*
X443585Y332645D01*
X443272Y332333D01*
X442647Y332020D01*
X442022D01*
X441397Y332333D01*
X441085Y332645D01*
X440772Y333270D01*
Y334520D01*
X441085Y335145D01*
X441397Y335458D01*
X442022Y335770D01*
X442647D01*
X443272Y335458D01*
X443585Y335145D01*
X443897Y334520D01*
X442959Y403583D02*
X443897D01*
Y403270D01*
X443585Y402645D01*
X443272Y402333D01*
X442647Y402020D01*
X442022D01*
X441397Y402333D01*
X441085Y402645D01*
X440772Y403270D01*
Y404520D01*
X441085Y405145D01*
X441397Y405458D01*
X442022Y405770D01*
X442647D01*
X443272Y405458D01*
X443585Y405145D01*
X443897Y404520D01*
X442959Y433583D02*
X443897D01*
Y433270D01*
X443585Y432645D01*
X443272Y432333D01*
X442647Y432020D01*
X442022D01*
X441397Y432333D01*
X441085Y432645D01*
X440772Y433270D01*
Y434520D01*
X441085Y435145D01*
X441397Y435458D01*
X442022Y435770D01*
X442647D01*
X443272Y435458D01*
X443585Y435145D01*
X443897Y434520D01*
X442959Y456965D02*
X443897D01*
Y456653D01*
X443585Y456028D01*
X443272Y455715D01*
X442647Y455403D01*
X442022D01*
X441397Y455715D01*
X441085Y456028D01*
X440772Y456653D01*
Y457903D01*
X441085Y458528D01*
X441397Y458841D01*
X442022Y459153D01*
X442647D01*
X443272Y458841D01*
X443585Y458528D01*
X443897Y457903D01*
X442485Y72994D02*
Y74244D01*
X442797Y74870D01*
X443110Y75182D01*
X443735Y75494D01*
X444360D01*
X444985Y75182D01*
X445297Y74870D01*
X445610Y74244D01*
Y72994D01*
X445297Y72370D01*
X444985Y72057D01*
X444360Y71744D01*
X443735D01*
X443110Y72057D01*
X442797Y72370D01*
X442485Y72994D01*
Y82994D02*
Y84244D01*
X442797Y84870D01*
X443110Y85182D01*
X443735Y85494D01*
X444360D01*
X444985Y85182D01*
X445297Y84870D01*
X445610Y84244D01*
Y82994D01*
X445297Y82370D01*
X444985Y82057D01*
X444360Y81744D01*
X443735D01*
X443110Y82057D01*
X442797Y82370D01*
X442485Y82994D01*
Y92994D02*
Y94244D01*
X442797Y94870D01*
X443110Y95182D01*
X443735Y95494D01*
X444360D01*
X444985Y95182D01*
X445297Y94870D01*
X445610Y94244D01*
Y92994D01*
X445297Y92370D01*
X444985Y92057D01*
X444360Y91744D01*
X443735D01*
X443110Y92057D01*
X442797Y92370D01*
X442485Y92994D01*
Y102994D02*
Y104244D01*
X442797Y104870D01*
X443110Y105182D01*
X443735Y105494D01*
X444360D01*
X444985Y105182D01*
X445297Y104870D01*
X445610Y104244D01*
Y102994D01*
X445297Y102370D01*
X444985Y102057D01*
X444360Y101744D01*
X443735D01*
X443110Y102057D01*
X442797Y102370D01*
X442485Y102994D01*
Y112994D02*
Y114244D01*
X442797Y114870D01*
X443110Y115182D01*
X443735Y115494D01*
X444360D01*
X444985Y115182D01*
X445297Y114870D01*
X445610Y114244D01*
Y112994D01*
X445297Y112370D01*
X444985Y112057D01*
X444360Y111744D01*
X443735D01*
X443110Y112057D01*
X442797Y112370D01*
X442485Y112994D01*
Y122994D02*
Y124244D01*
X442797Y124870D01*
X443110Y125182D01*
X443735Y125494D01*
X444360D01*
X444985Y125182D01*
X445297Y124870D01*
X445610Y124244D01*
Y122994D01*
X445297Y122370D01*
X444985Y122057D01*
X444360Y121744D01*
X443735D01*
X443110Y122057D01*
X442797Y122370D01*
X442485Y122994D01*
Y132994D02*
Y134244D01*
X442797Y134870D01*
X443110Y135182D01*
X443735Y135494D01*
X444360D01*
X444985Y135182D01*
X445297Y134870D01*
X445610Y134244D01*
Y132994D01*
X445297Y132370D01*
X444985Y132057D01*
X444360Y131744D01*
X443735D01*
X443110Y132057D01*
X442797Y132370D01*
X442485Y132994D01*
Y142994D02*
Y144244D01*
X442797Y144870D01*
X443110Y145182D01*
X443735Y145494D01*
X444360D01*
X444985Y145182D01*
X445297Y144870D01*
X445610Y144244D01*
Y142994D01*
X445297Y142370D01*
X444985Y142057D01*
X444360Y141744D01*
X443735D01*
X443110Y142057D01*
X442797Y142370D01*
X442485Y142994D01*
Y152994D02*
Y154244D01*
X442797Y154870D01*
X443110Y155182D01*
X443735Y155494D01*
X444360D01*
X444985Y155182D01*
X445297Y154870D01*
X445610Y154244D01*
Y152994D01*
X445297Y152370D01*
X444985Y152057D01*
X444360Y151744D01*
X443735D01*
X443110Y152057D01*
X442797Y152370D01*
X442485Y152994D01*
Y162994D02*
Y164244D01*
X442797Y164870D01*
X443110Y165182D01*
X443735Y165494D01*
X444360D01*
X444985Y165182D01*
X445297Y164870D01*
X445610Y164244D01*
Y162994D01*
X445297Y162370D01*
X444985Y162057D01*
X444360Y161744D01*
X443735D01*
X443110Y162057D01*
X442797Y162370D01*
X442485Y162994D01*
Y172994D02*
Y174244D01*
X442797Y174870D01*
X443110Y175182D01*
X443735Y175494D01*
X444360D01*
X444985Y175182D01*
X445297Y174870D01*
X445610Y174244D01*
Y172994D01*
X445297Y172370D01*
X444985Y172057D01*
X444360Y171744D01*
X443735D01*
X443110Y172057D01*
X442797Y172370D01*
X442485Y172994D01*
Y182994D02*
Y184244D01*
X442797Y184870D01*
X443110Y185182D01*
X443735Y185494D01*
X444360D01*
X444985Y185182D01*
X445297Y184870D01*
X445610Y184244D01*
Y182994D01*
X445297Y182370D01*
X444985Y182057D01*
X444360Y181744D01*
X443735D01*
X443110Y182057D01*
X442797Y182370D01*
X442485Y182994D01*
Y192994D02*
Y194244D01*
X442797Y194870D01*
X443110Y195182D01*
X443735Y195494D01*
X444360D01*
X444985Y195182D01*
X445297Y194870D01*
X445610Y194244D01*
Y192994D01*
X445297Y192370D01*
X444985Y192057D01*
X444360Y191744D01*
X443735D01*
X443110Y192057D01*
X442797Y192370D01*
X442485Y192994D01*
Y202994D02*
Y204244D01*
X442797Y204870D01*
X443110Y205182D01*
X443735Y205494D01*
X444360D01*
X444985Y205182D01*
X445297Y204870D01*
X445610Y204244D01*
Y202994D01*
X445297Y202370D01*
X444985Y202057D01*
X444360Y201744D01*
X443735D01*
X443110Y202057D01*
X442797Y202370D01*
X442485Y202994D01*
Y212994D02*
Y214244D01*
X442797Y214870D01*
X443110Y215182D01*
X443735Y215494D01*
X444360D01*
X444985Y215182D01*
X445297Y214870D01*
X445610Y214244D01*
Y212994D01*
X445297Y212370D01*
X444985Y212057D01*
X444360Y211744D01*
X443735D01*
X443110Y212057D01*
X442797Y212370D01*
X442485Y212994D01*
Y222994D02*
Y224244D01*
X442797Y224870D01*
X443110Y225182D01*
X443735Y225494D01*
X444360D01*
X444985Y225182D01*
X445297Y224870D01*
X445610Y224244D01*
Y222994D01*
X445297Y222370D01*
X444985Y222057D01*
X444360Y221744D01*
X443735D01*
X443110Y222057D01*
X442797Y222370D01*
X442485Y222994D01*
Y232994D02*
Y234244D01*
X442797Y234870D01*
X443110Y235182D01*
X443735Y235494D01*
X444360D01*
X444985Y235182D01*
X445297Y234870D01*
X445610Y234244D01*
Y232994D01*
X445297Y232370D01*
X444985Y232057D01*
X444360Y231744D01*
X443735D01*
X443110Y232057D01*
X442797Y232370D01*
X442485Y232994D01*
Y242994D02*
Y244244D01*
X442797Y244870D01*
X443110Y245182D01*
X443735Y245494D01*
X444360D01*
X444985Y245182D01*
X445297Y244870D01*
X445610Y244244D01*
Y242994D01*
X445297Y242370D01*
X444985Y242057D01*
X444360Y241744D01*
X443735D01*
X443110Y242057D01*
X442797Y242370D01*
X442485Y242994D01*
Y252994D02*
Y254244D01*
X442797Y254870D01*
X443110Y255182D01*
X443735Y255494D01*
X444360D01*
X444985Y255182D01*
X445297Y254870D01*
X445610Y254244D01*
Y252994D01*
X445297Y252370D01*
X444985Y252057D01*
X444360Y251744D01*
X443735D01*
X443110Y252057D01*
X442797Y252370D01*
X442485Y252994D01*
Y262994D02*
Y264244D01*
X442797Y264870D01*
X443110Y265182D01*
X443735Y265494D01*
X444360D01*
X444985Y265182D01*
X445297Y264870D01*
X445610Y264244D01*
Y262994D01*
X445297Y262370D01*
X444985Y262057D01*
X444360Y261744D01*
X443735D01*
X443110Y262057D01*
X442797Y262370D01*
X442485Y262994D01*
Y272994D02*
Y274244D01*
X442797Y274870D01*
X443110Y275182D01*
X443735Y275494D01*
X444360D01*
X444985Y275182D01*
X445297Y274870D01*
X445610Y274244D01*
Y272994D01*
X445297Y272370D01*
X444985Y272057D01*
X444360Y271744D01*
X443735D01*
X443110Y272057D01*
X442797Y272370D01*
X442485Y272994D01*
Y282994D02*
Y284244D01*
X442797Y284870D01*
X443110Y285182D01*
X443735Y285494D01*
X444360D01*
X444985Y285182D01*
X445297Y284870D01*
X445610Y284244D01*
Y282994D01*
X445297Y282370D01*
X444985Y282057D01*
X444360Y281744D01*
X443735D01*
X443110Y282057D01*
X442797Y282370D01*
X442485Y282994D01*
Y292994D02*
Y294244D01*
X442797Y294870D01*
X443110Y295182D01*
X443735Y295494D01*
X444360D01*
X444985Y295182D01*
X445297Y294870D01*
X445610Y294244D01*
Y292994D01*
X445297Y292370D01*
X444985Y292057D01*
X444360Y291744D01*
X443735D01*
X443110Y292057D01*
X442797Y292370D01*
X442485Y292994D01*
Y342994D02*
Y344244D01*
X442797Y344870D01*
X443110Y345182D01*
X443735Y345494D01*
X444360D01*
X444985Y345182D01*
X445297Y344870D01*
X445610Y344244D01*
Y342994D01*
X445297Y342370D01*
X444985Y342057D01*
X444360Y341744D01*
X443735D01*
X443110Y342057D01*
X442797Y342370D01*
X442485Y342994D01*
Y352994D02*
Y354244D01*
X442797Y354870D01*
X443110Y355182D01*
X443735Y355494D01*
X444360D01*
X444985Y355182D01*
X445297Y354870D01*
X445610Y354244D01*
Y352994D01*
X445297Y352370D01*
X444985Y352057D01*
X444360Y351744D01*
X443735D01*
X443110Y352057D01*
X442797Y352370D01*
X442485Y352994D01*
Y362994D02*
Y364244D01*
X442797Y364870D01*
X443110Y365182D01*
X443735Y365494D01*
X444360D01*
X444985Y365182D01*
X445297Y364870D01*
X445610Y364244D01*
Y362994D01*
X445297Y362370D01*
X444985Y362057D01*
X444360Y361744D01*
X443735D01*
X443110Y362057D01*
X442797Y362370D01*
X442485Y362994D01*
Y372994D02*
Y374244D01*
X442797Y374870D01*
X443110Y375182D01*
X443735Y375494D01*
X444360D01*
X444985Y375182D01*
X445297Y374870D01*
X445610Y374244D01*
Y372994D01*
X445297Y372370D01*
X444985Y372057D01*
X444360Y371744D01*
X443735D01*
X443110Y372057D01*
X442797Y372370D01*
X442485Y372994D01*
Y382994D02*
Y384244D01*
X442797Y384870D01*
X443110Y385182D01*
X443735Y385494D01*
X444360D01*
X444985Y385182D01*
X445297Y384870D01*
X445610Y384244D01*
Y382994D01*
X445297Y382370D01*
X444985Y382057D01*
X444360Y381744D01*
X443735D01*
X443110Y382057D01*
X442797Y382370D01*
X442485Y382994D01*
Y392994D02*
Y394244D01*
X442797Y394870D01*
X443110Y395182D01*
X443735Y395494D01*
X444360D01*
X444985Y395182D01*
X445297Y394870D01*
X445610Y394244D01*
Y392994D01*
X445297Y392370D01*
X444985Y392057D01*
X444360Y391744D01*
X443735D01*
X443110Y392057D01*
X442797Y392370D01*
X442485Y392994D01*
D02*
D84*
X67445Y426082D03*
Y440729D03*
X67485Y115996D03*
Y125996D03*
Y135996D03*
Y145996D03*
Y155996D03*
Y165996D03*
Y175996D03*
Y185996D03*
Y195996D03*
Y206088D03*
Y216072D03*
Y225807D03*
Y235807D03*
Y245807D03*
Y255807D03*
Y265807D03*
Y275807D03*
Y285807D03*
Y295807D03*
Y305807D03*
Y315807D03*
Y325807D03*
Y335807D03*
Y345807D03*
Y355807D03*
Y365807D03*
Y375807D03*
Y385807D03*
Y396009D03*
Y406009D03*
Y416009D03*
X77445Y325807D03*
Y385807D03*
X77485Y115996D03*
Y125996D03*
Y135996D03*
Y145996D03*
Y155996D03*
Y165996D03*
Y175996D03*
Y185996D03*
Y195996D03*
Y206088D03*
Y216072D03*
Y225807D03*
Y235807D03*
Y245807D03*
Y255807D03*
Y265807D03*
Y275807D03*
Y285807D03*
Y295807D03*
Y305807D03*
Y315807D03*
Y335807D03*
Y345807D03*
Y355807D03*
Y365807D03*
Y375807D03*
Y396009D03*
Y406009D03*
Y416009D03*
Y425962D03*
X87445Y185996D03*
Y225807D03*
Y325807D03*
Y365807D03*
Y385807D03*
X87485Y115996D03*
Y125996D03*
Y135996D03*
Y145996D03*
Y155996D03*
Y165996D03*
Y175996D03*
Y195996D03*
Y206088D03*
Y216072D03*
Y235807D03*
Y245807D03*
Y255807D03*
Y265807D03*
Y275807D03*
Y285807D03*
Y295807D03*
Y305807D03*
Y315807D03*
Y335807D03*
Y345807D03*
Y355807D03*
Y375807D03*
Y396009D03*
Y406009D03*
Y416009D03*
Y426082D03*
X97437Y116121D03*
Y126121D03*
Y136121D03*
Y146121D03*
Y156121D03*
Y166121D03*
Y176121D03*
Y186121D03*
Y196121D03*
X97445Y345807D03*
Y355807D03*
Y385807D03*
X97485Y206088D03*
Y216072D03*
Y225807D03*
Y235807D03*
Y245807D03*
Y255807D03*
Y265807D03*
Y275807D03*
Y285807D03*
Y335807D03*
Y365807D03*
Y375807D03*
X100772Y296083D03*
Y326083D03*
Y396083D03*
Y426083D03*
X102445Y440979D03*
X107437Y116121D03*
Y126121D03*
Y136121D03*
Y146121D03*
Y156121D03*
Y166121D03*
Y176121D03*
Y186121D03*
Y196121D03*
X107445Y245807D03*
Y275807D03*
X107469Y336008D03*
Y346008D03*
Y356008D03*
Y366008D03*
Y376008D03*
Y386008D03*
X107485Y206088D03*
Y216072D03*
Y225807D03*
Y235807D03*
Y255807D03*
Y265807D03*
Y285807D03*
X112012Y311082D03*
X112035Y411082D03*
X117437Y126121D03*
Y136121D03*
Y146121D03*
Y156121D03*
Y166121D03*
Y176121D03*
Y186121D03*
Y196121D03*
X117445Y66082D03*
Y91082D03*
Y116121D03*
X117453Y206338D03*
Y216322D03*
Y226057D03*
Y236057D03*
Y246057D03*
Y256057D03*
Y266057D03*
Y276057D03*
Y286057D03*
X117469Y336008D03*
Y346008D03*
Y356008D03*
Y366008D03*
Y376008D03*
Y386008D03*
X125772Y296083D03*
Y326083D03*
Y341083D03*
Y381083D03*
X127445Y116082D03*
Y126121D03*
Y136082D03*
Y146082D03*
Y156082D03*
Y206082D03*
Y256082D03*
X130772Y396083D03*
Y426083D03*
X131049Y66082D03*
Y91082D03*
X135772Y265906D03*
Y275906D03*
Y366123D03*
Y376123D03*
X145772Y301082D03*
Y321082D03*
X145794Y401082D03*
Y421082D03*
X146195Y126083D03*
X152445Y449465D03*
X155437Y90059D03*
X155772Y301082D03*
Y321082D03*
X155794Y401082D03*
Y421082D03*
X155907Y136082D03*
X156264Y106594D03*
X163695Y146082D03*
X165772Y301082D03*
Y321082D03*
X165794Y401082D03*
Y421082D03*
X174945Y161082D03*
Y166082D03*
X175772Y301082D03*
Y321082D03*
X175794Y401082D03*
Y421082D03*
X176000Y59498D03*
X177445Y77332D03*
X180772Y331083D03*
X182445Y83582D03*
Y106082D03*
X184522Y146082D03*
Y201083D03*
Y246082D03*
Y281083D03*
X185772Y301082D03*
Y321082D03*
X185794Y401082D03*
Y421082D03*
X185860Y59498D03*
X190772Y391083D03*
X191102Y62493D03*
X192445Y83582D03*
Y106082D03*
Y146083D03*
Y201083D03*
Y246082D03*
Y281083D03*
X195772Y301082D03*
Y321082D03*
X195794Y401082D03*
Y421082D03*
X195969Y57376D03*
Y138498D03*
X199463Y135128D03*
X201086Y62368D03*
X202445Y449465D03*
X202459Y132383D03*
X204705Y124231D03*
X205772Y301082D03*
Y321082D03*
X205794Y401082D03*
Y421082D03*
X205989Y57251D03*
X206124Y83834D03*
X207076Y120901D03*
X209323Y117932D03*
X210945Y62368D03*
X211694Y114783D03*
X214522Y281083D03*
X214945Y101082D03*
Y201083D03*
Y246082D03*
X215772Y301082D03*
Y321082D03*
X215794Y401082D03*
Y421082D03*
X215989Y57501D03*
X216124Y83834D03*
X219945Y127332D03*
Y158582D03*
X221054Y62493D03*
X222022Y166083D03*
X222445Y201083D03*
Y246082D03*
Y281083D03*
X225772Y101681D03*
Y301082D03*
Y321082D03*
X225794Y401082D03*
Y421082D03*
X225955Y57501D03*
X226124Y83834D03*
X228168Y98811D03*
X230415Y96190D03*
X231039Y62493D03*
Y66487D03*
X231663Y76096D03*
X234971Y166083D03*
X235096Y201083D03*
Y246082D03*
Y281083D03*
X235772Y301082D03*
Y321082D03*
X235794Y401082D03*
Y421082D03*
X235989Y57626D03*
X236124Y83834D03*
X240274Y76221D03*
X242645Y69731D03*
X245772Y301082D03*
Y321082D03*
X245794Y401082D03*
Y421082D03*
X245989Y57626D03*
X246124Y83834D03*
X246639Y127391D03*
X246697Y154833D03*
X248272Y284833D03*
X249847Y157333D03*
X252022Y284833D03*
X252445Y449465D03*
X253272Y201083D03*
X253753Y69981D03*
X254522Y166082D03*
Y246082D03*
X255772Y301082D03*
Y321082D03*
X255794Y401082D03*
Y421082D03*
X255989Y57501D03*
X256124Y83834D03*
X258870Y69981D03*
X259522Y166082D03*
X259945Y201083D03*
Y246082D03*
Y281083D03*
X262489Y104052D03*
Y109169D03*
X263612Y135877D03*
X263737Y269292D03*
X265772Y301082D03*
Y321082D03*
X265794Y401082D03*
Y421082D03*
X265859Y138373D03*
Y266172D03*
X265989Y57501D03*
Y69981D03*
X270976Y68109D03*
X275772Y301082D03*
Y321082D03*
X275794Y401082D03*
Y421082D03*
X275989Y57501D03*
X277590Y117932D03*
X279961Y121150D03*
X284945Y166082D03*
Y201083D03*
Y246082D03*
Y281083D03*
X285772Y301082D03*
Y321082D03*
X285794Y401082D03*
Y421082D03*
X285989Y57501D03*
X286195Y68582D03*
X289946Y124231D03*
X292442Y127381D03*
X294938Y130511D03*
X295772Y301082D03*
Y321082D03*
X295794Y401082D03*
Y421082D03*
X295989Y57501D03*
X297309Y133680D03*
X299680Y136830D03*
X302052Y148981D03*
X302445Y449465D03*
X305772Y301082D03*
Y321082D03*
X305794Y401082D03*
Y421082D03*
X305989Y57750D03*
X306544Y151228D03*
X309290Y153599D03*
X312036Y155970D03*
X315772Y301082D03*
Y321082D03*
X315794Y401082D03*
Y421082D03*
X315919Y57875D03*
X319399Y160963D03*
X325772Y301082D03*
Y321082D03*
X325794Y401082D03*
Y421082D03*
X325989Y58125D03*
X330382Y158467D03*
X335772Y301082D03*
Y321082D03*
X335794Y401082D03*
Y421082D03*
X335989Y58000D03*
X340772Y90906D03*
Y146082D03*
Y201083D03*
Y246082D03*
X345772Y301082D03*
Y321082D03*
X345794Y401082D03*
Y421082D03*
X345989Y58125D03*
X352445Y106082D03*
Y156082D03*
Y206082D03*
Y256082D03*
Y449465D03*
X355772Y301082D03*
Y321082D03*
X355794Y401082D03*
Y421082D03*
X355989Y58250D03*
X360772Y91280D03*
X360773Y76304D03*
X360898Y56086D03*
X362445Y196082D03*
X362485Y105807D03*
Y115807D03*
Y125807D03*
Y135807D03*
Y145807D03*
Y155807D03*
Y165807D03*
Y175807D03*
Y185807D03*
Y205807D03*
Y215807D03*
Y225807D03*
Y235807D03*
Y245807D03*
Y255807D03*
X365772Y301082D03*
Y321082D03*
X365794Y401082D03*
Y421082D03*
X368136Y56086D03*
X372022Y341083D03*
X372485Y105807D03*
Y115807D03*
Y125807D03*
Y135807D03*
Y145807D03*
Y155807D03*
Y165807D03*
Y175807D03*
Y185807D03*
Y195807D03*
Y205807D03*
Y215807D03*
Y225807D03*
Y235807D03*
Y245807D03*
Y255807D03*
X375713Y86909D03*
X375772Y266031D03*
Y276031D03*
Y301082D03*
Y321082D03*
Y366123D03*
Y376123D03*
X375794Y401082D03*
Y421082D03*
X376540Y71161D03*
X381302Y56211D03*
X382485Y105807D03*
Y115807D03*
Y125807D03*
Y135807D03*
Y145807D03*
Y155807D03*
Y165807D03*
Y175807D03*
Y185807D03*
Y195807D03*
Y205807D03*
Y215807D03*
Y225807D03*
Y235807D03*
Y245807D03*
Y255807D03*
X385772Y301082D03*
Y321082D03*
X385794Y401082D03*
Y421082D03*
X392387Y66082D03*
Y91082D03*
X392485Y105807D03*
Y115807D03*
Y125807D03*
Y135807D03*
Y145807D03*
Y155807D03*
Y165807D03*
Y175807D03*
Y185807D03*
Y195807D03*
Y205807D03*
Y215807D03*
Y225807D03*
Y235807D03*
Y245807D03*
Y255807D03*
Y265807D03*
Y275807D03*
Y285807D03*
X394522Y341083D03*
Y381083D03*
X402445Y449465D03*
X402485Y65807D03*
Y75807D03*
Y85807D03*
Y95807D03*
Y105807D03*
Y115807D03*
Y125807D03*
Y135807D03*
Y145807D03*
Y155807D03*
Y165807D03*
Y175807D03*
Y185807D03*
Y195807D03*
Y205807D03*
Y215807D03*
Y225807D03*
Y235807D03*
Y245807D03*
Y255807D03*
Y265807D03*
Y275807D03*
Y285807D03*
Y335807D03*
Y345807D03*
Y355807D03*
Y365807D03*
Y375807D03*
Y385807D03*
X405772Y296083D03*
Y326083D03*
Y396083D03*
Y426083D03*
X412485Y65807D03*
Y75807D03*
Y85807D03*
Y95807D03*
Y105807D03*
Y115807D03*
Y125807D03*
Y135807D03*
Y145807D03*
Y155807D03*
Y165807D03*
Y175807D03*
Y185807D03*
Y195807D03*
Y205807D03*
Y215807D03*
Y225807D03*
Y235807D03*
Y245807D03*
Y255807D03*
Y265807D03*
Y275807D03*
Y285807D03*
Y335807D03*
Y345807D03*
Y355807D03*
Y365807D03*
Y375807D03*
Y385807D03*
X419532Y311082D03*
X419554Y411082D03*
X422485Y65807D03*
Y75807D03*
Y85807D03*
Y95807D03*
Y105807D03*
Y115807D03*
Y125807D03*
Y135807D03*
Y145807D03*
Y155807D03*
Y165807D03*
Y175807D03*
Y185807D03*
Y195807D03*
Y205807D03*
Y215807D03*
Y225807D03*
Y235807D03*
Y245807D03*
Y255807D03*
Y265807D03*
Y275807D03*
Y285807D03*
Y335807D03*
Y345807D03*
Y355807D03*
Y365807D03*
Y375807D03*
Y385807D03*
X430772Y296083D03*
Y326083D03*
Y396083D03*
Y426083D03*
Y449465D03*
X432485Y65807D03*
Y75807D03*
Y85807D03*
Y95807D03*
Y105807D03*
Y115807D03*
Y125807D03*
Y135807D03*
Y145807D03*
Y155807D03*
Y165807D03*
Y175807D03*
Y185807D03*
Y195807D03*
Y205807D03*
Y215807D03*
Y225807D03*
Y235807D03*
Y245807D03*
Y255807D03*
Y265807D03*
Y275807D03*
Y285807D03*
Y335807D03*
Y345807D03*
Y355807D03*
Y365807D03*
Y375807D03*
Y385807D03*
X0Y0D02*
M02*
