G05
M48
;#@! TF.GenerationSoftware,DesignSpark,DesignSpark PCB PRO,10.0.5299
;#@! TF.CreationDate,2021-09-19T16:54:43--9:00*
;#@! TF.FileFunction,Plated,1,2,Buried
;FILE_FORMAT=3:5
;TYPE=PLATED
INCH,TZ
FMAT,2
T1C000.01181
T2C000.01600
T3C000.02400
T4C000.03500
T5C000.03543
T6C000.03937
T7C000.04331
T8C000.13780
T9C000.16535
T10C000.16929
T11C000.18504
%
T001
X1.91102Y0.62493
X1.95969Y0.57376
X1.95969Y1.38498
X1.99463Y1.35128
X2.01086Y0.62368
X2.02459Y1.32383
X2.04705Y1.24231
X2.05989Y0.57251
X2.07076Y1.20901
X2.09323Y1.17932
X2.10945Y0.62368
X2.11694Y1.14783
X2.15989Y0.57501
X2.21054Y0.62493
X2.25772Y1.01681
X2.25955Y0.57501
X2.28168Y0.98811
X2.30415Y0.96190
X2.31039Y0.62493
X2.31039Y0.66487
X2.31663Y0.76096
X2.35989Y0.57626
X2.40274Y0.76221
X2.42645Y0.69731
X2.45989Y0.57626
X2.46697Y1.54833
X2.48272Y2.84833
X2.49847Y1.57333
X2.52022Y2.84833
X2.53753Y0.69981
X2.55989Y0.57501
X2.58870Y0.69981
X2.63612Y1.35877
X2.63737Y2.69292
X2.65859Y1.38373
X2.65859Y2.66172
X2.65989Y0.57501
X2.65989Y0.69981
X2.70976Y0.68109
X2.75989Y0.57501
X2.77590Y1.17932
X2.79961Y1.21150
X2.85989Y0.57501
X2.89946Y1.24231
X2.92442Y1.27381
X2.94938Y1.30511
X2.95989Y0.57501
X2.97309Y1.33680
X2.99680Y1.36830
X3.02052Y1.48981
X3.05989Y0.57750
X3.06544Y1.51228
X3.09290Y1.53599
X3.12036Y1.55970
X3.15919Y0.57875
X3.19399Y1.60963
X3.25989Y0.58125
X3.30382Y1.58467
X3.35989Y0.58000
X3.45989Y0.58125
X3.55989Y0.58250
X3.60898Y0.56086
X3.68136Y0.56086
X3.81302Y0.56211
T002
X0.67445Y4.40729
X1.00772Y2.96083
X1.00772Y3.26083
X1.00772Y3.96083
X1.00772Y4.26083
X1.02445Y4.40979
X1.17445Y0.66082
X1.17445Y0.91082
X1.25772Y2.96083
X1.25772Y3.26083
X1.25772Y3.41083
X1.25772Y3.81083
X1.30772Y3.96083
X1.30772Y4.26083
X1.31049Y0.66082
X1.31049Y0.91082
X1.52445Y4.49465
X1.74945Y1.61082
X1.74945Y1.66082
X1.77445Y0.77332
X1.80772Y3.31083
X1.82445Y1.06082
X1.84522Y1.46082
X1.84522Y2.01083
X1.84522Y2.46082
X1.84522Y2.81083
X1.90772Y3.91083
X1.92445Y1.06082
X1.92445Y1.46083
X1.92445Y2.01083
X1.92445Y2.46082
X1.92445Y2.81083
X2.02445Y4.49465
X2.14522Y2.81083
X2.14945Y1.01082
X2.14945Y2.01083
X2.14945Y2.46082
X2.19945Y1.27332
X2.19945Y1.58582
X2.22022Y1.66083
X2.22445Y2.01083
X2.22445Y2.46082
X2.22445Y2.81083
X2.34971Y1.66083
X2.35096Y2.01083
X2.35096Y2.46082
X2.35096Y2.81083
X2.46639Y1.27391
X2.52445Y4.49465
X2.53272Y2.01083
X2.54522Y1.66082
X2.54522Y2.46082
X2.59522Y1.66082
X2.59945Y2.01083
X2.59945Y2.46082
X2.59945Y2.81083
X2.62489Y1.04052
X2.62489Y1.09169
X2.84945Y1.66082
X2.84945Y2.01083
X2.84945Y2.46082
X2.84945Y2.81083
X2.86195Y0.68582
X3.02445Y4.49465
X3.40772Y0.90906
X3.40772Y1.46082
X3.40772Y2.01083
X3.40772Y2.46082
X3.52445Y4.49465
X3.60772Y0.91280
X3.60773Y0.76304
X3.72022Y3.41083
X3.92387Y0.66082
X3.92387Y0.91082
X3.94522Y3.41083
X3.94522Y3.81083
X4.02445Y4.49465
X4.05772Y2.96083
X4.05772Y3.26083
X4.05772Y3.96083
X4.05772Y4.26083
X4.30772Y2.96083
X4.30772Y3.26083
X4.30772Y3.96083
X4.30772Y4.26083
X4.30772Y4.49465
T003
X1.46195Y1.26083
X1.55907Y1.36082
X1.63695Y1.46082
X1.76000Y0.59498
X1.82445Y0.83582
X1.85860Y0.59498
X1.92445Y0.83582
T004
X1.35772Y2.65906
X1.35772Y2.75906
X1.35772Y3.66123
X1.35772Y3.76123
X3.75772Y2.66031
X3.75772Y2.76031
X3.75772Y3.66123
X3.75772Y3.76123
T005
X0.67445Y4.26082
X0.67485Y1.15996
X0.67485Y1.25996
X0.67485Y1.35996
X0.67485Y1.45996
X0.67485Y1.55996
X0.67485Y1.65996
X0.67485Y1.75996
X0.67485Y1.85996
X0.67485Y1.95996
X0.67485Y2.06088
X0.67485Y2.16072
X0.67485Y2.25807
X0.67485Y2.35807
X0.67485Y2.45807
X0.67485Y2.55807
X0.67485Y2.65807
X0.67485Y2.75807
X0.67485Y2.85807
X0.67485Y2.95807
X0.67485Y3.05807
X0.67485Y3.15807
X0.67485Y3.25807
X0.67485Y3.35807
X0.67485Y3.45807
X0.67485Y3.55807
X0.67485Y3.65807
X0.67485Y3.75807
X0.67485Y3.85807
X0.67485Y3.96009
X0.67485Y4.06009
X0.67485Y4.16009
X0.77445Y3.25807
X0.77445Y3.85807
X0.77485Y1.15996
X0.77485Y1.25996
X0.77485Y1.35996
X0.77485Y1.45996
X0.77485Y1.55996
X0.77485Y1.65996
X0.77485Y1.75996
X0.77485Y1.85996
X0.77485Y1.95996
X0.77485Y2.06088
X0.77485Y2.16072
X0.77485Y2.25807
X0.77485Y2.35807
X0.77485Y2.45807
X0.77485Y2.55807
X0.77485Y2.65807
X0.77485Y2.75807
X0.77485Y2.85807
X0.77485Y2.95807
X0.77485Y3.05807
X0.77485Y3.15807
X0.77485Y3.35807
X0.77485Y3.45807
X0.77485Y3.55807
X0.77485Y3.65807
X0.77485Y3.75807
X0.77485Y3.96009
X0.77485Y4.06009
X0.77485Y4.16009
X0.77485Y4.25962
X0.87445Y1.85996
X0.87445Y2.25807
X0.87445Y3.25807
X0.87445Y3.65807
X0.87445Y3.85807
X0.87485Y1.15996
X0.87485Y1.25996
X0.87485Y1.35996
X0.87485Y1.45996
X0.87485Y1.55996
X0.87485Y1.65996
X0.87485Y1.75996
X0.87485Y1.95996
X0.87485Y2.06088
X0.87485Y2.16072
X0.87485Y2.35807
X0.87485Y2.45807
X0.87485Y2.55807
X0.87485Y2.65807
X0.87485Y2.75807
X0.87485Y2.85807
X0.87485Y2.95807
X0.87485Y3.05807
X0.87485Y3.15807
X0.87485Y3.35807
X0.87485Y3.45807
X0.87485Y3.55807
X0.87485Y3.75807
X0.87485Y3.96009
X0.87485Y4.06009
X0.87485Y4.16009
X0.87485Y4.26082
X0.97437Y1.16121
X0.97437Y1.26121
X0.97437Y1.36121
X0.97437Y1.46121
X0.97437Y1.56121
X0.97437Y1.66121
X0.97437Y1.76121
X0.97437Y1.86121
X0.97437Y1.96121
X0.97445Y3.45807
X0.97445Y3.55807
X0.97445Y3.85807
X0.97485Y2.06088
X0.97485Y2.16072
X0.97485Y2.25807
X0.97485Y2.35807
X0.97485Y2.45807
X0.97485Y2.55807
X0.97485Y2.65807
X0.97485Y2.75807
X0.97485Y2.85807
X0.97485Y3.35807
X0.97485Y3.65807
X0.97485Y3.75807
X1.07437Y1.16121
X1.07437Y1.26121
X1.07437Y1.36121
X1.07437Y1.46121
X1.07437Y1.56121
X1.07437Y1.66121
X1.07437Y1.76121
X1.07437Y1.86121
X1.07437Y1.96121
X1.07445Y2.45807
X1.07445Y2.75807
X1.07469Y3.36008
X1.07469Y3.46008
X1.07469Y3.56008
X1.07469Y3.66008
X1.07469Y3.76008
X1.07469Y3.86008
X1.07485Y2.06088
X1.07485Y2.16072
X1.07485Y2.25807
X1.07485Y2.35807
X1.07485Y2.55807
X1.07485Y2.65807
X1.07485Y2.85807
X1.17437Y1.26121
X1.17437Y1.36121
X1.17437Y1.46121
X1.17437Y1.56121
X1.17437Y1.66121
X1.17437Y1.76121
X1.17437Y1.86121
X1.17437Y1.96121
X1.17445Y1.16121
X1.17453Y2.06338
X1.17453Y2.16322
X1.17453Y2.26057
X1.17453Y2.36057
X1.17453Y2.46057
X1.17453Y2.56057
X1.17453Y2.66057
X1.17453Y2.76057
X1.17453Y2.86057
X1.17469Y3.36008
X1.17469Y3.46008
X1.17469Y3.56008
X1.17469Y3.66008
X1.17469Y3.76008
X1.17469Y3.86008
X1.27445Y1.16082
X1.27445Y1.26121
X1.27445Y1.36082
X1.27445Y1.46082
X1.27445Y1.56082
X1.27445Y2.06082
X1.27445Y2.56082
X3.52445Y1.06082
X3.52445Y1.56082
X3.52445Y2.06082
X3.52445Y2.56082
X3.62445Y1.96082
X3.62485Y1.05807
X3.62485Y1.15807
X3.62485Y1.25807
X3.62485Y1.35807
X3.62485Y1.45807
X3.62485Y1.55807
X3.62485Y1.65807
X3.62485Y1.75807
X3.62485Y1.85807
X3.62485Y2.05807
X3.62485Y2.15807
X3.62485Y2.25807
X3.62485Y2.35807
X3.62485Y2.45807
X3.62485Y2.55807
X3.72485Y1.05807
X3.72485Y1.15807
X3.72485Y1.25807
X3.72485Y1.35807
X3.72485Y1.45807
X3.72485Y1.55807
X3.72485Y1.65807
X3.72485Y1.75807
X3.72485Y1.85807
X3.72485Y1.95807
X3.72485Y2.05807
X3.72485Y2.15807
X3.72485Y2.25807
X3.72485Y2.35807
X3.72485Y2.45807
X3.72485Y2.55807
X3.82485Y1.05807
X3.82485Y1.15807
X3.82485Y1.25807
X3.82485Y1.35807
X3.82485Y1.45807
X3.82485Y1.55807
X3.82485Y1.65807
X3.82485Y1.75807
X3.82485Y1.85807
X3.82485Y1.95807
X3.82485Y2.05807
X3.82485Y2.15807
X3.82485Y2.25807
X3.82485Y2.35807
X3.82485Y2.45807
X3.82485Y2.55807
X3.92485Y1.05807
X3.92485Y1.15807
X3.92485Y1.25807
X3.92485Y1.35807
X3.92485Y1.45807
X3.92485Y1.55807
X3.92485Y1.65807
X3.92485Y1.75807
X3.92485Y1.85807
X3.92485Y1.95807
X3.92485Y2.05807
X3.92485Y2.15807
X3.92485Y2.25807
X3.92485Y2.35807
X3.92485Y2.45807
X3.92485Y2.55807
X3.92485Y2.65807
X3.92485Y2.75807
X3.92485Y2.85807
X4.02485Y0.65807
X4.02485Y0.75807
X4.02485Y0.85807
X4.02485Y0.95807
X4.02485Y1.05807
X4.02485Y1.15807
X4.02485Y1.25807
X4.02485Y1.35807
X4.02485Y1.45807
X4.02485Y1.55807
X4.02485Y1.65807
X4.02485Y1.75807
X4.02485Y1.85807
X4.02485Y1.95807
X4.02485Y2.05807
X4.02485Y2.15807
X4.02485Y2.25807
X4.02485Y2.35807
X4.02485Y2.45807
X4.02485Y2.55807
X4.02485Y2.65807
X4.02485Y2.75807
X4.02485Y2.85807
X4.02485Y3.35807
X4.02485Y3.45807
X4.02485Y3.55807
X4.02485Y3.65807
X4.02485Y3.75807
X4.02485Y3.85807
X4.12485Y0.65807
X4.12485Y0.75807
X4.12485Y0.85807
X4.12485Y0.95807
X4.12485Y1.05807
X4.12485Y1.15807
X4.12485Y1.25807
X4.12485Y1.35807
X4.12485Y1.45807
X4.12485Y1.55807
X4.12485Y1.65807
X4.12485Y1.75807
X4.12485Y1.85807
X4.12485Y1.95807
X4.12485Y2.05807
X4.12485Y2.15807
X4.12485Y2.25807
X4.12485Y2.35807
X4.12485Y2.45807
X4.12485Y2.55807
X4.12485Y2.65807
X4.12485Y2.75807
X4.12485Y2.85807
X4.12485Y3.35807
X4.12485Y3.45807
X4.12485Y3.55807
X4.12485Y3.65807
X4.12485Y3.75807
X4.12485Y3.85807
X4.22485Y0.65807
X4.22485Y0.75807
X4.22485Y0.85807
X4.22485Y0.95807
X4.22485Y1.05807
X4.22485Y1.15807
X4.22485Y1.25807
X4.22485Y1.35807
X4.22485Y1.45807
X4.22485Y1.55807
X4.22485Y1.65807
X4.22485Y1.75807
X4.22485Y1.85807
X4.22485Y1.95807
X4.22485Y2.05807
X4.22485Y2.15807
X4.22485Y2.25807
X4.22485Y2.35807
X4.22485Y2.45807
X4.22485Y2.55807
X4.22485Y2.65807
X4.22485Y2.75807
X4.22485Y2.85807
X4.22485Y3.35807
X4.22485Y3.45807
X4.22485Y3.55807
X4.22485Y3.65807
X4.22485Y3.75807
X4.22485Y3.85807
X4.32485Y0.65807
X4.32485Y0.75807
X4.32485Y0.85807
X4.32485Y0.95807
X4.32485Y1.05807
X4.32485Y1.15807
X4.32485Y1.25807
X4.32485Y1.35807
X4.32485Y1.45807
X4.32485Y1.55807
X4.32485Y1.65807
X4.32485Y1.75807
X4.32485Y1.85807
X4.32485Y1.95807
X4.32485Y2.05807
X4.32485Y2.15807
X4.32485Y2.25807
X4.32485Y2.35807
X4.32485Y2.45807
X4.32485Y2.55807
X4.32485Y2.65807
X4.32485Y2.75807
X4.32485Y2.85807
X4.32485Y3.35807
X4.32485Y3.45807
X4.32485Y3.55807
X4.32485Y3.65807
X4.32485Y3.75807
X4.32485Y3.85807
T006
X1.45772Y3.01082
X1.45772Y3.21082
X1.45794Y4.01082
X1.45794Y4.21082
X1.55772Y3.01082
X1.55772Y3.21082
X1.55794Y4.01082
X1.55794Y4.21082
X1.65772Y3.01082
X1.65772Y3.21082
X1.65794Y4.01082
X1.65794Y4.21082
X1.75772Y3.01082
X1.75772Y3.21082
X1.75794Y4.01082
X1.75794Y4.21082
X1.85772Y3.01082
X1.85772Y3.21082
X1.85794Y4.01082
X1.85794Y4.21082
X1.95772Y3.01082
X1.95772Y3.21082
X1.95794Y4.01082
X1.95794Y4.21082
X2.05772Y3.01082
X2.05772Y3.21082
X2.05794Y4.01082
X2.05794Y4.21082
X2.15772Y3.01082
X2.15772Y3.21082
X2.15794Y4.01082
X2.15794Y4.21082
X2.25772Y3.01082
X2.25772Y3.21082
X2.25794Y4.01082
X2.25794Y4.21082
X2.35772Y3.01082
X2.35772Y3.21082
X2.35794Y4.01082
X2.35794Y4.21082
X2.45772Y3.01082
X2.45772Y3.21082
X2.45794Y4.01082
X2.45794Y4.21082
X2.55772Y3.01082
X2.55772Y3.21082
X2.55794Y4.01082
X2.55794Y4.21082
X2.65772Y3.01082
X2.65772Y3.21082
X2.65794Y4.01082
X2.65794Y4.21082
X2.75772Y3.01082
X2.75772Y3.21082
X2.75794Y4.01082
X2.75794Y4.21082
X2.85772Y3.01082
X2.85772Y3.21082
X2.85794Y4.01082
X2.85794Y4.21082
X2.95772Y3.01082
X2.95772Y3.21082
X2.95794Y4.01082
X2.95794Y4.21082
X3.05772Y3.01082
X3.05772Y3.21082
X3.05794Y4.01082
X3.05794Y4.21082
X3.15772Y3.01082
X3.15772Y3.21082
X3.15794Y4.01082
X3.15794Y4.21082
X3.25772Y3.01082
X3.25772Y3.21082
X3.25794Y4.01082
X3.25794Y4.21082
X3.35772Y3.01082
X3.35772Y3.21082
X3.35794Y4.01082
X3.35794Y4.21082
X3.45772Y3.01082
X3.45772Y3.21082
X3.45794Y4.01082
X3.45794Y4.21082
X3.55772Y3.01082
X3.55772Y3.21082
X3.55794Y4.01082
X3.55794Y4.21082
X3.65772Y3.01082
X3.65772Y3.21082
X3.65794Y4.01082
X3.65794Y4.21082
X3.75772Y3.01082
X3.75772Y3.21082
X3.75794Y4.01082
X3.75794Y4.21082
X3.85772Y3.01082
X3.85772Y3.21082
X3.85794Y4.01082
X3.85794Y4.21082
T007
X2.06124Y0.83834
X2.16124Y0.83834
X2.26124Y0.83834
X2.36124Y0.83834
X2.46124Y0.83834
X2.56124Y0.83834
T008
X1.12012Y3.11082
X1.12035Y4.11082
X4.19532Y3.11082
X4.19554Y4.11082
T009
X1.56264Y1.06594
T010
X3.75713Y0.86909
T011
X1.55437Y0.90059
X3.76540Y0.71161
M30
