G04 DesignSpark PCB PRO Gerber Version 10.0 Build 5299*
%FSLAX35Y35*%
%MOIN*%
%ADD87C,0.00197*%
%ADD85C,0.00394*%
%ADD12C,0.00500*%
%ADD89C,0.00787*%
%ADD91C,0.00800*%
%ADD92C,0.00984*%
%ADD13C,0.01000*%
%ADD90C,0.01575*%
X0Y0D02*
D02*
D12*
X123397Y284604D02*
X123710Y283978D01*
X124335Y283666D01*
X125585D01*
X126210Y283978D01*
X126522Y284604D01*
X126210Y285228D01*
X125585Y285541D01*
X124335D01*
X123710Y285854D01*
X123397Y286478D01*
X123710Y287104D01*
X124335Y287416D01*
X125585D01*
X126210Y287104D01*
X126522Y286478D01*
X128397Y284916D02*
Y286166D01*
X128710Y286791D01*
X129022Y287104D01*
X129647Y287416D01*
X130272D01*
X130897Y287104D01*
X131210Y286791D01*
X131522Y286166D01*
Y284916D01*
X131210Y284291D01*
X130897Y283978D01*
X130272Y283666D01*
X129647D01*
X129022Y283978D01*
X128710Y284291D01*
X128397Y284916D01*
X133397Y287416D02*
Y284604D01*
X133710Y283978D01*
X134335Y283666D01*
X135585D01*
X136210Y283978D01*
X136522Y284604D01*
Y287416D01*
X138397Y283666D02*
Y287416D01*
X141522Y283666D01*
Y287416D01*
X143397Y283666D02*
Y287416D01*
X145272D01*
X145897Y287104D01*
X146210Y286791D01*
X146522Y286166D01*
Y284916D01*
X146210Y284291D01*
X145897Y283978D01*
X145272Y283666D01*
X143397D01*
X148710Y283978D02*
X149335Y283666D01*
X149960D01*
X150585Y283978D01*
X150897Y284604D01*
Y286478D01*
X150585Y287104D01*
X149960Y287416D01*
X149335D01*
X148710Y287104D01*
X148397Y286478D01*
Y284604D01*
X148710Y283978D01*
X150585Y287104D01*
X123647Y384446D02*
X123959Y383821D01*
X124584Y383508D01*
X125834D01*
X126459Y383821D01*
X126772Y384446D01*
X126459Y385071D01*
X125834Y385383D01*
X124584D01*
X123959Y385696D01*
X123647Y386321D01*
X123959Y386946D01*
X124584Y387258D01*
X125834D01*
X126459Y386946D01*
X126772Y386321D01*
X128647Y384758D02*
Y386008D01*
X128959Y386633D01*
X129272Y386946D01*
X129897Y387258D01*
X130522D01*
X131147Y386946D01*
X131459Y386633D01*
X131772Y386008D01*
Y384758D01*
X131459Y384133D01*
X131147Y383821D01*
X130522Y383508D01*
X129897D01*
X129272Y383821D01*
X128959Y384133D01*
X128647Y384758D01*
X133647Y387258D02*
Y384446D01*
X133959Y383821D01*
X134584Y383508D01*
X135834D01*
X136459Y383821D01*
X136772Y384446D01*
Y387258D01*
X138647Y383508D02*
Y387258D01*
X141772Y383508D01*
Y387258D01*
X143647Y383508D02*
Y387258D01*
X145522D01*
X146147Y386946D01*
X146459Y386633D01*
X146772Y386008D01*
Y384758D01*
X146459Y384133D01*
X146147Y383821D01*
X145522Y383508D01*
X143647D01*
X149272D02*
X150522D01*
X149897D02*
Y387258D01*
X149272Y386633D01*
X137133Y156082D02*
X138070D01*
Y155769D01*
X137758Y155144D01*
X137445Y154832D01*
X136820Y154519D01*
X136195D01*
X135570Y154832D01*
X135258Y155144D01*
X134945Y155769D01*
Y157019D01*
X135258Y157644D01*
X135570Y157957D01*
X136195Y158269D01*
X136820D01*
X137445Y157957D01*
X137758Y157644D01*
X138070Y157019D01*
X139945Y154519D02*
Y158269D01*
X143070Y154519D01*
Y158269D01*
X144945Y154519D02*
Y158269D01*
X146820D01*
X147445Y157957D01*
X147758Y157644D01*
X148070Y157019D01*
Y155769D01*
X147758Y155144D01*
X147445Y154832D01*
X146820Y154519D01*
X144945D01*
X134945Y145769D02*
X137445D01*
X136195Y144519D02*
Y147019D01*
X139945Y144832D02*
X140570Y144519D01*
X141508D01*
X142133Y144832D01*
X142445Y145457D01*
Y145769D01*
X142133Y146394D01*
X141508Y146707D01*
X139945D01*
Y148269D01*
X142445D01*
X144945D02*
X146508Y144519D01*
X148070Y148269D01*
X134945Y135769D02*
X137445D01*
X136195Y134519D02*
Y137019D01*
X140570Y134519D02*
X141820D01*
X141195D02*
Y138269D01*
X140570Y137644D01*
X147445Y134519D02*
X144945D01*
X147133Y136707D01*
X147445Y137332D01*
X147133Y137957D01*
X146508Y138269D01*
X145570D01*
X144945Y137957D01*
X149945Y138269D02*
X151508Y134519D01*
X153070Y138269D01*
X134945Y125769D02*
X137445D01*
X140570Y124519D02*
X141820D01*
X141195D02*
Y128269D01*
X140570Y127644D01*
X147445Y124519D02*
X144945D01*
X147133Y126707D01*
X147445Y127332D01*
X147133Y127957D01*
X146508Y128269D01*
X145570D01*
X144945Y127957D01*
X149945Y128269D02*
X151508Y124519D01*
X153070Y128269D01*
X137133Y116082D02*
X138070D01*
Y115769D01*
X137758Y115144D01*
X137445Y114832D01*
X136820Y114519D01*
X136195D01*
X135570Y114832D01*
X135258Y115144D01*
X134945Y115769D01*
Y117019D01*
X135258Y117644D01*
X135570Y117957D01*
X136195Y118269D01*
X136820D01*
X137445Y117957D01*
X137758Y117644D01*
X138070Y117019D01*
X139945Y114519D02*
Y118269D01*
X143070Y114519D01*
Y118269D01*
X144945Y114519D02*
Y118269D01*
X146820D01*
X147445Y117957D01*
X147758Y117644D01*
X148070Y117019D01*
Y115769D01*
X147758Y115144D01*
X147445Y114832D01*
X146820Y114519D01*
X144945D01*
X141993Y361919D02*
X142306Y361606D01*
X142930Y361293D01*
X143556Y361606D01*
X143868Y361919D01*
Y365043D01*
X144493D01*
X143868D02*
X142618D01*
X147618Y361293D02*
X148868D01*
X148243D02*
Y365043D01*
X147618Y364419D01*
X142450Y8169D02*
G75*
G02*
X137170Y13449I0J5280D01*
G01*
Y55807D01*
X112485D01*
G75*
G02*
X107485Y60807I0J5000D01*
G01*
Y100807D01*
G75*
G03*
X102485Y105807I-5000J0D01*
G01*
X63735D01*
G75*
G02*
X57485Y112057I0J6250D01*
G01*
Y453582D01*
G75*
G02*
X63735Y459832I6250J0D01*
G01*
X436235D01*
G75*
G02*
X442485Y453582I0J-6250D01*
G01*
Y63075D01*
G75*
G02*
X435217Y55807I-7268J0D01*
G01*
X394807D01*
Y13667D01*
G75*
G02*
X389310Y8169I-5497J0D01*
G01*
X142450D01*
X142617Y261577D02*
X142930Y261264D01*
X143554Y260952D01*
X144180Y261264D01*
X144492Y261577D01*
Y264702D01*
X145117D01*
X144492D02*
X143242D01*
X150117Y260952D02*
X147617D01*
X149804Y263139D01*
X150117Y263764D01*
X149804Y264389D01*
X149180Y264702D01*
X148242D01*
X147617Y264389D01*
X183897Y162645D02*
X183585Y162333D01*
X182959Y162020D01*
X182022D01*
X181397Y162333D01*
X181085Y162645D01*
X180772Y163270D01*
Y164520D01*
X181085Y165145D01*
X181397Y165458D01*
X182022Y165770D01*
X182959D01*
X183585Y165458D01*
X183897Y165145D01*
X186397Y162020D02*
X187647D01*
X187022D02*
Y165770D01*
X186397Y165145D01*
X183239Y70294D02*
Y74044D01*
X185426D01*
X186052Y73732D01*
X186364Y73107D01*
X186052Y72482D01*
X185426Y72170D01*
X183239D01*
X185426D02*
X186364Y70294D01*
X188239D02*
Y74044D01*
X191364Y70294D01*
Y74044D01*
X193864Y70294D02*
X195114D01*
X194489D02*
Y74044D01*
X193864Y73420D01*
X195147Y162645D02*
X194835Y162333D01*
X194209Y162020D01*
X193272D01*
X192647Y162333D01*
X192335Y162645D01*
X192022Y163270D01*
Y164520D01*
X192335Y165145D01*
X192647Y165458D01*
X193272Y165770D01*
X194209D01*
X194835Y165458D01*
X195147Y165145D01*
X199522Y162020D02*
X197022D01*
X199209Y164208D01*
X199522Y164833D01*
X199209Y165458D01*
X198585Y165770D01*
X197647D01*
X197022Y165458D01*
X203831Y94464D02*
Y98214D01*
X205394Y96339D01*
X206957Y98214D01*
Y94464D01*
X213831D02*
Y98214D01*
X215707D01*
X216331Y97902D01*
X216644Y97589D01*
X216957Y96964D01*
Y95714D01*
X216644Y95089D01*
X216331Y94777D01*
X215707Y94464D01*
X213831D01*
X223831D02*
Y98214D01*
X225707D01*
X226331Y97902D01*
X226644Y97589D01*
X226957Y96964D01*
Y95714D01*
X226644Y95089D01*
X226331Y94777D01*
X225707Y94464D01*
X223831D01*
X236957Y95089D02*
X236644Y94777D01*
X236019Y94464D01*
X235081D01*
X234457Y94777D01*
X234144Y95089D01*
X233831Y95714D01*
Y96964D01*
X234144Y97589D01*
X234457Y97902D01*
X235081Y98214D01*
X236019D01*
X236644Y97902D01*
X236957Y97589D01*
X205459Y140770D02*
X206709D01*
X206085D02*
Y144520D01*
X205459D02*
X206709D01*
X212647Y141395D02*
X212335Y141083D01*
X211709Y140770D01*
X210772D01*
X210147Y141083D01*
X209835Y141395D01*
X209522Y142020D01*
Y143270D01*
X209835Y143895D01*
X210147Y144208D01*
X210772Y144520D01*
X211709D01*
X212335Y144208D01*
X212647Y143895D01*
X215147Y140770D02*
X216397D01*
X215772D02*
Y144520D01*
X215147Y143895D01*
X207576Y90951D02*
X207888Y90326D01*
X208513Y90013D01*
X209763D01*
X210388Y90326D01*
X210701Y90951D01*
X210388Y91576D01*
X209763Y91889D01*
X208513D01*
X207888Y92201D01*
X207576Y92826D01*
X207888Y93451D01*
X208513Y93763D01*
X209763D01*
X210388Y93451D01*
X210701Y92826D01*
X218513Y90013D02*
X219763D01*
X219138D02*
Y93763D01*
X218513D02*
X219763D01*
X227576Y91263D02*
Y92513D01*
X227888Y93139D01*
X228201Y93451D01*
X228826Y93763D01*
X229451D01*
X230076Y93451D01*
X230388Y93139D01*
X230701Y92513D01*
Y91263D01*
X230388Y90639D01*
X230076Y90326D01*
X229451Y90013D01*
X228826D01*
X228201Y90326D01*
X227888Y90639D01*
X227576Y91263D01*
X237576Y90013D02*
Y93763D01*
Y91889D02*
X238513D01*
X240701Y93763D01*
X238513Y91889D02*
X240701Y90013D01*
X223994Y144262D02*
X223681Y143949D01*
X223056Y143637D01*
X222119D01*
X221494Y143949D01*
X221181Y144262D01*
X220869Y144887D01*
Y146137D01*
X221181Y146762D01*
X221494Y147074D01*
X222119Y147387D01*
X223056D01*
X223681Y147074D01*
X223994Y146762D01*
X226181Y143949D02*
X226806Y143637D01*
X227431D01*
X228056Y143949D01*
X228369Y144574D01*
X228056Y145199D01*
X227431Y145512D01*
X226806D01*
X227431D02*
X228056Y145824D01*
X228369Y146449D01*
X228056Y147074D01*
X227431Y147387D01*
X226806D01*
X226181Y147074D01*
X228418Y70170D02*
Y73920D01*
X230605D01*
X231230Y73607D01*
X231543Y72982D01*
X231230Y72357D01*
X230605Y72045D01*
X228418D01*
X230605D02*
X231543Y70170D01*
X233418D02*
Y73920D01*
X236543Y70170D01*
Y73920D01*
X240918Y70170D02*
X238418D01*
X240605Y72357D01*
X240918Y72982D01*
X240605Y73607D01*
X239980Y73920D01*
X239043D01*
X238418Y73607D01*
X234976Y144387D02*
X234664Y144074D01*
X234039Y143761D01*
X233101D01*
X232476Y144074D01*
X232164Y144387D01*
X231851Y145011D01*
Y146261D01*
X232164Y146887D01*
X232476Y147199D01*
X233101Y147511D01*
X234039D01*
X234664Y147199D01*
X234976Y146887D01*
X238414Y143761D02*
Y147511D01*
X236851Y145011D01*
X239351D01*
X246830Y91576D02*
X247767D01*
Y91263D01*
X247455Y90639D01*
X247142Y90326D01*
X246517Y90013D01*
X245892D01*
X245267Y90326D01*
X244955Y90639D01*
X244642Y91263D01*
Y92513D01*
X244955Y93139D01*
X245267Y93451D01*
X245892Y93763D01*
X246517D01*
X247142Y93451D01*
X247455Y93139D01*
X247767Y92513D01*
X254642Y93763D02*
X256205Y90013D01*
X257767Y93763D01*
X250997Y163269D02*
Y167019D01*
X253185D01*
X253810Y166707D01*
X254122Y166082D01*
X253810Y165457D01*
X253185Y165144D01*
X250997D01*
X253185D02*
X254122Y163269D01*
X255997D02*
Y167019D01*
X259122Y163269D01*
Y167019D01*
X261310Y163582D02*
X261935Y163269D01*
X262560D01*
X263185Y163582D01*
X263497Y164207D01*
X263185Y164832D01*
X262560Y165144D01*
X261935D01*
X262560D02*
X263185Y165457D01*
X263497Y166082D01*
X263185Y166707D01*
X262560Y167019D01*
X261935D01*
X261310Y166707D01*
X266862Y79157D02*
X266550Y78844D01*
X265924Y78531D01*
X264987D01*
X264362Y78844D01*
X264050Y79157D01*
X263737Y79781D01*
Y81031D01*
X264050Y81657D01*
X264362Y81969D01*
X264987Y82281D01*
X265924D01*
X266550Y81969D01*
X266862Y81657D01*
X268737Y78531D02*
Y82281D01*
X271862Y78531D01*
Y82281D01*
X274362Y78531D02*
X275612D01*
X274987D02*
Y82281D01*
X274362Y81657D01*
X282959Y142020D02*
X284209D01*
X283585D02*
Y145770D01*
X282959D02*
X284209D01*
X290147Y142645D02*
X289835Y142333D01*
X289209Y142020D01*
X288272D01*
X287647Y142333D01*
X287335Y142645D01*
X287022Y143270D01*
Y144520D01*
X287335Y145145D01*
X287647Y145458D01*
X288272Y145770D01*
X289209D01*
X289835Y145458D01*
X290147Y145145D01*
X294522Y142020D02*
X292022D01*
X294209Y144208D01*
X294522Y144833D01*
X294209Y145458D01*
X293585Y145770D01*
X292647D01*
X292022Y145458D01*
X293883Y100164D02*
X293571Y99852D01*
X292946Y99539D01*
X292008D01*
X291383Y99852D01*
X291071Y100164D01*
X290758Y100789D01*
Y102039D01*
X291071Y102664D01*
X291383Y102977D01*
X292008Y103289D01*
X292946D01*
X293571Y102977D01*
X293883Y102664D01*
X295758Y99852D02*
X296383Y99539D01*
X297321D01*
X297946Y99852D01*
X298258Y100477D01*
Y100789D01*
X297946Y101414D01*
X297321Y101727D01*
X295758D01*
Y103289D01*
X298258D01*
X359150Y283605D02*
X359463Y282980D01*
X360088Y282667D01*
X361338D01*
X361963Y282980D01*
X362276Y283605D01*
X361963Y284230D01*
X361338Y284543D01*
X360088D01*
X359463Y284855D01*
X359150Y285480D01*
X359463Y286105D01*
X360088Y286417D01*
X361338D01*
X361963Y286105D01*
X362276Y285480D01*
X364150Y286417D02*
Y282667D01*
X367276D01*
X370713D02*
Y286417D01*
X369150D02*
X372276D01*
X374150Y283605D02*
X374463Y282980D01*
X375088Y282667D01*
X376338D01*
X376963Y282980D01*
X377276Y283605D01*
X376963Y284230D01*
X376338Y284543D01*
X375088D01*
X374463Y284855D01*
X374150Y285480D01*
X374463Y286105D01*
X375088Y286417D01*
X376338D01*
X376963Y286105D01*
X377276Y285480D01*
X379150Y286417D02*
Y282667D01*
X382276D01*
X384463Y282980D02*
X385088Y282667D01*
X385713D01*
X386338Y282980D01*
X386650Y283605D01*
Y285480D01*
X386338Y286105D01*
X385713Y286417D01*
X385088D01*
X384463Y286105D01*
X384150Y285480D01*
Y283605D01*
X384463Y282980D01*
X386338Y286105D01*
X359150Y383697D02*
X359463Y383072D01*
X360088Y382759D01*
X361338D01*
X361963Y383072D01*
X362276Y383697D01*
X361963Y384322D01*
X361338Y384635D01*
X360088D01*
X359463Y384947D01*
X359150Y385572D01*
X359463Y386197D01*
X360088Y386509D01*
X361338D01*
X361963Y386197D01*
X362276Y385572D01*
X364150Y386509D02*
Y382759D01*
X367276D01*
X370713D02*
Y386509D01*
X369150D02*
X372276D01*
X374150Y383697D02*
X374463Y383072D01*
X375088Y382759D01*
X376338D01*
X376963Y383072D01*
X377276Y383697D01*
X376963Y384322D01*
X376338Y384635D01*
X375088D01*
X374463Y384947D01*
X374150Y385572D01*
X374463Y386197D01*
X375088Y386509D01*
X376338D01*
X376963Y386197D01*
X377276Y385572D01*
X379150Y386509D02*
Y382759D01*
X382276D01*
X384776D02*
X386026D01*
X385400D02*
Y386509D01*
X384776Y385885D01*
X361147Y262450D02*
X361460Y262138D01*
X362085Y261825D01*
X362710Y262138D01*
X363022Y262450D01*
Y265575D01*
X363647D01*
X363022D02*
X361772D01*
X367710Y261825D02*
Y265575D01*
X366147Y263075D01*
X368647D01*
X362395Y362168D02*
X362708Y361856D01*
X363333Y361543D01*
X363958Y361856D01*
X364270Y362168D01*
Y365293D01*
X364895D01*
X364270D02*
X363020D01*
X367708Y361856D02*
X368333Y361543D01*
X368958D01*
X369583Y361856D01*
X369895Y362481D01*
X369583Y363106D01*
X368958Y363418D01*
X368333D01*
X368958D02*
X369583Y363731D01*
X369895Y364356D01*
X369583Y364981D01*
X368958Y365293D01*
X368333D01*
X367708Y364981D01*
X387022Y331082D02*
G75*
G03*
X384522Y334832I-1250J1875D01*
G01*
G75*
G03*
X387022Y331082I1250J-1875D01*
G01*
G36*
X387022Y331082D02*
G75*
G03*
X384522Y334832I-1250J1875D01*
G01*
G75*
G03*
X387022Y331082I1250J-1875D01*
G01*
G37*
X387044Y431082D02*
G75*
G03*
X384544Y434832I-1250J1875D01*
G01*
G75*
G03*
X387044Y431082I1250J-1875D01*
G01*
G36*
X387044Y431082D02*
G75*
G03*
X384544Y434832I-1250J1875D01*
G01*
G75*
G03*
X387044Y431082I1250J-1875D01*
G01*
G37*
X435531Y416055D02*
X435219Y416368D01*
X434906Y416993D01*
Y417930D01*
X435219Y418555D01*
X435531Y418868D01*
X436156Y419180D01*
X437406D01*
X438031Y418868D01*
X438344Y418555D01*
X438656Y417930D01*
Y416993D01*
X438344Y416368D01*
X438031Y416055D01*
X434906Y414180D02*
X438656D01*
X434906Y411055D01*
X438656D01*
X434906Y406680D02*
Y409180D01*
X437094Y406993D01*
X437719Y406680D01*
X438344Y406993D01*
X438656Y407618D01*
Y408555D01*
X438344Y409180D01*
X436085Y315457D02*
X435772Y315769D01*
X435459Y316394D01*
Y317332D01*
X435772Y317957D01*
X436085Y318269D01*
X436709Y318582D01*
X437959D01*
X438585Y318269D01*
X438897Y317957D01*
X439209Y317332D01*
Y316394D01*
X438897Y315769D01*
X438585Y315457D01*
X435459Y313582D02*
X439209D01*
X435459Y310457D01*
X439209D01*
X435772Y308269D02*
X435459Y307644D01*
Y307019D01*
X435772Y306394D01*
X436397Y306082D01*
X437022Y306394D01*
X437335Y307019D01*
Y307644D01*
Y307019D02*
X437647Y306394D01*
X438272Y306082D01*
X438897Y306394D01*
X439209Y307019D01*
Y307644D01*
X438897Y308269D01*
D02*
D13*
X130772Y280906D02*
Y260906D01*
X140772D01*
Y280906D01*
X130772D01*
Y381123D02*
Y361123D01*
X140772D01*
Y381123D01*
X130772D01*
X370772Y281031D02*
Y261031D01*
X380772D01*
Y281031D01*
X370772D01*
Y381123D02*
Y361123D01*
X380772D01*
Y381123D01*
X370772D01*
D02*
D85*
X432524Y292578D02*
X99020D01*
Y329586D01*
X432524D01*
Y292578D01*
X432546Y392578D02*
X99043D01*
Y429586D01*
X432546D01*
Y392578D01*
D02*
D87*
X315707Y126931D02*
Y155232D01*
X315807Y126931D02*
Y155231D01*
X315907Y126931D02*
Y155231D01*
X316008Y126931D02*
X316007Y155231D01*
X316107Y126931D02*
Y155231D01*
X316207Y126931D02*
Y155232D01*
X316307Y126931D02*
Y155231D01*
X316407Y126931D02*
Y155231D01*
X316508Y126931D02*
X316507Y155231D01*
X316607Y126931D02*
Y155231D01*
X316707Y126931D02*
X316708Y155231D01*
X316807Y126931D02*
Y155231D01*
X316907Y126931D02*
Y155231D01*
X317007Y126931D02*
X317007Y155231D01*
X317107Y126931D02*
Y155231D01*
X317207Y126931D02*
X317208Y155231D01*
X317307Y126931D02*
Y155231D01*
X317407Y126931D02*
Y155231D01*
X317508Y126931D02*
Y155232D01*
X317607Y126931D02*
Y155231D01*
X317707Y126931D02*
Y155231D01*
X317807Y126931D02*
Y155231D01*
X317907Y126931D02*
X317908Y155231D01*
X318007Y126931D02*
Y155232D01*
X318107Y126931D02*
Y155231D01*
X318207Y126931D02*
X318207Y155231D01*
X318307Y126931D02*
Y155231D01*
X318407Y126931D02*
X318408Y155231D01*
X318507Y126931D02*
Y155232D01*
X318607Y126931D02*
Y155231D01*
X318707Y126931D02*
Y155231D01*
X318807Y126931D02*
Y155231D01*
X318907Y126931D02*
X318908Y155231D01*
X319007Y126931D02*
Y155232D01*
X319107Y126931D02*
Y155231D01*
X319207Y126931D02*
Y155231D01*
X319308Y126931D02*
X319307Y155231D01*
X319407Y126931D02*
X319408Y155231D01*
X319507Y126931D02*
Y155232D01*
X319607Y126931D02*
Y155231D01*
X319707Y126931D02*
Y155231D01*
X319808Y126931D02*
X319807Y155231D01*
X319907Y126931D02*
Y155231D01*
X320007Y126931D02*
Y155232D01*
X320107Y126931D02*
Y155231D01*
X320207Y126931D02*
Y155231D01*
X320308Y126931D02*
X320307Y155231D01*
X320407Y126931D02*
Y155231D01*
X320507Y126931D02*
X320508Y155231D01*
X320607Y126931D02*
Y155231D01*
X320707Y126931D02*
Y155231D01*
X320808Y126931D02*
X320807Y155231D01*
X320907Y126931D02*
Y155231D01*
X321007Y126931D02*
X321008Y155231D01*
X321107Y126931D02*
Y155231D01*
X321207Y126931D02*
Y155231D01*
X321308Y126931D02*
Y155232D01*
X321407Y126931D02*
Y155231D01*
X321507Y126931D02*
X321508Y155231D01*
X321607Y126931D02*
Y155231D01*
X321707Y126931D02*
X321708Y155231D01*
X321807Y126931D02*
Y155232D01*
X321907Y126931D02*
Y155231D01*
X322007Y126931D02*
X322007Y155231D01*
X322107Y126931D02*
Y155231D01*
X322207Y126931D02*
X322208Y155231D01*
X322307Y126931D02*
Y155232D01*
X322407Y126931D02*
Y155231D01*
X322507Y126931D02*
Y155231D01*
X322607Y126931D02*
Y155231D01*
X322707Y126931D02*
X322708Y155231D01*
X322807Y126931D02*
Y155232D01*
X322907Y126931D02*
Y155231D01*
X323007Y126931D02*
Y155231D01*
X323108Y126931D02*
X323107Y155231D01*
X323207Y126931D02*
X323208Y155231D01*
X323307Y126931D02*
Y155232D01*
X323407Y126931D02*
Y155231D01*
X323507Y126931D02*
Y155231D01*
X323608Y126931D02*
X323607Y155231D01*
X323707Y126931D02*
Y155231D01*
X323807Y126931D02*
Y155232D01*
X323907Y126931D02*
Y155231D01*
X324007Y126931D02*
Y155231D01*
X324108Y126931D02*
X324107Y155231D01*
X324207Y126931D02*
Y155231D01*
X324307Y126931D02*
X324308Y155231D01*
X324407Y126931D02*
Y155231D01*
X324507Y126931D02*
Y155231D01*
X324608Y126931D02*
X324607Y155231D01*
X324707Y126931D02*
Y155231D01*
X324807Y126931D02*
X324808Y155231D01*
X324907Y126931D02*
Y155231D01*
X325007Y126931D02*
Y155231D01*
X325108Y126931D02*
Y155232D01*
X325207Y126931D02*
Y155231D01*
X325307Y126931D02*
X325308Y155231D01*
X325407Y126931D02*
Y155231D01*
X325507Y126931D02*
X325508Y155231D01*
X325608Y126931D02*
Y155232D01*
X325707Y126931D02*
Y155231D01*
X325807Y126931D02*
X325807Y155231D01*
X325907Y126931D02*
Y155231D01*
X326007Y126931D02*
X326008Y155231D01*
X326107Y126931D02*
Y155232D01*
X326207Y126931D02*
Y129731D01*
Y130431D02*
Y155231D01*
X326307Y126931D02*
Y129631D01*
Y130531D02*
X326307Y130831D01*
X326307Y132031D02*
Y132331D01*
Y133531D02*
Y143531D01*
Y144731D02*
Y155231D01*
X326407Y126931D02*
Y129531D01*
Y130531D02*
Y130831D01*
Y132031D02*
Y132331D01*
Y133531D02*
Y143531D01*
Y144731D02*
Y155231D01*
X326507Y144731D02*
X326508Y155231D01*
X326507Y126931D02*
X326507Y129531D01*
X326507Y132031D02*
X326507Y132331D01*
X326507Y133531D02*
X326508Y143531D01*
Y130532D02*
X326507Y130831D01*
X326607Y126931D02*
Y129531D01*
Y130631D02*
Y130831D01*
Y132031D02*
Y132331D01*
Y133531D02*
Y143531D01*
Y144731D02*
Y155232D01*
X326707Y126931D02*
X326708Y129531D01*
X326707Y130631D02*
X326708Y130831D01*
X326707Y132031D02*
X326708Y132331D01*
X326707Y133531D02*
Y143531D01*
X326708Y144731D02*
X326707Y155231D01*
X326807Y126931D02*
Y129531D01*
Y130531D02*
X326807Y130831D01*
X326807Y132031D02*
Y132331D01*
Y133531D02*
Y143531D01*
Y144731D02*
Y155231D01*
X326907Y132031D02*
Y132631D01*
Y133531D02*
Y143831D01*
Y144731D02*
Y155231D01*
X326908Y126931D02*
X326907Y129631D01*
X326908Y130531D02*
X326907Y131131D01*
X327007Y144731D02*
X327008Y155231D01*
X327007Y126931D02*
Y129731D01*
Y132031D02*
X327008Y132631D01*
X327007Y133531D02*
X327008Y143831D01*
Y130431D02*
Y131131D01*
X327107Y126931D02*
Y131131D01*
Y132031D02*
Y132631D01*
Y133531D02*
Y143832D01*
Y144731D02*
Y155232D01*
X327207Y126931D02*
Y131131D01*
Y132031D02*
Y132631D01*
Y133531D02*
Y143831D01*
X327208Y144731D02*
X327207Y155231D01*
X327307Y126931D02*
Y131131D01*
Y132031D02*
Y132631D01*
Y133531D02*
Y143831D01*
Y144731D02*
Y155231D01*
X327407Y132031D02*
Y132631D01*
Y133531D02*
Y134931D01*
Y139231D02*
Y139631D01*
Y140231D02*
Y141231D01*
Y142531D02*
Y143831D01*
Y144731D02*
Y155231D01*
X327408Y126931D02*
X327407Y131131D01*
X327408Y136031D02*
Y138031D01*
X327507Y139431D02*
X327508Y139531D01*
X327507Y144731D02*
X327508Y155231D01*
X327507Y126931D02*
X327508Y129331D01*
X327507Y132031D02*
X327508Y132631D01*
X327507Y133531D02*
Y134631D01*
Y136331D02*
Y137831D01*
X327508Y130532D02*
Y131131D01*
Y140231D02*
X327507Y141031D01*
X327508Y142831D02*
Y143831D01*
X327607Y126931D02*
Y129331D01*
Y130531D02*
Y131131D01*
Y132031D02*
Y132631D01*
Y133531D02*
Y134531D01*
Y136431D02*
Y137631D01*
Y140231D02*
Y140931D01*
Y142931D02*
Y143832D01*
Y144731D02*
Y155232D01*
X327707Y130531D02*
X327707Y131131D01*
X327707Y136531D02*
Y137631D01*
X327707Y126931D02*
Y129331D01*
Y132031D02*
Y132631D01*
Y133531D02*
Y134431D01*
Y140231D02*
Y140731D01*
Y143031D02*
Y143831D01*
Y144731D02*
Y155231D01*
X327807Y126931D02*
Y129331D01*
Y130531D02*
Y131131D01*
Y132031D02*
Y132631D01*
Y133531D02*
Y134331D01*
Y136631D02*
Y137531D01*
Y140231D02*
Y140731D01*
Y143131D02*
Y143831D01*
Y144731D02*
Y155231D01*
X327907Y141831D02*
X327907Y142031D01*
Y132031D02*
Y132631D01*
Y133531D02*
X327907Y134231D01*
X327907Y135431D02*
Y135531D01*
Y140231D02*
Y140631D01*
Y143231D02*
X327907Y143831D01*
X327907Y144731D02*
X327907Y155231D01*
X327908Y126931D02*
X327907Y129331D01*
X327908Y130531D02*
X327907Y131131D01*
X327908Y136732D02*
X327907Y137431D01*
X327908Y138631D02*
X328007Y126931D02*
Y129331D01*
Y130532D02*
Y131131D01*
Y132031D02*
Y132631D01*
Y133531D02*
Y134131D01*
Y135231D02*
Y135731D01*
Y136831D02*
Y137431D01*
Y138431D02*
Y138831D01*
Y140031D02*
Y140631D01*
Y141631D02*
Y142231D01*
Y143231D02*
Y143831D01*
Y144732D02*
Y155231D01*
X328107Y126931D02*
Y129631D01*
Y130531D02*
Y131131D01*
Y132031D02*
Y132631D01*
Y133531D02*
Y134131D01*
Y135131D02*
Y135831D01*
Y136831D02*
Y137431D01*
Y138331D02*
Y138931D01*
Y139831D02*
Y140631D01*
Y141531D02*
X328108Y142331D01*
X328107Y143231D02*
Y143832D01*
Y144731D02*
X328108Y155231D01*
X328207Y130531D02*
X328207Y131131D01*
Y126931D02*
Y129631D01*
Y132031D02*
Y132631D01*
Y133531D02*
Y134131D01*
Y135031D02*
Y135931D01*
Y136831D02*
Y137431D01*
Y138331D02*
Y138931D01*
Y139831D02*
Y140631D01*
Y141531D02*
Y142331D01*
Y143231D02*
Y143831D01*
Y144731D02*
Y155231D01*
X328307Y126931D02*
Y129631D01*
Y130531D02*
Y131131D01*
Y132031D02*
Y132631D01*
Y133531D02*
Y134031D01*
Y135031D02*
Y135931D01*
Y136931D02*
X328308Y137431D01*
X328307Y138331D02*
X328308Y138931D01*
X328307Y139831D02*
Y140631D01*
Y141431D02*
Y142431D01*
Y143331D02*
Y143831D01*
Y144731D02*
Y155231D01*
X328407Y143331D02*
X328407Y143831D01*
X328407Y132031D02*
Y132631D01*
Y136931D02*
Y137431D01*
Y139831D02*
Y140631D01*
X328408Y126931D02*
X328407Y129631D01*
X328408Y130531D02*
X328407Y131131D01*
X328408Y133531D02*
Y134031D01*
Y138331D02*
X328407Y138931D01*
X328408Y141431D02*
X328407Y141831D01*
X328408Y144731D02*
X328407Y155231D01*
X328507Y126931D02*
Y129631D01*
Y130532D02*
Y131131D01*
Y132031D02*
Y132631D01*
Y133531D02*
Y134031D01*
Y136931D02*
Y137431D01*
Y138431D02*
Y138831D01*
Y139831D02*
Y141432D01*
Y143331D02*
Y143831D01*
Y144732D02*
Y155231D01*
X328607Y126931D02*
Y129631D01*
Y130531D02*
Y131131D01*
Y132031D02*
Y132631D01*
Y133531D02*
Y134031D01*
Y136931D02*
Y137431D01*
Y139731D02*
Y141131D01*
Y144731D02*
X328608Y155231D01*
Y143331D02*
Y143831D01*
X328707Y126931D02*
Y129631D01*
Y130531D02*
Y131131D01*
Y132031D02*
Y132631D01*
Y133531D02*
Y134031D01*
Y136931D02*
Y137531D01*
Y139731D02*
Y141031D01*
Y143331D02*
Y143831D01*
Y144731D02*
Y155231D01*
X328807Y126931D02*
Y129631D01*
Y130531D02*
Y131131D01*
Y132031D02*
Y132631D01*
Y133531D02*
Y134031D01*
Y139631D02*
Y140831D01*
Y143331D02*
Y143831D01*
Y144731D02*
Y155231D01*
X328808Y136931D02*
X328807Y137631D01*
X328907Y139531D02*
X328907Y140731D01*
X328907Y142331D02*
X328908Y142431D01*
X328907Y143331D02*
X328908Y143832D01*
X328907Y126931D02*
Y129631D01*
Y132031D02*
Y132631D01*
Y136931D02*
Y137731D01*
X328908Y130531D02*
X328907Y131131D01*
X328908Y133531D02*
Y134031D01*
Y144731D02*
X328907Y155231D01*
X329007Y126931D02*
Y129631D01*
Y130532D02*
Y131131D01*
Y132031D02*
Y132631D01*
Y133531D02*
Y134031D01*
Y134931D02*
Y137731D01*
Y139431D02*
Y140631D01*
Y141932D02*
Y142432D01*
Y143331D02*
Y143831D01*
Y144732D02*
Y155231D01*
X329107Y141731D02*
X329107Y142431D01*
Y126931D02*
Y129631D01*
Y130531D02*
Y131131D01*
Y132031D02*
Y132631D01*
Y133531D02*
Y134031D01*
Y134931D02*
Y137631D01*
Y139131D02*
Y140631D01*
Y144731D02*
X329108Y155231D01*
Y143331D02*
Y143831D01*
X329207Y126931D02*
Y129631D01*
Y130531D02*
Y131131D01*
Y132031D02*
Y132631D01*
Y133531D02*
Y134031D01*
Y134931D02*
Y136131D01*
Y136931D02*
Y137531D01*
Y138431D02*
Y140531D01*
Y141531D02*
Y142431D01*
Y143331D02*
Y143831D01*
Y144731D02*
Y155231D01*
X329307Y126931D02*
Y129631D01*
Y130531D02*
Y131131D01*
Y132031D02*
X329308Y132631D01*
X329307Y133531D02*
Y134031D01*
Y135031D02*
X329308Y136131D01*
X329307Y141531D02*
Y142431D01*
Y143331D02*
X329308Y143831D01*
Y136931D02*
X329307Y137531D01*
X329308Y138931D02*
Y140531D01*
Y144731D02*
X329307Y155231D01*
X329407Y132031D02*
Y132631D01*
Y136931D02*
X329407Y137531D01*
X329407Y139631D02*
X329408Y140532D01*
Y126931D02*
X329407Y129631D01*
X329408Y130531D02*
X329407Y131131D01*
X329408Y133531D02*
Y134031D01*
Y135031D02*
Y136131D01*
Y141431D02*
X329407Y142231D01*
X329408Y143332D02*
Y143832D01*
Y144731D02*
Y155232D01*
X329507Y126931D02*
Y129631D01*
Y130532D02*
Y131131D01*
Y132031D02*
Y132631D01*
Y133531D02*
Y134131D01*
Y136831D02*
Y137531D01*
Y139831D02*
Y140531D01*
Y141531D02*
Y142131D01*
Y143331D02*
Y143831D01*
X329508Y144731D02*
X329507Y155231D01*
X329508Y135131D02*
X329507Y136031D01*
X329607Y126931D02*
Y129631D01*
Y130531D02*
Y131131D01*
Y132031D02*
Y132631D01*
Y133531D02*
X329607Y134131D01*
X329607Y135231D02*
Y135931D01*
Y136831D02*
Y137531D01*
Y140031D02*
Y140531D01*
Y141531D02*
Y142031D01*
Y143331D02*
Y143831D01*
Y144731D02*
Y155231D01*
X329707Y126931D02*
Y129631D01*
Y130531D02*
Y131131D01*
Y132031D02*
Y132631D01*
Y133531D02*
Y134231D01*
Y136831D02*
Y137631D01*
Y140131D02*
Y140531D01*
Y143331D02*
Y143831D01*
Y144731D02*
Y155231D01*
X329807Y130531D02*
X329807Y131131D01*
X329807Y144731D02*
X329808Y155231D01*
X329807Y126931D02*
Y129631D01*
Y132031D02*
X329808Y132631D01*
X329807Y133531D02*
Y134231D01*
Y140131D02*
Y140631D01*
X329808Y136731D02*
X329807Y137631D01*
X329808Y143331D02*
Y143831D01*
X329907Y126931D02*
Y129631D01*
Y130531D02*
Y131131D01*
Y132031D02*
Y132631D01*
Y133531D02*
Y134331D01*
Y136631D02*
Y137431D01*
Y140131D02*
Y140631D01*
Y143332D02*
Y143832D01*
Y144731D02*
Y155232D01*
X330007Y126931D02*
Y129631D01*
Y130532D02*
Y131131D01*
Y132031D02*
Y132631D01*
Y133531D02*
Y134431D01*
Y136531D02*
Y137431D01*
Y138331D02*
Y138831D01*
Y140231D02*
Y140731D01*
Y143331D02*
Y143831D01*
X330008Y144731D02*
X330007Y155231D01*
X330107Y126931D02*
Y129631D01*
Y130531D02*
Y131131D01*
Y132031D02*
Y132631D01*
Y133531D02*
X330107Y134631D01*
X330107Y136331D02*
Y137331D01*
Y138231D02*
Y139231D01*
Y140231D02*
Y140831D01*
Y142331D02*
Y142531D01*
Y143331D02*
X330107Y143831D01*
X330107Y144731D02*
Y155231D01*
X330207Y126931D02*
Y134931D01*
Y136131D02*
Y137331D01*
Y138231D02*
X330208Y139331D01*
X330207Y140231D02*
Y141031D01*
Y142131D02*
Y155231D01*
X330307Y126931D02*
Y137331D01*
Y138231D02*
Y139331D01*
X330308Y140231D02*
Y155231D01*
X330407Y126931D02*
Y137331D01*
Y138431D02*
Y139131D01*
Y140231D02*
Y155232D01*
X330507Y126931D02*
Y137331D01*
Y140131D02*
Y155231D01*
X330607Y126931D02*
Y137431D01*
Y140131D02*
Y155231D01*
X330707Y126931D02*
Y137431D01*
Y140031D02*
Y155231D01*
X330807Y139931D02*
X330808Y155231D01*
X330807Y126931D02*
Y137531D01*
X330907Y126931D02*
Y137731D01*
Y139731D02*
Y155232D01*
X331007Y139331D02*
X331007Y155231D01*
Y126931D02*
X331008Y138131D01*
X331107Y126931D02*
Y155231D01*
X331208Y126931D02*
X331207Y155231D01*
X331307Y126931D02*
X331308Y155231D01*
X331407Y126931D02*
Y155232D01*
X331507Y126931D02*
Y155231D01*
X331607Y126931D02*
Y144031D01*
Y144631D02*
Y155231D01*
X331707Y131431D02*
X331707Y143931D01*
Y144731D02*
X331707Y155231D01*
X331708Y126931D02*
X331707Y130431D01*
X331807Y126931D02*
Y130131D01*
Y131431D02*
Y143831D01*
Y144831D02*
Y155231D01*
X331907Y126931D02*
Y130031D01*
Y144832D02*
X331908Y155231D01*
Y131431D02*
X331907Y143832D01*
X332007Y126931D02*
X332007Y130031D01*
X332007Y131431D02*
X332007Y141931D01*
X332007Y142831D02*
Y143831D01*
Y144831D02*
Y155231D01*
X332107Y126931D02*
Y129931D01*
Y131431D02*
Y141931D01*
Y142831D02*
Y143831D01*
Y144831D02*
Y155231D01*
X332207Y131431D02*
X332208Y141931D01*
X332207Y142831D02*
X332207Y143831D01*
X332208Y126931D02*
X332207Y129931D01*
X332208Y144832D02*
X332207Y155231D01*
X332307Y126931D02*
Y129931D01*
Y130831D02*
Y141932D01*
Y142831D02*
Y143831D01*
Y144831D02*
Y155231D01*
X332407Y126931D02*
X332408Y129931D01*
X332407Y130831D02*
Y141931D01*
Y144731D02*
X332408Y155231D01*
Y142831D02*
X332407Y143931D01*
X332507Y126931D02*
Y129931D01*
Y130831D02*
Y141931D01*
Y142831D02*
Y144131D01*
Y144531D02*
Y155231D01*
X332607Y126931D02*
Y129931D01*
Y142831D02*
Y155231D01*
X332608Y130831D02*
X332607Y141931D01*
X332707Y142831D02*
Y155231D01*
X332707Y126931D02*
X332707Y129931D01*
X332707Y130831D02*
X332708Y141931D01*
X332807Y126931D02*
Y129931D01*
Y130831D02*
Y136231D01*
Y137331D02*
Y139331D01*
Y142831D02*
Y146232D01*
Y147331D02*
Y149931D01*
Y150931D02*
Y155231D01*
X332808Y140431D02*
X332807Y141932D01*
X332907Y126931D02*
X332908Y129431D01*
X332907Y134531D02*
Y134831D01*
Y135931D02*
X332908Y136031D01*
X332907Y140631D02*
Y141431D01*
Y143531D02*
X332908Y143631D01*
X332907Y144832D02*
Y145931D01*
Y149531D02*
Y149631D01*
Y151131D02*
X332908Y155231D01*
Y131431D02*
X332907Y131531D01*
X332908Y147631D02*
X332908Y148431D01*
Y132731D02*
X332907Y133631D01*
X332908Y137531D02*
X332908Y139031D01*
X333007Y126931D02*
Y129431D01*
Y131431D02*
Y131531D01*
Y134531D02*
Y134831D01*
Y137631D02*
Y138831D01*
Y143531D02*
Y143631D01*
Y144831D02*
Y145831D01*
Y147731D02*
X333008Y148431D01*
X333007Y149531D02*
Y151231D02*
Y155231D01*
X333008Y132731D02*
X333007Y133631D01*
X333008Y140831D02*
X333007Y141431D01*
X333107Y126931D02*
Y129431D01*
Y131431D02*
Y131531D01*
Y132731D02*
X333108Y133631D01*
X333107Y134531D02*
Y134831D01*
Y137731D02*
Y138731D01*
Y143531D02*
Y143631D01*
Y144831D02*
Y145731D01*
Y147831D02*
Y148431D01*
X333108Y140931D02*
X333107Y141431D01*
X333108Y151331D02*
X333107Y155231D01*
X333207Y132731D02*
Y133631D01*
Y137731D02*
X333208Y138631D01*
X333207Y141031D02*
X333208Y141431D01*
X333207Y143531D02*
Y143631D01*
Y144832D02*
X333207Y145631D01*
X333207Y147931D02*
Y148431D01*
X333208Y126931D02*
X333207Y129431D01*
X333208Y131432D02*
X333207Y131531D01*
X333208Y134531D02*
Y134831D01*
Y151432D02*
Y155232D01*
X333307Y126931D02*
Y129431D01*
Y131431D02*
Y131531D01*
Y132731D02*
Y133631D01*
Y134531D02*
Y134832D01*
Y137831D02*
Y138531D01*
Y141131D02*
Y141432D01*
Y143531D02*
Y143631D01*
Y144831D02*
Y145531D01*
Y151431D02*
Y155231D01*
X333308Y148031D02*
X333307Y148431D01*
X333407Y146531D02*
Y147031D01*
X333407Y126931D02*
Y129431D01*
Y131431D02*
Y131531D01*
Y132731D02*
X333407Y133631D01*
X333407Y134531D02*
Y134831D01*
Y136331D02*
Y136831D01*
Y137831D02*
Y138531D01*
Y139631D02*
Y140131D01*
Y141131D02*
Y141431D01*
Y143531D02*
Y143631D01*
Y144831D02*
Y145431D01*
Y148131D02*
Y148431D01*
Y149931D02*
Y150431D01*
Y151431D02*
Y155231D01*
X333507Y126931D02*
Y129931D01*
Y130831D02*
Y131831D01*
Y134531D02*
Y135131D01*
Y136231D02*
Y136931D01*
Y137831D02*
Y138431D01*
Y139431D02*
Y140231D01*
Y141131D02*
Y141931D01*
Y142831D02*
Y143931D01*
Y144831D02*
Y145431D01*
Y146431D02*
Y147131D01*
Y148131D02*
Y148731D01*
Y149831D02*
Y150531D01*
Y151431D02*
Y155231D01*
X333508Y132731D02*
X333507Y133631D01*
X333607Y130831D02*
Y131831D01*
Y136131D02*
X333608Y136931D01*
X333607Y139431D02*
X333607Y140331D01*
Y126931D02*
Y129931D01*
Y132731D02*
X333607Y133631D01*
X333607Y134531D02*
X333607Y135131D01*
X333607Y137831D02*
X333607Y138431D01*
X333607Y141131D02*
X333607Y141931D01*
X333607Y142831D02*
Y143931D01*
Y144831D02*
Y145431D01*
Y146331D02*
Y147231D01*
Y148231D02*
Y148731D01*
Y149731D02*
X333607Y150531D01*
X333608Y151431D02*
Y155231D01*
X333707Y126931D02*
X333707Y129931D01*
X333707Y130831D02*
Y131831D01*
Y132731D02*
Y133631D01*
Y134531D02*
Y135131D01*
Y136031D02*
Y136931D01*
Y137831D02*
Y138431D01*
Y139330D02*
Y140331D01*
Y141131D02*
Y141931D01*
Y142832D02*
Y143931D01*
Y144832D02*
Y145331D01*
Y146331D02*
Y147231D01*
Y148231D02*
Y148731D01*
Y149631D02*
Y150531D01*
Y151432D02*
Y155232D01*
X333807Y126931D02*
Y129931D01*
Y132731D02*
Y133631D01*
Y134531D02*
X333808Y135131D01*
X333807Y136031D02*
Y136931D01*
Y137831D02*
Y138331D01*
Y139331D02*
Y140331D01*
Y141131D02*
Y141932D01*
Y142831D02*
Y143931D01*
Y144831D02*
Y145331D01*
Y146232D02*
Y147331D01*
Y148231D02*
Y148731D01*
Y149631D02*
Y150631D01*
Y151431D02*
Y155231D01*
X333808Y130831D02*
Y131831D01*
X333907Y130831D02*
X333907Y131831D01*
X333907Y151431D02*
X333907Y155231D01*
Y126931D02*
Y129931D01*
Y132731D02*
Y133631D01*
Y134531D02*
X333907Y135131D01*
X333907Y136031D02*
Y136931D01*
Y137831D02*
Y138331D01*
Y139331D02*
Y140331D01*
Y141131D02*
Y141931D01*
Y142831D02*
Y143931D01*
Y144831D02*
Y145331D01*
Y146231D02*
Y147331D01*
Y148231D02*
Y148731D01*
Y149631D02*
Y150631D01*
X334007Y126931D02*
X334008Y129931D01*
X334007Y130831D02*
Y131831D01*
Y134531D02*
Y135131D01*
Y137831D02*
Y138331D01*
Y139231D02*
Y141931D01*
Y142831D02*
Y143931D01*
Y144831D02*
Y145331D01*
Y146231D02*
Y147331D01*
Y148231D02*
Y148731D01*
Y149631D02*
Y150631D01*
Y151431D02*
Y155231D01*
X334008Y132731D02*
X334007Y133631D01*
X334008Y136031D02*
X334007Y136931D01*
X334107Y130831D02*
Y131831D01*
X334107Y126931D02*
Y129931D01*
Y132731D02*
Y133631D01*
Y134531D02*
X334107Y135131D01*
X334107Y136031D02*
X334108Y136931D01*
X334107Y137831D02*
Y138331D01*
Y144831D02*
Y145331D01*
Y148231D02*
Y148731D01*
Y149631D02*
Y150631D01*
X334108Y139231D02*
X334107Y141931D01*
X334108Y142831D02*
X334107Y143931D01*
X334108Y146232D02*
Y147331D01*
Y151431D02*
Y155231D01*
X334207Y126931D02*
Y129931D01*
Y130831D02*
Y131831D01*
Y132731D02*
Y133631D01*
Y134531D02*
Y135131D01*
Y136031D02*
Y136931D01*
Y137831D02*
Y138331D01*
Y139231D02*
Y141931D01*
Y142832D02*
Y143931D01*
Y144832D02*
Y145331D01*
Y146231D02*
Y147331D01*
Y148231D02*
Y148731D01*
Y149631D02*
Y150631D01*
Y151432D02*
Y155232D01*
X334307Y126931D02*
Y129931D01*
Y132731D02*
Y133631D01*
Y134531D02*
X334308Y135131D01*
X334307Y136031D02*
Y136931D01*
Y137831D02*
Y138331D01*
Y139231D02*
X334308Y141931D01*
X334307Y142831D02*
Y143931D01*
Y144831D02*
Y145331D01*
Y146232D02*
Y147331D01*
Y148231D02*
Y148731D01*
Y149631D02*
Y150631D01*
Y151431D02*
Y155231D01*
X334308Y130831D02*
Y131831D01*
X334407Y130831D02*
X334407Y131831D01*
Y126931D02*
Y129931D01*
Y132731D02*
Y133631D01*
Y134531D02*
Y135131D01*
Y136031D02*
Y136931D01*
Y137831D02*
Y138331D01*
Y139231D02*
Y141931D01*
Y142831D02*
Y143931D01*
Y144831D02*
Y145331D01*
Y146231D02*
Y147331D01*
Y148231D02*
Y148731D01*
Y149631D02*
Y150631D01*
Y151431D02*
Y155231D01*
X334507Y126931D02*
X334508Y129931D01*
X334507Y130831D02*
Y131831D01*
Y134531D02*
Y135131D01*
Y137831D02*
Y138331D01*
Y141131D02*
Y141931D01*
Y142831D02*
Y143931D01*
Y144831D02*
Y145331D01*
Y148231D02*
Y148731D01*
Y149631D02*
Y150631D01*
Y151431D02*
Y155231D01*
X334508Y132731D02*
X334507Y133631D01*
X334508Y136031D02*
X334507Y136931D01*
X334508Y139331D02*
X334507Y140431D01*
X334508Y146231D02*
X334507Y147331D01*
X334607Y130831D02*
Y131831D01*
X334607Y126931D02*
Y129931D01*
Y132731D02*
Y133631D01*
Y134531D02*
X334607Y135131D01*
X334607Y136031D02*
Y136931D01*
Y137831D02*
Y138331D01*
Y139331D02*
Y140331D01*
Y141131D02*
X334608Y141932D01*
X334607Y144831D02*
Y145331D01*
Y146232D02*
X334608Y147331D01*
X334607Y148231D02*
Y148731D01*
Y149631D02*
X334608Y150631D01*
Y142831D02*
X334607Y143931D01*
X334608Y151431D02*
Y155231D01*
X334707Y126931D02*
X334708Y129931D01*
X334707Y130831D02*
Y131831D01*
Y132731D02*
Y133631D01*
Y134531D02*
Y135131D01*
Y136031D02*
Y136931D01*
Y137831D02*
Y138431D01*
Y139331D02*
Y140331D01*
Y141131D02*
Y141931D01*
Y142832D02*
Y143931D01*
Y144832D02*
Y145331D01*
Y146331D02*
Y147231D01*
Y148231D02*
Y148731D01*
Y149631D02*
Y150631D01*
Y151432D02*
Y155232D01*
X334807Y132731D02*
X334807Y133631D01*
X334807Y136031D02*
X334807Y136931D01*
Y126931D02*
X334807Y129931D01*
X334807Y134531D02*
X334808Y135131D01*
X334807Y137831D02*
X334808Y138431D01*
X334807Y141131D02*
X334808Y141931D01*
X334807Y142831D02*
Y143931D01*
Y144831D02*
Y145331D01*
Y146331D02*
Y147231D01*
Y148231D02*
Y148731D01*
Y149631D02*
Y150631D01*
Y151431D02*
Y155231D01*
X334808Y130831D02*
Y131831D01*
Y139431D02*
X334807Y140331D01*
X334907Y126931D02*
Y129931D01*
Y132731D02*
Y133531D01*
Y134531D02*
Y135131D01*
Y136031D02*
Y136931D01*
Y137831D02*
X334908Y138431D01*
X334907Y139431D02*
Y140231D01*
Y141131D02*
Y141931D01*
Y142831D02*
Y143931D01*
Y144831D02*
Y145431D01*
Y146431D02*
Y147131D01*
Y148131D02*
Y148731D01*
Y149631D02*
Y150631D01*
Y151431D02*
Y155231D01*
X334908Y130831D02*
X334907Y131831D01*
X335007Y130831D02*
Y131831D01*
Y132831D02*
Y133331D01*
Y137831D02*
X335008Y138531D01*
X335007Y139531D02*
Y140131D01*
Y141031D02*
X335008Y141931D01*
X335007Y143031D02*
Y143931D01*
Y144831D02*
Y145431D01*
Y146531D02*
Y147031D01*
Y148131D02*
Y148731D01*
Y149631D02*
Y150631D01*
Y151431D02*
Y155231D01*
X335008Y126931D02*
Y129931D01*
Y134531D02*
X335007Y135131D01*
X335008Y136031D02*
X335007Y136931D01*
X335107Y148031D02*
X335107Y148731D01*
Y126931D02*
Y129931D01*
Y130831D02*
X335107Y131831D01*
X335107Y134531D02*
X335107Y135131D01*
X335107Y136031D02*
X335108Y136931D01*
X335107Y137831D02*
X335108Y138531D01*
X335107Y141031D02*
X335108Y141932D01*
X335107Y144831D02*
Y145531D01*
Y149631D02*
X335108Y150631D01*
Y132931D02*
X335107Y133131D01*
X335108Y139731D02*
X335107Y139931D01*
X335108Y143531D02*
X335107Y143931D01*
X335108Y146631D02*
Y146831D01*
Y151431D02*
Y155231D01*
X335207Y126931D02*
X335208Y129931D01*
X335207Y130831D02*
Y131932D01*
Y134531D02*
Y135131D01*
Y136031D02*
Y136931D01*
Y137831D02*
Y138631D01*
Y140931D02*
Y141931D01*
Y143531D02*
Y143931D01*
Y144832D02*
Y145531D01*
Y148031D02*
Y148731D01*
Y149631D02*
Y150631D01*
Y151432D02*
Y155232D01*
X335307Y136031D02*
X335307Y136931D01*
X335307Y140831D02*
X335307Y142031D01*
X335307Y147931D02*
X335307Y148731D01*
Y126931D02*
X335307Y129931D01*
X335307Y130831D02*
Y131931D01*
Y134531D02*
Y135131D01*
Y137831D02*
Y138731D01*
Y143531D02*
Y143931D01*
Y144831D02*
X335307Y145631D01*
X335307Y149631D02*
Y150631D01*
Y151431D02*
Y155231D01*
X335407Y126931D02*
Y129931D01*
Y134531D02*
X335408Y135131D01*
X335407Y136031D02*
Y136931D01*
Y137831D02*
Y138831D01*
Y140731D02*
Y142031D01*
Y143531D02*
Y143931D01*
Y144831D02*
Y145731D01*
Y147831D02*
Y148731D01*
Y149631D02*
Y150631D01*
Y151431D02*
Y155231D01*
X335408Y130831D02*
X335407Y132031D01*
X335507Y133731D02*
Y136031D02*
X335507Y136931D01*
X335507Y147631D02*
X335507Y148731D01*
X335507Y151431D02*
Y155231D01*
X335507Y130831D02*
Y132131D01*
Y140631D02*
Y142231D01*
Y143531D02*
Y143931D01*
Y149631D02*
Y150631D01*
X335508Y126931D02*
X335507Y129931D01*
X335508Y134531D02*
X335507Y135131D01*
X335508Y137831D02*
X335507Y138931D01*
X335508Y144832D02*
Y145931D01*
X335607Y140431D02*
X335607Y146131D01*
Y126931D02*
X335607Y132331D01*
X335607Y133531D02*
Y139131D01*
Y147431D02*
Y155231D01*
X335707Y126931D02*
Y155232D01*
X335807Y126931D02*
Y155231D01*
X335907Y126931D02*
Y155231D01*
X336008Y126931D02*
X336007Y155231D01*
X336107Y126931D02*
Y155231D01*
X336207Y126931D02*
X336208Y155231D01*
X336307Y126931D02*
Y155231D01*
X336407Y126931D02*
Y155231D01*
X336507Y126931D02*
X336507Y155231D01*
X336607Y126931D02*
Y155231D01*
X336707Y126931D02*
X336708Y155231D01*
X336807Y126931D02*
Y155231D01*
X336907Y126931D02*
Y155231D01*
X337008Y126931D02*
Y155232D01*
X337107Y126931D02*
Y155231D01*
X337207Y126931D02*
X337207Y135631D01*
X337207Y136831D02*
Y137131D01*
Y138331D02*
Y155231D01*
X337307Y126931D02*
Y135631D01*
Y136831D02*
Y137131D01*
Y138331D02*
Y155231D01*
X337407Y126931D02*
X337407Y135631D01*
X337407Y136831D02*
X337407Y137131D01*
X337407Y138331D02*
X337408Y155231D01*
X337507Y126931D02*
Y135631D01*
Y136831D02*
Y137131D01*
Y138331D02*
Y155232D01*
X337607Y126931D02*
X337608Y135631D01*
X337607Y136831D02*
X337608Y137131D01*
X337607Y138331D02*
Y155231D01*
X337707Y126931D02*
Y135931D01*
Y136831D02*
Y137431D01*
Y138331D02*
X337707Y155231D01*
X337807Y126931D02*
Y135931D01*
Y136831D02*
Y137431D01*
Y138331D02*
Y155231D01*
X337907Y126931D02*
X337908Y135931D01*
X337907Y136831D02*
Y137431D01*
Y138331D02*
X337908Y155231D01*
X338007Y126931D02*
Y135931D01*
Y136831D02*
Y137431D01*
Y138331D02*
Y155232D01*
X338107Y126931D02*
Y135931D01*
Y136831D02*
Y137431D01*
Y138331D02*
Y155231D01*
X338207Y126931D02*
Y130531D01*
Y131531D02*
Y133531D01*
Y134531D02*
Y135931D01*
Y136831D02*
Y137431D01*
Y138331D02*
Y155231D01*
X338307Y126931D02*
Y130231D01*
Y131831D02*
X338308Y133231D01*
X338307Y136831D02*
Y137431D01*
Y138331D02*
Y155231D01*
X338308Y134831D02*
X338307Y135931D01*
X338407Y126931D02*
Y130131D01*
Y135031D02*
X338408Y135931D01*
X338407Y136831D02*
Y137431D01*
Y138331D02*
X338408Y155231D01*
Y131931D02*
X338407Y133031D01*
X338507Y126931D02*
Y129931D01*
Y132131D02*
Y132932D01*
Y135131D02*
Y135931D01*
Y136831D02*
Y137431D01*
Y138331D02*
Y155232D01*
X338607Y132231D02*
X338608Y132831D01*
X338607Y126931D02*
Y129831D01*
Y135231D02*
Y135931D01*
Y136831D02*
Y137431D01*
Y138331D02*
Y155231D01*
X338707Y126931D02*
Y129831D01*
Y132231D02*
Y132731D01*
Y135331D02*
Y135931D01*
Y136831D02*
Y137431D01*
Y138331D02*
Y155231D01*
X338807Y130831D02*
X338808Y131231D01*
X338807Y132331D02*
X338808Y132731D01*
X338807Y133831D02*
X338808Y134231D01*
X338807Y135331D02*
Y135931D01*
Y136831D02*
Y137431D01*
Y138331D02*
Y155231D01*
X338808Y126931D02*
X338807Y129731D01*
X338907Y132331D02*
X338907Y132731D01*
Y126931D02*
Y129631D01*
Y133731D02*
X338908Y134431D01*
X338907Y135331D02*
X338908Y135931D01*
X338907Y136831D02*
Y137431D01*
Y138331D02*
X338908Y155231D01*
Y130631D02*
Y131431D01*
X339007Y126931D02*
Y129631D01*
Y130631D02*
Y131432D01*
Y132331D02*
Y132731D01*
Y133631D02*
Y134431D01*
Y135431D02*
Y135931D01*
Y136831D02*
Y137431D01*
Y138331D02*
Y155232D01*
X339107Y126931D02*
Y129631D01*
Y135431D02*
Y135931D01*
Y136831D02*
X339108Y137431D01*
X339107Y138331D02*
Y155231D01*
X339108Y130531D02*
X339107Y131531D01*
X339108Y132331D02*
X339107Y132731D01*
X339108Y133631D02*
X339107Y134531D01*
X339207Y126931D02*
Y129531D01*
Y130531D02*
Y131531D01*
Y132331D02*
Y132731D01*
Y133531D02*
Y134231D01*
Y135431D02*
Y135931D01*
Y136831D02*
Y137431D01*
Y138331D02*
Y155231D01*
X339307Y132331D02*
X339307Y133731D01*
X339307Y135431D02*
Y135931D01*
Y136831D02*
Y137431D01*
X339308Y126931D02*
X339307Y129531D01*
X339308Y130531D02*
X339307Y131531D01*
X339308Y138331D02*
X339307Y155231D01*
X339407Y126931D02*
Y129532D01*
Y130431D02*
Y133431D01*
Y135431D02*
Y135931D01*
Y136831D02*
Y137430D01*
Y138331D02*
Y155231D01*
X339507Y126931D02*
Y129531D01*
Y135431D02*
Y135931D01*
Y136831D02*
Y137431D01*
Y138331D02*
Y155232D01*
X339508Y130431D02*
X339508Y133231D01*
X339607Y126931D02*
Y129531D01*
Y130431D02*
Y133031D01*
Y135431D02*
Y135931D01*
Y136831D02*
Y137431D01*
Y138331D02*
Y155231D01*
X339707Y126931D02*
Y129531D01*
Y130431D02*
Y132931D01*
Y135431D02*
Y135931D01*
Y136831D02*
Y137431D01*
Y138331D02*
Y155231D01*
X339807Y130431D02*
X339807Y132831D01*
X339807Y134231D02*
X339808Y134531D01*
X339807Y135431D02*
Y135931D01*
Y136831D02*
Y137431D01*
X339808Y126931D02*
Y129531D01*
Y138331D02*
X339807Y155231D01*
X339907Y126931D02*
Y129532D01*
Y130431D02*
Y132731D01*
Y133931D02*
Y134531D01*
Y135431D02*
Y135931D01*
Y136831D02*
Y137431D01*
Y138331D02*
Y155231D01*
X340007Y126931D02*
Y129531D01*
Y130531D02*
Y131531D01*
Y132331D02*
X340008Y132731D01*
X340007Y135431D02*
Y135931D01*
Y136831D02*
Y137431D01*
Y138331D02*
X340008Y155231D01*
X340008Y133731D02*
X340007Y134531D01*
X340107Y130531D02*
X340107Y131531D01*
Y126931D02*
Y129531D01*
Y132331D02*
X340107Y132731D01*
X340107Y133631D02*
Y134531D01*
Y135431D02*
Y135931D01*
Y136831D02*
Y137431D01*
Y138331D02*
Y155231D01*
X340207Y126931D02*
Y129631D01*
Y130531D02*
Y131531D01*
Y135431D02*
Y135931D01*
Y136831D02*
X340208Y137431D01*
X340207Y138331D02*
Y155231D01*
X340208Y132331D02*
X340207Y132631D01*
X340208Y133631D02*
X340207Y134431D01*
X340307Y130631D02*
X340307Y131431D01*
X340307Y132331D02*
Y132631D01*
Y133631D02*
X340308Y134331D01*
X340307Y135431D02*
Y135931D01*
Y136831D02*
Y137431D01*
X340308Y126931D02*
X340307Y129631D01*
X340308Y138331D02*
X340307Y155231D01*
X340407Y126931D02*
Y129631D01*
Y130731D02*
Y131331D01*
Y132231D02*
Y132631D01*
Y133631D02*
Y134231D01*
Y135431D02*
Y135931D01*
Y136831D02*
Y137431D01*
Y138331D02*
Y155231D01*
X340507Y126931D02*
Y129731D01*
Y135431D02*
Y135931D01*
Y136831D02*
X340507Y137431D01*
X340507Y138331D02*
X340508Y155231D01*
X340508Y130931D02*
X340507Y131231D01*
X340508Y132231D02*
Y132731D01*
Y133731D02*
X340507Y133931D01*
X340607Y126931D02*
Y129831D01*
Y132131D02*
X340608Y132731D01*
X340607Y135431D02*
Y135931D01*
Y136831D02*
Y137431D01*
Y138331D02*
Y155231D01*
X340707Y126931D02*
X340708Y129831D01*
X340707Y132131D02*
Y132731D01*
Y135431D02*
Y135931D01*
Y136831D02*
X340708Y137431D01*
X340707Y138331D02*
Y155231D01*
X340807Y132031D02*
X340808Y132831D01*
X340807Y135431D02*
Y135931D01*
X340808Y126931D02*
X340807Y129931D01*
X340808Y136831D02*
X340807Y137431D01*
X340808Y138331D02*
Y155232D01*
X340907Y126931D02*
Y130131D01*
Y134531D02*
Y134631D01*
Y135531D02*
Y135931D01*
Y136831D02*
Y137431D01*
Y138331D02*
Y155231D01*
X340908Y131831D02*
X340907Y132931D01*
X341007Y126931D02*
X341007Y130331D01*
X341007Y134331D02*
X341008Y155231D01*
X341008Y131731D02*
X341007Y133031D01*
X341107Y126931D02*
Y130731D01*
Y131331D02*
Y133431D01*
Y133931D02*
Y155231D01*
X341207Y126931D02*
X341208Y155231D01*
X341307Y126931D02*
Y155232D01*
X341407Y126931D02*
Y155231D01*
X341507Y126931D02*
X341507Y155231D01*
X341607Y126931D02*
Y155231D01*
X341707Y126931D02*
X341708Y155231D01*
X341807Y126931D02*
Y155232D01*
X341907Y126931D02*
Y155231D01*
X342007Y126931D02*
Y155231D01*
X342107Y126931D02*
Y155231D01*
X342207Y126931D02*
X342208Y155231D01*
X342307Y126931D02*
Y155232D01*
X342407Y126931D02*
Y155231D01*
X342507Y126931D02*
Y155231D01*
X342608Y126931D02*
X342607Y155231D01*
X342707Y126931D02*
X342708Y155231D01*
X342807Y126931D02*
Y155232D01*
X342907Y126931D02*
Y155231D01*
X343007Y126931D02*
Y155231D01*
X343108Y126931D02*
X343107Y155231D01*
X343207Y126931D02*
Y155231D01*
X343307Y126931D02*
Y155232D01*
X343407Y126931D02*
Y155231D01*
X343507Y126931D02*
Y155231D01*
X343608Y126931D02*
X343607Y155231D01*
X343707Y126931D02*
Y155231D01*
X343807Y126931D02*
X343808Y155231D01*
X343907Y126931D02*
Y155231D01*
D02*
D89*
X116672Y47791D02*
X137172D01*
X137170Y55289D02*
Y47809D01*
X142989Y53299D02*
X143619Y52984D01*
X144563D01*
X145193Y53299D01*
X145508Y53929D01*
Y54244D01*
X145193Y54874D01*
X144563Y55189D01*
X142989D01*
Y56764D01*
X145508D01*
X148343Y53299D02*
X148973Y52984D01*
X149603D01*
X150233Y53299D01*
X150548Y53929D01*
Y55819D01*
X150233Y56449D01*
X149603Y56764D01*
X148973D01*
X148343Y56449D01*
X148028Y55819D01*
Y53929D01*
X148343Y53299D01*
X150233Y56449D01*
X215656Y155337D02*
Y150613D01*
X204238D01*
Y155337D01*
X215656D01*
X215852Y160259D02*
Y156715D01*
X241711Y285285D02*
X242203Y284301D01*
X243187Y283809D01*
X245156D01*
X246140Y284301D01*
X246632Y285285D01*
X246140Y286270D01*
X245156Y286762D01*
X243187D01*
X242203Y287254D01*
X241711Y288238D01*
X242203Y289222D01*
X243187Y289715D01*
X245156D01*
X246140Y289222D01*
X246632Y288238D01*
X249585Y289715D02*
Y283809D01*
X254506D01*
X257459Y285778D02*
Y287746D01*
X257951Y288730D01*
X258443Y289222D01*
X259427Y289715D01*
X260411D01*
X261396Y289222D01*
X261888Y288730D01*
X262380Y287746D01*
Y285778D01*
X261888Y284793D01*
X261396Y284301D01*
X260411Y283809D01*
X259427D01*
X258443Y284301D01*
X257951Y284793D01*
X257459Y285778D01*
X267793Y283809D02*
Y289715D01*
X265333D02*
X270254D01*
X281573Y284301D02*
X282557Y283809D01*
X283541D01*
X284526Y284301D01*
X285018Y285285D01*
Y288238D01*
X284526Y289222D01*
X283541Y289715D01*
X282557D01*
X281573Y289222D01*
X281081Y288238D01*
Y285285D01*
X281573Y284301D01*
X284526Y289222D01*
X242022Y385815D02*
X242514Y384831D01*
X243498Y384339D01*
X245467D01*
X246451Y384831D01*
X246943Y385815D01*
X246451Y386800D01*
X245467Y387292D01*
X243498D01*
X242514Y387784D01*
X242022Y388768D01*
X242514Y389752D01*
X243498Y390244D01*
X245467D01*
X246451Y389752D01*
X246943Y388768D01*
X249896Y390244D02*
Y384339D01*
X254817D01*
X257770Y386307D02*
Y388276D01*
X258262Y389260D01*
X258754Y389752D01*
X259739Y390244D01*
X260723D01*
X261707Y389752D01*
X262199Y389260D01*
X262691Y388276D01*
Y386307D01*
X262199Y385323D01*
X261707Y384831D01*
X260723Y384339D01*
X259739D01*
X258754Y384831D01*
X258262Y385323D01*
X257770Y386307D01*
X268105Y384339D02*
Y390244D01*
X265644D02*
X270565D01*
X282376Y384339D02*
X284345D01*
X283361D02*
Y390244D01*
X282376Y389260D01*
X244138Y139389D02*
X280752D01*
Y102775D01*
X244138D01*
Y139389D01*
X261419Y83834D02*
Y89130D01*
X200829D01*
Y78539D01*
X256124D01*
X327602Y163791D02*
X320220D01*
X323911Y166867D01*
X320220Y169943D01*
X327602D01*
X325756Y171173D02*
X326987Y171788D01*
X327602Y173019D01*
Y175479D01*
X326987Y176709D01*
X325756Y177324D01*
X324526Y176709D01*
X323911Y175479D01*
Y173019D01*
X323296Y171788D01*
X322065Y171173D01*
X320835Y171788D01*
X320220Y173019D01*
Y175479D01*
X320835Y176709D01*
X322065Y177324D01*
X327602Y178555D02*
X320220Y184706D01*
Y178555D02*
X327602Y184706D01*
X325756Y190366D02*
X326987Y190981D01*
X327602Y192211D01*
Y194672D01*
X326987Y195902D01*
X325756Y196517D01*
X324526Y195902D01*
X323911Y194672D01*
Y192211D01*
X323296Y190981D01*
X322065Y190366D01*
X320835Y190981D01*
X320220Y192211D01*
Y194672D01*
X320835Y195902D01*
X322065Y196517D01*
X327602Y197748D02*
X322680D01*
X320835D02*
X327602Y198929D02*
X322680D01*
X323296D02*
X322680Y199544D01*
Y200774D01*
X323296Y201389D01*
X325141D01*
X323296D02*
X322680Y202005D01*
Y203235D01*
X323296Y203850D01*
X327602D01*
X322680Y205031D02*
X329447D01*
X325756D02*
X326987Y205646D01*
X327602Y206877D01*
Y208107D01*
X326987Y209337D01*
X325756Y209952D01*
X324526D01*
X323296Y209337D01*
X322680Y208107D01*
Y206877D01*
X323296Y205646D01*
X324526Y205031D01*
X325756D01*
X327602Y211749D02*
Y211133D01*
X320220D01*
X326987Y217826D02*
X327602Y217211D01*
Y215981D01*
Y214751D01*
X326987Y213520D01*
X325756Y212905D01*
X323911D01*
X323296Y213520D01*
X322680Y214751D01*
Y215981D01*
X323296Y217211D01*
X323911Y217826D01*
X324526D01*
X325141Y217211D01*
X325756Y215981D01*
Y214751D01*
X325141Y213520D01*
X324526Y212905D01*
X339413Y168712D02*
Y163791D01*
X335107Y168097D01*
X333876Y168712D01*
X332646Y168097D01*
X332031Y166867D01*
Y165021D01*
X332646Y163791D01*
X337567Y169893D02*
X338798Y170509D01*
X339413Y171739D01*
Y174200D01*
X338798Y175430D01*
X337567Y176045D01*
X336337Y175430D01*
X335722Y174200D01*
Y171739D01*
X335107Y170509D01*
X333876Y169893D01*
X332646Y170509D01*
X332031Y171739D01*
Y174200D01*
X332646Y175430D01*
X333876Y176045D01*
X339413Y177891D02*
Y177275D01*
X332031D01*
X337567Y179047D02*
X338798Y179662D01*
X339413Y180893D01*
Y182123D01*
X338798Y183353D01*
X337567Y183968D01*
X336337D01*
X335107Y183353D01*
X334491Y182123D01*
Y180893D01*
X335107Y179662D01*
X336337Y179047D01*
X337567D01*
X334491Y185149D02*
Y188020D01*
X333261Y186585D02*
X338798D01*
X339413Y187200D01*
Y187815D01*
X338798Y188430D01*
X339413Y194007D02*
X332031D01*
Y200159D01*
X335722Y198929D02*
Y194007D01*
X339413D02*
Y200159D01*
Y201389D02*
X334491Y206311D01*
X339413D02*
X334491Y201389D01*
Y207492D02*
X341258D01*
X337567D02*
X338798Y208107D01*
X339413Y209337D01*
Y210568D01*
X338798Y211798D01*
X337567Y212413D01*
X336337D01*
X335107Y211798D01*
X334491Y210568D01*
Y209337D01*
X335107Y208107D01*
X336337Y207492D01*
X337567D01*
X335107Y213594D02*
X334491Y214824D01*
Y216670D01*
X335107Y217900D01*
X336337Y218515D01*
X338182D01*
X338798Y217900D01*
X339413Y216670D01*
Y215440D01*
X338798Y214209D01*
X338182Y213594D01*
X337567D01*
X336952Y214209D01*
X336337Y215440D01*
Y216670D01*
X336952Y217900D01*
X337567Y218515D01*
X338182D02*
X339413D01*
Y219696D02*
X334491D01*
X336337D02*
X335107Y220312D01*
X334491Y221542D01*
Y222772D01*
X335107Y224003D01*
X336337Y224618D01*
X339413D01*
X336337Y230720D02*
X335107Y230105D01*
X334491Y228875D01*
Y227644D01*
X335107Y226414D01*
X336337Y225799D01*
X337567D01*
X338798Y226414D01*
X339413Y227644D01*
Y228875D01*
X338798Y230105D01*
X337567Y230720D01*
X339413D02*
X332031D01*
X338798Y236822D02*
X339413Y236207D01*
Y234977D01*
Y233747D01*
X338798Y232517D01*
X337567Y231901D01*
X335722D01*
X335107Y232517D01*
X334491Y233747D01*
Y234977D01*
X335107Y236207D01*
X335722Y236822D01*
X336337D01*
X336952Y236207D01*
X337567Y234977D01*
Y233747D01*
X336952Y232517D01*
X336337Y231901D01*
X339413Y238004D02*
X334491D01*
X336337D02*
X335107Y238619D01*
X334491Y239849D01*
Y241080D01*
X335107Y242310D01*
X390508Y50484D02*
X387989D01*
X390193Y52689D01*
X390508Y53319D01*
X390193Y53949D01*
X389563Y54264D01*
X388619D01*
X387989Y53949D01*
X394739Y55289D02*
Y47809D01*
X415239Y47789D02*
X394739D01*
D02*
D90*
X239315Y141554D02*
G75*
G02*
X237741I-787J0D01*
G01*
X239315D02*
G75*
G02*
X237741I-787J0D01*
G01*
G75*
G02*
X239315I787J0D01*
G01*
D02*
D91*
X187595Y148682D02*
X182295D01*
Y160982D01*
X187595D01*
Y148682D01*
X197595D02*
X192295D01*
Y160982D01*
X197595D01*
Y148682D01*
X222295Y160982D02*
X227595D01*
Y148682D01*
X222295D01*
Y160982D01*
X232295D02*
X237595D01*
Y148682D01*
X232295D01*
Y160982D01*
X291977Y117232D02*
X297277D01*
Y104932D01*
X291977D01*
Y117232D01*
D02*
D92*
X195290Y68493D02*
G75*
G02*
Y67509I0J-492D01*
G01*
Y68493D02*
G75*
G02*
Y67509I0J-492D01*
G01*
G75*
G02*
Y68493I0J492D01*
G01*
X216522D02*
G75*
G02*
Y67509I0J-492D01*
G01*
Y68493D02*
G75*
G02*
Y67509I0J-492D01*
G01*
G75*
G02*
Y68493I0J492D01*
G01*
X251342Y153493D02*
G75*
G02*
Y152509I0J-492D01*
G01*
Y153493D02*
G75*
G02*
Y152509I0J-492D01*
G01*
G75*
G02*
Y153493I0J492D01*
G01*
X0Y0D02*
M02*
