G04 DesignSpark PCB PRO Gerber Version 10.0 Build 5299*
%FSLAX35Y35*%
%MOIN*%
%ADD99R,0.01181X0.02362*%
%ADD98R,0.01575X0.02362*%
%ADD97R,0.02362X0.03543*%
%ADD95R,0.02362X0.05807*%
%ADD94R,0.05807X0.02362*%
%ADD93R,0.06693X0.29528*%
%ADD19R,0.06693X0.35433*%
%ADD22R,0.06000X0.06000*%
%ADD70R,0.06496X0.06496*%
%ADD12C,0.00500*%
%ADD10C,0.00602*%
%ADD13C,0.01000*%
%ADD14C,0.01500*%
%ADD15C,0.02677*%
%ADD17C,0.03200*%
%ADD16C,0.04800*%
%ADD11C,0.05000*%
%ADD20C,0.05906*%
%ADD71C,0.06496*%
%ADD18C,0.07874*%
%ADD21C,0.20669*%
%ADD96R,0.04330X0.03940*%
X0Y0D02*
D02*
D10*
X185989Y53207D02*
X182943Y47933D01*
X189034D01*
X185989Y53207D01*
G36*
X185989Y53207D02*
X182943Y47933D01*
X189034D01*
X185989Y53207D01*
G37*
X191102Y60418D02*
X190203Y61974D01*
G75*
G03*
X192000I898J519D01*
G01*
X191102Y60418D01*
G36*
X191102Y60418D02*
X190203Y61974D01*
G75*
G03*
X192000I898J519D01*
G01*
X191102Y60418D01*
G37*
Y62493D02*
Y58956D01*
X185989Y53843D01*
Y30217D01*
X195969Y138498D02*
X200836D01*
X202504Y136830D01*
X239855D01*
X195989Y30217D02*
Y57356D01*
X195969Y57376D01*
X195989Y53207D02*
X192943Y47933D01*
X199034D01*
X195989Y53207D01*
G36*
X195989Y53207D02*
X192943Y47933D01*
X199034D01*
X195989Y53207D01*
G37*
Y55301D02*
X195076Y56849D01*
G75*
G03*
X196872Y56866I893J527D01*
G01*
X195989Y55301D01*
G36*
X195989Y55301D02*
X195076Y56849D01*
G75*
G03*
X196872Y56866I893J527D01*
G01*
X195989Y55301D01*
G37*
X197436Y58843D02*
X196971Y57107D01*
G75*
G03*
X195700Y58378I-1002J269D01*
G01*
X197436Y58843D01*
G36*
X197436Y58843D02*
X196971Y57107D01*
G75*
G03*
X195700Y58378I-1002J269D01*
G01*
X197436Y58843D01*
G37*
X198044Y138498D02*
X196487Y137600D01*
G75*
G03*
Y139396I-519J898D01*
G01*
X198044Y138498D01*
G36*
X198044Y138498D02*
X196487Y137600D01*
G75*
G03*
Y139396I-519J898D01*
G01*
X198044Y138498D01*
G37*
X198046Y68143D02*
X198532Y68985D01*
X197559D01*
X198046Y68143D01*
G36*
X198046Y68143D02*
X198532Y68985D01*
X197559D01*
X198046Y68143D01*
G37*
Y70167D02*
Y59453D01*
X195969Y57376D01*
X198046Y74497D02*
Y77332D01*
Y76520D02*
X197559Y75678D01*
X198532D01*
X198046Y76520D01*
G36*
X198046Y76520D02*
X197559Y75678D01*
X198532D01*
X198046Y76520D01*
G37*
X199463Y135128D02*
X233709D01*
X235157Y133680D01*
X239855D01*
X200211Y68484D02*
X200500Y68985D01*
X199922D01*
X200211Y68484D01*
G36*
X200211Y68484D02*
X200500Y68985D01*
X199922D01*
X200211Y68484D01*
G37*
Y70167D02*
Y65365D01*
X201086Y64490D01*
Y62368D01*
X200211Y74497D02*
Y77332D01*
Y76180D02*
X199922Y75678D01*
X200500D01*
X200211Y76180D01*
G36*
X200211Y76180D02*
X199922Y75678D01*
X200500D01*
X200211Y76180D01*
G37*
X201086Y64443D02*
X201984Y62887D01*
G75*
G03*
X200187I-898J-519D01*
G01*
X201086Y64443D01*
G36*
X201086Y64443D02*
X201984Y62887D01*
G75*
G03*
X200187I-898J-519D01*
G01*
X201086Y64443D01*
G37*
X201538Y135128D02*
X199982Y134230D01*
G75*
G03*
Y136027I-519J898D01*
G01*
X201538Y135128D01*
G36*
X201538Y135128D02*
X199982Y134230D01*
G75*
G03*
Y136027I-519J898D01*
G01*
X201538Y135128D01*
G37*
X202180Y68484D02*
X202469Y68985D01*
X201890D01*
X202180Y68484D01*
G36*
X202180Y68484D02*
X202469Y68985D01*
X201890D01*
X202180Y68484D01*
G37*
Y74497D02*
Y77332D01*
Y76180D02*
X201890Y75678D01*
X202469D01*
X202180Y76180D01*
G36*
X202180Y76180D02*
X201890Y75678D01*
X202469D01*
X202180Y76180D01*
G37*
X202459Y132383D02*
X232411D01*
X234263Y130531D01*
X239855D01*
X204345Y68143D02*
X204831Y68985D01*
X203859D01*
X204345Y68143D01*
G36*
X204345Y68143D02*
X204831Y68985D01*
X203859D01*
X204345Y68143D01*
G37*
Y70167D02*
Y66993D01*
X205143Y66195D01*
X209725D01*
X210945Y64975D01*
Y62368D01*
X204345Y74497D02*
Y77332D01*
Y76520D02*
X203859Y75678D01*
X204831D01*
X204345Y76520D01*
G36*
X204345Y76520D02*
X203859Y75678D01*
X204831D01*
X204345Y76520D01*
G37*
X204533Y132383D02*
X202977Y131484D01*
G75*
G03*
Y133281I-519J898D01*
G01*
X204533Y132383D01*
G36*
X204533Y132383D02*
X202977Y131484D01*
G75*
G03*
Y133281I-519J898D01*
G01*
X204533Y132383D01*
G37*
X205989Y30217D02*
Y57251D01*
Y53207D02*
X202943Y47933D01*
X209034D01*
X205989Y53207D01*
G36*
X205989Y53207D02*
X202943Y47933D01*
X209034D01*
X205989Y53207D01*
G37*
Y55176D02*
X205090Y56733D01*
G75*
G03*
X206887I898J519D01*
G01*
X205989Y55176D01*
G36*
X205989Y55176D02*
X205090Y56733D01*
G75*
G03*
X206887I898J519D01*
G01*
X205989Y55176D01*
G37*
Y57251D02*
Y62243D01*
X202180Y66052D01*
Y70167D01*
X205989Y59326D02*
X206887Y57770D01*
G75*
G03*
X205090I-898J-519D01*
G01*
X205989Y59326D01*
G36*
X205989Y59326D02*
X206887Y57770D01*
G75*
G03*
X205090I-898J-519D01*
G01*
X205989Y59326D01*
G37*
X206124Y89728D02*
X208676Y85307D01*
G75*
G03*
X203572I-2552J-1473D01*
G01*
X206124Y89728D01*
G36*
X206124Y89728D02*
X208676Y85307D01*
G75*
G03*
X203572I-2552J-1473D01*
G01*
X206124Y89728D01*
G37*
X206780Y124231D02*
X205224Y123333D01*
G75*
G03*
Y125130I-519J898D01*
G01*
X206780Y124231D01*
G36*
X206780Y124231D02*
X205224Y123333D01*
G75*
G03*
Y125130I-519J898D01*
G01*
X206780Y124231D01*
G37*
X209143Y121082D02*
X207671Y120051D01*
G75*
G03*
X207515Y121841I-595J850D01*
G01*
X209143Y121082D01*
G36*
X209143Y121082D02*
X207671Y120051D01*
G75*
G03*
X207515Y121841I-595J850D01*
G01*
X209143Y121082D01*
G37*
X210945Y64443D02*
X211844Y62887D01*
G75*
G03*
X210047I-898J-519D01*
G01*
X210945Y64443D01*
G36*
X210945Y64443D02*
X211844Y62887D01*
G75*
G03*
X210047I-898J-519D01*
G01*
X210945Y64443D01*
G37*
X211398Y117932D02*
X209841Y117034D01*
G75*
G03*
Y118831I-519J898D01*
G01*
X211398Y117932D01*
G36*
X211398Y117932D02*
X209841Y117034D01*
G75*
G03*
Y118831I-519J898D01*
G01*
X211398Y117932D01*
G37*
X211957Y79667D02*
X213278Y84597D01*
G75*
G03*
X216887Y80988I2846J-763D01*
G01*
X211957Y79667D01*
G36*
X211957Y79667D02*
X213278Y84597D01*
G75*
G03*
X216887Y80988I2846J-763D01*
G01*
X211957Y79667D01*
G37*
X213769Y114783D02*
X212213Y113884D01*
G75*
G03*
Y115681I-519J898D01*
G01*
X213769Y114783D01*
G36*
X213769Y114783D02*
X212213Y113884D01*
G75*
G03*
Y115681I-519J898D01*
G01*
X213769Y114783D01*
G37*
X215989Y53207D02*
X212943Y47933D01*
X219034D01*
X215989Y53207D01*
G36*
X215989Y53207D02*
X212943Y47933D01*
X219034D01*
X215989Y53207D01*
G37*
Y55426D02*
X215090Y56982D01*
G75*
G03*
X216887I898J519D01*
G01*
X215989Y55426D01*
G36*
X215989Y55426D02*
X215090Y56982D01*
G75*
G03*
X216887I898J519D01*
G01*
X215989Y55426D01*
G37*
Y57501D02*
Y30217D01*
Y59576D02*
X216887Y58019D01*
G75*
G03*
X215090I-898J-519D01*
G01*
X215989Y59576D01*
G36*
X215989Y59576D02*
X216887Y58019D01*
G75*
G03*
X215090I-898J-519D01*
G01*
X215989Y59576D01*
G37*
X216124Y83834D02*
X211506Y79217D01*
X202833D01*
X201585Y80465D01*
Y92653D01*
X205080Y96148D01*
X216936D01*
X217748Y96960D01*
Y103304D01*
X225985Y111541D01*
Y111633D01*
X239855D01*
X219278Y68143D02*
X219764Y68985D01*
X218791D01*
X219278Y68143D01*
G36*
X219278Y68143D02*
X219764Y68985D01*
X218791D01*
X219278Y68143D01*
G37*
Y70167D02*
Y66237D01*
X215989Y62948D01*
Y57501D01*
X219278Y74497D02*
Y77332D01*
Y76520D02*
X218791Y75678D01*
X219764D01*
X219278Y76520D01*
G36*
X219278Y76520D02*
X218791Y75678D01*
X219764D01*
X219278Y76520D01*
G37*
X221054Y62493D02*
Y66597D01*
X221443Y66986D01*
Y70167D01*
X221054Y64568D02*
X221953Y63011D01*
G75*
G03*
X220156I-898J-519D01*
G01*
X221054Y64568D01*
G36*
X221054Y64568D02*
X221953Y63011D01*
G75*
G03*
X220156I-898J-519D01*
G01*
X221054Y64568D01*
G37*
X221443Y68484D02*
X221732Y68985D01*
X221154D01*
X221443Y68484D01*
G36*
X221443Y68484D02*
X221732Y68985D01*
X221154D01*
X221443Y68484D01*
G37*
Y74497D02*
Y77332D01*
Y76180D02*
X221154Y75678D01*
X221732D01*
X221443Y76180D01*
G36*
X221443Y76180D02*
X221154Y75678D01*
X221732D01*
X221443Y76180D01*
G37*
X223411Y68484D02*
X223701Y68985D01*
X223122D01*
X223411Y68484D01*
G36*
X223411Y68484D02*
X223701Y68985D01*
X223122D01*
X223411Y68484D01*
G37*
Y70167D02*
Y60044D01*
X225955Y57501D01*
X223411Y74497D02*
Y77332D01*
Y76180D02*
X223122Y75678D01*
X223701D01*
X223411Y76180D01*
G36*
X223411Y76180D02*
X223122Y75678D01*
X223701D01*
X223411Y76180D01*
G37*
X224488Y58968D02*
X226224Y58503D01*
G75*
G03*
X224953Y57232I-269J-1002D01*
G01*
X224488Y58968D01*
G36*
X224488Y58968D02*
X226224Y58503D01*
G75*
G03*
X224953Y57232I-269J-1002D01*
G01*
X224488Y58968D01*
G37*
X225577Y68143D02*
X226063Y68985D01*
X225091D01*
X225577Y68143D01*
G36*
X225577Y68143D02*
X226063Y68985D01*
X225091D01*
X225577Y68143D01*
G37*
Y70167D02*
Y64025D01*
X227109Y62493D01*
X231039D01*
X225577Y74497D02*
Y76700D01*
X224945Y77332D01*
X225577Y76520D02*
X225091Y75678D01*
X226063D01*
X225577Y76520D01*
G36*
X225577Y76520D02*
X225091Y75678D01*
X226063D01*
X225577Y76520D01*
G37*
X225955Y57501D02*
X225989Y57467D01*
Y30217D01*
Y53207D02*
X222943Y47933D01*
X229034D01*
X225989Y53207D01*
G36*
X225989Y53207D02*
X222943Y47933D01*
X229034D01*
X225989Y53207D01*
G37*
Y55426D02*
X225065Y56968D01*
G75*
G03*
X226862Y56997I890J533D01*
G01*
X225989Y55426D01*
G36*
X225989Y55426D02*
X225065Y56968D01*
G75*
G03*
X226862Y56997I890J533D01*
G01*
X225989Y55426D01*
G37*
X227847Y101681D02*
X226291Y100783D01*
G75*
G03*
Y102580I-519J898D01*
G01*
X227847Y101681D01*
G36*
X227847Y101681D02*
X226291Y100783D01*
G75*
G03*
Y102580I-519J898D01*
G01*
X227847Y101681D01*
G37*
X228964Y62493D02*
X230520Y63391D01*
G75*
G03*
Y61594I519J-898D01*
G01*
X228964Y62493D01*
G36*
X228964Y62493D02*
X230520Y63391D01*
G75*
G03*
Y61594I519J-898D01*
G01*
X228964Y62493D01*
G37*
X230243Y98811D02*
X228687Y97912D01*
G75*
G03*
Y99709I-519J898D01*
G01*
X230243Y98811D01*
G36*
X230243Y98811D02*
X228687Y97912D01*
G75*
G03*
Y99709I-519J898D01*
G01*
X230243Y98811D01*
G37*
X232489Y96190D02*
X230933Y95291D01*
G75*
G03*
Y97088I-519J898D01*
G01*
X232489Y96190D01*
G36*
X232489Y96190D02*
X230933Y95291D01*
G75*
G03*
Y97088I-519J898D01*
G01*
X232489Y96190D01*
G37*
X233109Y66362D02*
X231502Y65559D01*
G75*
G03*
X231610Y67352I-464J928D01*
G01*
X233109Y66362D01*
G36*
X233109Y66362D02*
X231502Y65559D01*
G75*
G03*
X231610Y67352I-464J928D01*
G01*
X233109Y66362D01*
G37*
X233737Y76096D02*
X232181Y75198D01*
G75*
G03*
Y76995I-519J898D01*
G01*
X233737Y76096D01*
G36*
X233737Y76096D02*
X232181Y75198D01*
G75*
G03*
Y76995I-519J898D01*
G01*
X233737Y76096D01*
G37*
X235427Y105334D02*
X236951Y104454D01*
Y106214D01*
X235427Y105334D01*
G36*
X235427Y105334D02*
X236951Y104454D01*
Y106214D01*
X235427Y105334D01*
G37*
Y108483D02*
X236951Y107604D01*
Y109363D01*
X235427Y108483D01*
G36*
X235427Y108483D02*
X236951Y107604D01*
Y109363D01*
X235427Y108483D01*
G37*
Y111633D02*
X236951Y110753D01*
Y112513D01*
X235427Y111633D01*
G36*
X235427Y111633D02*
X236951Y110753D01*
Y112513D01*
X235427Y111633D01*
G37*
Y114783D02*
X236951Y113903D01*
Y115663D01*
X235427Y114783D01*
G36*
X235427Y114783D02*
X236951Y113903D01*
Y115663D01*
X235427Y114783D01*
G37*
Y117932D02*
X236951Y117052D01*
Y118812D01*
X235427Y117932D01*
G36*
X235427Y117932D02*
X236951Y117052D01*
Y118812D01*
X235427Y117932D01*
G37*
Y121082D02*
X236951Y120202D01*
Y121962D01*
X235427Y121082D01*
G36*
X235427Y121082D02*
X236951Y120202D01*
Y121962D01*
X235427Y121082D01*
G37*
Y124231D02*
X236951Y123352D01*
Y125111D01*
X235427Y124231D01*
G36*
X235427Y124231D02*
X236951Y123352D01*
Y125111D01*
X235427Y124231D01*
G37*
Y130531D02*
X236951Y129651D01*
Y131411D01*
X235427Y130531D01*
G36*
X235427Y130531D02*
X236951Y129651D01*
Y131411D01*
X235427Y130531D01*
G37*
Y133680D02*
X236951Y132800D01*
Y134560D01*
X235427Y133680D01*
G36*
X235427Y133680D02*
X236951Y132800D01*
Y134560D01*
X235427Y133680D01*
G37*
Y136830D02*
X236951Y135950D01*
Y137710D01*
X235427Y136830D01*
G36*
X235427Y136830D02*
X236951Y135950D01*
Y137710D01*
X235427Y136830D01*
G37*
X235989Y30217D02*
Y57626D01*
Y53207D02*
X232943Y47933D01*
X239034D01*
X235989Y53207D01*
G36*
X235989Y53207D02*
X232943Y47933D01*
X239034D01*
X235989Y53207D01*
G37*
Y55551D02*
X235090Y57107D01*
G75*
G03*
X236887I898J519D01*
G01*
X235989Y55551D01*
G36*
X235989Y55551D02*
X235090Y57107D01*
G75*
G03*
X236887I898J519D01*
G01*
X235989Y55551D01*
G37*
X236124Y89728D02*
X238676Y85307D01*
G75*
G03*
X233572I-2552J-1473D01*
G01*
X236124Y89728D01*
G36*
X236124Y89728D02*
X238676Y85307D01*
G75*
G03*
X233572I-2552J-1473D01*
G01*
X236124Y89728D01*
G37*
X239855Y105334D02*
X225736D01*
X222457Y102056D01*
Y96492D01*
X225797Y93152D01*
X234002D01*
X236124Y91031D01*
Y83834D01*
X239855Y108483D02*
X225861D01*
X219995Y102618D01*
Y96211D01*
X218059Y94276D01*
X208246D01*
X206124Y92154D01*
Y83834D01*
X239855Y114783D02*
X211694D01*
X239855Y117932D02*
X209323D01*
X239855Y121082D02*
X207076D01*
Y120901D01*
X239855Y124231D02*
X204705D01*
X242349Y76221D02*
X240793Y75323D01*
G75*
G03*
Y77120I-519J898D01*
G01*
X242349Y76221D01*
G36*
X242349Y76221D02*
X240793Y75323D01*
G75*
G03*
Y77120I-519J898D01*
G01*
X242349Y76221D01*
G37*
X244112Y71198D02*
X243647Y69463D01*
G75*
G03*
X242377Y70733I-1002J269D01*
G01*
X244112Y71198D01*
G36*
X244112Y71198D02*
X243647Y69463D01*
G75*
G03*
X242377Y70733I-1002J269D01*
G01*
X244112Y71198D01*
G37*
X245989Y30217D02*
Y57626D01*
Y53207D02*
X242943Y47933D01*
X249034D01*
X245989Y53207D01*
G36*
X245989Y53207D02*
X242943Y47933D01*
X249034D01*
X245989Y53207D01*
G37*
Y55551D02*
X245090Y57107D01*
G75*
G03*
X246887I898J519D01*
G01*
X245989Y55551D01*
G36*
X245989Y55551D02*
X245090Y57107D01*
G75*
G03*
X246887I898J519D01*
G01*
X245989Y55551D01*
G37*
X246697Y98491D02*
Y100250D01*
X245266Y101681D01*
X225772D01*
X246697Y143672D02*
Y154833D01*
Y148100D02*
X245817Y146576D01*
X247577D01*
X246697Y148100D01*
G36*
X246697Y148100D02*
X245817Y146576D01*
X247577D01*
X246697Y148100D01*
G37*
Y152758D02*
X245799Y154314D01*
G75*
G03*
X247596I898J519D01*
G01*
X246697Y152758D01*
G36*
X246697Y152758D02*
X245799Y154314D01*
G75*
G03*
X247596I898J519D01*
G01*
X246697Y152758D01*
G37*
X249739Y286300D02*
X249274Y284564D01*
G75*
G03*
X248004Y285835I-1002J269D01*
G01*
X249739Y286300D01*
G36*
X249739Y286300D02*
X249274Y284564D01*
G75*
G03*
X248004Y285835I-1002J269D01*
G01*
X249739Y286300D01*
G37*
X249847Y94064D02*
X250727Y95588D01*
X248967D01*
X249847Y94064D01*
G36*
X249847Y94064D02*
X250727Y95588D01*
X248967D01*
X249847Y94064D01*
G37*
Y98491D02*
Y93652D01*
X248848Y92653D01*
X245017D01*
X238859Y98811D01*
X228168D01*
X249847Y143672D02*
Y157333D01*
Y148100D02*
X248967Y146576D01*
X250727D01*
X249847Y148100D01*
G36*
X249847Y148100D02*
X248967Y146576D01*
X250727D01*
X249847Y148100D01*
G37*
Y155258D02*
X248948Y156814D01*
G75*
G03*
X250745I898J519D01*
G01*
X249847Y155258D01*
G36*
X249847Y155258D02*
X248948Y156814D01*
G75*
G03*
X250745I898J519D01*
G01*
X249847Y155258D01*
G37*
X252022Y284833D02*
X338272D01*
X345772Y292333D01*
Y301082D01*
X252996Y94064D02*
X253876Y95588D01*
X252117D01*
X252996Y94064D01*
G36*
X252996Y94064D02*
X253876Y95588D01*
X252117D01*
X252996Y94064D01*
G37*
Y98491D02*
Y92057D01*
X252022Y91083D01*
X243893D01*
X238786Y96190D01*
X230415D01*
X252996Y143672D02*
Y140370D01*
X257489Y135877D01*
X263612D01*
X252996Y148100D02*
X252117Y146576D01*
X253876D01*
X252996Y148100D01*
G36*
X252996Y148100D02*
X252117Y146576D01*
X253876D01*
X252996Y148100D01*
G37*
X254097Y284833D02*
X252541Y283934D01*
G75*
G03*
Y285731I-519J898D01*
G01*
X254097Y284833D01*
G36*
X254097Y284833D02*
X252541Y283934D01*
G75*
G03*
Y285731I-519J898D01*
G01*
X254097Y284833D01*
G37*
X254098Y153143D02*
X254584Y153985D01*
X253611D01*
X254098Y153143D01*
G36*
X254098Y153143D02*
X254584Y153985D01*
X253611D01*
X254098Y153143D01*
G37*
Y155167D02*
Y150207D01*
X252996Y149106D01*
Y143672D01*
X254098Y159497D02*
Y162332D01*
Y161520D02*
X253611Y160678D01*
X254584D01*
X254098Y161520D01*
G36*
X254098Y161520D02*
X253611Y160678D01*
X254584D01*
X254098Y161520D01*
G37*
X255220Y71448D02*
X254755Y69713D01*
G75*
G03*
X253484Y70983I-1002J269D01*
G01*
X255220Y71448D01*
G36*
X255220Y71448D02*
X254755Y69713D01*
G75*
G03*
X253484Y70983I-1002J269D01*
G01*
X255220Y71448D01*
G37*
X255989Y30217D02*
Y57501D01*
Y53207D02*
X252943Y47933D01*
X259034D01*
X255989Y53207D01*
G36*
X255989Y53207D02*
X252943Y47933D01*
X259034D01*
X255989Y53207D01*
G37*
Y55426D02*
X255090Y56982D01*
G75*
G03*
X256887I898J519D01*
G01*
X255989Y55426D01*
G36*
X255989Y55426D02*
X255090Y56982D01*
G75*
G03*
X256887I898J519D01*
G01*
X255989Y55426D01*
G37*
X256146Y143672D02*
Y140348D01*
X258121Y138373D01*
X265859D01*
X256146Y148100D02*
X255266Y146576D01*
X257026D01*
X256146Y148100D01*
G36*
X256146Y148100D02*
X255266Y146576D01*
X257026D01*
X256146Y148100D01*
G37*
X256263Y153484D02*
X256552Y153985D01*
X255974D01*
X256263Y153484D01*
G36*
X256263Y153484D02*
X256552Y153985D01*
X255974D01*
X256263Y153484D01*
G37*
Y155167D02*
Y149223D01*
X256146Y149106D01*
Y143672D01*
X256263Y159497D02*
Y162332D01*
Y161180D02*
X255974Y160678D01*
X256552D01*
X256263Y161180D01*
G36*
X256263Y161180D02*
X255974Y160678D01*
X256552D01*
X256263Y161180D01*
G37*
X258231D02*
X257942Y160678D01*
X258521D01*
X258231Y161180D01*
G36*
X258231Y161180D02*
X257942Y160678D01*
X258521D01*
X258231Y161180D01*
G37*
Y162332D02*
Y159497D01*
X259296Y94064D02*
X260176Y95588D01*
X258416D01*
X259296Y94064D01*
G36*
X259296Y94064D02*
X260176Y95588D01*
X258416D01*
X259296Y94064D01*
G37*
Y98491D02*
Y90823D01*
X261615Y88504D01*
Y80589D01*
X259743Y78717D01*
X238152D01*
X235531Y76096D01*
X231663D01*
X259296Y148100D02*
X258416Y146576D01*
X260176D01*
X259296Y148100D01*
G36*
X259296Y148100D02*
X258416Y146576D01*
X260176D01*
X259296Y148100D01*
G37*
X260397Y153143D02*
X260883Y153985D01*
X259911D01*
X260397Y153143D01*
G36*
X260397Y153143D02*
X260883Y153985D01*
X259911D01*
X260397Y153143D01*
G37*
Y155167D02*
X265847D01*
X271643Y160963D01*
X319399D01*
X260397Y155167D02*
Y149833D01*
X259296Y148732D01*
Y143672D01*
X260397Y159497D02*
Y161880D01*
X259945Y162332D01*
X260397Y161520D02*
X259911Y160678D01*
X260883D01*
X260397Y161520D01*
G36*
X260397Y161520D02*
X259911Y160678D01*
X260883D01*
X260397Y161520D01*
G37*
X260944Y69981D02*
X259388Y69083D01*
G75*
G03*
Y70880I-519J898D01*
G01*
X260944Y69981D01*
G36*
X260944Y69981D02*
X259388Y69083D01*
G75*
G03*
Y70880I-519J898D01*
G01*
X260944Y69981D01*
G37*
X261537Y135877D02*
X263094Y136776D01*
G75*
G03*
Y134979I519J-898D01*
G01*
X261537Y135877D01*
G36*
X261537Y135877D02*
X263094Y136776D01*
G75*
G03*
Y134979I519J-898D01*
G01*
X261537Y135877D01*
G37*
X262445Y148100D02*
X261565Y146576D01*
X263325D01*
X262445Y148100D01*
G36*
X262445Y148100D02*
X261565Y146576D01*
X263325D01*
X262445Y148100D01*
G37*
X262708Y155167D02*
X261184Y156046D01*
Y154287D01*
X262708Y155167D01*
G36*
X262708Y155167D02*
X261184Y156046D01*
Y154287D01*
X262708Y155167D01*
G37*
X263737Y269292D02*
X356481D01*
X370772Y283583D01*
Y328583D01*
X368272Y331083D01*
Y358623D01*
X375772Y366123D01*
X263784Y138373D02*
X265340Y139272D01*
G75*
G03*
Y137475I519J-898D01*
G01*
X263784Y138373D01*
G36*
X263784Y138373D02*
X265340Y139272D01*
G75*
G03*
Y137475I519J-898D01*
G01*
X263784Y138373D01*
G37*
X265595Y94064D02*
X266475Y95588D01*
X264715D01*
X265595Y94064D01*
G36*
X265595Y94064D02*
X266475Y95588D01*
X264715D01*
X265595Y94064D01*
G37*
Y98491D02*
Y82198D01*
X259619Y76221D01*
X240274D01*
X265595Y143672D02*
Y148593D01*
X272972Y155970D01*
X312036D01*
X265595Y148100D02*
X264715Y146576D01*
X266475D01*
X265595Y148100D01*
G36*
X265595Y148100D02*
X264715Y146576D01*
X266475D01*
X265595Y148100D01*
G37*
X265812Y269292D02*
X264256Y268393D01*
G75*
G03*
Y270190I-519J898D01*
G01*
X265812Y269292D01*
G36*
X265812Y269292D02*
X264256Y268393D01*
G75*
G03*
Y270190I-519J898D01*
G01*
X265812Y269292D01*
G37*
X265859Y266172D02*
X375631D01*
X375772Y266031D01*
X265989Y30217D02*
Y57501D01*
Y53207D02*
X262943Y47933D01*
X269034D01*
X265989Y53207D01*
G36*
X265989Y53207D02*
X262943Y47933D01*
X269034D01*
X265989Y53207D01*
G37*
Y55426D02*
X265090Y56982D01*
G75*
G03*
X266887I898J519D01*
G01*
X265989Y55426D01*
G36*
X265989Y55426D02*
X265090Y56982D01*
G75*
G03*
X266887I898J519D01*
G01*
X265989Y55426D01*
G37*
X267456Y71448D02*
X266991Y69713D01*
G75*
G03*
X265720Y70983I-1002J269D01*
G01*
X267456Y71448D01*
G36*
X267456Y71448D02*
X266991Y69713D01*
G75*
G03*
X265720Y70983I-1002J269D01*
G01*
X267456Y71448D01*
G37*
X267933Y266172D02*
X266377Y265273D01*
G75*
G03*
Y267070I-519J898D01*
G01*
X267933Y266172D01*
G36*
X267933Y266172D02*
X266377Y265273D01*
G75*
G03*
Y267070I-519J898D01*
G01*
X267933Y266172D01*
G37*
X268744Y94064D02*
X269624Y95588D01*
X267865D01*
X268744Y94064D01*
G36*
X268744Y94064D02*
X269624Y95588D01*
X267865D01*
X268744Y94064D01*
G37*
Y98491D02*
Y82352D01*
X260742Y74349D01*
X247263D01*
X242645Y69731D01*
X268744Y143672D02*
Y148622D01*
X273721Y153599D01*
X309290D01*
X268744Y148100D02*
X267865Y146576D01*
X269624D01*
X268744Y148100D01*
G36*
X268744Y148100D02*
X267865Y146576D01*
X269624D01*
X268744Y148100D01*
G37*
X270976Y68109D02*
X282208Y79341D01*
Y104052D01*
X283489Y105334D01*
X285036D01*
X271894Y94064D02*
X272774Y95588D01*
X271014D01*
X271894Y94064D01*
G36*
X271894Y94064D02*
X272774Y95588D01*
X271014D01*
X271894Y94064D01*
G37*
Y98491D02*
Y82381D01*
X261740Y72228D01*
X255999D01*
X253753Y69981D01*
X271894Y143672D02*
Y148652D01*
X274470Y151228D01*
X306544D01*
X271894Y148100D02*
X271014Y146576D01*
X272774D01*
X271894Y148100D01*
G36*
X271894Y148100D02*
X271014Y146576D01*
X272774D01*
X271894Y148100D01*
G37*
X272443Y69576D02*
X271978Y67841D01*
G75*
G03*
X270707Y69111I-1002J269D01*
G01*
X272443Y69576D01*
G36*
X272443Y69576D02*
X271978Y67841D01*
G75*
G03*
X270707Y69111I-1002J269D01*
G01*
X272443Y69576D01*
G37*
X275044Y94064D02*
X275924Y95588D01*
X274164D01*
X275044Y94064D01*
G36*
X275044Y94064D02*
X275924Y95588D01*
X274164D01*
X275044Y94064D01*
G37*
Y98491D02*
Y82661D01*
X262364Y69981D01*
X258870D01*
X275989Y30217D02*
Y57501D01*
Y53207D02*
X272943Y47933D01*
X279034D01*
X275989Y53207D01*
G36*
X275989Y53207D02*
X272943Y47933D01*
X279034D01*
X275989Y53207D01*
G37*
Y55426D02*
X275090Y56982D01*
G75*
G03*
X276887I898J519D01*
G01*
X275989Y55426D01*
G36*
X275989Y55426D02*
X275090Y56982D01*
G75*
G03*
X276887I898J519D01*
G01*
X275989Y55426D01*
G37*
X278193Y94064D02*
X279073Y95588D01*
X277313D01*
X278193Y94064D01*
G36*
X278193Y94064D02*
X279073Y95588D01*
X277313D01*
X278193Y94064D01*
G37*
Y98491D02*
Y82186D01*
X265989Y69981D01*
X278193Y143672D02*
Y148315D01*
X278859Y148981D01*
X302052D01*
X279665Y117932D02*
X278109Y117034D01*
G75*
G03*
Y118831I-519J898D01*
G01*
X279665Y117932D01*
G36*
X279665Y117932D02*
X278109Y117034D01*
G75*
G03*
Y118831I-519J898D01*
G01*
X279665Y117932D01*
G37*
X279961Y121150D02*
X285036Y121082D01*
X280608Y117932D02*
X282132Y117052D01*
Y118812D01*
X280608Y117932D01*
G36*
X280608Y117932D02*
X282132Y117052D01*
Y118812D01*
X280608Y117932D01*
G37*
X280665Y121141D02*
X282132Y120202D01*
Y121962D01*
X280665Y121141D01*
G36*
X280665Y121141D02*
X282132Y120202D01*
Y121962D01*
X280665Y121141D01*
G37*
X282036Y121122D02*
X280468Y120245D01*
G75*
G03*
X280492Y122042I-507J906D01*
G01*
X282036Y121122D01*
G36*
X282036Y121122D02*
X280468Y120245D01*
G75*
G03*
X280492Y122042I-507J906D01*
G01*
X282036Y121122D01*
G37*
X285036Y108483D02*
X281772D01*
X280585Y107297D01*
Y81089D01*
X265859Y66362D01*
X231039D01*
Y66487D01*
X285036Y117932D02*
X277590D01*
X285036Y124231D02*
X289946D01*
X285036Y127381D02*
X292442D01*
X285036Y130531D02*
X294918D01*
X294938Y130511D01*
X285036Y133680D02*
X297309D01*
X285036Y136830D02*
X299680D01*
X285989Y30217D02*
Y57501D01*
Y53207D02*
X282943Y47933D01*
X289034D01*
X285989Y53207D01*
G36*
X285989Y53207D02*
X282943Y47933D01*
X289034D01*
X285989Y53207D01*
G37*
Y55426D02*
X285090Y56982D01*
G75*
G03*
X286887I898J519D01*
G01*
X285989Y55426D01*
G36*
X285989Y55426D02*
X285090Y56982D01*
G75*
G03*
X286887I898J519D01*
G01*
X285989Y55426D01*
G37*
X287871Y124231D02*
X289427Y125130D01*
G75*
G03*
Y123333I519J-898D01*
G01*
X287871Y124231D01*
G36*
X287871Y124231D02*
X289427Y125130D01*
G75*
G03*
Y123333I519J-898D01*
G01*
X287871Y124231D01*
G37*
X289463D02*
X287939Y125111D01*
Y123352D01*
X289463Y124231D01*
G36*
X289463Y124231D02*
X287939Y125111D01*
Y123352D01*
X289463Y124231D01*
G37*
Y127381D02*
X287939Y128261D01*
Y126501D01*
X289463Y127381D01*
G36*
X289463Y127381D02*
X287939Y128261D01*
Y126501D01*
X289463Y127381D01*
G37*
Y130531D02*
X287939Y131411D01*
Y129651D01*
X289463Y130531D01*
G36*
X289463Y130531D02*
X287939Y131411D01*
Y129651D01*
X289463Y130531D01*
G37*
Y133680D02*
X287939Y134560D01*
Y132800D01*
X289463Y133680D01*
G36*
X289463Y133680D02*
X287939Y134560D01*
Y132800D01*
X289463Y133680D01*
G37*
Y136830D02*
X287939Y137710D01*
Y135950D01*
X289463Y136830D01*
G36*
X289463Y136830D02*
X287939Y137710D01*
Y135950D01*
X289463Y136830D01*
G37*
X290367Y127381D02*
X291923Y128280D01*
G75*
G03*
Y126483I519J-898D01*
G01*
X290367Y127381D01*
G36*
X290367Y127381D02*
X291923Y128280D01*
G75*
G03*
Y126483I519J-898D01*
G01*
X290367Y127381D01*
G37*
X292863Y130531D02*
X294428Y131414D01*
G75*
G03*
X294411Y129617I510J-904D01*
G01*
X292863Y130531D01*
G36*
X292863Y130531D02*
X294428Y131414D01*
G75*
G03*
X294411Y129617I510J-904D01*
G01*
X292863Y130531D01*
G37*
X295234Y133680D02*
X296791Y134579D01*
G75*
G03*
Y132782I519J-898D01*
G01*
X295234Y133680D01*
G36*
X295234Y133680D02*
X296791Y134579D01*
G75*
G03*
Y132782I519J-898D01*
G01*
X295234Y133680D01*
G37*
X295989Y30217D02*
Y57501D01*
Y53207D02*
X292943Y47933D01*
X299034D01*
X295989Y53207D01*
G36*
X295989Y53207D02*
X292943Y47933D01*
X299034D01*
X295989Y53207D01*
G37*
Y55426D02*
X295090Y56982D01*
G75*
G03*
X296887I898J519D01*
G01*
X295989Y55426D01*
G36*
X295989Y55426D02*
X295090Y56982D01*
G75*
G03*
X296887I898J519D01*
G01*
X295989Y55426D01*
G37*
X297606Y136830D02*
X299162Y137728D01*
G75*
G03*
Y135931I519J-898D01*
G01*
X297606Y136830D01*
G36*
X297606Y136830D02*
X299162Y137728D01*
G75*
G03*
Y135931I519J-898D01*
G01*
X297606Y136830D01*
G37*
X299977Y148981D02*
X301533Y149880D01*
G75*
G03*
Y148083I519J-898D01*
G01*
X299977Y148981D01*
G36*
X299977Y148981D02*
X301533Y149880D01*
G75*
G03*
Y148083I519J-898D01*
G01*
X299977Y148981D01*
G37*
X301477Y453176D02*
Y455538D01*
X300493D02*
X302461D01*
X303643Y453176D02*
Y455538D01*
Y454160D02*
X303839Y454554D01*
X304233Y454751D01*
X304627D01*
X305020Y454554D01*
X305217Y454160D01*
Y453176D01*
X308367Y453373D02*
X308170Y453176D01*
X307776D01*
X307383D01*
X306989Y453373D01*
X306792Y453767D01*
Y454357D01*
X306989Y454554D01*
X307383Y454751D01*
X307776D01*
X308170Y454554D01*
X308367Y454357D01*
Y454160D01*
X308170Y453963D01*
X307776Y453767D01*
X307383D01*
X306989Y453963D01*
X306792Y454160D01*
X309942Y453176D02*
Y454751D01*
Y454160D02*
X310139Y454554D01*
X310532Y454751D01*
X310926D01*
X311320Y454554D01*
X314666Y453373D02*
X314469Y453176D01*
X314076D01*
X313682D01*
X313288Y453373D01*
X313091Y453767D01*
Y454357D01*
X313288Y454554D01*
X313682Y454751D01*
X314076D01*
X314469Y454554D01*
X314666Y454357D01*
Y454160D01*
X314469Y453963D01*
X314076Y453767D01*
X313682D01*
X313288Y453963D01*
X313091Y454160D01*
X320178Y453176D02*
Y454751D01*
Y455341D02*
X322540Y453373D02*
X322934Y453176D01*
X323721D01*
X324115Y453373D01*
Y453767D01*
X323721Y453963D01*
X322934D01*
X322540Y454160D01*
Y454554D01*
X322934Y454751D01*
X323721D01*
X324115Y454554D01*
X328839Y453176D02*
Y454751D01*
Y454160D02*
X329036Y454554D01*
X329430Y454751D01*
X329824D01*
X330217Y454554D01*
X330414Y454160D01*
Y453176D01*
X331989Y453767D02*
X332186Y453373D01*
X332580Y453176D01*
X332973D01*
X333367Y453373D01*
X333564Y453767D01*
Y454160D01*
X333367Y454554D01*
X332973Y454751D01*
X332580D01*
X332186Y454554D01*
X331989Y454160D01*
Y453767D01*
X339863Y453373D02*
X339666Y453176D01*
X339272D01*
X338879D01*
X338485Y453373D01*
X338288Y453767D01*
Y454357D01*
X338485Y454554D01*
X338879Y454751D01*
X339272D01*
X339666Y454554D01*
X339863Y454357D01*
Y454160D01*
X339666Y453963D01*
X339272Y453767D01*
X338879D01*
X338485Y453963D01*
X338288Y454160D01*
X341438Y454554D02*
X341831Y454751D01*
X342422D01*
X342816Y454554D01*
X343013Y454160D01*
Y453570D01*
X342816Y453373D01*
X342422Y453176D01*
X342028D01*
X341635Y453373D01*
X341438Y453570D01*
Y453767D01*
X341635Y453963D01*
X342028Y454160D01*
X342422D01*
X342816Y453963D01*
X343013Y453767D01*
Y453570D02*
Y453176D01*
X344587Y453373D02*
X344981Y453176D01*
X345769D01*
X346162Y453373D01*
Y453767D01*
X345769Y453963D01*
X344981D01*
X344587Y454160D01*
Y454554D01*
X344981Y454751D01*
X345769D01*
X346162Y454554D01*
X347737Y454751D02*
X347934Y453963D01*
X348328Y453570D01*
X348721D01*
X349115Y453963D01*
X349312Y454751D01*
X349115Y453963D02*
X348918Y453176D01*
X348721Y452782D01*
X348328Y452585D01*
X347934Y452782D01*
X354036Y454751D02*
Y453373D01*
X354233Y453176D01*
X354627D01*
X354824Y453373D01*
Y453963D01*
Y453373D02*
X355020Y453176D01*
X355414D01*
X355611Y453373D01*
Y454751D01*
X357186Y454554D02*
X357580Y454751D01*
X358170D01*
X358564Y454554D01*
X358761Y454160D01*
Y453570D01*
X358564Y453373D01*
X358170Y453176D01*
X357776D01*
X357383Y453373D01*
X357186Y453570D01*
Y453767D01*
X357383Y453963D01*
X357776Y454160D01*
X358170D01*
X358564Y453963D01*
X358761Y453767D01*
Y453570D02*
Y453176D01*
X360335Y454751D02*
X360532Y453963D01*
X360926Y453570D01*
X361320D01*
X361713Y453963D01*
X361910Y454751D01*
X361713Y453963D02*
X361517Y453176D01*
X361320Y452782D01*
X360926Y452585D01*
X360532Y452782D01*
X366963Y454751D02*
X367881D01*
X367422Y455144D02*
Y453373D01*
X367619Y453176D01*
X367816D01*
X368013Y453373D01*
X369784Y453767D02*
X369981Y453373D01*
X370375Y453176D01*
X370769D01*
X371162Y453373D01*
X371359Y453767D01*
Y454160D01*
X371162Y454554D01*
X370769Y454751D01*
X370375D01*
X369981Y454554D01*
X369784Y454160D01*
Y453767D01*
X376083Y454554D02*
X376477Y454751D01*
X377068D01*
X377461Y454554D01*
X377658Y454160D01*
Y453570D01*
X377461Y453373D01*
X377068Y453176D01*
X376674D01*
X376280Y453373D01*
X376083Y453570D01*
Y453767D01*
X376280Y453963D01*
X376674Y454160D01*
X377068D01*
X377461Y453963D01*
X377658Y453767D01*
Y453570D02*
Y453176D01*
X380808Y454554D02*
X380414Y454751D01*
X379824D01*
X379430Y454554D01*
X379233Y454160D01*
Y453767D01*
X379430Y453373D01*
X379824Y453176D01*
X380414D01*
X380808Y453373D01*
X383957Y454554D02*
X383564Y454751D01*
X382973D01*
X382580Y454554D01*
X382383Y454160D01*
Y453767D01*
X382580Y453373D01*
X382973Y453176D01*
X383564D01*
X383957Y453373D01*
X385532Y453767D02*
X385729Y453373D01*
X386123Y453176D01*
X386517D01*
X386910Y453373D01*
X387107Y453767D01*
Y454160D01*
X386910Y454554D01*
X386517Y454751D01*
X386123D01*
X385729Y454554D01*
X385532Y454160D01*
Y453767D01*
X388682Y453176D02*
Y454751D01*
Y454554D02*
X388879Y454751D01*
X389272D01*
X389469Y454554D01*
Y453963D01*
Y454554D02*
X389666Y454751D01*
X390060D01*
X390257Y454554D01*
Y453176D01*
X391831Y454751D02*
Y452585D01*
Y453767D02*
X392028Y453373D01*
X392422Y453176D01*
X392816D01*
X393209Y453373D01*
X393406Y453767D01*
Y454160D01*
X393209Y454554D01*
X392816Y454751D01*
X392422D01*
X392028Y454554D01*
X391831Y454160D01*
Y453767D01*
X395965Y453176D02*
X395769D01*
Y455538D01*
X398918Y453176D02*
Y454751D01*
Y455341D02*
X401280Y453373D02*
X401674Y453176D01*
X402461D01*
X402855Y453373D01*
Y453767D01*
X402461Y453963D01*
X401674D01*
X401280Y454160D01*
Y454554D01*
X401674Y454751D01*
X402461D01*
X402855Y454554D01*
X404430Y453176D02*
Y455538D01*
Y454160D02*
X404627Y454554D01*
X405020Y454751D01*
X405414D01*
X405808Y454554D01*
X406005Y454160D01*
Y453176D01*
X410729Y454554D02*
X411123Y454751D01*
X411713D01*
X412107Y454554D01*
X412304Y454160D01*
Y453570D01*
X412107Y453373D01*
X411713Y453176D01*
X411320D01*
X410926Y453373D01*
X410729Y453570D01*
Y453767D01*
X410926Y453963D01*
X411320Y454160D01*
X411713D01*
X412107Y453963D01*
X412304Y453767D01*
Y453570D02*
Y453176D01*
X413879D02*
Y454751D01*
Y454160D02*
X414076Y454554D01*
X414469Y454751D01*
X414863D01*
X415257Y454554D01*
X415454Y454160D01*
Y453176D01*
X417028Y454751D02*
X417225Y453963D01*
X417619Y453570D01*
X418013D01*
X418406Y453963D01*
X418603Y454751D01*
X418406Y453963D02*
X418209Y453176D01*
X418013Y452782D01*
X417619Y452585D01*
X417225Y452782D01*
X420506Y454751D02*
X421425D01*
X420965Y455144D02*
Y453373D01*
X421162Y453176D01*
X421359D01*
X421556Y453373D01*
X423328Y453176D02*
Y455538D01*
Y454160D02*
X423524Y454554D01*
X423918Y454751D01*
X424312D01*
X424706Y454554D01*
X424902Y454160D01*
Y453176D01*
X427265D02*
Y454751D01*
Y455341D02*
X429627Y453176D02*
Y454751D01*
Y454160D02*
X429824Y454554D01*
X430217Y454751D01*
X430611D01*
X431005Y454554D01*
X431202Y454160D01*
Y453176D01*
X434351Y454160D02*
X434154Y454554D01*
X433761Y454751D01*
X433367D01*
X432973Y454554D01*
X432776Y454160D01*
Y453963D01*
X432973Y453570D01*
X433367Y453373D01*
X433761D01*
X434154Y453570D01*
X434351Y453963D01*
Y454751D02*
Y453176D01*
X434154Y452782D01*
X433761Y452585D01*
X433170D01*
X432776Y452782D01*
X436123Y453176D02*
X436320Y453373D01*
X436123Y453570D01*
X435926Y453373D01*
X436123Y453176D01*
X304470Y151228D02*
X306026Y152126D01*
G75*
G03*
Y150330I519J-898D01*
G01*
X304470Y151228D01*
G36*
X304470Y151228D02*
X306026Y152126D01*
G75*
G03*
Y150330I519J-898D01*
G01*
X304470Y151228D01*
G37*
X305989Y30217D02*
Y57750D01*
Y53207D02*
X302943Y47933D01*
X309034D01*
X305989Y53207D01*
G36*
X305989Y53207D02*
X302943Y47933D01*
X309034D01*
X305989Y53207D01*
G37*
Y55676D02*
X305090Y57232D01*
G75*
G03*
X306887I898J519D01*
G01*
X305989Y55676D01*
G36*
X305989Y55676D02*
X305090Y57232D01*
G75*
G03*
X306887I898J519D01*
G01*
X305989Y55676D01*
G37*
X307215Y153599D02*
X308772Y154498D01*
G75*
G03*
Y152701I519J-898D01*
G01*
X307215Y153599D01*
G36*
X307215Y153599D02*
X308772Y154498D01*
G75*
G03*
Y152701I519J-898D01*
G01*
X307215Y153599D01*
G37*
X309961Y155970D02*
X311517Y156869D01*
G75*
G03*
Y155072I519J-898D01*
G01*
X309961Y155970D01*
G36*
X309961Y155970D02*
X311517Y156869D01*
G75*
G03*
Y155072I519J-898D01*
G01*
X309961Y155970D01*
G37*
X315989Y30217D02*
Y57806D01*
X315919Y57875D01*
X315989Y53207D02*
X312943Y47933D01*
X319034D01*
X315989Y53207D01*
G36*
X315989Y53207D02*
X312943Y47933D01*
X319034D01*
X315989Y53207D01*
G37*
Y55802D02*
X315039Y57327D01*
G75*
G03*
X316835Y57387I881J548D01*
G01*
X315989Y55802D01*
G36*
X315989Y55802D02*
X315039Y57327D01*
G75*
G03*
X316835Y57387I881J548D01*
G01*
X315989Y55802D01*
G37*
X317324Y160963D02*
X318881Y161861D01*
G75*
G03*
Y160064I519J-898D01*
G01*
X317324Y160963D01*
G36*
X317324Y160963D02*
X318881Y161861D01*
G75*
G03*
Y160064I519J-898D01*
G01*
X317324Y160963D01*
G37*
X325989Y30217D02*
Y58125D01*
Y53207D02*
X322943Y47933D01*
X329034D01*
X325989Y53207D01*
G36*
X325989Y53207D02*
X322943Y47933D01*
X329034D01*
X325989Y53207D01*
G37*
Y56050D02*
X325090Y57606D01*
G75*
G03*
X326887I898J519D01*
G01*
X325989Y56050D01*
G36*
X325989Y56050D02*
X325090Y57606D01*
G75*
G03*
X326887I898J519D01*
G01*
X325989Y56050D01*
G37*
X328307Y158467D02*
X329863Y159365D01*
G75*
G03*
Y157568I519J-898D01*
G01*
X328307Y158467D01*
G36*
X328307Y158467D02*
X329863Y159365D01*
G75*
G03*
Y157568I519J-898D01*
G01*
X328307Y158467D01*
G37*
X330382D02*
X272224D01*
X262445Y148688D01*
Y143672D01*
X335989Y30217D02*
Y58000D01*
Y53207D02*
X332943Y47933D01*
X339034D01*
X335989Y53207D01*
G36*
X335989Y53207D02*
X332943Y47933D01*
X339034D01*
X335989Y53207D01*
G37*
Y55925D02*
X335090Y57481D01*
G75*
G03*
X336887I898J519D01*
G01*
X335989Y55925D01*
G36*
X335989Y55925D02*
X335090Y57481D01*
G75*
G03*
X336887I898J519D01*
G01*
X335989Y55925D01*
G37*
X345772Y295779D02*
X343476Y299756D01*
G75*
G03*
X348069I2296J1326D01*
G01*
X345772Y295779D01*
G36*
X345772Y295779D02*
X343476Y299756D01*
G75*
G03*
X348069I2296J1326D01*
G01*
X345772Y295779D01*
G37*
X345794Y401082D02*
X345857Y401019D01*
Y361083D01*
X340772Y355997D01*
Y292333D01*
X337022Y288583D01*
X252022D01*
X248272Y284833D01*
X345857Y395779D02*
X343514Y399729D01*
G75*
G03*
X348107Y399784I2281J1353D01*
G01*
X345857Y395779D01*
G36*
X345857Y395779D02*
X343514Y399729D01*
G75*
G03*
X348107Y399784I2281J1353D01*
G01*
X345857Y395779D01*
G37*
X345989Y30217D02*
Y58125D01*
Y53207D02*
X342943Y47933D01*
X349034D01*
X345989Y53207D01*
G36*
X345989Y53207D02*
X342943Y47933D01*
X349034D01*
X345989Y53207D01*
G37*
Y56050D02*
X345090Y57606D01*
G75*
G03*
X346887I898J519D01*
G01*
X345989Y56050D01*
G36*
X345989Y56050D02*
X345090Y57606D01*
G75*
G03*
X346887I898J519D01*
G01*
X345989Y56050D01*
G37*
X355989Y53207D02*
X352943Y47933D01*
X359034D01*
X355989Y53207D01*
G36*
X355989Y53207D02*
X352943Y47933D01*
X359034D01*
X355989Y53207D01*
G37*
Y56175D02*
X355090Y57731D01*
G75*
G03*
X356887I898J519D01*
G01*
X355989Y56175D01*
G36*
X355989Y56175D02*
X355090Y57731D01*
G75*
G03*
X356887I898J519D01*
G01*
X355989Y56175D01*
G37*
Y58250D02*
Y30217D01*
X362972Y56086D02*
X361416Y55187D01*
G75*
G03*
Y56984I-519J898D01*
G01*
X362972Y56086D01*
G36*
X362972Y56086D02*
X361416Y55187D01*
G75*
G03*
Y56984I-519J898D01*
G01*
X362972Y56086D01*
G37*
X365989Y30217D02*
Y54489D01*
X364392Y56086D01*
X360898D01*
X365989Y53207D02*
X362943Y47933D01*
X369034D01*
X365989Y53207D01*
G36*
X365989Y53207D02*
X362943Y47933D01*
X369034D01*
X365989Y53207D01*
G37*
X370211Y56086D02*
X368655Y55187D01*
G75*
G03*
Y56984I-519J898D01*
G01*
X370211Y56086D01*
G36*
X370211Y56086D02*
X368655Y55187D01*
G75*
G03*
Y56984I-519J898D01*
G01*
X370211Y56086D01*
G37*
X375772Y295779D02*
X373476Y299756D01*
G75*
G03*
X378069I2296J1326D01*
G01*
X375772Y295779D01*
G36*
X375772Y295779D02*
X373476Y299756D01*
G75*
G03*
X378069I2296J1326D01*
G01*
X375772Y295779D01*
G37*
Y301082D02*
Y276031D01*
X375989Y30217D02*
Y54035D01*
X373938Y56086D01*
X368136D01*
X375989Y53207D02*
X372943Y47933D01*
X379034D01*
X375989Y53207D01*
G36*
X375989Y53207D02*
X372943Y47933D01*
X379034D01*
X375989Y53207D01*
G37*
X383376Y56211D02*
X381820Y55312D01*
G75*
G03*
Y57109I-519J898D01*
G01*
X383376Y56211D01*
G36*
X383376Y56211D02*
X381820Y55312D01*
G75*
G03*
Y57109I-519J898D01*
G01*
X383376Y56211D01*
G37*
X385989Y30217D02*
Y55393D01*
X385170Y56211D01*
X381302D01*
X385989Y53207D02*
X382943Y47933D01*
X389034D01*
X385989Y53207D01*
G36*
X385989Y53207D02*
X382943Y47933D01*
X389034D01*
X385989Y53207D01*
G37*
D02*
D11*
X127445Y126121D02*
X136195D01*
Y126083D01*
X146195D01*
X127445Y136082D02*
X155907D01*
X127445Y146082D02*
X163695D01*
X145989Y49399D02*
X145142Y47933D01*
X146835D01*
X145989Y49399D01*
G36*
X145989Y49399D02*
X145142Y47933D01*
X146835D01*
X145989Y49399D01*
G37*
X146195Y126083D02*
Y117017D01*
X142445Y113267D01*
Y81082D01*
X145989Y77539D01*
Y30217D01*
X155989D02*
Y69832D01*
X168695Y82539D01*
Y123294D01*
X155907Y136082D01*
X155989Y49399D02*
X155142Y47933D01*
X156835D01*
X155989Y49399D01*
G36*
X155989Y49399D02*
X155142Y47933D01*
X156835D01*
X155989Y49399D01*
G37*
X165989D02*
X165142Y47933D01*
X166835D01*
X165989Y49399D01*
G36*
X165989Y49399D02*
X165142Y47933D01*
X166835D01*
X165989Y49399D01*
G37*
X175989Y33169D02*
Y52690D01*
X165989D01*
Y30217D01*
X175989Y49399D02*
X175142Y47933D01*
X176835D01*
X175989Y49399D01*
G36*
X175989Y49399D02*
X175142Y47933D01*
X176835D01*
X175989Y49399D01*
G37*
D02*
D12*
X59953Y449825D02*
Y431083D01*
X90772D01*
G75*
G02*
X93272Y428583I0J-2500D01*
G01*
Y393583D01*
G75*
G03*
X95772Y391083I2500J0D01*
G01*
X120772D01*
G75*
G02*
X123272Y388583I0J-2500D01*
G01*
Y333583D01*
G75*
G02*
X120772Y331083I-2500J0D01*
G01*
X98271D01*
G75*
G02*
X96698I-786J4725D01*
G01*
X95772D01*
G75*
G03*
X93272Y328583I0J-2500D01*
G01*
Y293583D01*
G75*
G03*
X95772Y291083I2500J0D01*
G01*
X120772D01*
G75*
G02*
X123272Y288583I0J-2500D01*
G01*
Y259162D01*
G75*
G02*
X132632Y256082I4173J-3080D01*
G01*
G75*
G02*
X123272Y253002I-5187J0D01*
G01*
Y209162D01*
G75*
G02*
X132632Y206082I4173J-3080D01*
G01*
G75*
G02*
X123272Y203002I-5187J0D01*
G01*
Y159162D01*
G75*
G02*
X132632Y156082I4173J-3080D01*
G01*
G75*
G02*
X123272Y153002I-5187J0D01*
G01*
Y148432D01*
G75*
G02*
X130866Y149434I4173J-2350D01*
G01*
X163695D01*
G75*
G02*
Y142730I0J-3352D01*
G01*
X130866D01*
G75*
G02*
X123272Y143732I-3420J3352D01*
G01*
Y138432D01*
G75*
G02*
X130866Y139434I4173J-2350D01*
G01*
X155907D01*
G75*
G02*
X158278Y138452I0J-3352D01*
G01*
X171063Y125667D01*
G75*
G02*
X172048Y123294I-2368J-2373D01*
G01*
Y82539D01*
G75*
G02*
X171063Y80165I-3352J0D01*
G01*
X159341Y68443D01*
Y50297D01*
X159738Y49609D01*
G75*
G02*
X160077Y48785I-2903J-1676D01*
G01*
X160187D01*
Y48583D01*
X161790D01*
Y48785D01*
X161900D01*
G75*
G02*
X162239Y49609I3242J-853D01*
G01*
X162636Y50297D01*
Y52690D01*
G75*
G02*
X165989Y56043I3352J0D01*
G01*
X175989D01*
G75*
G02*
X179341Y52690I0J-3352D01*
G01*
Y50297D01*
X179738Y49609D01*
G75*
G02*
X180077Y48785I-2903J-1676D01*
G01*
X180187D01*
Y48583D01*
X181790D01*
Y48785D01*
X182104D01*
X184835Y53516D01*
Y53843D01*
G75*
G02*
X185174Y54660I1154J0D01*
G01*
X189948Y59434D01*
Y60109D01*
X189204Y61398D01*
G75*
G02*
X189193Y61417I1034J594D01*
G01*
G75*
G02*
X188911Y62493I1909J1077D01*
G01*
G75*
G02*
X193293I2191J0D01*
G01*
G75*
G02*
X193010Y61417I-2191J0D01*
G01*
G75*
G02*
X192999Y61398I-1044J575D01*
G01*
X192255Y60109D01*
Y58956D01*
G75*
G02*
X191916Y58139I-1154J0D01*
G01*
X187197Y53421D01*
X189874Y48785D01*
X190187D01*
Y48583D01*
X191790D01*
Y48785D01*
X192104D01*
X194835Y53516D01*
Y54986D01*
X194086Y56256D01*
G75*
G02*
X195429Y59499I1883J1120D01*
G01*
X196839Y59877D01*
X196892Y59931D01*
Y67835D01*
X196720Y68133D01*
X196406D01*
Y72200D01*
X205985D01*
Y68133D01*
X205671D01*
X205498Y67835D01*
Y67471D01*
X205621Y67348D01*
X209725D01*
G75*
G02*
X210542Y67009I0J-1154D01*
G01*
X211759Y65792D01*
G75*
G02*
X212099Y64975I-814J-817D01*
G01*
Y64752D01*
X212843Y63463D01*
G75*
G02*
X212854Y63444I-1034J-594D01*
G01*
G75*
G02*
X213136Y62368I-1909J-1077D01*
G01*
G75*
G02*
X208754I-2191J0D01*
G01*
G75*
G02*
X209037Y63444I2191J0D01*
G01*
G75*
G02*
X209048Y63463I1044J-575D01*
G01*
X209698Y64591D01*
X209247Y65041D01*
X205143D01*
G75*
G02*
X204754Y65109I0J1154D01*
G01*
X206803Y63060D01*
G75*
G02*
X207142Y62243I-814J-817D01*
G01*
Y59635D01*
X207886Y58346D01*
G75*
G02*
X207897Y58328I-1034J-594D01*
G01*
G75*
G02*
X208180Y57251I-1909J-1077D01*
G01*
G75*
G02*
X207897Y56175I-2198J2D01*
G01*
G75*
G02*
X207886Y56156I-302J157D01*
G01*
X207142Y54867D01*
Y53516D01*
X209874Y48785D01*
X210187D01*
Y48583D01*
X211790D01*
Y48785D01*
X212104D01*
X214835Y53516D01*
Y55117D01*
X214091Y56406D01*
G75*
G02*
X214080Y56424I1034J594D01*
G01*
G75*
G02*
X213798Y57501I1909J1077D01*
G01*
G75*
G02*
X214080Y58577I2198J-2D01*
G01*
G75*
G02*
X214091Y58596I302J-157D01*
G01*
X214835Y59885D01*
Y62948D01*
G75*
G02*
X215174Y63765I1154J0D01*
G01*
X218124Y66715D01*
Y67835D01*
X217952Y68133D01*
X217638D01*
Y72200D01*
X227217D01*
Y68133D01*
X226903D01*
X226730Y67835D01*
Y64503D01*
X227587Y63646D01*
X228654D01*
X229943Y64391D01*
G75*
G02*
X229962Y64401I594J-1034D01*
G01*
G75*
G02*
X230137Y64490I1076J-1907D01*
G01*
G75*
G02*
X228848Y66487I902J1997D01*
G01*
G75*
G02*
X232224Y68329I2191J0D01*
G01*
G75*
G02*
X232246Y68315I-615J-980D01*
G01*
X233456Y67515D01*
X265381D01*
X265678Y67812D01*
G75*
G02*
X263806Y69791I311J2169D01*
G01*
X263181Y69167D01*
G75*
G02*
X262364Y68828I-817J814D01*
G01*
X261254D01*
X259965Y68083D01*
G75*
G02*
X259946Y68073I-594J1034D01*
G01*
G75*
G02*
X256971Y71075I-1076J1908D01*
G01*
X256477D01*
X256254Y70852D01*
X255876Y69441D01*
G75*
G02*
X251562Y69981I-2123J540D01*
G01*
G75*
G02*
X253213Y72104I2191J0D01*
G01*
X254622Y72482D01*
X255183Y73044D01*
G75*
G02*
X255372Y73197I817J-815D01*
G01*
X247741D01*
X245146Y70602D01*
X244769Y69191D01*
G75*
G02*
X240454Y69731I-2123J540D01*
G01*
G75*
G02*
X242105Y71855I2191J0D01*
G01*
X243514Y72232D01*
X246349Y75068D01*
X242658D01*
X241369Y74324D01*
G75*
G02*
X241350Y74313I-594J1034D01*
G01*
G75*
G02*
X238368Y77302I-1076J1908D01*
G01*
X236348Y75282D01*
G75*
G02*
X235531Y74943I-817J814D01*
G01*
X234047D01*
X232758Y74199D01*
G75*
G02*
X232739Y74188I-594J1034D01*
G01*
G75*
G02*
X229472Y76096I-1076J1908D01*
G01*
G75*
G02*
X232739Y78005I2191J0D01*
G01*
G75*
G02*
X232758Y77994I-575J-1044D01*
G01*
X234047Y77250D01*
X235054D01*
X237335Y79531D01*
G75*
G02*
X238152Y79871I817J-814D01*
G01*
X243997D01*
G75*
G02*
X246124Y88332I2127J3963D01*
G01*
G75*
G02*
X248251Y79871I0J-4498D01*
G01*
X252024D01*
Y87933D01*
X254794D01*
Y94046D01*
X254556Y94457D01*
X254150Y93755D01*
Y92057D01*
G75*
G02*
X253811Y91240I-1154J0D01*
G01*
X252839Y90269D01*
G75*
G02*
X252022Y89929I-817J814D01*
G01*
X243893D01*
G75*
G02*
X243076Y90269I0J1154D01*
G01*
X238308Y95036D01*
X232799D01*
X231534Y94306D01*
X234002D01*
G75*
G02*
X234819Y93967I0J-1154D01*
G01*
X236938Y91848D01*
G75*
G02*
X237278Y91031I-814J-817D01*
G01*
Y90037D01*
X239649Y85929D01*
G75*
G02*
X236124Y79734I-3525J-2094D01*
G01*
G75*
G02*
X232599Y85929I0J4100D01*
G01*
X234970Y90037D01*
Y90553D01*
X233524Y91999D01*
X225797D01*
G75*
G02*
X224980Y92338I0J1154D01*
G01*
X221643Y95675D01*
G75*
G02*
X221304Y96492I814J817D01*
G01*
Y102056D01*
G75*
G02*
X221337Y102328I1153J0D01*
G01*
X221148Y102140D01*
Y96211D01*
G75*
G02*
X220809Y95394I-1154J0D01*
G01*
X218876Y93461D01*
G75*
G02*
X218059Y93122I-817J814D01*
G01*
X208724D01*
X207278Y91676D01*
Y90037D01*
X209649Y85929D01*
G75*
G02*
X208318Y80370I-3525J-2094D01*
G01*
X210951D01*
X212149Y84841D01*
G75*
G02*
X220224Y83834I3975J-1007D01*
G01*
G75*
G02*
X217131Y79859I-4100J0D01*
G01*
X212746Y78684D01*
X224945D01*
G75*
G02*
X226260Y77648I0J-1352D01*
G01*
X226391Y77517D01*
G75*
G02*
X226721Y76845I-814J-817D01*
G01*
X226903Y76531D01*
X227217D01*
Y72464D01*
X217638D01*
Y75980D01*
X205985D01*
Y72464D01*
X196406D01*
Y75980D01*
X180008D01*
X178672Y75208D01*
G75*
G02*
X178636Y75188I-678J1179D01*
G01*
G75*
G02*
X174993Y77332I-1191J2144D01*
G01*
G75*
G02*
X178636Y79476I2452J0D01*
G01*
G75*
G02*
X178672Y79456I-646J-1205D01*
G01*
X180008Y78684D01*
X201734D01*
X200771Y79648D01*
G75*
G02*
X200431Y80465I814J817D01*
G01*
Y92653D01*
G75*
G02*
X200771Y93470I1154J0D01*
G01*
X204263Y96962D01*
G75*
G02*
X205080Y97301I817J-814D01*
G01*
X216458D01*
X216595Y97438D01*
Y103304D01*
G75*
G02*
X216934Y104120I1154J0D01*
G01*
X224945Y112132D01*
G75*
G02*
X225985Y112787I1040J-499D01*
G01*
X235119D01*
X235848Y113208D01*
X235119Y113629D01*
X214078D01*
X212789Y112885D01*
G75*
G02*
X212770Y112874I-594J1034D01*
G01*
G75*
G02*
X209744Y115782I-1076J1908D01*
G01*
G75*
G02*
X207278Y118719I-422J2150D01*
G01*
G75*
G02*
X205249Y122109I-202J2182D01*
G01*
G75*
G02*
X202514Y124231I-544J2122D01*
G01*
G75*
G02*
X205781Y126140I2191J0D01*
G01*
G75*
G02*
X205800Y126129I-575J-1044D01*
G01*
X207089Y125385D01*
X235119D01*
X235701Y125722D01*
Y129041D01*
X235119Y129377D01*
X234263D01*
G75*
G02*
X233446Y129717I0J1154D01*
G01*
X231933Y131229D01*
X204843D01*
X203554Y130485D01*
G75*
G02*
X203535Y130474I-594J1034D01*
G01*
G75*
G02*
X200407Y133151I-1076J1908D01*
G01*
G75*
G02*
X197272Y135128I-944J1978D01*
G01*
G75*
G02*
X200540Y137037I2191J0D01*
G01*
G75*
G02*
X200559Y137026I-575J-1044D01*
G01*
X200839Y136865D01*
X200358Y137344D01*
X198353D01*
X197064Y136600D01*
G75*
G02*
X197045Y136590I-594J1034D01*
G01*
G75*
G02*
X193778Y138498I-1076J1908D01*
G01*
G75*
G02*
X197045Y140406I2191J0D01*
G01*
G75*
G02*
X197064Y140396I-575J-1044D01*
G01*
X198353Y139652D01*
X200836D01*
G75*
G02*
X201653Y139312I0J-1154D01*
G01*
X202982Y137983D01*
X211484D01*
X209165Y140302D01*
G75*
G02*
X208843Y141082I780J780D01*
G01*
Y141082D01*
G75*
G02*
Y141084I364J1D01*
G01*
Y149830D01*
G75*
G02*
Y149831I367J1D01*
G01*
Y149832D01*
G75*
G02*
X209165Y150612I1103J0D01*
G01*
X211665Y153112D01*
G75*
G02*
X212448Y153435I780J-780D01*
G01*
X221532D01*
G75*
G02*
X221930Y153361I0J-1103D01*
G01*
Y154154D01*
X227961D01*
Y153361D01*
G75*
G02*
X228359Y153435I397J-1029D01*
G01*
X231532D01*
G75*
G02*
X231930Y153361I0J-1103D01*
G01*
Y154154D01*
X237961D01*
Y153361D01*
G75*
G02*
X238359Y153435I397J-1029D01*
G01*
X241193D01*
G75*
G02*
X241975Y153112I2J-1103D01*
G01*
X245544Y149543D01*
Y152448D01*
X244800Y153737D01*
G75*
G02*
X244789Y153756I1034J594D01*
G01*
G75*
G02*
X247731Y156765I1908J1076D01*
G01*
G75*
G02*
X247656Y157333I2116J569D01*
G01*
G75*
G02*
X252038I2191J0D01*
G01*
G75*
G02*
X251755Y156256I-2191J0D01*
G01*
G75*
G02*
X251744Y156237I-1044J575D01*
G01*
X251000Y154948D01*
Y148409D01*
X251422Y147679D01*
X251843Y148409D01*
Y149106D01*
G75*
G02*
X252182Y149923I1154J0D01*
G01*
X252944Y150685D01*
Y152835D01*
X252772Y153133D01*
X252458D01*
Y157200D01*
X256788D01*
Y157201D01*
X259674D01*
Y157200D01*
X262037D01*
Y156886D01*
X263017Y156320D01*
X265369D01*
X270826Y161777D01*
G75*
G02*
X271643Y162116I817J-814D01*
G01*
X317015D01*
X318304Y162860D01*
G75*
G02*
X318323Y162871I594J-1034D01*
G01*
G75*
G02*
X321131Y159620I1076J-1908D01*
G01*
X327998D01*
X329287Y160364D01*
G75*
G02*
X329306Y160375I594J-1034D01*
G01*
G75*
G02*
X332573Y158467I1076J-1908D01*
G01*
G75*
G02*
X329306Y156558I-2191J0D01*
G01*
G75*
G02*
X329287Y156569I575J1044D01*
G01*
X327998Y157313D01*
X313767D01*
G75*
G02*
X311466Y153855I-1731J-1343D01*
G01*
G75*
G02*
X311481Y153599I-2178J-256D01*
G01*
G75*
G02*
X308720Y151484I-2191J0D01*
G01*
G75*
G02*
X308735Y151228I-2178J-256D01*
G01*
G75*
G02*
X305468Y149320I-2191J0D01*
G01*
G75*
G02*
X305449Y149330I575J1044D01*
G01*
X304160Y150074D01*
X303950D01*
G75*
G02*
X300975Y147073I-1899J-1093D01*
G01*
G75*
G02*
X300956Y147084I575J1044D01*
G01*
X299667Y147828D01*
X279347D01*
Y147429D01*
X280227D01*
Y139917D01*
X280169D01*
X281280Y138807D01*
Y138863D01*
X288792D01*
Y138550D01*
X289772Y137983D01*
X297296D01*
X298585Y138728D01*
G75*
G02*
X298604Y138738I594J-1034D01*
G01*
G75*
G02*
X301871Y136830I1076J-1908D01*
G01*
G75*
G02*
X299259Y134680I-2191J0D01*
G01*
G75*
G02*
X296876Y131533I-1950J-1000D01*
G01*
G75*
G02*
X294386Y128391I-1938J-1022D01*
G01*
G75*
G02*
X291878Y125264I-1944J-1009D01*
G01*
G75*
G02*
X288869Y122323I-1932J-1032D01*
G01*
G75*
G02*
X288850Y122334I557J1013D01*
G01*
X288792Y122368D01*
Y116533D01*
X289481Y116135D01*
X291611D01*
Y117406D01*
X297646D01*
Y111760D01*
X291611D01*
Y113430D01*
X289481D01*
X289189Y113261D01*
Y109201D01*
X288792D01*
Y103299D01*
X283363D01*
Y79341D01*
G75*
G02*
X283023Y78524I-1154J0D01*
G01*
X273476Y68978D01*
X273099Y67569D01*
G75*
G02*
X268824Y67696I-2123J540D01*
G01*
X266676Y65548D01*
G75*
G02*
X265859Y65208I-817J814D01*
G01*
X233382D01*
X232039Y64537D01*
G75*
G02*
X231940Y64490I-1000J1947D01*
G01*
G75*
G02*
X233230Y62493I-902J-1997D01*
G01*
G75*
G02*
X229962Y60585I-2191J0D01*
G01*
G75*
G02*
X229943Y60595I575J1044D01*
G01*
X228654Y61339D01*
X227109D01*
G75*
G02*
X226292Y61679I0J1154D01*
G01*
X224763Y63208D01*
G75*
G02*
X224565Y63471I814J818D01*
G01*
Y60522D01*
X225085Y60002D01*
X226495Y59624D01*
G75*
G02*
X227872Y56440I-540J-2123D01*
G01*
X227870Y56436D01*
X227142Y55127D01*
Y53516D01*
X229874Y48785D01*
X230187D01*
Y48583D01*
X231790D01*
Y48785D01*
X232104D01*
X234835Y53516D01*
Y55241D01*
X234091Y56530D01*
G75*
G02*
X234080Y56549I1034J594D01*
G01*
G75*
G02*
X233798Y57626I1909J1077D01*
G01*
G75*
G02*
X238180I2191J0D01*
G01*
G75*
G02*
X237897Y56549I-2191J0D01*
G01*
G75*
G02*
X237886Y56530I-1044J575D01*
G01*
X237142Y55241D01*
Y53516D01*
X239874Y48785D01*
X240187D01*
Y48583D01*
X241790D01*
Y48785D01*
X242104D01*
X244835Y53516D01*
Y55241D01*
X244091Y56530D01*
G75*
G02*
X244080Y56549I1034J594D01*
G01*
G75*
G02*
X243798Y57626I1909J1077D01*
G01*
G75*
G02*
X248180I2191J0D01*
G01*
G75*
G02*
X247897Y56549I-2191J0D01*
G01*
G75*
G02*
X247886Y56530I-1044J575D01*
G01*
X247142Y55241D01*
Y53516D01*
X249874Y48785D01*
X250187D01*
Y48583D01*
X251790D01*
Y48785D01*
X252104D01*
X254835Y53516D01*
Y55117D01*
X254091Y56406D01*
G75*
G02*
X254080Y56424I1034J594D01*
G01*
G75*
G02*
X253798Y57501I1909J1077D01*
G01*
G75*
G02*
X258180I2191J0D01*
G01*
G75*
G02*
X257897Y56424I-2191J0D01*
G01*
G75*
G02*
X257886Y56406I-1044J575D01*
G01*
X257142Y55117D01*
Y53516D01*
X259874Y48785D01*
X260187D01*
Y48583D01*
X261790D01*
Y48785D01*
X262104D01*
X264835Y53516D01*
Y55117D01*
X264091Y56406D01*
G75*
G02*
X264080Y56424I1034J594D01*
G01*
G75*
G02*
X263798Y57501I1909J1077D01*
G01*
G75*
G02*
X268180I2191J0D01*
G01*
G75*
G02*
X267897Y56424I-2191J0D01*
G01*
G75*
G02*
X267886Y56406I-1044J575D01*
G01*
X267142Y55117D01*
Y53516D01*
X269874Y48785D01*
X270187D01*
Y48583D01*
X271790D01*
Y48785D01*
X272104D01*
X274835Y53516D01*
Y55117D01*
X274091Y56406D01*
G75*
G02*
X274080Y56424I1034J594D01*
G01*
G75*
G02*
X273798Y57501I1909J1077D01*
G01*
G75*
G02*
X278180I2191J0D01*
G01*
G75*
G02*
X277897Y56424I-2191J0D01*
G01*
G75*
G02*
X277886Y56406I-1044J575D01*
G01*
X277142Y55117D01*
Y53516D01*
X279874Y48785D01*
X280187D01*
Y48583D01*
X281790D01*
Y48785D01*
X282104D01*
X284835Y53516D01*
Y55117D01*
X284091Y56406D01*
G75*
G02*
X284080Y56424I1034J594D01*
G01*
G75*
G02*
X283798Y57501I1909J1077D01*
G01*
G75*
G02*
X288180I2191J0D01*
G01*
G75*
G02*
X287897Y56424I-2191J0D01*
G01*
G75*
G02*
X287886Y56406I-1044J575D01*
G01*
X287142Y55117D01*
Y53516D01*
X289874Y48785D01*
X290187D01*
Y48583D01*
X291790D01*
Y48785D01*
X292104D01*
X294835Y53516D01*
Y55117D01*
X294091Y56406D01*
G75*
G02*
X294080Y56424I1034J594D01*
G01*
G75*
G02*
X293798Y57501I1909J1077D01*
G01*
G75*
G02*
X298180I2191J0D01*
G01*
G75*
G02*
X297897Y56424I-2191J0D01*
G01*
G75*
G02*
X297886Y56406I-1044J575D01*
G01*
X297142Y55117D01*
Y53516D01*
X299874Y48785D01*
X300187D01*
Y48583D01*
X301790D01*
Y48785D01*
X302104D01*
X304835Y53516D01*
Y55366D01*
X304091Y56655D01*
G75*
G02*
X304080Y56674I1034J594D01*
G01*
G75*
G02*
X303798Y57750I1909J1077D01*
G01*
G75*
G02*
X308180I2191J0D01*
G01*
G75*
G02*
X307897Y56674I-2191J0D01*
G01*
G75*
G02*
X307886Y56655I-1044J575D01*
G01*
X307142Y55366D01*
Y53516D01*
X309874Y48785D01*
X310187D01*
Y48583D01*
X311790D01*
Y48785D01*
X312104D01*
X314835Y53516D01*
Y55472D01*
X314072Y56697D01*
G75*
G02*
X313728Y57875I1847J1178D01*
G01*
G75*
G02*
X318110I2191J0D01*
G01*
Y57875D01*
G75*
G02*
X317844Y56828I-2191J0D01*
G01*
X317142Y55513D01*
Y53516D01*
X319874Y48785D01*
X320187D01*
Y48583D01*
X321790D01*
Y48785D01*
X322104D01*
X324835Y53516D01*
Y55741D01*
X324091Y57030D01*
G75*
G02*
X324080Y57048I1034J594D01*
G01*
G75*
G02*
X323798Y58125I1909J1077D01*
G01*
G75*
G02*
X328180I2191J0D01*
G01*
G75*
G02*
X327897Y57048I-2191J0D01*
G01*
G75*
G02*
X327886Y57030I-1044J575D01*
G01*
X327142Y55741D01*
Y53516D01*
X329874Y48785D01*
X330187D01*
Y48583D01*
X331790D01*
Y48785D01*
X332104D01*
X334835Y53516D01*
Y55616D01*
X334091Y56905D01*
G75*
G02*
X334080Y56924I1034J594D01*
G01*
G75*
G02*
X333798Y58000I1909J1077D01*
G01*
G75*
G02*
X338180I2191J0D01*
G01*
G75*
G02*
X337897Y56924I-2191J0D01*
G01*
G75*
G02*
X337886Y56905I-1044J575D01*
G01*
X337142Y55616D01*
Y53516D01*
X339874Y48785D01*
X340187D01*
Y48583D01*
X341790D01*
Y48785D01*
X342104D01*
X344835Y53516D01*
Y55741D01*
X344091Y57030D01*
G75*
G02*
X344080Y57048I1034J594D01*
G01*
G75*
G02*
X343798Y58125I1909J1077D01*
G01*
G75*
G02*
X348180I2191J0D01*
G01*
G75*
G02*
X347897Y57048I-2191J0D01*
G01*
G75*
G02*
X347886Y57030I-1044J575D01*
G01*
X347142Y55741D01*
Y53516D01*
X349874Y48785D01*
X350187D01*
Y48583D01*
X351790D01*
Y48785D01*
X352104D01*
X354835Y53516D01*
Y55865D01*
X354091Y57154D01*
G75*
G02*
X354080Y57173I1034J594D01*
G01*
G75*
G02*
X353798Y58250I1909J1077D01*
G01*
G75*
G02*
X358180I2191J0D01*
G01*
G75*
G02*
X357897Y57173I-2191J0D01*
G01*
G75*
G02*
X357886Y57154I-1044J575D01*
G01*
X357142Y55865D01*
Y53516D01*
X359874Y48785D01*
X360187D01*
Y48583D01*
X361790D01*
Y48785D01*
X362104D01*
X364835Y53516D01*
Y54011D01*
X363914Y54932D01*
X363282D01*
X361993Y54188D01*
G75*
G02*
X361974Y54178I-594J1034D01*
G01*
G75*
G02*
X358707Y56086I-1076J1908D01*
G01*
G75*
G02*
X361974Y57994I2191J0D01*
G01*
G75*
G02*
X361993Y57983I-575J-1044D01*
G01*
X363282Y57239D01*
X364392D01*
G75*
G02*
X365209Y56900I0J-1154D01*
G01*
X365946Y56163D01*
G75*
G02*
X369213Y57994I2190J-77D01*
G01*
G75*
G02*
X369231Y57983I-575J-1044D01*
G01*
X370520Y57239D01*
X373938D01*
G75*
G02*
X374755Y56900I0J-1154D01*
G01*
X376803Y54852D01*
G75*
G02*
X377142Y54035I-814J-817D01*
G01*
Y53516D01*
X379874Y48785D01*
X380187D01*
Y48583D01*
X381790D01*
Y48785D01*
X382104D01*
X384835Y53516D01*
Y54915D01*
X384693Y55057D01*
X383686D01*
X382397Y54313D01*
G75*
G02*
X382378Y54302I-594J1034D01*
G01*
G75*
G02*
X379111Y56211I-1076J1908D01*
G01*
G75*
G02*
X382378Y58119I2191J0D01*
G01*
G75*
G02*
X382397Y58108I-575J-1044D01*
G01*
X383686Y57364D01*
X385170D01*
G75*
G02*
X385987Y57025I0J-1154D01*
G01*
X386803Y56209D01*
G75*
G02*
X387142Y55393I-814J-817D01*
G01*
Y53516D01*
X389874Y48785D01*
X390187D01*
Y48583D01*
X392339D01*
Y55807D01*
G75*
G02*
X394807Y58276I2469J0D01*
G01*
X397022D01*
Y97333D01*
G75*
G03*
X394522Y99833I-2500J0D01*
G01*
X359522D01*
G75*
G02*
X357022Y102333I0J2500D01*
G01*
Y103641D01*
G75*
G02*
X347258Y106082I-4577J2441D01*
G01*
G75*
G02*
X357022Y108523I5187J0D01*
G01*
Y153641D01*
G75*
G02*
X347258Y156082I-4577J2441D01*
G01*
G75*
G02*
X357022Y158523I5187J0D01*
G01*
Y203641D01*
G75*
G02*
X347258Y206082I-4577J2441D01*
G01*
G75*
G02*
X357022Y208523I5187J0D01*
G01*
Y253641D01*
G75*
G02*
X347258Y256082I-4577J2441D01*
G01*
G75*
G02*
X357022Y258523I5187J0D01*
G01*
Y258583D01*
G75*
G02*
X359522Y261083I2500J0D01*
G01*
X384522D01*
G75*
G03*
X387022Y263583I0J2500D01*
G01*
Y288583D01*
G75*
G02*
X389522Y291083I2500J0D01*
G01*
X437022D01*
G75*
G03*
X439522Y293583I0J2500D01*
G01*
Y328583D01*
G75*
G03*
X437022Y331083I-2500J0D01*
G01*
X433271D01*
G75*
G02*
X431698I-786J4725D01*
G01*
X423271D01*
G75*
G02*
X421698I-786J4725D01*
G01*
X413271D01*
G75*
G02*
X411698I-786J4725D01*
G01*
X403271D01*
G75*
G02*
X401698I-786J4725D01*
G01*
X399522D01*
G75*
G02*
X397022Y333583I0J2500D01*
G01*
Y388583D01*
G75*
G02*
X399522Y391083I2500J0D01*
G01*
X437022D01*
G75*
G03*
X439522Y393583I0J2500D01*
G01*
Y448583D01*
G75*
G03*
X437516Y451033I-2500J0D01*
G01*
X300193D01*
G75*
G02*
X299846Y451083I0J1250D01*
G01*
X62123D01*
G75*
G03*
X59953Y449825I0J-2500D01*
G01*
X305772Y304887D02*
G75*
G02*
X309577Y301082I0J-3805D01*
G01*
G75*
G02*
X305772Y297277I-3805J0D01*
G01*
G75*
G02*
X301967Y301082I0J3805D01*
G01*
G75*
G02*
X305772Y304887I3805J0D01*
G01*
Y324887D02*
G75*
G02*
X309577Y321082I0J-3805D01*
G01*
G75*
G02*
X305772Y317277I-3805J0D01*
G01*
G75*
G02*
X301967Y321082I0J3805D01*
G01*
G75*
G02*
X305772Y324887I3805J0D01*
G01*
X305794Y404887D02*
G75*
G02*
X309600Y401082I0J-3805D01*
G01*
G75*
G02*
X305794Y397277I-3805J0D01*
G01*
G75*
G02*
X301989Y401082I0J3805D01*
G01*
G75*
G02*
X305794Y404887I3805J0D01*
G01*
Y424887D02*
G75*
G02*
X309600Y421082I0J-3805D01*
G01*
G75*
G02*
X305794Y417277I-3805J0D01*
G01*
G75*
G02*
X301989Y421082I0J3805D01*
G01*
G75*
G02*
X305794Y424887I3805J0D01*
G01*
X315772Y304887D02*
G75*
G02*
X319577Y301082I0J-3805D01*
G01*
G75*
G02*
X315772Y297277I-3805J0D01*
G01*
G75*
G02*
X311967Y301082I0J3805D01*
G01*
G75*
G02*
X315772Y304887I3805J0D01*
G01*
Y324887D02*
G75*
G02*
X319577Y321082I0J-3805D01*
G01*
G75*
G02*
X315772Y317277I-3805J0D01*
G01*
G75*
G02*
X311967Y321082I0J3805D01*
G01*
G75*
G02*
X315772Y324887I3805J0D01*
G01*
X315794Y404887D02*
G75*
G02*
X319600Y401082I0J-3805D01*
G01*
G75*
G02*
X315794Y397277I-3805J0D01*
G01*
G75*
G02*
X311989Y401082I0J3805D01*
G01*
G75*
G02*
X315794Y404887I3805J0D01*
G01*
Y424887D02*
G75*
G02*
X319600Y421082I0J-3805D01*
G01*
G75*
G02*
X315794Y417277I-3805J0D01*
G01*
G75*
G02*
X311989Y421082I0J3805D01*
G01*
G75*
G02*
X315794Y424887I3805J0D01*
G01*
X325772Y304887D02*
G75*
G02*
X329577Y301082I0J-3805D01*
G01*
G75*
G02*
X325772Y297277I-3805J0D01*
G01*
G75*
G02*
X321967Y301082I0J3805D01*
G01*
G75*
G02*
X325772Y304887I3805J0D01*
G01*
Y324887D02*
G75*
G02*
X329577Y321082I0J-3805D01*
G01*
G75*
G02*
X325772Y317277I-3805J0D01*
G01*
G75*
G02*
X321967Y321082I0J3805D01*
G01*
G75*
G02*
X325772Y324887I3805J0D01*
G01*
X325794Y404887D02*
G75*
G02*
X329600Y401082I0J-3805D01*
G01*
G75*
G02*
X325794Y397277I-3805J0D01*
G01*
G75*
G02*
X321989Y401082I0J3805D01*
G01*
G75*
G02*
X325794Y404887I3805J0D01*
G01*
Y424887D02*
G75*
G02*
X329600Y421082I0J-3805D01*
G01*
G75*
G02*
X325794Y417277I-3805J0D01*
G01*
G75*
G02*
X321989Y421082I0J3805D01*
G01*
G75*
G02*
X325794Y424887I3805J0D01*
G01*
X335772Y304887D02*
G75*
G02*
X339577Y301082I0J-3805D01*
G01*
G75*
G02*
X335772Y297277I-3805J0D01*
G01*
G75*
G02*
X331967Y301082I0J3805D01*
G01*
G75*
G02*
X335772Y304887I3805J0D01*
G01*
Y324887D02*
G75*
G02*
X339577Y321082I0J-3805D01*
G01*
G75*
G02*
X335772Y317277I-3805J0D01*
G01*
G75*
G02*
X331967Y321082I0J3805D01*
G01*
G75*
G02*
X335772Y324887I3805J0D01*
G01*
X335794Y404887D02*
G75*
G02*
X339600Y401082I0J-3805D01*
G01*
G75*
G02*
X335794Y397277I-3805J0D01*
G01*
G75*
G02*
X331989Y401082I0J3805D01*
G01*
G75*
G02*
X335794Y404887I3805J0D01*
G01*
Y424887D02*
G75*
G02*
X339600Y421082I0J-3805D01*
G01*
G75*
G02*
X335794Y417277I-3805J0D01*
G01*
G75*
G02*
X331989Y421082I0J3805D01*
G01*
G75*
G02*
X335794Y424887I3805J0D01*
G01*
X345794D02*
G75*
G02*
X349600Y421082I0J-3805D01*
G01*
G75*
G02*
X345794Y417277I-3805J0D01*
G01*
G75*
G02*
X341989Y421082I0J3805D01*
G01*
G75*
G02*
X345794Y424887I3805J0D01*
G01*
X341989Y401082D02*
G75*
G02*
X349600I3805J0D01*
G01*
G75*
G02*
X349126Y399243I-3806J0D01*
G01*
G75*
G02*
X349113Y399219I-1028J550D01*
G01*
X347011Y395477D01*
Y361083D01*
G75*
G02*
X346672Y360266I-1154J0D01*
G01*
X341926Y355519D01*
Y292333D01*
G75*
G02*
X341586Y291516I-1154J0D01*
G01*
X337839Y287769D01*
G75*
G02*
X337022Y287429I-817J814D01*
G01*
X252500D01*
X252093Y287022D01*
G75*
G02*
X253098Y286741I-71J-2189D01*
G01*
G75*
G02*
X253117Y286730I-575J-1044D01*
G01*
X254406Y285986D01*
X337794D01*
X344619Y292811D01*
Y295470D01*
X342493Y299151D01*
G75*
G02*
X345772Y304887I3279J1931D01*
G01*
G75*
G02*
X349051Y299151I0J-3806D01*
G01*
X346926Y295470D01*
Y292333D01*
G75*
G02*
X346586Y291516I-1154J0D01*
G01*
X339089Y284019D01*
G75*
G02*
X338272Y283679I-817J814D01*
G01*
X254406D01*
X253117Y282935D01*
G75*
G02*
X253098Y282924I-594J1034D01*
G01*
G75*
G02*
X250147Y283699I-1076J1908D01*
G01*
G75*
G02*
X246081Y284833I-1875J1133D01*
G01*
G75*
G02*
X247732Y286956I2191J0D01*
G01*
X249142Y287334D01*
X251205Y289397D01*
G75*
G02*
X252022Y289736I817J-814D01*
G01*
X336544D01*
X339619Y292811D01*
Y355997D01*
G75*
G02*
X339958Y356814I1154J0D01*
G01*
X344704Y361561D01*
Y395463D01*
X342522Y399141D01*
G75*
G02*
X342509Y399161I997J597D01*
G01*
G75*
G02*
X341989Y401081I3285J1920D01*
G01*
Y401082D01*
X345772Y324887D02*
G75*
G02*
X349577Y321082I0J-3805D01*
G01*
G75*
G02*
X345772Y317277I-3805J0D01*
G01*
G75*
G02*
X341967Y321082I0J3805D01*
G01*
G75*
G02*
X345772Y324887I3805J0D01*
G01*
X371920Y369976D02*
X379624D01*
Y362272D01*
X373552D01*
X369426Y358145D01*
Y331561D01*
X371586Y329400D01*
G75*
G02*
X371926Y328583I-814J-817D01*
G01*
Y283583D01*
G75*
G02*
X371586Y282766I-1154J0D01*
G01*
X357298Y268478D01*
G75*
G02*
X356481Y268138I-817J814D01*
G01*
X266824D01*
G75*
G02*
X266935Y268080I-966J-1968D01*
G01*
G75*
G02*
X266954Y268069I-575J-1044D01*
G01*
X268243Y267325D01*
X371920D01*
Y269882D01*
X379624D01*
Y262177D01*
X371920D01*
Y265018D01*
X268243D01*
X266954Y264274D01*
G75*
G02*
X266935Y264263I-594J1034D01*
G01*
G75*
G02*
X263877Y267106I-1076J1908D01*
G01*
G75*
G02*
X261546Y269292I-140J2187D01*
G01*
G75*
G02*
X264813Y271200I2191J0D01*
G01*
G75*
G02*
X264832Y271189I-575J-1044D01*
G01*
X266121Y270445D01*
X356003D01*
X369619Y284061D01*
Y328105D01*
X367458Y330266D01*
G75*
G02*
X367119Y331083I814J817D01*
G01*
Y358623D01*
G75*
G02*
X367458Y359440I1154J0D01*
G01*
X371920Y363902D01*
Y369976D01*
X375772Y324887D02*
G75*
G02*
X379577Y321082I0J-3805D01*
G01*
G75*
G02*
X375772Y317277I-3805J0D01*
G01*
G75*
G02*
X371967Y321082I0J3805D01*
G01*
G75*
G02*
X375772Y324887I3805J0D01*
G01*
X376926Y279882D02*
X379624D01*
Y272177D01*
X371920D01*
Y279882D01*
X374619D01*
Y295470D01*
X372493Y299151D01*
G75*
G02*
X375772Y304887I3279J1931D01*
G01*
G75*
G02*
X379051Y299151I0J-3806D01*
G01*
X376926Y295470D01*
Y279882D01*
X355772Y304887D02*
G75*
G02*
X359577Y301082I0J-3805D01*
G01*
G75*
G02*
X355772Y297277I-3805J0D01*
G01*
G75*
G02*
X351967Y301082I0J3805D01*
G01*
G75*
G02*
X355772Y304887I3805J0D01*
G01*
Y324887D02*
G75*
G02*
X359577Y321082I0J-3805D01*
G01*
G75*
G02*
X355772Y317277I-3805J0D01*
G01*
G75*
G02*
X351967Y321082I0J3805D01*
G01*
G75*
G02*
X355772Y324887I3805J0D01*
G01*
X355794Y404887D02*
G75*
G02*
X359600Y401082I0J-3805D01*
G01*
G75*
G02*
X355794Y397277I-3805J0D01*
G01*
G75*
G02*
X351989Y401082I0J3805D01*
G01*
G75*
G02*
X355794Y404887I3805J0D01*
G01*
Y424887D02*
G75*
G02*
X359600Y421082I0J-3805D01*
G01*
G75*
G02*
X355794Y417277I-3805J0D01*
G01*
G75*
G02*
X351989Y421082I0J3805D01*
G01*
G75*
G02*
X355794Y424887I3805J0D01*
G01*
X365772Y304887D02*
G75*
G02*
X369577Y301082I0J-3805D01*
G01*
G75*
G02*
X365772Y297277I-3805J0D01*
G01*
G75*
G02*
X361967Y301082I0J3805D01*
G01*
G75*
G02*
X365772Y304887I3805J0D01*
G01*
Y324887D02*
G75*
G02*
X369577Y321082I0J-3805D01*
G01*
G75*
G02*
X365772Y317277I-3805J0D01*
G01*
G75*
G02*
X361967Y321082I0J3805D01*
G01*
G75*
G02*
X365772Y324887I3805J0D01*
G01*
X365794Y404887D02*
G75*
G02*
X369600Y401082I0J-3805D01*
G01*
G75*
G02*
X365794Y397277I-3805J0D01*
G01*
G75*
G02*
X361989Y401082I0J3805D01*
G01*
G75*
G02*
X365794Y404887I3805J0D01*
G01*
Y424887D02*
G75*
G02*
X369600Y421082I0J-3805D01*
G01*
G75*
G02*
X365794Y417277I-3805J0D01*
G01*
G75*
G02*
X361989Y421082I0J3805D01*
G01*
G75*
G02*
X365794Y424887I3805J0D01*
G01*
X371920Y379976D02*
X379624D01*
Y372272D01*
X371920D01*
Y379976D01*
X375794Y404887D02*
G75*
G02*
X379600Y401082I0J-3805D01*
G01*
G75*
G02*
X375794Y397277I-3805J0D01*
G01*
G75*
G02*
X371989Y401082I0J3805D01*
G01*
G75*
G02*
X375794Y404887I3805J0D01*
G01*
Y424887D02*
G75*
G02*
X379600Y421082I0J-3805D01*
G01*
G75*
G02*
X375794Y417277I-3805J0D01*
G01*
G75*
G02*
X371989Y421082I0J3805D01*
G01*
G75*
G02*
X375794Y424887I3805J0D01*
G01*
X385772Y304887D02*
G75*
G02*
X389577Y301082I0J-3805D01*
G01*
G75*
G02*
X385772Y297277I-3805J0D01*
G01*
G75*
G02*
X381967Y301082I0J3805D01*
G01*
G75*
G02*
X385772Y304887I3805J0D01*
G01*
Y324887D02*
G75*
G02*
X389577Y321082I0J-3805D01*
G01*
G75*
G02*
X385772Y317277I-3805J0D01*
G01*
G75*
G02*
X381967Y321082I0J3805D01*
G01*
G75*
G02*
X385772Y324887I3805J0D01*
G01*
X385794Y404887D02*
G75*
G02*
X389600Y401082I0J-3805D01*
G01*
G75*
G02*
X385794Y397277I-3805J0D01*
G01*
G75*
G02*
X381989Y401082I0J3805D01*
G01*
G75*
G02*
X385794Y404887I3805J0D01*
G01*
Y424887D02*
G75*
G02*
X389600Y421082I0J-3805D01*
G01*
G75*
G02*
X385794Y417277I-3805J0D01*
G01*
G75*
G02*
X381989Y421082I0J3805D01*
G01*
G75*
G02*
X385794Y424887I3805J0D01*
G01*
X407970Y411082D02*
G75*
G02*
X431139I11585J0D01*
G01*
G75*
G02*
X407970I-11585J0D01*
G01*
X100450D02*
G75*
G02*
X123619I11585J0D01*
G01*
G75*
G02*
X100450I-11585J0D01*
G01*
X131920Y269760D02*
X139624D01*
Y262055D01*
X131920D01*
Y269760D01*
X149051Y323013D02*
G75*
G02*
X149577Y321083I-3277J-1930D01*
G01*
G75*
G02*
X147013Y317485I-3806J0D01*
G01*
G75*
G02*
X147004Y317482I-446J1267D01*
G01*
X143746Y316367D01*
X137374Y309995D01*
Y279760D01*
X139624D01*
Y272055D01*
X131920D01*
Y279760D01*
X134170D01*
Y310659D01*
G75*
G02*
X134641Y311794I1602J0D01*
G01*
X141398Y318550D01*
X142034Y321792D01*
G75*
G02*
X142493Y323013I3736J-709D01*
G01*
X144170Y325917D01*
Y334315D01*
X134641Y343844D01*
G75*
G02*
X134170Y344979I1131J1135D01*
G01*
Y362272D01*
X131920D01*
Y369976D01*
X139624D01*
Y362272D01*
X137374D01*
Y345643D01*
X146903Y336114D01*
G75*
G02*
X147374Y334979I-1131J-1135D01*
G01*
Y325917D01*
X149051Y323013D01*
X145772Y304887D02*
G75*
G02*
X149577Y301082I0J-3805D01*
G01*
G75*
G02*
X145772Y297277I-3805J0D01*
G01*
G75*
G02*
X141967Y301082I0J3805D01*
G01*
G75*
G02*
X145772Y304887I3805J0D01*
G01*
X131920Y379976D02*
X139624D01*
Y372272D01*
X131920D01*
Y379976D01*
X145794Y404887D02*
G75*
G02*
X149600Y401082I0J-3805D01*
G01*
G75*
G02*
X145794Y397277I-3805J0D01*
G01*
G75*
G02*
X141989Y401082I0J3805D01*
G01*
G75*
G02*
X145794Y404887I3805J0D01*
G01*
Y424887D02*
G75*
G02*
X149600Y421082I0J-3805D01*
G01*
G75*
G02*
X145794Y417277I-3805J0D01*
G01*
G75*
G02*
X141989Y421082I0J3805D01*
G01*
G75*
G02*
X145794Y424887I3805J0D01*
G01*
X155772Y304887D02*
G75*
G02*
X159577Y301082I0J-3805D01*
G01*
G75*
G02*
X155772Y297277I-3805J0D01*
G01*
G75*
G02*
X151967Y301082I0J3805D01*
G01*
G75*
G02*
X155772Y304887I3805J0D01*
G01*
Y324887D02*
G75*
G02*
X159577Y321082I0J-3805D01*
G01*
G75*
G02*
X155772Y317277I-3805J0D01*
G01*
G75*
G02*
X151967Y321082I0J3805D01*
G01*
G75*
G02*
X155772Y324887I3805J0D01*
G01*
X155794Y404887D02*
G75*
G02*
X159600Y401082I0J-3805D01*
G01*
G75*
G02*
X155794Y397277I-3805J0D01*
G01*
G75*
G02*
X151989Y401082I0J3805D01*
G01*
G75*
G02*
X155794Y404887I3805J0D01*
G01*
Y424887D02*
G75*
G02*
X159600Y421082I0J-3805D01*
G01*
G75*
G02*
X155794Y417277I-3805J0D01*
G01*
G75*
G02*
X151989Y421082I0J3805D01*
G01*
G75*
G02*
X155794Y424887I3805J0D01*
G01*
X165772Y304887D02*
G75*
G02*
X169577Y301082I0J-3805D01*
G01*
G75*
G02*
X165772Y297277I-3805J0D01*
G01*
G75*
G02*
X161967Y301082I0J3805D01*
G01*
G75*
G02*
X165772Y304887I3805J0D01*
G01*
X261723Y161531D02*
X262037D01*
Y157464D01*
X252458D01*
Y160978D01*
X248273D01*
G75*
G02*
X247315Y161376I0J1352D01*
G01*
X240212Y168480D01*
X218548D01*
Y156083D01*
G75*
G02*
X217445Y154980I-1102J0D01*
G01*
X216119D01*
G75*
G02*
X215039Y155862I0J1102D01*
G01*
X212378D01*
Y155465D01*
X207516D01*
Y155862D01*
X204856D01*
G75*
G02*
X203776Y154980I-1080J220D01*
G01*
X198359D01*
G75*
G02*
X197418Y155508I0J1102D01*
G01*
X192472D01*
G75*
G02*
X191532Y154980I-941J575D01*
G01*
X188359D01*
G75*
G02*
X187418Y155508I0J1102D01*
G01*
X182472D01*
G75*
G02*
X181532Y154980I-941J575D01*
G01*
X172446D01*
G75*
G02*
X171666Y155303I-1J1102D01*
G01*
X169166Y157803D01*
G75*
G02*
X168843Y158583I780J780D01*
G01*
Y168583D01*
G75*
G02*
X169166Y169362I1102J0D01*
G01*
X171666Y171862D01*
G75*
G02*
X172446Y172185I780J-780D01*
G01*
X214944D01*
G75*
G02*
X215725Y171862I1J-1102D01*
G01*
X216402Y171185D01*
X240772D01*
G75*
G02*
X241730Y170788I0J-1352D01*
G01*
X248833Y163683D01*
X254041D01*
G75*
G02*
X254098Y163684I57J-1356D01*
G01*
X259945D01*
G75*
G02*
X261261Y162644I0J-1352D01*
G01*
G75*
G02*
X261550Y161880I-864J-764D01*
G01*
G75*
G02*
Y161877I-607J-2D01*
G01*
Y161829D01*
X261723Y161531D01*
X221532Y161551D02*
X228359D01*
Y155110D01*
X221532D01*
Y161551D01*
X231532D02*
X238359D01*
Y155110D01*
X231532D01*
Y161551D01*
X204174Y150087D02*
X208241D01*
Y144839D01*
X204174D01*
Y150087D01*
X191532Y154551D02*
X198359D01*
Y148110D01*
X191532D01*
Y154551D01*
X181532D02*
X188359D01*
Y148110D01*
X181532D01*
Y154551D01*
X165772Y324887D02*
G75*
G02*
X169577Y321082I0J-3805D01*
G01*
G75*
G02*
X165772Y317277I-3805J0D01*
G01*
G75*
G02*
X161967Y321082I0J3805D01*
G01*
G75*
G02*
X165772Y324887I3805J0D01*
G01*
X165794Y404887D02*
G75*
G02*
X169600Y401082I0J-3805D01*
G01*
G75*
G02*
X165794Y397277I-3805J0D01*
G01*
G75*
G02*
X161989Y401082I0J3805D01*
G01*
G75*
G02*
X165794Y404887I3805J0D01*
G01*
Y424887D02*
G75*
G02*
X169600Y421082I0J-3805D01*
G01*
G75*
G02*
X165794Y417277I-3805J0D01*
G01*
G75*
G02*
X161989Y421082I0J3805D01*
G01*
G75*
G02*
X165794Y424887I3805J0D01*
G01*
X171569Y321082D02*
G75*
G02*
X179975I4203J0D01*
G01*
G75*
G02*
X171569I-4203J0D01*
G01*
X175772Y304887D02*
G75*
G02*
X179577Y301082I0J-3805D01*
G01*
G75*
G02*
X175772Y297277I-3805J0D01*
G01*
G75*
G02*
X171967Y301082I0J3805D01*
G01*
G75*
G02*
X175772Y304887I3805J0D01*
G01*
X171592Y421082D02*
G75*
G02*
X179997I4203J0D01*
G01*
G75*
G02*
X171592I-4203J0D01*
G01*
X175794Y404887D02*
G75*
G02*
X179600Y401082I0J-3805D01*
G01*
G75*
G02*
X175794Y397277I-3805J0D01*
G01*
G75*
G02*
X171989Y401082I0J3805D01*
G01*
G75*
G02*
X175794Y404887I3805J0D01*
G01*
X181569Y321082D02*
G75*
G02*
X189975I4203J0D01*
G01*
G75*
G02*
X181569I-4203J0D01*
G01*
X185772Y304887D02*
G75*
G02*
X189577Y301082I0J-3805D01*
G01*
G75*
G02*
X185772Y297277I-3805J0D01*
G01*
G75*
G02*
X181967Y301082I0J3805D01*
G01*
G75*
G02*
X185772Y304887I3805J0D01*
G01*
X181592Y421082D02*
G75*
G02*
X189997I4203J0D01*
G01*
G75*
G02*
X181592I-4203J0D01*
G01*
X185794Y404887D02*
G75*
G02*
X189600Y401082I0J-3805D01*
G01*
G75*
G02*
X185794Y397277I-3805J0D01*
G01*
G75*
G02*
X181989Y401082I0J3805D01*
G01*
G75*
G02*
X185794Y404887I3805J0D01*
G01*
X195772Y304887D02*
G75*
G02*
X199577Y301082I0J-3805D01*
G01*
G75*
G02*
X195772Y297277I-3805J0D01*
G01*
G75*
G02*
X191967Y301082I0J3805D01*
G01*
G75*
G02*
X195772Y304887I3805J0D01*
G01*
Y324887D02*
G75*
G02*
X199577Y321082I0J-3805D01*
G01*
G75*
G02*
X195772Y317277I-3805J0D01*
G01*
G75*
G02*
X191967Y321082I0J3805D01*
G01*
G75*
G02*
X195772Y324887I3805J0D01*
G01*
X195794Y404887D02*
G75*
G02*
X199600Y401082I0J-3805D01*
G01*
G75*
G02*
X195794Y397277I-3805J0D01*
G01*
G75*
G02*
X191989Y401082I0J3805D01*
G01*
G75*
G02*
X195794Y404887I3805J0D01*
G01*
Y424887D02*
G75*
G02*
X199600Y421082I0J-3805D01*
G01*
G75*
G02*
X195794Y417277I-3805J0D01*
G01*
G75*
G02*
X191989Y421082I0J3805D01*
G01*
G75*
G02*
X195794Y424887I3805J0D01*
G01*
X205772Y304887D02*
G75*
G02*
X209577Y301082I0J-3805D01*
G01*
G75*
G02*
X205772Y297277I-3805J0D01*
G01*
G75*
G02*
X201967Y301082I0J3805D01*
G01*
G75*
G02*
X205772Y304887I3805J0D01*
G01*
Y324887D02*
G75*
G02*
X209577Y321082I0J-3805D01*
G01*
G75*
G02*
X205772Y317277I-3805J0D01*
G01*
G75*
G02*
X201967Y321082I0J3805D01*
G01*
G75*
G02*
X205772Y324887I3805J0D01*
G01*
X205794Y404887D02*
G75*
G02*
X209600Y401082I0J-3805D01*
G01*
G75*
G02*
X205794Y397277I-3805J0D01*
G01*
G75*
G02*
X201989Y401082I0J3805D01*
G01*
G75*
G02*
X205794Y404887I3805J0D01*
G01*
Y424887D02*
G75*
G02*
X209600Y421082I0J-3805D01*
G01*
G75*
G02*
X205794Y417277I-3805J0D01*
G01*
G75*
G02*
X201989Y421082I0J3805D01*
G01*
G75*
G02*
X205794Y424887I3805J0D01*
G01*
X215772Y304887D02*
G75*
G02*
X219577Y301082I0J-3805D01*
G01*
G75*
G02*
X215772Y297277I-3805J0D01*
G01*
G75*
G02*
X211967Y301082I0J3805D01*
G01*
G75*
G02*
X215772Y304887I3805J0D01*
G01*
Y324887D02*
G75*
G02*
X219577Y321082I0J-3805D01*
G01*
G75*
G02*
X215772Y317277I-3805J0D01*
G01*
G75*
G02*
X211967Y321082I0J3805D01*
G01*
G75*
G02*
X215772Y324887I3805J0D01*
G01*
X215794Y404887D02*
G75*
G02*
X219600Y401082I0J-3805D01*
G01*
G75*
G02*
X215794Y397277I-3805J0D01*
G01*
G75*
G02*
X211989Y401082I0J3805D01*
G01*
G75*
G02*
X215794Y404887I3805J0D01*
G01*
Y424887D02*
G75*
G02*
X219600Y421082I0J-3805D01*
G01*
G75*
G02*
X215794Y417277I-3805J0D01*
G01*
G75*
G02*
X211989Y421082I0J3805D01*
G01*
G75*
G02*
X215794Y424887I3805J0D01*
G01*
X225772Y304887D02*
G75*
G02*
X229577Y301082I0J-3805D01*
G01*
G75*
G02*
X225772Y297277I-3805J0D01*
G01*
G75*
G02*
X221967Y301082I0J3805D01*
G01*
G75*
G02*
X225772Y304887I3805J0D01*
G01*
Y324887D02*
G75*
G02*
X229577Y321082I0J-3805D01*
G01*
G75*
G02*
X225772Y317277I-3805J0D01*
G01*
G75*
G02*
X221967Y321082I0J3805D01*
G01*
G75*
G02*
X225772Y324887I3805J0D01*
G01*
X225794Y404887D02*
G75*
G02*
X229600Y401082I0J-3805D01*
G01*
G75*
G02*
X225794Y397277I-3805J0D01*
G01*
G75*
G02*
X221989Y401082I0J3805D01*
G01*
G75*
G02*
X225794Y404887I3805J0D01*
G01*
Y424887D02*
G75*
G02*
X229600Y421082I0J-3805D01*
G01*
G75*
G02*
X225794Y417277I-3805J0D01*
G01*
G75*
G02*
X221989Y421082I0J3805D01*
G01*
G75*
G02*
X225794Y424887I3805J0D01*
G01*
X235772Y304887D02*
G75*
G02*
X239577Y301082I0J-3805D01*
G01*
G75*
G02*
X235772Y297277I-3805J0D01*
G01*
G75*
G02*
X231967Y301082I0J3805D01*
G01*
G75*
G02*
X235772Y304887I3805J0D01*
G01*
Y324887D02*
G75*
G02*
X239577Y321082I0J-3805D01*
G01*
G75*
G02*
X235772Y317277I-3805J0D01*
G01*
G75*
G02*
X231967Y321082I0J3805D01*
G01*
G75*
G02*
X235772Y324887I3805J0D01*
G01*
X235794Y404887D02*
G75*
G02*
X239600Y401082I0J-3805D01*
G01*
G75*
G02*
X235794Y397277I-3805J0D01*
G01*
G75*
G02*
X231989Y401082I0J3805D01*
G01*
G75*
G02*
X235794Y404887I3805J0D01*
G01*
Y424887D02*
G75*
G02*
X239600Y421082I0J-3805D01*
G01*
G75*
G02*
X235794Y417277I-3805J0D01*
G01*
G75*
G02*
X231989Y421082I0J3805D01*
G01*
G75*
G02*
X235794Y424887I3805J0D01*
G01*
X245772Y304887D02*
G75*
G02*
X249577Y301082I0J-3805D01*
G01*
G75*
G02*
X245772Y297277I-3805J0D01*
G01*
G75*
G02*
X241967Y301082I0J3805D01*
G01*
G75*
G02*
X245772Y304887I3805J0D01*
G01*
Y324887D02*
G75*
G02*
X249577Y321082I0J-3805D01*
G01*
G75*
G02*
X245772Y317277I-3805J0D01*
G01*
G75*
G02*
X241967Y321082I0J3805D01*
G01*
G75*
G02*
X245772Y324887I3805J0D01*
G01*
X245794Y404887D02*
G75*
G02*
X249600Y401082I0J-3805D01*
G01*
G75*
G02*
X245794Y397277I-3805J0D01*
G01*
G75*
G02*
X241989Y401082I0J3805D01*
G01*
G75*
G02*
X245794Y404887I3805J0D01*
G01*
Y424887D02*
G75*
G02*
X249600Y421082I0J-3805D01*
G01*
G75*
G02*
X245794Y417277I-3805J0D01*
G01*
G75*
G02*
X241989Y421082I0J3805D01*
G01*
G75*
G02*
X245794Y424887I3805J0D01*
G01*
X255772Y304887D02*
G75*
G02*
X259577Y301082I0J-3805D01*
G01*
G75*
G02*
X255772Y297277I-3805J0D01*
G01*
G75*
G02*
X251967Y301082I0J3805D01*
G01*
G75*
G02*
X255772Y304887I3805J0D01*
G01*
Y324887D02*
G75*
G02*
X259577Y321082I0J-3805D01*
G01*
G75*
G02*
X255772Y317277I-3805J0D01*
G01*
G75*
G02*
X251967Y321082I0J3805D01*
G01*
G75*
G02*
X255772Y324887I3805J0D01*
G01*
X255794Y404887D02*
G75*
G02*
X259600Y401082I0J-3805D01*
G01*
G75*
G02*
X255794Y397277I-3805J0D01*
G01*
G75*
G02*
X251989Y401082I0J3805D01*
G01*
G75*
G02*
X255794Y404887I3805J0D01*
G01*
Y424887D02*
G75*
G02*
X259600Y421082I0J-3805D01*
G01*
G75*
G02*
X255794Y417277I-3805J0D01*
G01*
G75*
G02*
X251989Y421082I0J3805D01*
G01*
G75*
G02*
X255794Y424887I3805J0D01*
G01*
X265772Y304887D02*
G75*
G02*
X269577Y301082I0J-3805D01*
G01*
G75*
G02*
X265772Y297277I-3805J0D01*
G01*
G75*
G02*
X261967Y301082I0J3805D01*
G01*
G75*
G02*
X265772Y304887I3805J0D01*
G01*
Y324887D02*
G75*
G02*
X269577Y321082I0J-3805D01*
G01*
G75*
G02*
X265772Y317277I-3805J0D01*
G01*
G75*
G02*
X261967Y321082I0J3805D01*
G01*
G75*
G02*
X265772Y324887I3805J0D01*
G01*
X265794Y404887D02*
G75*
G02*
X269600Y401082I0J-3805D01*
G01*
G75*
G02*
X265794Y397277I-3805J0D01*
G01*
G75*
G02*
X261989Y401082I0J3805D01*
G01*
G75*
G02*
X265794Y404887I3805J0D01*
G01*
Y424887D02*
G75*
G02*
X269600Y421082I0J-3805D01*
G01*
G75*
G02*
X265794Y417277I-3805J0D01*
G01*
G75*
G02*
X261989Y421082I0J3805D01*
G01*
G75*
G02*
X265794Y424887I3805J0D01*
G01*
X275772Y304887D02*
G75*
G02*
X279577Y301082I0J-3805D01*
G01*
G75*
G02*
X275772Y297277I-3805J0D01*
G01*
G75*
G02*
X271967Y301082I0J3805D01*
G01*
G75*
G02*
X275772Y304887I3805J0D01*
G01*
Y324887D02*
G75*
G02*
X279577Y321082I0J-3805D01*
G01*
G75*
G02*
X275772Y317277I-3805J0D01*
G01*
G75*
G02*
X271967Y321082I0J3805D01*
G01*
G75*
G02*
X275772Y324887I3805J0D01*
G01*
X275794Y404887D02*
G75*
G02*
X279600Y401082I0J-3805D01*
G01*
G75*
G02*
X275794Y397277I-3805J0D01*
G01*
G75*
G02*
X271989Y401082I0J3805D01*
G01*
G75*
G02*
X275794Y404887I3805J0D01*
G01*
Y424887D02*
G75*
G02*
X279600Y421082I0J-3805D01*
G01*
G75*
G02*
X275794Y417277I-3805J0D01*
G01*
G75*
G02*
X271989Y421082I0J3805D01*
G01*
G75*
G02*
X275794Y424887I3805J0D01*
G01*
X285772Y304887D02*
G75*
G02*
X289577Y301082I0J-3805D01*
G01*
G75*
G02*
X285772Y297277I-3805J0D01*
G01*
G75*
G02*
X281967Y301082I0J3805D01*
G01*
G75*
G02*
X285772Y304887I3805J0D01*
G01*
Y324887D02*
G75*
G02*
X289577Y321082I0J-3805D01*
G01*
G75*
G02*
X285772Y317277I-3805J0D01*
G01*
G75*
G02*
X281967Y321082I0J3805D01*
G01*
G75*
G02*
X285772Y324887I3805J0D01*
G01*
X285794Y404887D02*
G75*
G02*
X289600Y401082I0J-3805D01*
G01*
G75*
G02*
X285794Y397277I-3805J0D01*
G01*
G75*
G02*
X281989Y401082I0J3805D01*
G01*
G75*
G02*
X285794Y404887I3805J0D01*
G01*
Y424887D02*
G75*
G02*
X289600Y421082I0J-3805D01*
G01*
G75*
G02*
X285794Y417277I-3805J0D01*
G01*
G75*
G02*
X281989Y421082I0J3805D01*
G01*
G75*
G02*
X285794Y424887I3805J0D01*
G01*
X295772Y304887D02*
G75*
G02*
X299577Y301082I0J-3805D01*
G01*
G75*
G02*
X295772Y297277I-3805J0D01*
G01*
G75*
G02*
X291967Y301082I0J3805D01*
G01*
G75*
G02*
X295772Y304887I3805J0D01*
G01*
Y324887D02*
G75*
G02*
X299577Y321082I0J-3805D01*
G01*
G75*
G02*
X295772Y317277I-3805J0D01*
G01*
G75*
G02*
X291967Y321082I0J3805D01*
G01*
G75*
G02*
X295772Y324887I3805J0D01*
G01*
X295794Y404887D02*
G75*
G02*
X299600Y401082I0J-3805D01*
G01*
G75*
G02*
X295794Y397277I-3805J0D01*
G01*
G75*
G02*
X291989Y401082I0J3805D01*
G01*
G75*
G02*
X295794Y404887I3805J0D01*
G01*
Y424887D02*
G75*
G02*
X299600Y421082I0J-3805D01*
G01*
G75*
G02*
X295794Y417277I-3805J0D01*
G01*
G75*
G02*
X291989Y421082I0J3805D01*
G01*
G75*
G02*
X295794Y424887I3805J0D01*
G01*
X100428Y311082D02*
G75*
G02*
X123597I11585J0D01*
G01*
G75*
G02*
X100428I-11585J0D01*
G01*
X226124Y87935D02*
G75*
G02*
X230224Y83834I0J-4100D01*
G01*
G75*
G02*
X226124Y79734I-4100J0D01*
G01*
G75*
G02*
X222024Y83834I0J4100D01*
G01*
G75*
G02*
X226124Y87935I4100J0D01*
G01*
X291213Y110803D02*
X298044D01*
Y104362D01*
X291213D01*
Y110803D01*
X381754Y79817D02*
G75*
G02*
X386644Y71161I-5215J-8655D01*
G01*
G75*
G02*
X366435I-10104J0D01*
G01*
G75*
G02*
X370448Y79223I10104J0D01*
G01*
G75*
G02*
X366396Y86909I5265J7687D01*
G01*
G75*
G02*
X385030I9317J0D01*
G01*
G75*
G02*
X381754Y79817I-9317J0D01*
G01*
X407947Y311082D02*
G75*
G02*
X431117I11585J0D01*
G01*
G75*
G02*
X407947I-11585J0D01*
G01*
X159341Y68443D02*
G36*
X159341Y68443D02*
Y50297D01*
X159738Y49609D01*
G75*
G02*
X160064Y48833I-2910J-1678D01*
G01*
X161913D01*
G75*
G02*
X162239Y49609I3236J-902D01*
G01*
X162636Y50297D01*
Y52690D01*
G75*
G02*
X165989Y56043I3352J0D01*
G01*
X175989D01*
G75*
G02*
X179341Y52690I0J-3352D01*
G01*
Y50297D01*
X179738Y49609D01*
G75*
G02*
X180064Y48833I-2910J-1678D01*
G01*
X182131D01*
X184835Y53516D01*
Y53843D01*
G75*
G02*
X185174Y54660I1154J0D01*
G01*
X189948Y59434D01*
Y60109D01*
X189204Y61398D01*
G75*
G02*
X189193Y61417I293J177D01*
G01*
G75*
G02*
X188911Y62493I1915J1078D01*
G01*
G75*
G02*
X193293I2191J0D01*
G01*
G75*
G02*
X193010Y61417I-2198J2D01*
G01*
G75*
G02*
X192999Y61398I-304J158D01*
G01*
X192255Y60109D01*
Y58956D01*
G75*
G02*
X191916Y58139I-1154J0D01*
G01*
X187197Y53421D01*
X189846Y48833D01*
X192131D01*
X194835Y53516D01*
Y54986D01*
X194086Y56256D01*
G75*
G02*
X193778Y57376I1883J1120D01*
G01*
G75*
G02*
X195429Y59499I2191J0D01*
G01*
X196839Y59877D01*
X196892Y59931D01*
Y67835D01*
X196720Y68133D01*
X196406D01*
Y72200D01*
X205985D01*
Y68133D01*
X205671D01*
X205498Y67835D01*
Y67471D01*
X205621Y67348D01*
X209725D01*
G75*
G02*
X210542Y67009I0J-1154D01*
G01*
X211759Y65792D01*
G75*
G02*
X212099Y64975I-814J-817D01*
G01*
Y64752D01*
X212843Y63463D01*
G75*
G02*
X212854Y63444I-293J-177D01*
G01*
G75*
G02*
X213136Y62368I-1915J-1078D01*
G01*
G75*
G02*
X208754I-2191J0D01*
G01*
G75*
G02*
X209037Y63444I2198J-2D01*
G01*
G75*
G02*
X209048Y63463I304J-158D01*
G01*
X209698Y64591D01*
X209247Y65041D01*
X205143D01*
G75*
G02*
X204754Y65109I-1J1145D01*
G01*
X206803Y63060D01*
G75*
G02*
X207142Y62243I-814J-817D01*
G01*
Y59635D01*
X207886Y58346D01*
G75*
G02*
X207897Y58328I-293J-177D01*
G01*
G75*
G02*
X208180Y57251I-1915J-1078D01*
G01*
G75*
G02*
X207897Y56175I-2198J2D01*
G01*
G75*
G02*
X207886Y56156I-304J158D01*
G01*
X207142Y54867D01*
Y53516D01*
X209846Y48833D01*
X212131D01*
X214835Y53516D01*
Y55117D01*
X214091Y56406D01*
G75*
G02*
X214080Y56424I293J177D01*
G01*
G75*
G02*
X213798Y57501I1915J1078D01*
G01*
G75*
G02*
X214080Y58577I2198J-2D01*
G01*
G75*
G02*
X214091Y58596I304J-158D01*
G01*
X214835Y59885D01*
Y62948D01*
G75*
G02*
X215174Y63765I1154J0D01*
G01*
X218124Y66715D01*
Y67835D01*
X217952Y68133D01*
X217638D01*
Y72200D01*
X227217D01*
Y68133D01*
X226903D01*
X226730Y67835D01*
Y64503D01*
X227587Y63646D01*
X228654D01*
X229943Y64391D01*
G75*
G02*
X229962Y64401I177J-293D01*
G01*
G75*
G02*
X230137Y64490I1113J-1980D01*
G01*
G75*
G02*
X228848Y66487I902J1997D01*
G01*
G75*
G02*
X232224Y68329I2191J0D01*
G01*
X232246Y68315D01*
X233456Y67515D01*
X265381D01*
X265678Y67812D01*
G75*
G02*
X263806Y69791I311J2169D01*
G01*
X263181Y69167D01*
G75*
G02*
X262364Y68828I-817J814D01*
G01*
X261254D01*
X259965Y68083D01*
G75*
G02*
X259946Y68073I-177J293D01*
G01*
G75*
G02*
X256679Y69981I-1076J1908D01*
G01*
G75*
G02*
X256971Y71075I2191J0D01*
G01*
X256477D01*
X256254Y70852D01*
X255876Y69441D01*
G75*
G02*
X251562Y69981I-2123J540D01*
G01*
G75*
G02*
X253213Y72104I2191J0D01*
G01*
X254622Y72482D01*
X255183Y73044D01*
G75*
G02*
X255372Y73197I831J-833D01*
G01*
X247741D01*
X245146Y70602D01*
X244769Y69191D01*
G75*
G02*
X240454Y69731I-2123J540D01*
G01*
G75*
G02*
X242105Y71855I2191J0D01*
G01*
X243514Y72232D01*
X246349Y75068D01*
X242658D01*
X241369Y74324D01*
G75*
G02*
X241350Y74313I-177J293D01*
G01*
G75*
G02*
X238083Y76221I-1076J1908D01*
G01*
G75*
G02*
X238368Y77302I2191J0D01*
G01*
X236348Y75282D01*
G75*
G02*
X235531Y74943I-817J814D01*
G01*
X234047D01*
X232758Y74199D01*
G75*
G02*
X232739Y74188I-177J293D01*
G01*
G75*
G02*
X229472Y76096I-1076J1909D01*
G01*
G75*
G02*
X232739Y78005I2191J0D01*
G01*
G75*
G02*
X232758Y77994I-158J-304D01*
G01*
X234047Y77250D01*
X235054D01*
X237335Y79531D01*
G75*
G02*
X238152Y79871I817J-814D01*
G01*
X243997D01*
G75*
G02*
X241626Y83834I2127J3963D01*
G01*
X240224D01*
G75*
G02*
X236124Y79734I-4100J0D01*
G01*
G75*
G02*
X232024Y83834I0J4100D01*
G01*
X230224D01*
G75*
G02*
Y83833I-5013J0D01*
G01*
G75*
G02*
X226124Y79734I-4100J0D01*
G01*
G75*
G02*
X222024Y83833I0J4100D01*
G01*
G75*
G02*
Y83834I5013J0D01*
G01*
X220224D01*
G75*
G02*
X217131Y79859I-4101J1D01*
G01*
X212746Y78684D01*
X224945D01*
G75*
G02*
X226260Y77648I0J-1353D01*
G01*
X226391Y77517D01*
G75*
G02*
X226721Y76845I-815J-818D01*
G01*
X226903Y76531D01*
X227217D01*
Y72464D01*
X217638D01*
Y75980D01*
X205985D01*
Y72464D01*
X196406D01*
Y75980D01*
X180008D01*
X178672Y75208D01*
X178636Y75188D01*
G75*
G02*
X174993Y77332I-1191J2144D01*
G01*
G75*
G02*
X178636Y79476I2452J0D01*
G01*
X178672Y79456D01*
X180008Y78684D01*
X201734D01*
X200771Y79648D01*
G75*
G02*
X200431Y80465I814J817D01*
G01*
Y83834D01*
X172048D01*
Y82539D01*
G75*
G02*
X171063Y80165I-3352J0D01*
G01*
X159341Y68443D01*
G37*
X210224Y83834D02*
G36*
X210224Y83834D02*
G75*
G02*
X208318Y80370I-4100J0D01*
G01*
X210951D01*
X211879Y83834D01*
X210224D01*
G37*
X224565Y63471D02*
G36*
X224565Y63471D02*
Y60522D01*
X225085Y60002D01*
X226495Y59624D01*
G75*
G02*
X228146Y57501I-540J-2123D01*
G01*
G75*
G02*
X227872Y56440I-2191J0D01*
G01*
X227870Y56436D01*
X227142Y55127D01*
Y53516D01*
X229846Y48833D01*
X232131D01*
X234835Y53516D01*
Y55241D01*
X234091Y56530D01*
G75*
G02*
X234080Y56549I293J177D01*
G01*
G75*
G02*
X233798Y57626I1915J1078D01*
G01*
G75*
G02*
X238180I2191J0D01*
G01*
G75*
G02*
X237897Y56549I-2198J2D01*
G01*
G75*
G02*
X237886Y56530I-304J158D01*
G01*
X237142Y55241D01*
Y53516D01*
X239846Y48833D01*
X242131D01*
X244835Y53516D01*
Y55241D01*
X244091Y56530D01*
G75*
G02*
X244080Y56549I293J177D01*
G01*
G75*
G02*
X243798Y57626I1915J1078D01*
G01*
G75*
G02*
X248180I2191J0D01*
G01*
G75*
G02*
X247897Y56549I-2198J2D01*
G01*
G75*
G02*
X247886Y56530I-304J158D01*
G01*
X247142Y55241D01*
Y53516D01*
X249846Y48833D01*
X252131D01*
X254835Y53516D01*
Y55117D01*
X254091Y56406D01*
G75*
G02*
X254080Y56424I293J177D01*
G01*
G75*
G02*
X253798Y57501I1915J1078D01*
G01*
G75*
G02*
X258180I2191J0D01*
G01*
G75*
G02*
X257897Y56424I-2198J2D01*
G01*
G75*
G02*
X257886Y56406I-304J158D01*
G01*
X257142Y55117D01*
Y53516D01*
X259846Y48833D01*
X262131D01*
X264835Y53516D01*
Y55117D01*
X264091Y56406D01*
G75*
G02*
X264080Y56424I293J177D01*
G01*
G75*
G02*
X263798Y57501I1915J1078D01*
G01*
G75*
G02*
X268180I2191J0D01*
G01*
G75*
G02*
X267897Y56424I-2198J2D01*
G01*
G75*
G02*
X267886Y56406I-304J158D01*
G01*
X267142Y55117D01*
Y53516D01*
X269846Y48833D01*
X272131D01*
X274835Y53516D01*
Y55117D01*
X274091Y56406D01*
G75*
G02*
X274080Y56424I293J177D01*
G01*
G75*
G02*
X273798Y57501I1915J1078D01*
G01*
G75*
G02*
X278180I2191J0D01*
G01*
G75*
G02*
X277897Y56424I-2198J2D01*
G01*
G75*
G02*
X277886Y56406I-304J158D01*
G01*
X277142Y55117D01*
Y53516D01*
X279846Y48833D01*
X282131D01*
X284835Y53516D01*
Y55117D01*
X284091Y56406D01*
G75*
G02*
X284080Y56424I293J177D01*
G01*
G75*
G02*
X283798Y57501I1915J1078D01*
G01*
G75*
G02*
X288180I2191J0D01*
G01*
G75*
G02*
X287897Y56424I-2198J2D01*
G01*
G75*
G02*
X287886Y56406I-304J158D01*
G01*
X287142Y55117D01*
Y53516D01*
X289846Y48833D01*
X292131D01*
X294835Y53516D01*
Y55117D01*
X294091Y56406D01*
G75*
G02*
X294080Y56424I293J177D01*
G01*
G75*
G02*
X293798Y57501I1915J1078D01*
G01*
G75*
G02*
X298180I2191J0D01*
G01*
G75*
G02*
X297897Y56424I-2198J2D01*
G01*
G75*
G02*
X297886Y56406I-304J158D01*
G01*
X297142Y55117D01*
Y53516D01*
X299846Y48833D01*
X302131D01*
X304835Y53516D01*
Y55366D01*
X304091Y56655D01*
G75*
G02*
X304080Y56674I293J177D01*
G01*
G75*
G02*
X303798Y57750I1915J1078D01*
G01*
G75*
G02*
X308180I2191J0D01*
G01*
G75*
G02*
X307897Y56674I-2198J2D01*
G01*
G75*
G02*
X307886Y56655I-304J158D01*
G01*
X307142Y55366D01*
Y53516D01*
X309846Y48833D01*
X312131D01*
X314835Y53516D01*
Y55472D01*
X314072Y56697D01*
G75*
G02*
X313728Y57875I1850J1179D01*
G01*
G75*
G02*
X318110I2191J0D01*
G01*
Y57875D01*
G75*
G02*
X317844Y56828I-2196J1D01*
G01*
X317142Y55513D01*
Y53516D01*
X319846Y48833D01*
X322131D01*
X324835Y53516D01*
Y55741D01*
X324091Y57030D01*
G75*
G02*
X324080Y57048I293J177D01*
G01*
G75*
G02*
X323798Y58125I1915J1078D01*
G01*
G75*
G02*
X328180I2191J0D01*
G01*
G75*
G02*
X327897Y57048I-2198J2D01*
G01*
G75*
G02*
X327886Y57030I-304J158D01*
G01*
X327142Y55741D01*
Y53516D01*
X329846Y48833D01*
X332131D01*
X334835Y53516D01*
Y55616D01*
X334091Y56905D01*
G75*
G02*
X334080Y56924I293J177D01*
G01*
G75*
G02*
X333798Y58000I1915J1078D01*
G01*
G75*
G02*
X338180I2191J0D01*
G01*
G75*
G02*
X337897Y56924I-2198J2D01*
G01*
G75*
G02*
X337886Y56905I-304J158D01*
G01*
X337142Y55616D01*
Y53516D01*
X339846Y48833D01*
X342131D01*
X344835Y53516D01*
Y55741D01*
X344091Y57030D01*
G75*
G02*
X344080Y57048I293J177D01*
G01*
G75*
G02*
X343798Y58125I1915J1078D01*
G01*
G75*
G02*
X348180I2191J0D01*
G01*
G75*
G02*
X347897Y57048I-2198J2D01*
G01*
G75*
G02*
X347886Y57030I-304J158D01*
G01*
X347142Y55741D01*
Y53516D01*
X349846Y48833D01*
X352131D01*
X354835Y53516D01*
Y55865D01*
X354091Y57154D01*
G75*
G02*
X354080Y57173I293J177D01*
G01*
G75*
G02*
X353798Y58250I1915J1078D01*
G01*
G75*
G02*
X358180I2191J0D01*
G01*
G75*
G02*
X357897Y57173I-2198J2D01*
G01*
G75*
G02*
X357886Y57154I-304J158D01*
G01*
X357142Y55865D01*
Y53516D01*
X359846Y48833D01*
X362131D01*
X364835Y53516D01*
Y54011D01*
X363914Y54932D01*
X363282D01*
X361993Y54188D01*
G75*
G02*
X361974Y54178I-177J293D01*
G01*
G75*
G02*
X358707Y56086I-1076J1909D01*
G01*
G75*
G02*
X361974Y57994I2191J0D01*
G01*
G75*
G02*
X361993Y57983I-158J-304D01*
G01*
X363282Y57239D01*
X364392D01*
G75*
G02*
X365209Y56900I0J-1154D01*
G01*
X365946Y56163D01*
G75*
G02*
X369213Y57994I2190J-77D01*
G01*
G75*
G02*
X369231Y57983I-158J-304D01*
G01*
X370520Y57239D01*
X373938D01*
G75*
G02*
X374755Y56900I0J-1154D01*
G01*
X376803Y54852D01*
G75*
G02*
X377142Y54035I-814J-817D01*
G01*
Y53516D01*
X379846Y48833D01*
X382131D01*
X384835Y53516D01*
Y54915D01*
X384693Y55057D01*
X383686D01*
X382397Y54313D01*
G75*
G02*
X382378Y54302I-177J293D01*
G01*
G75*
G02*
X379111Y56211I-1076J1909D01*
G01*
G75*
G02*
X382378Y58119I2191J0D01*
G01*
G75*
G02*
X382397Y58108I-158J-304D01*
G01*
X383686Y57364D01*
X385170D01*
G75*
G02*
X385987Y57025I0J-1154D01*
G01*
X386803Y56209D01*
G75*
G02*
X387142Y55393I-814J-817D01*
G01*
Y53516D01*
X389846Y48833D01*
X392339D01*
Y55807D01*
G75*
G02*
Y55808I3470J0D01*
G01*
G75*
G02*
X394807Y58276I2469J0D01*
G01*
X397022D01*
Y83834D01*
X384507D01*
G75*
G02*
X381754Y79817I-8796J3076D01*
G01*
G75*
G02*
X386644Y71161I-5215J-8655D01*
G01*
G75*
G02*
X366435I-10104J0D01*
G01*
G75*
G02*
X370448Y79223I10105J0D01*
G01*
G75*
G02*
X366919Y83834I5267J7687D01*
G01*
X283363D01*
Y79341D01*
G75*
G02*
X283023Y78524I-1154J0D01*
G01*
X273476Y68978D01*
X273099Y67569D01*
G75*
G02*
X268824Y67696I-2123J540D01*
G01*
X266676Y65548D01*
G75*
G02*
X265859Y65208I-817J814D01*
G01*
X233382D01*
X232039Y64537D01*
G75*
G02*
X231940Y64490I-1107J2171D01*
G01*
G75*
G02*
X233230Y62493I-902J-1997D01*
G01*
G75*
G02*
X229962Y60585I-2191J0D01*
G01*
G75*
G02*
X229943Y60595I158J304D01*
G01*
X228654Y61339D01*
X227109D01*
G75*
G02*
X226292Y61679I0J1154D01*
G01*
X224763Y63208D01*
G75*
G02*
X224565Y63471I812J816D01*
G01*
G37*
X250622Y83834D02*
G36*
X250622Y83834D02*
G75*
G02*
X248251Y79871I-4498J0D01*
G01*
X252024D01*
Y83834D01*
X250622D01*
G37*
X172048Y107583D02*
G36*
X172048Y107583D02*
Y83834D01*
X200431D01*
Y92653D01*
G75*
G02*
X200771Y93470I1154J0D01*
G01*
X204263Y96962D01*
G75*
G02*
X205080Y97301I817J-814D01*
G01*
X216458D01*
X216595Y97438D01*
Y103304D01*
G75*
G02*
X216934Y104120I1154J0D01*
G01*
X220396Y107583D01*
X172048D01*
G37*
X207278Y91676D02*
G36*
X207278Y91676D02*
Y90037D01*
X209649Y85929D01*
G75*
G02*
X210224Y83834I-3525J-2094D01*
G01*
X211879D01*
X212149Y84841D01*
G75*
G02*
X220224Y83834I3975J-1007D01*
G01*
X222024D01*
G75*
G02*
Y83835I5013J0D01*
G01*
G75*
G02*
X226124Y87935I4100J0D01*
G01*
G75*
G02*
X230224Y83835I0J-4100D01*
G01*
G75*
G02*
Y83834I-5013J0D01*
G01*
X232024D01*
G75*
G02*
X232599Y85929I4101J0D01*
G01*
X234970Y90037D01*
Y90553D01*
X233524Y91999D01*
X225797D01*
G75*
G02*
X224980Y92338I0J1154D01*
G01*
X221643Y95675D01*
G75*
G02*
X221304Y96492I814J817D01*
G01*
Y102056D01*
G75*
G02*
X221337Y102328I1165J-2D01*
G01*
X221148Y102140D01*
Y96211D01*
G75*
G02*
X220809Y95394I-1154J0D01*
G01*
X218876Y93461D01*
G75*
G02*
X218059Y93122I-817J814D01*
G01*
X208724D01*
X207278Y91676D01*
G37*
X232799Y95036D02*
G36*
X232799Y95036D02*
X231534Y94306D01*
X234002D01*
G75*
G02*
X234819Y93967I0J-1154D01*
G01*
X236938Y91848D01*
G75*
G02*
X237278Y91031I-814J-817D01*
G01*
Y90037D01*
X239649Y85929D01*
G75*
G02*
X240224Y83834I-3526J-2094D01*
G01*
X241626D01*
G75*
G02*
X246124Y88332I4498J0D01*
G01*
G75*
G02*
X250622Y83834I0J-4498D01*
G01*
X252024D01*
Y87933D01*
X254794D01*
Y94046D01*
X254556Y94457D01*
X254150Y93755D01*
Y92057D01*
G75*
G02*
X253811Y91240I-1154J0D01*
G01*
X252839Y90269D01*
G75*
G02*
X252022Y89929I-817J814D01*
G01*
X243893D01*
G75*
G02*
X243076Y90269I0J1154D01*
G01*
X238308Y95036D01*
X232799D01*
G37*
X283363Y103299D02*
G36*
X283363Y103299D02*
Y83834D01*
X366919D01*
G75*
G02*
X366396Y86909I8796J3076D01*
G01*
G75*
G02*
X385030I9317J0D01*
G01*
G75*
G02*
X384507Y83834I-9319J1D01*
G01*
X397022D01*
Y97333D01*
G75*
G03*
X394522Y99833I-2500J0D01*
G01*
X359522D01*
G75*
G02*
X357022Y102333I0J2500D01*
G01*
Y103641D01*
G75*
G02*
X347258Y106082I-4577J2441D01*
G01*
Y106082D01*
G75*
G02*
X347480Y107583I5187J0D01*
G01*
X298044D01*
Y104362D01*
X291213D01*
Y107583D01*
X288792D01*
Y103299D01*
X283363D01*
G37*
X123272Y143732D02*
G36*
X123272Y143732D02*
Y138432D01*
G75*
G02*
X130866Y139434I4173J-2350D01*
G01*
X155907D01*
G75*
G02*
X158278Y138452I1J-3351D01*
G01*
X171063Y125667D01*
G75*
G02*
X172048Y123294I-2368J-2373D01*
G01*
Y107583D01*
X220396D01*
X224945Y112132D01*
G75*
G02*
X225985Y112787I1040J-498D01*
G01*
X235119D01*
X235848Y113208D01*
X235119Y113629D01*
X214078D01*
X212789Y112885D01*
G75*
G02*
X212770Y112874I-177J293D01*
G01*
G75*
G02*
X209503Y114783I-1076J1908D01*
G01*
G75*
G02*
X209744Y115782I2191J0D01*
G01*
G75*
G02*
X207132Y117932I-422J2150D01*
G01*
G75*
G02*
X207278Y118719I2190J0D01*
G01*
G75*
G02*
X204885Y120900I-202J2181D01*
G01*
G75*
G02*
X205249Y122109I2191J0D01*
G01*
G75*
G02*
X202514Y124231I-543J2123D01*
G01*
G75*
G02*
X205781Y126140I2191J0D01*
G01*
G75*
G02*
X205800Y126129I-158J-304D01*
G01*
X207089Y125385D01*
X235119D01*
X235701Y125722D01*
Y129041D01*
X235119Y129377D01*
X234263D01*
G75*
G02*
X233446Y129717I0J1154D01*
G01*
X231933Y131229D01*
X204843D01*
X203554Y130485D01*
G75*
G02*
X203535Y130474I-177J293D01*
G01*
G75*
G02*
X200268Y132383I-1076J1908D01*
G01*
G75*
G02*
X200407Y133151I2191J0D01*
G01*
G75*
G02*
X197272Y135128I-943J1978D01*
G01*
G75*
G02*
X200540Y137037I2191J0D01*
G01*
G75*
G02*
X200559Y137026I-158J-304D01*
G01*
X200839Y136865D01*
X200358Y137344D01*
X198353D01*
X197064Y136600D01*
G75*
G02*
X197045Y136590I-177J293D01*
G01*
G75*
G02*
X193778Y138498I-1076J1909D01*
G01*
G75*
G02*
X197045Y140406I2191J0D01*
G01*
G75*
G02*
X197064Y140396I-158J-304D01*
G01*
X198353Y139652D01*
X200836D01*
G75*
G02*
X201653Y139312I0J-1154D01*
G01*
X202982Y137983D01*
X211484D01*
X209165Y140302D01*
G75*
G02*
X208843Y141082I780J780D01*
G01*
Y141082D01*
Y141084D01*
Y147463D01*
X208241D01*
Y144839D01*
X204174D01*
Y147463D01*
X166750D01*
G75*
G02*
X167048Y146082I-3055J-1381D01*
G01*
G75*
G02*
X163695Y142730I-3352J0D01*
G01*
X130866D01*
G75*
G02*
X123272Y143732I-3420J3353D01*
G01*
G37*
X279347Y147463D02*
G36*
X279347Y147463D02*
Y147429D01*
X280227D01*
Y139917D01*
X280169D01*
X281280Y138807D01*
Y138863D01*
X288792D01*
Y138550D01*
X289772Y137983D01*
X297296D01*
X298585Y138728D01*
G75*
G02*
X298604Y138738I177J-293D01*
G01*
G75*
G02*
X301871Y136830I1076J-1909D01*
G01*
G75*
G02*
X299259Y134680I-2191J0D01*
G01*
G75*
G02*
X299500Y133680I-1950J-1000D01*
G01*
G75*
G02*
X296876Y131533I-2191J0D01*
G01*
G75*
G02*
X297128Y130511I-1938J-1022D01*
G01*
G75*
G02*
X294386Y128391I-2191J0D01*
G01*
G75*
G02*
X294633Y127381I-1944J-1009D01*
G01*
G75*
G02*
X291878Y125264I-2191J0D01*
G01*
G75*
G02*
X292136Y124231I-1933J-1032D01*
G01*
G75*
G02*
X288869Y122323I-2191J0D01*
G01*
G75*
G02*
X288850Y122334I158J304D01*
G01*
X288792Y122368D01*
Y116533D01*
X289481Y116135D01*
X291611D01*
Y117406D01*
X297646D01*
Y111760D01*
X291611D01*
Y113430D01*
X289481D01*
X289189Y113261D01*
Y109201D01*
X288792D01*
Y107583D01*
X291213D01*
Y110803D01*
X298044D01*
Y107583D01*
X347480D01*
G75*
G02*
X357022Y108523I4965J-1501D01*
G01*
Y147463D01*
X303631D01*
G75*
G02*
X300975Y147073I-1579J1519D01*
G01*
G75*
G02*
X300956Y147084I158J304D01*
G01*
X300300Y147463D01*
X279347D01*
G37*
X123272Y151331D02*
G36*
X123272Y151331D02*
Y148432D01*
G75*
G02*
X130866Y149434I4173J-2350D01*
G01*
X163695D01*
G75*
G02*
X166750Y147463I0J-3352D01*
G01*
X204174D01*
Y150087D01*
X208241D01*
Y147463D01*
X208843D01*
Y149830D01*
Y149831D01*
Y149832D01*
G75*
G02*
X209165Y150612I1103J0D01*
G01*
X209884Y151331D01*
X198359D01*
Y148110D01*
X191532D01*
Y151331D01*
X188359D01*
Y148110D01*
X181532D01*
Y151331D01*
X129526D01*
G75*
G02*
X125365I-2081J4752D01*
G01*
X123272D01*
G37*
X243756D02*
G36*
X243756Y151331D02*
X245544Y149543D01*
Y151331D01*
X243756D01*
G37*
X251000D02*
G36*
X251000Y151331D02*
Y148409D01*
X251422Y147679D01*
X251843Y148409D01*
Y149106D01*
G75*
G02*
X252182Y149923I1154J0D01*
G01*
X252944Y150685D01*
Y151331D01*
X251000D01*
G37*
X279347Y147828D02*
G36*
X279347Y147828D02*
Y147463D01*
X300300D01*
X299667Y147828D01*
X279347D01*
G37*
X304160Y150074D02*
G36*
X304160Y150074D02*
X303950D01*
G75*
G02*
X304243Y148981I-1899J-1093D01*
G01*
G75*
G02*
X303631Y147463I-2191J0D01*
G01*
X357022D01*
Y151331D01*
X354527D01*
G75*
G02*
X350364I-2081J4751D01*
G01*
X308733D01*
G75*
G02*
X308735Y151235I-2080J-99D01*
G01*
G75*
G02*
Y151228I-2051J-3D01*
G01*
G75*
G02*
X305468Y149320I-2191J0D01*
G01*
G75*
G02*
X305449Y149330I158J304D01*
G01*
X304160Y150074D01*
G37*
X123272Y153002D02*
G36*
X123272Y153002D02*
Y151331D01*
X125365D01*
G75*
G02*
X123272Y153002I2081J4752D01*
G01*
G37*
X132632Y156082D02*
G36*
X132632Y156082D02*
G75*
G02*
X129526Y151331I-5187J0D01*
G01*
X181532D01*
Y154551D01*
X188359D01*
Y151331D01*
X191532D01*
Y154551D01*
X198359D01*
Y151331D01*
X209884D01*
X211665Y153112D01*
G75*
G02*
X212448Y153435I780J-781D01*
G01*
X221532D01*
G75*
G02*
X221930Y153361I2J-1095D01*
G01*
Y154154D01*
X227961D01*
Y153361D01*
G75*
G02*
X228359Y153435I396J-1021D01*
G01*
X231532D01*
G75*
G02*
X231930Y153361I2J-1095D01*
G01*
Y154154D01*
X237961D01*
Y153361D01*
G75*
G02*
X238359Y153435I396J-1021D01*
G01*
X241193D01*
G75*
G02*
X241975Y153112I2J-1104D01*
G01*
X243756Y151331D01*
X245544D01*
Y152448D01*
X244800Y153737D01*
G75*
G02*
X244789Y153756I293J177D01*
G01*
G75*
G02*
X244506Y154833I1909J1077D01*
G01*
G75*
G02*
X247731Y156765I2191J0D01*
G01*
G75*
G02*
X247656Y157333I2109J568D01*
G01*
G75*
G02*
X247896Y158331I2191J0D01*
G01*
X238359D01*
Y155110D01*
X231532D01*
Y158331D01*
X228359D01*
Y155110D01*
X221532D01*
Y158331D01*
X218548D01*
Y156083D01*
G75*
G02*
X217445Y154980I-1102J0D01*
G01*
X216119D01*
G75*
G02*
X215039Y155862I0J1102D01*
G01*
X212378D01*
Y155465D01*
X207516D01*
Y155862D01*
X204856D01*
G75*
G02*
X203776Y154980I-1080J220D01*
G01*
X198359D01*
G75*
G02*
X197418Y155508I0J1102D01*
G01*
X192472D01*
G75*
G02*
X191532Y154980I-941J574D01*
G01*
X188359D01*
G75*
G02*
X187418Y155508I0J1102D01*
G01*
X182472D01*
G75*
G02*
X181532Y154980I-941J574D01*
G01*
X172446D01*
G75*
G02*
X171666Y155303I0J1105D01*
G01*
X169166Y157803D01*
G75*
G02*
X168872Y158331I778J779D01*
G01*
X132119D01*
G75*
G02*
X132632Y156082I-4674J-2249D01*
G01*
G37*
X251000Y154948D02*
G36*
X251000Y154948D02*
Y151331D01*
X252944D01*
Y152835D01*
X252772Y153133D01*
X252458D01*
Y157200D01*
X256788D01*
Y157201D01*
X259674D01*
Y157200D01*
X262037D01*
Y156886D01*
X263017Y156320D01*
X265369D01*
X267380Y158331D01*
X262037D01*
Y157464D01*
X252458D01*
Y158331D01*
X251797D01*
G75*
G02*
X252038Y157333I-1950J-998D01*
G01*
G75*
G02*
X251755Y156256I-2198J2D01*
G01*
G75*
G02*
X251744Y156237I-304J158D01*
G01*
X251000Y154948D01*
G37*
X308720Y151484D02*
G36*
X308720Y151484D02*
G75*
G02*
X308733Y151331I-2065J-247D01*
G01*
X350364D01*
G75*
G02*
X347258Y156082I2081J4751D01*
G01*
Y156082D01*
G75*
G02*
X347771Y158331I5187J0D01*
G01*
X332569D01*
G75*
G02*
X329306Y156558I-2187J136D01*
G01*
G75*
G02*
X329287Y156569I158J304D01*
G01*
X327998Y157313D01*
X313767D01*
G75*
G02*
X314227Y155970I-1731J-1343D01*
G01*
G75*
G02*
X311466Y153855I-2191J0D01*
G01*
G75*
G02*
X311481Y153606I-2066J-249D01*
G01*
G75*
G02*
Y153599I-2051J-3D01*
G01*
G75*
G02*
X308720Y151484I-2191J0D01*
G01*
G37*
X354527Y151331D02*
G36*
X354527Y151331D02*
X357022D01*
Y153641D01*
G75*
G02*
X354527Y151331I-4577J2441D01*
G01*
G37*
X123272Y163583D02*
G36*
X123272Y163583D02*
Y159162D01*
G75*
G02*
X132119Y158331I4173J-3080D01*
G01*
X168872D01*
G75*
G02*
X168843Y158582I1073J252D01*
G01*
Y158583D01*
Y163583D01*
X123272D01*
G37*
X218548D02*
G36*
X218548Y163583D02*
Y158331D01*
X221532D01*
Y161551D01*
X228359D01*
Y158331D01*
X231532D01*
Y161551D01*
X238359D01*
Y158331D01*
X247896D01*
G75*
G02*
X251797I1950J-998D01*
G01*
X252458D01*
Y160978D01*
X248273D01*
G75*
G02*
X247315Y161376I-1J1350D01*
G01*
X245109Y163583D01*
X218548D01*
G37*
X260459D02*
G36*
X260459Y163583D02*
G75*
G02*
X261261Y162644I-514J-1251D01*
G01*
G75*
G02*
X261550Y161880I-865J-764D01*
G01*
Y161880D01*
Y161877D01*
Y161829D01*
X261723Y161531D01*
X262037D01*
Y158331D01*
X267380D01*
X270826Y161777D01*
G75*
G02*
X271643Y162116I817J-814D01*
G01*
X317015D01*
X318304Y162860D01*
G75*
G02*
X318323Y162871I177J-293D01*
G01*
G75*
G02*
X321590Y160963I1076J-1908D01*
G01*
G75*
G02*
X321131Y159620I-2191J0D01*
G01*
X327998D01*
X329287Y160364D01*
G75*
G02*
X329306Y160375I177J-293D01*
G01*
G75*
G02*
X332573Y158467I1076J-1909D01*
G01*
G75*
G02*
X332569Y158331I-2191J2D01*
G01*
X347771D01*
G75*
G02*
X357022Y158523I4674J-2248D01*
G01*
Y163583D01*
X260459D01*
G37*
X123272Y203002D02*
G36*
X123272Y203002D02*
Y163583D01*
X168843D01*
Y168583D01*
Y168583D01*
G75*
G02*
X169166Y169362I1102J0D01*
G01*
X171666Y171862D01*
G75*
G02*
X172446Y172185I780J-782D01*
G01*
X214944D01*
G75*
G02*
X215725Y171862I0J-1105D01*
G01*
X216402Y171185D01*
X240772D01*
G75*
G02*
X241730Y170788I1J-1350D01*
G01*
X248833Y163683D01*
X254041D01*
G75*
G02*
X254098Y163684I71J-2042D01*
G01*
X259945D01*
G75*
G02*
X260459Y163583I0J-1352D01*
G01*
X357022D01*
Y203641D01*
G75*
G02*
X347258Y206082I-4577J2441D01*
G01*
Y206082D01*
G75*
G02*
X357022Y208523I5187J0D01*
G01*
Y253641D01*
G75*
G02*
X347258Y256082I-4577J2441D01*
G01*
Y256082D01*
G75*
G02*
X357022Y258523I5187J0D01*
G01*
Y258583D01*
G75*
G02*
X359522Y261083I2500J0D01*
G01*
X384522D01*
G75*
G03*
X387022Y263583I0J2500D01*
G01*
Y265907D01*
X379624D01*
Y262177D01*
X371920D01*
Y265018D01*
X268243D01*
X266954Y264274D01*
G75*
G02*
X266935Y264263I-177J293D01*
G01*
G75*
G02*
X263684Y265907I-1076J1908D01*
G01*
X139624D01*
Y262055D01*
X131920D01*
Y265907D01*
X123272D01*
Y259162D01*
G75*
G02*
X132632Y256082I4173J-3080D01*
G01*
G75*
G02*
X123272Y253002I-5187J0D01*
G01*
Y209162D01*
G75*
G02*
X132632Y206082I4173J-3080D01*
G01*
G75*
G02*
X123272Y203002I-5187J0D01*
G01*
G37*
X218548Y168480D02*
G36*
X218548Y168480D02*
Y163583D01*
X245109D01*
X240212Y168480D01*
X218548D01*
G37*
X93272Y301082D02*
G36*
X93272Y301082D02*
Y293583D01*
G75*
G03*
X95772Y291083I2500J0D01*
G01*
X120772D01*
G75*
G02*
X123272Y288583I0J-2500D01*
G01*
Y265907D01*
X131920D01*
Y269760D01*
X139624D01*
Y265907D01*
X263684D01*
G75*
G02*
X263668Y266172I2173J265D01*
G01*
G75*
G02*
X263877Y267106I2191J0D01*
G01*
G75*
G02*
X261546Y269292I-139J2187D01*
G01*
G75*
G02*
X264813Y271200I2191J0D01*
G01*
G75*
G02*
X264832Y271189I-158J-304D01*
G01*
X266121Y270445D01*
X356003D01*
X369619Y284061D01*
Y301082D01*
X369577D01*
G75*
G02*
X365772Y297277I-3805J0D01*
G01*
G75*
G02*
X361967Y301082I0J3805D01*
G01*
X359577D01*
G75*
G02*
X355772Y297277I-3805J0D01*
G01*
G75*
G02*
X351967Y301082I0J3805D01*
G01*
X349577D01*
G75*
G02*
X349051Y299151I-3806J0D01*
G01*
X346926Y295470D01*
Y292333D01*
G75*
G02*
X346586Y291516I-1154J0D01*
G01*
X339089Y284019D01*
G75*
G02*
X338272Y283679I-817J814D01*
G01*
X254406D01*
X253117Y282935D01*
G75*
G02*
X253098Y282924I-177J293D01*
G01*
G75*
G02*
X250147Y283699I-1077J1908D01*
G01*
G75*
G02*
X246081Y284832I-1875J1133D01*
G01*
Y284833D01*
G75*
G02*
X247732Y286956I2191J0D01*
G01*
X249142Y287334D01*
X251205Y289397D01*
G75*
G02*
X252022Y289736I817J-814D01*
G01*
X336544D01*
X339619Y292811D01*
Y301082D01*
X339577D01*
G75*
G02*
X335772Y297277I-3805J0D01*
G01*
G75*
G02*
X331967Y301082I0J3805D01*
G01*
X329577D01*
G75*
G02*
X325772Y297277I-3805J0D01*
G01*
G75*
G02*
X321967Y301082I0J3805D01*
G01*
X319577D01*
G75*
G02*
X315772Y297277I-3805J0D01*
G01*
G75*
G02*
X311967Y301082I0J3805D01*
G01*
X309577D01*
G75*
G02*
X305772Y297277I-3805J0D01*
G01*
G75*
G02*
X301967Y301082I0J3805D01*
G01*
X299577D01*
G75*
G02*
X295772Y297277I-3805J0D01*
G01*
G75*
G02*
X291967Y301082I0J3805D01*
G01*
X289577D01*
G75*
G02*
X285772Y297277I-3805J0D01*
G01*
G75*
G02*
X281967Y301082I0J3805D01*
G01*
X279577D01*
G75*
G02*
X275772Y297277I-3805J0D01*
G01*
G75*
G02*
X271967Y301082I0J3805D01*
G01*
X269577D01*
G75*
G02*
X265772Y297277I-3805J0D01*
G01*
G75*
G02*
X261967Y301082I0J3805D01*
G01*
X259577D01*
G75*
G02*
X255772Y297277I-3805J0D01*
G01*
G75*
G02*
X251967Y301082I0J3805D01*
G01*
X249577D01*
G75*
G02*
X245772Y297277I-3805J0D01*
G01*
G75*
G02*
X241967Y301082I0J3805D01*
G01*
X239577D01*
G75*
G02*
X235772Y297277I-3805J0D01*
G01*
G75*
G02*
X231967Y301082I0J3805D01*
G01*
X229577D01*
G75*
G02*
X225772Y297277I-3805J0D01*
G01*
G75*
G02*
X221967Y301082I0J3805D01*
G01*
X219577D01*
G75*
G02*
X215772Y297277I-3805J0D01*
G01*
G75*
G02*
X211967Y301082I0J3805D01*
G01*
X209577D01*
G75*
G02*
X205772Y297277I-3805J0D01*
G01*
G75*
G02*
X201967Y301082I0J3805D01*
G01*
X199577D01*
G75*
G02*
X195772Y297277I-3805J0D01*
G01*
G75*
G02*
X191967Y301082I0J3805D01*
G01*
X189577D01*
G75*
G02*
X185772Y297277I-3805J0D01*
G01*
G75*
G02*
X181967Y301082I0J3805D01*
G01*
X179577D01*
G75*
G02*
X175772Y297277I-3805J0D01*
G01*
G75*
G02*
X171967Y301082I0J3805D01*
G01*
X169577D01*
G75*
G02*
X165772Y297277I-3805J0D01*
G01*
G75*
G02*
X161967Y301082I0J3805D01*
G01*
X159577D01*
G75*
G02*
X155772Y297277I-3805J0D01*
G01*
G75*
G02*
X151967Y301082I0J3805D01*
G01*
X149577D01*
G75*
G02*
X145772Y297277I-3805J0D01*
G01*
G75*
G02*
X141967Y301082I0J3805D01*
G01*
X137374D01*
Y279760D01*
X139624D01*
Y272055D01*
X131920D01*
Y279760D01*
X134170D01*
Y301082D01*
X117861D01*
G75*
G02*
X106164I-5848J10000D01*
G01*
X93272D01*
G37*
X252500Y287429D02*
G36*
X252500Y287429D02*
X252093Y287022D01*
G75*
G02*
X253098Y286741I-70J-2186D01*
G01*
G75*
G02*
X253117Y286730I-158J-304D01*
G01*
X254406Y285986D01*
X337794D01*
X344619Y292811D01*
Y295470D01*
X342493Y299151D01*
G75*
G02*
X341967Y301082I3279J1931D01*
G01*
X341926D01*
Y292333D01*
G75*
G02*
X341586Y291516I-1154J0D01*
G01*
X337839Y287769D01*
G75*
G02*
X337022Y287429I-817J814D01*
G01*
X252500D01*
G37*
X266824Y268138D02*
G36*
X266824Y268138D02*
G75*
G02*
X266935Y268080I-881J-1808D01*
G01*
G75*
G02*
X266954Y268069I-158J-304D01*
G01*
X268243Y267325D01*
X371920D01*
Y269882D01*
X379624D01*
Y265907D01*
X387022D01*
Y288583D01*
G75*
G02*
X389522Y291083I2500J0D01*
G01*
X437022D01*
G75*
G03*
X439272Y292493I0J2500D01*
G01*
Y301082D01*
X425380D01*
G75*
G02*
X413683I-5848J10000D01*
G01*
X389577D01*
G75*
G02*
X385772Y297277I-3805J0D01*
G01*
G75*
G02*
X381967Y301082I0J3805D01*
G01*
X379577D01*
G75*
G02*
X379051Y299151I-3806J0D01*
G01*
X376926Y295470D01*
Y279882D01*
X379624D01*
Y272177D01*
X371920D01*
Y279882D01*
X374619D01*
Y295470D01*
X372493Y299151D01*
G75*
G02*
X371967Y301082I3279J1931D01*
G01*
X371926D01*
Y283583D01*
G75*
G02*
X371586Y282766I-1154J0D01*
G01*
X357298Y268478D01*
G75*
G02*
X356481Y268138I-817J814D01*
G01*
X266824D01*
G37*
X93272Y321082D02*
G36*
X93272Y321082D02*
Y301082D01*
X106164D01*
G75*
G02*
X100428Y311082I5848J10000D01*
G01*
G75*
G02*
X106164Y321082I11585J0D01*
G01*
X93272D01*
G37*
X123597Y311082D02*
G36*
X123597Y311082D02*
G75*
G02*
X117861Y301082I-11585J0D01*
G01*
X134170D01*
Y310659D01*
Y310659D01*
G75*
G02*
X134641Y311794I1602J0D01*
G01*
X141398Y318550D01*
X141894Y321082D01*
X117861D01*
G75*
G02*
X123597Y311082I-5848J-10000D01*
G01*
G37*
X137374Y309995D02*
G36*
X137374Y309995D02*
Y301082D01*
X141967D01*
G75*
G02*
X145772Y304887I3805J0D01*
G01*
G75*
G02*
X149577Y301082I0J-3805D01*
G01*
X151967D01*
G75*
G02*
X155772Y304887I3805J0D01*
G01*
G75*
G02*
X159577Y301082I0J-3805D01*
G01*
X161967D01*
G75*
G02*
X165772Y304887I3805J0D01*
G01*
G75*
G02*
X169577Y301082I0J-3805D01*
G01*
X171967D01*
G75*
G02*
X175772Y304887I3805J0D01*
G01*
G75*
G02*
X179577Y301082I0J-3805D01*
G01*
X181967D01*
G75*
G02*
X185772Y304887I3805J0D01*
G01*
G75*
G02*
X189577Y301082I0J-3805D01*
G01*
X191967D01*
G75*
G02*
X195772Y304887I3805J0D01*
G01*
G75*
G02*
X199577Y301082I0J-3805D01*
G01*
X201967D01*
G75*
G02*
X205772Y304887I3805J0D01*
G01*
G75*
G02*
X209577Y301082I0J-3805D01*
G01*
X211967D01*
G75*
G02*
X215772Y304887I3805J0D01*
G01*
G75*
G02*
X219577Y301082I0J-3805D01*
G01*
X221967D01*
G75*
G02*
X225772Y304887I3805J0D01*
G01*
G75*
G02*
X229577Y301082I0J-3805D01*
G01*
X231967D01*
G75*
G02*
X235772Y304887I3805J0D01*
G01*
G75*
G02*
X239577Y301082I0J-3805D01*
G01*
X241967D01*
G75*
G02*
X245772Y304887I3805J0D01*
G01*
G75*
G02*
X249577Y301082I0J-3805D01*
G01*
X251967D01*
G75*
G02*
X255772Y304887I3805J0D01*
G01*
G75*
G02*
X259577Y301082I0J-3805D01*
G01*
X261967D01*
G75*
G02*
X265772Y304887I3805J0D01*
G01*
G75*
G02*
X269577Y301082I0J-3805D01*
G01*
X271967D01*
G75*
G02*
X275772Y304887I3805J0D01*
G01*
G75*
G02*
X279577Y301082I0J-3805D01*
G01*
X281967D01*
G75*
G02*
X285772Y304887I3805J0D01*
G01*
G75*
G02*
X289577Y301082I0J-3805D01*
G01*
X291967D01*
G75*
G02*
X295772Y304887I3805J0D01*
G01*
G75*
G02*
X299577Y301082I0J-3805D01*
G01*
X301967D01*
G75*
G02*
X305772Y304887I3805J0D01*
G01*
G75*
G02*
X309577Y301082I0J-3805D01*
G01*
X311967D01*
G75*
G02*
X315772Y304887I3805J0D01*
G01*
G75*
G02*
X319577Y301082I0J-3805D01*
G01*
X321967D01*
G75*
G02*
X325772Y304887I3805J0D01*
G01*
G75*
G02*
X329577Y301082I0J-3805D01*
G01*
X331967D01*
G75*
G02*
X335772Y304887I3805J0D01*
G01*
G75*
G02*
X339577Y301082I0J-3805D01*
G01*
X339619D01*
Y321082D01*
X339577D01*
G75*
G02*
X335772Y317277I-3805J0D01*
G01*
G75*
G02*
X331967Y321082I0J3805D01*
G01*
X329577D01*
G75*
G02*
X325772Y317277I-3805J0D01*
G01*
G75*
G02*
X321967Y321082I0J3805D01*
G01*
X319577D01*
G75*
G02*
X315772Y317277I-3805J0D01*
G01*
G75*
G02*
X311967Y321082I0J3805D01*
G01*
X309577D01*
G75*
G02*
X305772Y317277I-3805J0D01*
G01*
G75*
G02*
X301967Y321082I0J3805D01*
G01*
X299577D01*
G75*
G02*
X295772Y317277I-3805J0D01*
G01*
G75*
G02*
X291967Y321082I0J3805D01*
G01*
X289577D01*
G75*
G02*
X285772Y317277I-3805J0D01*
G01*
G75*
G02*
X281967Y321082I0J3805D01*
G01*
X279577D01*
G75*
G02*
X275772Y317277I-3805J0D01*
G01*
G75*
G02*
X271967Y321082I0J3805D01*
G01*
X269577D01*
G75*
G02*
X265772Y317277I-3805J0D01*
G01*
G75*
G02*
X261967Y321082I0J3805D01*
G01*
X259577D01*
G75*
G02*
X255772Y317277I-3805J0D01*
G01*
G75*
G02*
X251967Y321082I0J3805D01*
G01*
X249577D01*
G75*
G02*
X245772Y317277I-3805J0D01*
G01*
G75*
G02*
X241967Y321082I0J3805D01*
G01*
X239577D01*
G75*
G02*
X235772Y317277I-3805J0D01*
G01*
G75*
G02*
X231967Y321082I0J3805D01*
G01*
X229577D01*
G75*
G02*
X225772Y317277I-3805J0D01*
G01*
G75*
G02*
X221967Y321082I0J3805D01*
G01*
X219577D01*
G75*
G02*
X215772Y317277I-3805J0D01*
G01*
G75*
G02*
X211967Y321082I0J3805D01*
G01*
X209577D01*
G75*
G02*
X205772Y317277I-3805J0D01*
G01*
G75*
G02*
X201967Y321082I0J3805D01*
G01*
X199577D01*
G75*
G02*
X195772Y317277I-3805J0D01*
G01*
G75*
G02*
X191967Y321082I0J3805D01*
G01*
X189975D01*
G75*
G02*
X181569I-4203J0D01*
G01*
X179975D01*
G75*
G02*
X171569I-4203J0D01*
G01*
X169577D01*
G75*
G02*
X165772Y317277I-3805J0D01*
G01*
G75*
G02*
X161967Y321082I0J3805D01*
G01*
X159577D01*
G75*
G02*
X155772Y317277I-3805J0D01*
G01*
G75*
G02*
X151967Y321082I0J3805D01*
G01*
X149577D01*
G75*
G02*
X147013Y317485I-3807J2D01*
G01*
G75*
G02*
X147004Y317482I-63J166D01*
G01*
X143746Y316367D01*
X137374Y309995D01*
G37*
X341926Y321082D02*
G36*
X341926Y321082D02*
Y301082D01*
X341967D01*
G75*
G02*
X345772Y304887I3805J0D01*
G01*
G75*
G02*
X349577Y301082I0J-3805D01*
G01*
X351967D01*
G75*
G02*
X355772Y304887I3805J0D01*
G01*
G75*
G02*
X359577Y301082I0J-3805D01*
G01*
X361967D01*
G75*
G02*
X365772Y304887I3805J0D01*
G01*
G75*
G02*
X369577Y301082I0J-3805D01*
G01*
X369619D01*
Y321082D01*
X369577D01*
G75*
G02*
X365772Y317277I-3805J0D01*
G01*
G75*
G02*
X361967Y321082I0J3805D01*
G01*
X359577D01*
G75*
G02*
X355772Y317277I-3805J0D01*
G01*
G75*
G02*
X351967Y321082I0J3805D01*
G01*
X349577D01*
G75*
G02*
X345772Y317277I-3805J0D01*
G01*
G75*
G02*
X341967Y321082I0J3805D01*
G01*
X341926D01*
G37*
X371926D02*
G36*
X371926Y321082D02*
Y301082D01*
X371967D01*
G75*
G02*
X375772Y304887I3805J0D01*
G01*
G75*
G02*
X379577Y301082I0J-3805D01*
G01*
X381967D01*
G75*
G02*
X385772Y304887I3805J0D01*
G01*
G75*
G02*
X389577Y301082I0J-3805D01*
G01*
X413683D01*
G75*
G02*
X407947Y311082I5848J10000D01*
G01*
G75*
G02*
X413683Y321082I11585J0D01*
G01*
X389577D01*
G75*
G02*
X385772Y317277I-3805J0D01*
G01*
G75*
G02*
X381967Y321082I0J3805D01*
G01*
X379577D01*
G75*
G02*
X375772Y317277I-3805J0D01*
G01*
G75*
G02*
X371967Y321082I0J3805D01*
G01*
X371926D01*
G37*
X431117Y311082D02*
G36*
X431117Y311082D02*
G75*
G02*
X425380Y301082I-11585J0D01*
G01*
X439272D01*
Y321082D01*
X425380D01*
G75*
G02*
X431117Y311082I-5848J-10000D01*
G01*
G37*
X93272Y328583D02*
G36*
X93272Y328583D02*
Y321082D01*
X106164D01*
G75*
G02*
X117861I5848J-10000D01*
G01*
X141894D01*
X142034Y321792D01*
G75*
G02*
X142493Y323013I3746J-713D01*
G01*
X144170Y325917D01*
Y334315D01*
X134641Y343844D01*
G75*
G02*
X134170Y344979I1130J1135D01*
G01*
Y344979D01*
Y362272D01*
X131920D01*
Y369976D01*
X139624D01*
Y362272D01*
X137374D01*
Y345643D01*
X146903Y336114D01*
G75*
G02*
X147374Y334980I-1130J-1135D01*
G01*
Y334979D01*
Y325917D01*
X149051Y323013D01*
G75*
G02*
X149577Y321083I-3274J-1930D01*
G01*
G75*
G02*
Y321082I-4101J-1D01*
G01*
X151967D01*
G75*
G02*
X155772Y324887I3805J0D01*
G01*
G75*
G02*
X159577Y321082I0J-3805D01*
G01*
X161967D01*
G75*
G02*
X165772Y324887I3805J0D01*
G01*
G75*
G02*
X169577Y321082I0J-3805D01*
G01*
X171569D01*
G75*
G02*
X179975I4203J0D01*
G01*
X181569D01*
G75*
G02*
X189975I4203J0D01*
G01*
X191967D01*
G75*
G02*
X195772Y324887I3805J0D01*
G01*
G75*
G02*
X199577Y321082I0J-3805D01*
G01*
X201967D01*
G75*
G02*
X205772Y324887I3805J0D01*
G01*
G75*
G02*
X209577Y321082I0J-3805D01*
G01*
X211967D01*
G75*
G02*
X215772Y324887I3805J0D01*
G01*
G75*
G02*
X219577Y321082I0J-3805D01*
G01*
X221967D01*
G75*
G02*
X225772Y324887I3805J0D01*
G01*
G75*
G02*
X229577Y321082I0J-3805D01*
G01*
X231967D01*
G75*
G02*
X235772Y324887I3805J0D01*
G01*
G75*
G02*
X239577Y321082I0J-3805D01*
G01*
X241967D01*
G75*
G02*
X245772Y324887I3805J0D01*
G01*
G75*
G02*
X249577Y321082I0J-3805D01*
G01*
X251967D01*
G75*
G02*
X255772Y324887I3805J0D01*
G01*
G75*
G02*
X259577Y321082I0J-3805D01*
G01*
X261967D01*
G75*
G02*
X265772Y324887I3805J0D01*
G01*
G75*
G02*
X269577Y321082I0J-3805D01*
G01*
X271967D01*
G75*
G02*
X275772Y324887I3805J0D01*
G01*
G75*
G02*
X279577Y321082I0J-3805D01*
G01*
X281967D01*
G75*
G02*
X285772Y324887I3805J0D01*
G01*
G75*
G02*
X289577Y321082I0J-3805D01*
G01*
X291967D01*
G75*
G02*
X295772Y324887I3805J0D01*
G01*
G75*
G02*
X299577Y321082I0J-3805D01*
G01*
X301967D01*
G75*
G02*
X305772Y324887I3805J0D01*
G01*
G75*
G02*
X309577Y321082I0J-3805D01*
G01*
X311967D01*
G75*
G02*
X315772Y324887I3805J0D01*
G01*
G75*
G02*
X319577Y321082I0J-3805D01*
G01*
X321967D01*
G75*
G02*
X325772Y324887I3805J0D01*
G01*
G75*
G02*
X329577Y321082I0J-3805D01*
G01*
X331967D01*
G75*
G02*
X335772Y324887I3805J0D01*
G01*
G75*
G02*
X339577Y321082I0J-3805D01*
G01*
X339619D01*
Y355997D01*
G75*
G02*
X339958Y356814I1154J0D01*
G01*
X344704Y361561D01*
Y376124D01*
X139624D01*
Y372272D01*
X131920D01*
Y376124D01*
X123272D01*
Y333583D01*
G75*
G02*
X120772Y331083I-2500J0D01*
G01*
X98271D01*
G75*
G02*
X96698I-786J4725D01*
G01*
X95772D01*
G75*
G03*
X93272Y328583I0J-2500D01*
G01*
G37*
X341926Y355519D02*
G36*
X341926Y355519D02*
Y321082D01*
X341967D01*
G75*
G02*
X345772Y324887I3805J0D01*
G01*
G75*
G02*
X349577Y321082I0J-3805D01*
G01*
X351967D01*
G75*
G02*
X355772Y324887I3805J0D01*
G01*
G75*
G02*
X359577Y321082I0J-3805D01*
G01*
X361967D01*
G75*
G02*
X365772Y324887I3805J0D01*
G01*
G75*
G02*
X369577Y321082I0J-3805D01*
G01*
X369619D01*
Y328105D01*
X367458Y330266D01*
G75*
G02*
X367119Y331083I814J817D01*
G01*
Y358623D01*
G75*
G02*
X367458Y359440I1154J0D01*
G01*
X371920Y363902D01*
Y369976D01*
X379624D01*
Y362272D01*
X373552D01*
X369426Y358145D01*
Y331561D01*
X371586Y329400D01*
G75*
G02*
X371926Y328583I-814J-817D01*
G01*
Y321082D01*
X371967D01*
G75*
G02*
X375772Y324887I3805J0D01*
G01*
G75*
G02*
X379577Y321082I0J-3805D01*
G01*
X381967D01*
G75*
G02*
X385772Y324887I3805J0D01*
G01*
G75*
G02*
X389577Y321082I0J-3805D01*
G01*
X413683D01*
G75*
G02*
X425380I5848J-10000D01*
G01*
X439272D01*
Y329672D01*
G75*
G03*
X437022Y331083I-2250J-1090D01*
G01*
X433271D01*
G75*
G02*
X431698I-786J4725D01*
G01*
X423271D01*
G75*
G02*
X421698I-786J4725D01*
G01*
X413271D01*
G75*
G02*
X411698I-786J4725D01*
G01*
X403271D01*
G75*
G02*
X401698I-786J4725D01*
G01*
X399522D01*
G75*
G02*
X397022Y333583I0J2500D01*
G01*
Y376124D01*
X379624D01*
Y372272D01*
X371920D01*
Y376124D01*
X347011D01*
Y361083D01*
G75*
G02*
X346672Y360266I-1154J0D01*
G01*
X341926Y355519D01*
G37*
X93272Y401082D02*
G36*
X93272Y401082D02*
Y393583D01*
G75*
G03*
X95772Y391083I2500J0D01*
G01*
X120772D01*
G75*
G02*
X123272Y388583I0J-2500D01*
G01*
Y376124D01*
X131920D01*
Y379976D01*
X139624D01*
Y376124D01*
X344704D01*
Y395463D01*
X342522Y399141D01*
G75*
G02*
X342509Y399161I228J147D01*
G01*
G75*
G02*
X341989Y401081I3285J1920D01*
G01*
Y401082D01*
X339600D01*
G75*
G02*
X335794Y397277I-3805J0D01*
G01*
G75*
G02*
X331989Y401082I0J3805D01*
G01*
X329600D01*
G75*
G02*
X325794Y397277I-3805J0D01*
G01*
G75*
G02*
X321989Y401082I0J3805D01*
G01*
X319600D01*
G75*
G02*
X315794Y397277I-3805J0D01*
G01*
G75*
G02*
X311989Y401082I0J3805D01*
G01*
X309600D01*
G75*
G02*
X305794Y397277I-3805J0D01*
G01*
G75*
G02*
X301989Y401082I0J3805D01*
G01*
X299600D01*
G75*
G02*
X295794Y397277I-3805J0D01*
G01*
G75*
G02*
X291989Y401082I0J3805D01*
G01*
X289600D01*
G75*
G02*
X285794Y397277I-3805J0D01*
G01*
G75*
G02*
X281989Y401082I0J3805D01*
G01*
X279600D01*
G75*
G02*
X275794Y397277I-3805J0D01*
G01*
G75*
G02*
X271989Y401082I0J3805D01*
G01*
X269600D01*
G75*
G02*
X265794Y397277I-3805J0D01*
G01*
G75*
G02*
X261989Y401082I0J3805D01*
G01*
X259600D01*
G75*
G02*
X255794Y397277I-3805J0D01*
G01*
G75*
G02*
X251989Y401082I0J3805D01*
G01*
X249600D01*
G75*
G02*
X245794Y397277I-3805J0D01*
G01*
G75*
G02*
X241989Y401082I0J3805D01*
G01*
X239600D01*
G75*
G02*
X235794Y397277I-3805J0D01*
G01*
G75*
G02*
X231989Y401082I0J3805D01*
G01*
X229600D01*
G75*
G02*
X225794Y397277I-3805J0D01*
G01*
G75*
G02*
X221989Y401082I0J3805D01*
G01*
X219600D01*
G75*
G02*
X215794Y397277I-3805J0D01*
G01*
G75*
G02*
X211989Y401082I0J3805D01*
G01*
X209600D01*
G75*
G02*
X205794Y397277I-3805J0D01*
G01*
G75*
G02*
X201989Y401082I0J3805D01*
G01*
X199600D01*
G75*
G02*
X195794Y397277I-3805J0D01*
G01*
G75*
G02*
X191989Y401082I0J3805D01*
G01*
X189600D01*
G75*
G02*
X185794Y397277I-3805J0D01*
G01*
G75*
G02*
X181989Y401082I0J3805D01*
G01*
X179600D01*
G75*
G02*
X175794Y397277I-3805J0D01*
G01*
G75*
G02*
X171989Y401082I0J3805D01*
G01*
X169600D01*
G75*
G02*
X165794Y397277I-3805J0D01*
G01*
G75*
G02*
X161989Y401082I0J3805D01*
G01*
X159600D01*
G75*
G02*
X155794Y397277I-3805J0D01*
G01*
G75*
G02*
X151989Y401082I0J3805D01*
G01*
X149600D01*
G75*
G02*
X145794Y397277I-3805J0D01*
G01*
G75*
G02*
X141989Y401082I0J3805D01*
G01*
X117883D01*
G75*
G02*
X106186I-5848J10000D01*
G01*
X93272D01*
G37*
X347011Y395477D02*
G36*
X347011Y395477D02*
Y376124D01*
X371920D01*
Y379976D01*
X379624D01*
Y376124D01*
X397022D01*
Y388583D01*
G75*
G02*
X399522Y391083I2500J0D01*
G01*
X437022D01*
G75*
G03*
X439272Y392493I0J2500D01*
G01*
Y401082D01*
X425403D01*
G75*
G02*
X413706I-5848J10000D01*
G01*
X389600D01*
G75*
G02*
X385794Y397277I-3805J0D01*
G01*
G75*
G02*
X381989Y401082I0J3805D01*
G01*
X379600D01*
G75*
G02*
X375794Y397277I-3805J0D01*
G01*
G75*
G02*
X371989Y401082I0J3805D01*
G01*
X369600D01*
G75*
G02*
X365794Y397277I-3805J0D01*
G01*
G75*
G02*
X361989Y401082I0J3805D01*
G01*
X359600D01*
G75*
G02*
X355794Y397277I-3805J0D01*
G01*
G75*
G02*
X351989Y401082I0J3805D01*
G01*
X349600D01*
G75*
G02*
X349126Y399243I-3809J1D01*
G01*
G75*
G02*
X349113Y399219I-468J242D01*
G01*
X347011Y395477D01*
G37*
X93272Y421082D02*
G36*
X93272Y421082D02*
Y401082D01*
X106186D01*
G75*
G02*
X100450Y411082I5848J10000D01*
G01*
G75*
G02*
X106186Y421082I11585J0D01*
G01*
X93272D01*
G37*
X123619Y411082D02*
G36*
X123619Y411082D02*
G75*
G02*
X117883Y401082I-11585J0D01*
G01*
X141989D01*
G75*
G02*
X145794Y404887I3805J0D01*
G01*
G75*
G02*
X149600Y401082I0J-3805D01*
G01*
X151989D01*
G75*
G02*
X155794Y404887I3805J0D01*
G01*
G75*
G02*
X159600Y401082I0J-3805D01*
G01*
X161989D01*
G75*
G02*
X165794Y404887I3805J0D01*
G01*
G75*
G02*
X169600Y401082I0J-3805D01*
G01*
X171989D01*
G75*
G02*
X175794Y404887I3805J0D01*
G01*
G75*
G02*
X179600Y401082I0J-3805D01*
G01*
X181989D01*
G75*
G02*
X185794Y404887I3805J0D01*
G01*
G75*
G02*
X189600Y401082I0J-3805D01*
G01*
X191989D01*
G75*
G02*
X195794Y404887I3805J0D01*
G01*
G75*
G02*
X199600Y401082I0J-3805D01*
G01*
X201989D01*
G75*
G02*
X205794Y404887I3805J0D01*
G01*
G75*
G02*
X209600Y401082I0J-3805D01*
G01*
X211989D01*
G75*
G02*
X215794Y404887I3805J0D01*
G01*
G75*
G02*
X219600Y401082I0J-3805D01*
G01*
X221989D01*
G75*
G02*
X225794Y404887I3805J0D01*
G01*
G75*
G02*
X229600Y401082I0J-3805D01*
G01*
X231989D01*
G75*
G02*
X235794Y404887I3805J0D01*
G01*
G75*
G02*
X239600Y401082I0J-3805D01*
G01*
X241989D01*
G75*
G02*
X245794Y404887I3805J0D01*
G01*
G75*
G02*
X249600Y401082I0J-3805D01*
G01*
X251989D01*
G75*
G02*
X255794Y404887I3805J0D01*
G01*
G75*
G02*
X259600Y401082I0J-3805D01*
G01*
X261989D01*
G75*
G02*
X265794Y404887I3805J0D01*
G01*
G75*
G02*
X269600Y401082I0J-3805D01*
G01*
X271989D01*
G75*
G02*
X275794Y404887I3805J0D01*
G01*
G75*
G02*
X279600Y401082I0J-3805D01*
G01*
X281989D01*
G75*
G02*
X285794Y404887I3805J0D01*
G01*
G75*
G02*
X289600Y401082I0J-3805D01*
G01*
X291989D01*
G75*
G02*
X295794Y404887I3805J0D01*
G01*
G75*
G02*
X299600Y401082I0J-3805D01*
G01*
X301989D01*
G75*
G02*
X305794Y404887I3805J0D01*
G01*
G75*
G02*
X309600Y401082I0J-3805D01*
G01*
X311989D01*
G75*
G02*
X315794Y404887I3805J0D01*
G01*
G75*
G02*
X319600Y401082I0J-3805D01*
G01*
X321989D01*
G75*
G02*
X325794Y404887I3805J0D01*
G01*
G75*
G02*
X329600Y401082I0J-3805D01*
G01*
X331989D01*
G75*
G02*
X335794Y404887I3805J0D01*
G01*
G75*
G02*
X339600Y401082I0J-3805D01*
G01*
X341989D01*
G75*
G02*
X349600I3805J0D01*
G01*
X351989D01*
G75*
G02*
X355794Y404887I3805J0D01*
G01*
G75*
G02*
X359600Y401082I0J-3805D01*
G01*
X361989D01*
G75*
G02*
X365794Y404887I3805J0D01*
G01*
G75*
G02*
X369600Y401082I0J-3805D01*
G01*
X371989D01*
G75*
G02*
X375794Y404887I3805J0D01*
G01*
G75*
G02*
X379600Y401082I0J-3805D01*
G01*
X381989D01*
G75*
G02*
X385794Y404887I3805J0D01*
G01*
G75*
G02*
X389600Y401082I0J-3805D01*
G01*
X413706D01*
G75*
G02*
X407970Y411082I5848J10000D01*
G01*
G75*
G02*
X413706Y421082I11585J0D01*
G01*
X389600D01*
G75*
G02*
X385794Y417277I-3805J0D01*
G01*
G75*
G02*
X381989Y421082I0J3805D01*
G01*
X379600D01*
G75*
G02*
X375794Y417277I-3805J0D01*
G01*
G75*
G02*
X371989Y421082I0J3805D01*
G01*
X369600D01*
G75*
G02*
X365794Y417277I-3805J0D01*
G01*
G75*
G02*
X361989Y421082I0J3805D01*
G01*
X359600D01*
G75*
G02*
X355794Y417277I-3805J0D01*
G01*
G75*
G02*
X351989Y421082I0J3805D01*
G01*
X349600D01*
G75*
G02*
X345794Y417277I-3805J0D01*
G01*
G75*
G02*
X341989Y421082I0J3805D01*
G01*
X339600D01*
G75*
G02*
X335794Y417277I-3805J0D01*
G01*
G75*
G02*
X331989Y421082I0J3805D01*
G01*
X329600D01*
G75*
G02*
X325794Y417277I-3805J0D01*
G01*
G75*
G02*
X321989Y421082I0J3805D01*
G01*
X319600D01*
G75*
G02*
X315794Y417277I-3805J0D01*
G01*
G75*
G02*
X311989Y421082I0J3805D01*
G01*
X309600D01*
G75*
G02*
X305794Y417277I-3805J0D01*
G01*
G75*
G02*
X301989Y421082I0J3805D01*
G01*
X299600D01*
G75*
G02*
X295794Y417277I-3805J0D01*
G01*
G75*
G02*
X291989Y421082I0J3805D01*
G01*
X289600D01*
G75*
G02*
X285794Y417277I-3805J0D01*
G01*
G75*
G02*
X281989Y421082I0J3805D01*
G01*
X279600D01*
G75*
G02*
X275794Y417277I-3805J0D01*
G01*
G75*
G02*
X271989Y421082I0J3805D01*
G01*
X269600D01*
G75*
G02*
X265794Y417277I-3805J0D01*
G01*
G75*
G02*
X261989Y421082I0J3805D01*
G01*
X259600D01*
G75*
G02*
X255794Y417277I-3805J0D01*
G01*
G75*
G02*
X251989Y421082I0J3805D01*
G01*
X249600D01*
G75*
G02*
X245794Y417277I-3805J0D01*
G01*
G75*
G02*
X241989Y421082I0J3805D01*
G01*
X239600D01*
G75*
G02*
X235794Y417277I-3805J0D01*
G01*
G75*
G02*
X231989Y421082I0J3805D01*
G01*
X229600D01*
G75*
G02*
X225794Y417277I-3805J0D01*
G01*
G75*
G02*
X221989Y421082I0J3805D01*
G01*
X219600D01*
G75*
G02*
X215794Y417277I-3805J0D01*
G01*
G75*
G02*
X211989Y421082I0J3805D01*
G01*
X209600D01*
G75*
G02*
X205794Y417277I-3805J0D01*
G01*
G75*
G02*
X201989Y421082I0J3805D01*
G01*
X199600D01*
G75*
G02*
X195794Y417277I-3805J0D01*
G01*
G75*
G02*
X191989Y421082I0J3805D01*
G01*
X189997D01*
G75*
G02*
X181592I-4203J0D01*
G01*
X179997D01*
G75*
G02*
X171592I-4203J0D01*
G01*
X169600D01*
G75*
G02*
X165794Y417277I-3805J0D01*
G01*
G75*
G02*
X161989Y421082I0J3805D01*
G01*
X159600D01*
G75*
G02*
X155794Y417277I-3805J0D01*
G01*
G75*
G02*
X151989Y421082I0J3805D01*
G01*
X149600D01*
G75*
G02*
X145794Y417277I-3805J0D01*
G01*
G75*
G02*
X141989Y421082I0J3805D01*
G01*
X117883D01*
G75*
G02*
X123619Y411082I-5848J-10000D01*
G01*
G37*
X431139D02*
G36*
X431139Y411082D02*
G75*
G02*
X425403Y401082I-11585J0D01*
G01*
X439272D01*
Y421082D01*
X425403D01*
G75*
G02*
X431139Y411082I-5848J-10000D01*
G01*
G37*
X60203Y450184D02*
G36*
X60203Y450184D02*
Y431083D01*
X90772D01*
G75*
G02*
X93272Y428583I0J-2500D01*
G01*
Y421082D01*
X106186D01*
G75*
G02*
X117883I5848J-10000D01*
G01*
X141989D01*
G75*
G02*
X145794Y424887I3805J0D01*
G01*
G75*
G02*
X149600Y421082I0J-3805D01*
G01*
X151989D01*
G75*
G02*
X155794Y424887I3805J0D01*
G01*
G75*
G02*
X159600Y421082I0J-3805D01*
G01*
X161989D01*
G75*
G02*
X165794Y424887I3805J0D01*
G01*
G75*
G02*
X169600Y421082I0J-3805D01*
G01*
X171592D01*
G75*
G02*
X179997I4203J0D01*
G01*
X181592D01*
G75*
G02*
X189997I4203J0D01*
G01*
X191989D01*
G75*
G02*
X195794Y424887I3805J0D01*
G01*
G75*
G02*
X199600Y421082I0J-3805D01*
G01*
X201989D01*
G75*
G02*
X205794Y424887I3805J0D01*
G01*
G75*
G02*
X209600Y421082I0J-3805D01*
G01*
X211989D01*
G75*
G02*
X215794Y424887I3805J0D01*
G01*
G75*
G02*
X219600Y421082I0J-3805D01*
G01*
X221989D01*
G75*
G02*
X225794Y424887I3805J0D01*
G01*
G75*
G02*
X229600Y421082I0J-3805D01*
G01*
X231989D01*
G75*
G02*
X235794Y424887I3805J0D01*
G01*
G75*
G02*
X239600Y421082I0J-3805D01*
G01*
X241989D01*
G75*
G02*
X245794Y424887I3805J0D01*
G01*
G75*
G02*
X249600Y421082I0J-3805D01*
G01*
X251989D01*
G75*
G02*
X255794Y424887I3805J0D01*
G01*
G75*
G02*
X259600Y421082I0J-3805D01*
G01*
X261989D01*
G75*
G02*
X265794Y424887I3805J0D01*
G01*
G75*
G02*
X269600Y421082I0J-3805D01*
G01*
X271989D01*
G75*
G02*
X275794Y424887I3805J0D01*
G01*
G75*
G02*
X279600Y421082I0J-3805D01*
G01*
X281989D01*
G75*
G02*
X285794Y424887I3805J0D01*
G01*
G75*
G02*
X289600Y421082I0J-3805D01*
G01*
X291989D01*
G75*
G02*
X295794Y424887I3805J0D01*
G01*
G75*
G02*
X299600Y421082I0J-3805D01*
G01*
X301989D01*
G75*
G02*
X305794Y424887I3805J0D01*
G01*
G75*
G02*
X309600Y421082I0J-3805D01*
G01*
X311989D01*
G75*
G02*
X315794Y424887I3805J0D01*
G01*
G75*
G02*
X319600Y421082I0J-3805D01*
G01*
X321989D01*
G75*
G02*
X325794Y424887I3805J0D01*
G01*
G75*
G02*
X329600Y421082I0J-3805D01*
G01*
X331989D01*
G75*
G02*
X335794Y424887I3805J0D01*
G01*
G75*
G02*
X339600Y421082I0J-3805D01*
G01*
X341989D01*
G75*
G02*
X345794Y424887I3805J0D01*
G01*
G75*
G02*
X349600Y421082I0J-3805D01*
G01*
X351989D01*
G75*
G02*
X355794Y424887I3805J0D01*
G01*
G75*
G02*
X359600Y421082I0J-3805D01*
G01*
X361989D01*
G75*
G02*
X365794Y424887I3805J0D01*
G01*
G75*
G02*
X369600Y421082I0J-3805D01*
G01*
X371989D01*
G75*
G02*
X375794Y424887I3805J0D01*
G01*
G75*
G02*
X379600Y421082I0J-3805D01*
G01*
X381989D01*
G75*
G02*
X385794Y424887I3805J0D01*
G01*
G75*
G02*
X389600Y421082I0J-3805D01*
G01*
X413706D01*
G75*
G02*
X425403I5848J-10000D01*
G01*
X439272D01*
Y449672D01*
G75*
G03*
X438112Y450833I-2250J-1090D01*
G01*
X61033D01*
G75*
G03*
X60203Y450184I1090J-2249D01*
G01*
G37*
X109953Y60807D02*
G75*
G03*
X112485Y58276I2531J0D01*
G01*
X137170D01*
G75*
G02*
X139638Y55807I0J-2469D01*
G01*
Y48583D01*
X141790D01*
Y48785D01*
X141900D01*
G75*
G02*
X142239Y49609I3242J-853D01*
G01*
X142636Y50297D01*
Y76150D01*
X140075Y78711D01*
G75*
G02*
X139093Y81082I2370J2370D01*
G01*
G75*
G02*
Y81083I1381J1D01*
G01*
G75*
G02*
Y81087I1381J2D01*
G01*
Y113262D01*
G75*
G02*
Y113266I1410J2D01*
G01*
G75*
G02*
Y113267I1440J1D01*
G01*
G75*
G02*
X140075Y115637I3352J0D01*
G01*
X142843Y118406D01*
Y122730D01*
X136195D01*
G75*
G02*
X135691Y122769I0J3354D01*
G01*
X130866D01*
G75*
G02*
X123272Y123771I-3420J3352D01*
G01*
Y119162D01*
G75*
G02*
X132632Y116082I4173J-3080D01*
G01*
G75*
G02*
X123272Y113002I-5187J0D01*
G01*
Y107333D01*
G75*
G02*
X120772Y104833I-2500J0D01*
G01*
X108775D01*
G75*
G02*
X109953Y100807I-6291J-4026D01*
G01*
Y60807D01*
G36*
X109953Y60807D02*
G75*
G03*
X112485Y58276I2531J0D01*
G01*
X137170D01*
G75*
G02*
X139638Y55807I0J-2469D01*
G01*
Y48583D01*
X141790D01*
Y48785D01*
X141900D01*
G75*
G02*
X142239Y49609I3242J-853D01*
G01*
X142636Y50297D01*
Y76150D01*
X140075Y78711D01*
G75*
G02*
X139093Y81082I2370J2370D01*
G01*
G75*
G02*
Y81083I1381J1D01*
G01*
G75*
G02*
Y81087I1381J2D01*
G01*
Y113262D01*
G75*
G02*
Y113266I1410J2D01*
G01*
G75*
G02*
Y113267I1440J1D01*
G01*
G75*
G02*
X140075Y115637I3352J0D01*
G01*
X142843Y118406D01*
Y122730D01*
X136195D01*
G75*
G02*
X135691Y122769I0J3354D01*
G01*
X130866D01*
G75*
G02*
X123272Y123771I-3420J3352D01*
G01*
Y119162D01*
G75*
G02*
X132632Y116082I4173J-3080D01*
G01*
G75*
G02*
X123272Y113002I-5187J0D01*
G01*
Y107333D01*
G75*
G02*
X120772Y104833I-2500J0D01*
G01*
X108775D01*
G75*
G02*
X109953Y100807I-6291J-4026D01*
G01*
Y60807D01*
G37*
X142450Y8169D02*
G75*
G02*
X137170Y13449I0J5280D01*
G01*
Y55807D01*
X112485D01*
G75*
G02*
X107485Y60807I0J5000D01*
G01*
Y100807D01*
G75*
G03*
X102485Y105807I-5000J0D01*
G01*
X63735D01*
G75*
G02*
X57485Y112057I0J6250D01*
G01*
Y453582D01*
G75*
G02*
X63735Y459832I6250J0D01*
G01*
X436235D01*
G75*
G02*
X442485Y453582I0J-6250D01*
G01*
Y63075D01*
G75*
G02*
X435217Y55807I-7268J0D01*
G01*
X394807D01*
Y13667D01*
G75*
G02*
X389310Y8169I-5497J0D01*
G01*
X142450D01*
X169945Y168583D02*
Y158583D01*
X172445Y156083D01*
X181532D01*
Y161551D01*
X188359D01*
Y156083D01*
X191532D01*
Y161551D01*
X198359D01*
Y156083D01*
X203776D01*
Y161508D01*
X208638D01*
Y161110D01*
X211256D01*
Y161508D01*
X216119D01*
Y156083D01*
X217445D01*
Y168583D01*
X214945Y171083D01*
X172445D01*
X169945Y168583D01*
G36*
X169945Y168583D02*
Y158583D01*
X172445Y156083D01*
X181532D01*
Y161551D01*
X188359D01*
Y156083D01*
X191532D01*
Y161551D01*
X198359D01*
Y156083D01*
X203776D01*
Y161508D01*
X208638D01*
Y161110D01*
X211256D01*
Y161508D01*
X216119D01*
Y156083D01*
X217445D01*
Y168583D01*
X214945Y171083D01*
X172445D01*
X169945Y168583D01*
G37*
X209945Y149832D02*
Y141082D01*
X213044Y137983D01*
X235119D01*
X236099Y138550D01*
Y138863D01*
X243611D01*
Y128743D01*
X244076D01*
X245413Y129515D01*
G75*
G02*
X245448Y129534I678J-1179D01*
G01*
G75*
G02*
X249091Y127391I1191J-2144D01*
G01*
G75*
G02*
X245448Y125247I-2452J0D01*
G01*
G75*
G02*
X245413Y125267I646J1205D01*
G01*
X244076Y126038D01*
X243611D01*
Y106167D01*
X247529Y102248D01*
X248731D01*
Y102247D01*
X253715D01*
Y102646D01*
X257445D01*
Y111082D01*
X259945Y113582D01*
X280882D01*
Y116442D01*
X280300Y116779D01*
X279974D01*
X278685Y116035D01*
G75*
G02*
X278667Y116024I-594J1034D01*
G01*
G75*
G02*
X275399Y117932I-1076J1908D01*
G01*
G75*
G02*
X278053Y120074I2191J0D01*
G01*
G75*
G02*
X281061Y123046I1908J1077D01*
G01*
G75*
G02*
X281082Y123033I-557J-983D01*
G01*
X281280Y122915D01*
Y137247D01*
X278610Y139917D01*
X277475D01*
Y139520D01*
X272613D01*
Y139917D01*
X267414D01*
G75*
G02*
X265781Y136184I-1555J-1543D01*
G01*
G75*
G02*
X265803Y135877I-2170J-307D01*
G01*
G75*
G02*
X262536Y133969I-2191J0D01*
G01*
G75*
G02*
X262517Y133980I575J1044D01*
G01*
X261228Y134724D01*
X257489D01*
G75*
G02*
X256672Y135063I0J1154D01*
G01*
X252182Y139553D01*
G75*
G02*
X251936Y139917I814J817D01*
G01*
X250963D01*
Y139917D01*
X244664D01*
Y147429D01*
X244945D01*
Y148582D01*
X241195Y152332D01*
X238359D01*
Y148110D01*
X231532D01*
Y152332D01*
X228359D01*
Y148110D01*
X221532D01*
Y152332D01*
X212445D01*
X209945Y149832D01*
X211256Y150484D02*
X216119D01*
Y144441D01*
X211256D01*
Y150484D01*
X210195Y147463D02*
G36*
X210195Y147463D02*
Y140832D01*
X213044Y137983D01*
X235119D01*
X236099Y138550D01*
Y138863D01*
X243611D01*
Y128743D01*
X244076D01*
X245413Y129515D01*
X245448Y129534D01*
G75*
G02*
X249091Y127391I1191J-2144D01*
G01*
G75*
G02*
X245448Y125247I-2452J0D01*
G01*
X245413Y125267D01*
X244076Y126038D01*
X243611D01*
Y106167D01*
X247280Y102497D01*
X253715D01*
Y102646D01*
X257445D01*
Y111082D01*
X259945Y113582D01*
X280882D01*
Y116442D01*
X280300Y116779D01*
X279974D01*
X278685Y116035D01*
G75*
G02*
X278667Y116024I-177J293D01*
G01*
G75*
G02*
X275399Y117932I-1076J1909D01*
G01*
Y117933D01*
G75*
G02*
X278053Y120074I2191J0D01*
G01*
G75*
G02*
X277770Y121150I1909J1076D01*
G01*
G75*
G02*
X281030Y123063I2191J0D01*
G01*
Y137497D01*
X278610Y139917D01*
X277475D01*
Y139520D01*
X272613D01*
Y139917D01*
X267414D01*
G75*
G02*
X268049Y138374I-1556J-1543D01*
G01*
G75*
G02*
X265781Y136184I-2191J0D01*
G01*
G75*
G02*
X265803Y135877I-2204J-310D01*
G01*
G75*
G02*
X262536Y133969I-2191J0D01*
G01*
G75*
G02*
X262517Y133980I158J304D01*
G01*
X261228Y134724D01*
X257489D01*
G75*
G02*
X256672Y135063I0J1154D01*
G01*
X252182Y139553D01*
G75*
G02*
X251936Y139917I814J818D01*
G01*
X250963D01*
Y139917D01*
X244664D01*
Y147429D01*
X244945D01*
Y147463D01*
X216119D01*
Y144441D01*
X211256D01*
Y147463D01*
X210195D01*
G37*
Y150082D02*
G36*
X210195Y150082D02*
Y147463D01*
X211256D01*
Y150484D01*
X216119D01*
Y147463D01*
X244945D01*
Y148582D01*
X241445Y152082D01*
X238359D01*
Y148110D01*
X231532D01*
Y152082D01*
X228359D01*
Y148110D01*
X221532D01*
Y152082D01*
X212195D01*
X210195Y150082D01*
G37*
X258548Y102646D02*
G75*
G02*
X258474Y102247I-1103J0D01*
G01*
X260014D01*
Y102646D01*
X264876D01*
Y102247D01*
X279432D01*
Y107297D01*
G75*
G02*
X279771Y108114I1154J0D01*
G01*
X280882Y109226D01*
Y112479D01*
X260402D01*
X258548Y110625D01*
Y102646D01*
G36*
X258548Y102646D02*
G75*
G02*
X258474Y102247I-1103J0D01*
G01*
X260014D01*
Y102646D01*
X264876D01*
Y102247D01*
X279432D01*
Y107297D01*
G75*
G02*
X279771Y108114I1154J0D01*
G01*
X280882Y109226D01*
Y112479D01*
X260402D01*
X258548Y110625D01*
Y102646D01*
G37*
D02*
D13*
X102178Y311082D02*
X100178D01*
X102200Y411082D02*
X100200D01*
X112012Y301247D02*
Y299247D01*
Y320917D02*
Y322917D01*
X112035Y401247D02*
Y399247D01*
Y420917D02*
Y422917D01*
X121847Y311082D02*
X123847D01*
X121869Y411082D02*
X123869D01*
X125015Y113652D02*
X123601Y112237D01*
X125015Y118512D02*
X123601Y119926D01*
X125015Y153652D02*
X123601Y152237D01*
X125015Y158512D02*
X123601Y159926D01*
X125015Y203652D02*
X123601Y202237D01*
X125015Y208512D02*
X123601Y209926D01*
X125015Y253652D02*
X123601Y252237D01*
X125015Y258512D02*
X123601Y259926D01*
X129876Y113652D02*
X131290Y112237D01*
X129876Y118512D02*
X131290Y119926D01*
X129876Y153652D02*
X131290Y152237D01*
X129876Y158512D02*
X131290Y159926D01*
X129876Y203652D02*
X131290Y202237D01*
X129876Y208512D02*
X131290Y209926D01*
X129876Y253652D02*
X131290Y252237D01*
X129876Y258512D02*
X131290Y259926D01*
X173319Y321082D02*
X171319D01*
X173342Y421082D02*
X171342D01*
X175772Y318629D02*
Y316629D01*
Y323535D02*
Y325535D01*
X175794Y418629D02*
Y416629D01*
Y423535D02*
Y425535D01*
X177445Y77332D02*
X198046D01*
X178225Y321082D02*
X180225D01*
X178247Y421082D02*
X180247D01*
X179645Y77332D02*
X177995Y76379D01*
G75*
G03*
Y78285I-550J953D01*
G01*
X179645Y77332D01*
G36*
X179645Y77332D02*
X177995Y76379D01*
G75*
G03*
Y78285I-550J953D01*
G01*
X179645Y77332D01*
G37*
X183280Y151332D02*
X181280D01*
X183280Y158332D02*
X181280D01*
X183319Y321082D02*
X181319D01*
X183342Y421082D02*
X181342D01*
X184945Y149862D02*
Y147862D01*
Y152802D02*
Y154803D01*
Y159802D02*
Y161803D01*
X185772Y318629D02*
Y316629D01*
Y323535D02*
Y325535D01*
X185794Y418629D02*
Y416629D01*
Y423535D02*
Y425535D01*
X186610Y151332D02*
X188611D01*
X186610Y158332D02*
X188611D01*
X188225Y321082D02*
X190225D01*
X188247Y421082D02*
X190247D01*
X193280Y151332D02*
X191280D01*
X193280Y158332D02*
X191280D01*
X194945Y149862D02*
Y147862D01*
Y152802D02*
Y154803D01*
Y159802D02*
Y161803D01*
X196610Y151332D02*
X198611D01*
X196610Y158332D02*
X198611D01*
X198046Y77332D02*
X200211D01*
X202180D01*
X204345D01*
X219278D01*
X205526Y158487D02*
X203524D01*
X206207Y159759D02*
Y161760D01*
X209947Y157215D02*
Y155217D01*
X213006Y147463D02*
X211004D01*
X213687Y146192D02*
Y144193D01*
Y148735D02*
Y150736D01*
Y159759D02*
Y161760D01*
X214368Y147463D02*
X216367D01*
X214368Y158487D02*
X216367D01*
X219278Y77332D02*
X221443D01*
X223411D01*
X223280Y151332D02*
X221280D01*
X223280Y158332D02*
X221280D01*
X224945Y77332D02*
X223411D01*
X224945Y149862D02*
Y147862D01*
Y156862D02*
Y154862D01*
Y159802D02*
Y161803D01*
X226610Y151332D02*
X228611D01*
X226610Y158332D02*
X228611D01*
X233280Y151332D02*
X231280D01*
X233280Y158332D02*
X231280D01*
X234945Y149862D02*
Y147862D01*
Y156862D02*
Y154862D01*
Y159802D02*
Y161803D01*
X236610Y151332D02*
X238611D01*
X236610Y158332D02*
X238611D01*
X237451Y127381D02*
X235451D01*
X244181Y81891D02*
X242767Y80477D01*
X244181Y85778D02*
X242767Y87192D01*
X244439Y127391D02*
X246089Y128343D01*
G75*
G03*
Y126438I550J-953D01*
G01*
X244439Y127391D01*
G36*
X244439Y127391D02*
X246089Y128343D01*
G75*
G03*
Y126438I550J-953D01*
G01*
X244439Y127391D01*
G37*
X246639D02*
X239864D01*
X239855Y127381D01*
X248067Y81891D02*
X249481Y80477D01*
X248067Y85778D02*
X249481Y87192D01*
X254098Y162332D02*
X248273D01*
X240772Y169833D01*
X214522D01*
Y168583D01*
X254098Y162332D02*
X256263D01*
X256146Y94408D02*
X256827Y95588D01*
X255465D01*
X256146Y94408D01*
G36*
X256146Y94408D02*
X256827Y95588D01*
X255465D01*
X256146Y94408D01*
G37*
Y98491D02*
Y83856D01*
X256124Y83834D01*
X256146Y100895D02*
Y102894D01*
X256263Y162332D02*
X258231D01*
X259945D02*
X258231D01*
X262445Y100895D02*
Y102894D01*
X262489Y101852D02*
X261536Y103502D01*
G75*
G03*
X263442I953J550D01*
G01*
X262489Y101852D01*
G36*
X262489Y101852D02*
X261536Y103502D01*
G75*
G03*
X263442I953J550D01*
G01*
X262489Y101852D01*
G37*
Y104052D02*
Y98535D01*
X262445Y98491D01*
X275044Y141269D02*
Y139268D01*
X282632Y111633D02*
X280632D01*
X282632Y114783D02*
X280632D01*
X285036D02*
X294426D01*
X294627Y114582D01*
X287439Y111633D02*
X289439D01*
X289119Y114783D02*
X287939Y115464D01*
Y114102D01*
X289119Y114783D01*
G36*
X289119Y114783D02*
X287939Y115464D01*
Y114102D01*
X289119Y114783D01*
G37*
X292962Y107582D02*
X290961D01*
X294627Y106112D02*
Y104110D01*
Y109052D02*
Y111051D01*
X296292Y107582D02*
X298292D01*
X350015Y103652D02*
X348601Y102237D01*
X350015Y108512D02*
X348601Y109926D01*
X350015Y153652D02*
X348601Y152237D01*
X350015Y158512D02*
X348601Y159926D01*
X350015Y203652D02*
X348601Y202237D01*
X350015Y208512D02*
X348601Y209926D01*
X350015Y253652D02*
X348601Y252237D01*
X350015Y258512D02*
X348601Y259926D01*
X354876Y103652D02*
X356290Y102237D01*
X354876Y108512D02*
X356290Y109926D01*
X354876Y153652D02*
X356290Y152237D01*
X354876Y158512D02*
X356290Y159926D01*
X354876Y203652D02*
X356290Y202237D01*
X354876Y208512D02*
X356290Y209926D01*
X354876Y253652D02*
X356290Y252237D01*
X354876Y258512D02*
X356290Y259926D01*
X409697Y311082D02*
X407697D01*
X409720Y411082D02*
X407720D01*
X419532Y301247D02*
Y299247D01*
Y320917D02*
Y322917D01*
X419554Y401247D02*
Y399247D01*
Y420917D02*
Y422917D01*
X429367Y311082D02*
X431367D01*
X429389Y411082D02*
X431389D01*
D02*
D14*
X142876Y317763D02*
X143611Y321506D01*
G75*
G03*
X146485Y318998I2161J-424D01*
G01*
X142876Y317763D01*
G36*
X142876Y317763D02*
X143611Y321506D01*
G75*
G03*
X146485Y318998I2161J-424D01*
G01*
X142876Y317763D01*
G37*
X145772Y321082D02*
Y320659D01*
X135772Y310659D01*
Y275906D01*
X145772Y321082D02*
Y334979D01*
X135772Y344979D01*
Y366123D01*
X145772Y325487D02*
X147680Y322183D01*
G75*
G03*
X143865I-1907J-1101D01*
G01*
X145772Y325487D01*
G36*
X145772Y325487D02*
X147680Y322183D01*
G75*
G03*
X143865I-1907J-1101D01*
G01*
X145772Y325487D01*
G37*
D02*
D15*
X191102Y62493D03*
X195969Y57376D03*
Y138498D03*
X199463Y135128D03*
X201086Y62368D03*
X202459Y132383D03*
X204705Y124231D03*
X205989Y57251D03*
X207076Y120901D03*
X209323Y117932D03*
X210945Y62368D03*
X211694Y114783D03*
X215989Y57501D03*
X221054Y62493D03*
X225772Y101681D03*
X225955Y57501D03*
X228168Y98811D03*
X230415Y96190D03*
X231039Y62493D03*
Y66487D03*
X231663Y76096D03*
X235989Y57626D03*
X240274Y76221D03*
X242645Y69731D03*
X245989Y57626D03*
X246697Y154833D03*
X248272Y284833D03*
X249847Y157333D03*
X252022Y284833D03*
X253753Y69981D03*
X255989Y57501D03*
X258870Y69981D03*
X263612Y135877D03*
X263737Y269292D03*
X265859Y138373D03*
Y266172D03*
X265989Y57501D03*
Y69981D03*
X270976Y68109D03*
X275989Y57501D03*
X277590Y117932D03*
X279961Y121150D03*
X285989Y57501D03*
X289946Y124231D03*
X292442Y127381D03*
X294938Y130511D03*
X295989Y57501D03*
X297309Y133680D03*
X299680Y136830D03*
X302052Y148981D03*
X305989Y57750D03*
X306544Y151228D03*
X309290Y153599D03*
X312036Y155970D03*
X315919Y57875D03*
X319399Y160963D03*
X325989Y58125D03*
X330382Y158467D03*
X335989Y58000D03*
X345989Y58125D03*
X355989Y58250D03*
X360898Y56086D03*
X368136D03*
X381302Y56211D03*
D02*
D16*
X146195Y126083D03*
X155907Y136082D03*
X163695Y146082D03*
X176000Y59498D03*
X182445Y83582D03*
X185860Y59498D03*
X192445Y83582D03*
D02*
D17*
X67445Y440729D03*
X100772Y296083D03*
Y326083D03*
Y396083D03*
Y426083D03*
X102445Y440979D03*
X117445Y66082D03*
Y91082D03*
X125772Y296083D03*
Y326083D03*
Y341083D03*
Y381083D03*
X130772Y396083D03*
Y426083D03*
X131049Y66082D03*
Y91082D03*
X152445Y449465D03*
X174945Y161082D03*
Y166082D03*
X177445Y77332D03*
X180772Y331083D03*
X182445Y106082D03*
X184522Y146082D03*
Y201083D03*
Y246082D03*
Y281083D03*
X190772Y391083D03*
X192445Y106082D03*
Y146083D03*
Y201083D03*
Y246082D03*
Y281083D03*
X202445Y449465D03*
X214522Y281083D03*
X214945Y101082D03*
Y201083D03*
Y246082D03*
X219945Y127332D03*
Y158582D03*
X222022Y166083D03*
X222445Y201083D03*
Y246082D03*
Y281083D03*
X234971Y166083D03*
X235096Y201083D03*
Y246082D03*
Y281083D03*
X246639Y127391D03*
X252445Y449465D03*
X253272Y201083D03*
X254522Y166082D03*
Y246082D03*
X259522Y166082D03*
X259945Y201083D03*
Y246082D03*
Y281083D03*
X262489Y104052D03*
Y109169D03*
X284945Y166082D03*
Y201083D03*
Y246082D03*
Y281083D03*
X286195Y68582D03*
X302445Y449465D03*
X340772Y90906D03*
Y146082D03*
Y201083D03*
Y246082D03*
X352445Y449465D03*
X360772Y91280D03*
X360773Y76304D03*
X372022Y341083D03*
X392387Y66082D03*
Y91082D03*
X394522Y341083D03*
Y381083D03*
X402445Y449465D03*
X405772Y296083D03*
Y326083D03*
Y396083D03*
Y426083D03*
X430772Y296083D03*
Y326083D03*
Y396083D03*
Y426083D03*
Y449465D03*
D02*
D18*
X67445Y426082D03*
X67485Y115996D03*
Y125996D03*
Y135996D03*
Y145996D03*
Y155996D03*
Y165996D03*
Y175996D03*
Y185996D03*
Y195996D03*
Y206088D03*
Y216072D03*
Y225807D03*
Y235807D03*
Y245807D03*
Y255807D03*
Y265807D03*
Y275807D03*
Y285807D03*
Y295807D03*
Y305807D03*
Y315807D03*
Y325807D03*
Y335807D03*
Y345807D03*
Y355807D03*
Y365807D03*
Y375807D03*
Y385807D03*
Y396009D03*
Y406009D03*
Y416009D03*
X77445Y325807D03*
Y385807D03*
X77485Y115996D03*
Y125996D03*
Y135996D03*
Y145996D03*
Y155996D03*
Y165996D03*
Y175996D03*
Y185996D03*
Y195996D03*
Y206088D03*
Y216072D03*
Y225807D03*
Y235807D03*
Y245807D03*
Y255807D03*
Y265807D03*
Y275807D03*
Y285807D03*
Y295807D03*
Y305807D03*
Y315807D03*
Y335807D03*
Y345807D03*
Y355807D03*
Y365807D03*
Y375807D03*
Y396009D03*
Y406009D03*
Y416009D03*
Y425962D03*
X87445Y185996D03*
Y225807D03*
Y325807D03*
Y365807D03*
Y385807D03*
X87485Y115996D03*
Y125996D03*
Y135996D03*
Y145996D03*
Y155996D03*
Y165996D03*
Y175996D03*
Y195996D03*
Y206088D03*
Y216072D03*
Y235807D03*
Y245807D03*
Y255807D03*
Y265807D03*
Y275807D03*
Y285807D03*
Y295807D03*
Y305807D03*
Y315807D03*
Y335807D03*
Y345807D03*
Y355807D03*
Y375807D03*
Y396009D03*
Y406009D03*
Y416009D03*
Y426082D03*
X97437Y116121D03*
Y126121D03*
Y136121D03*
Y146121D03*
Y156121D03*
Y166121D03*
Y176121D03*
Y186121D03*
Y196121D03*
X97445Y345807D03*
Y355807D03*
Y385807D03*
X97485Y206088D03*
Y216072D03*
Y225807D03*
Y235807D03*
Y245807D03*
Y255807D03*
Y265807D03*
Y275807D03*
Y285807D03*
Y335807D03*
Y365807D03*
Y375807D03*
X107437Y116121D03*
Y126121D03*
Y136121D03*
Y146121D03*
Y156121D03*
Y166121D03*
Y176121D03*
Y186121D03*
Y196121D03*
X107445Y245807D03*
Y275807D03*
X107469Y336008D03*
Y346008D03*
Y356008D03*
Y366008D03*
Y376008D03*
Y386008D03*
X107485Y206088D03*
Y216072D03*
Y225807D03*
Y235807D03*
Y255807D03*
Y265807D03*
Y285807D03*
X117437Y126121D03*
Y136121D03*
Y146121D03*
Y156121D03*
Y166121D03*
Y176121D03*
Y186121D03*
Y196121D03*
X117445Y116121D03*
X117453Y206338D03*
Y216322D03*
Y226057D03*
Y236057D03*
Y246057D03*
Y256057D03*
Y266057D03*
Y276057D03*
Y286057D03*
X117469Y336008D03*
Y346008D03*
Y356008D03*
Y366008D03*
Y376008D03*
Y386008D03*
X127445Y116082D03*
Y126121D03*
Y136082D03*
Y146082D03*
Y156082D03*
Y206082D03*
Y256082D03*
X352445Y106082D03*
Y156082D03*
Y206082D03*
Y256082D03*
X362445Y196082D03*
X362485Y105807D03*
Y115807D03*
Y125807D03*
Y135807D03*
Y145807D03*
Y155807D03*
Y165807D03*
Y175807D03*
Y185807D03*
Y205807D03*
Y215807D03*
Y225807D03*
Y235807D03*
Y245807D03*
Y255807D03*
X372485Y105807D03*
Y115807D03*
Y125807D03*
Y135807D03*
Y145807D03*
Y155807D03*
Y165807D03*
Y175807D03*
Y185807D03*
Y195807D03*
Y205807D03*
Y215807D03*
Y225807D03*
Y235807D03*
Y245807D03*
Y255807D03*
X382485Y105807D03*
Y115807D03*
Y125807D03*
Y135807D03*
Y145807D03*
Y155807D03*
Y165807D03*
Y175807D03*
Y185807D03*
Y195807D03*
Y205807D03*
Y215807D03*
Y225807D03*
Y235807D03*
Y245807D03*
Y255807D03*
X392485Y105807D03*
Y115807D03*
Y125807D03*
Y135807D03*
Y145807D03*
Y155807D03*
Y165807D03*
Y175807D03*
Y185807D03*
Y195807D03*
Y205807D03*
Y215807D03*
Y225807D03*
Y235807D03*
Y245807D03*
Y255807D03*
Y265807D03*
Y275807D03*
Y285807D03*
X402485Y65807D03*
Y75807D03*
Y85807D03*
Y95807D03*
Y105807D03*
Y115807D03*
Y125807D03*
Y135807D03*
Y145807D03*
Y155807D03*
Y165807D03*
Y175807D03*
Y185807D03*
Y195807D03*
Y205807D03*
Y215807D03*
Y225807D03*
Y235807D03*
Y245807D03*
Y255807D03*
Y265807D03*
Y275807D03*
Y285807D03*
Y335807D03*
Y345807D03*
Y355807D03*
Y365807D03*
Y375807D03*
Y385807D03*
X412485Y65807D03*
Y75807D03*
Y85807D03*
Y95807D03*
Y105807D03*
Y115807D03*
Y125807D03*
Y135807D03*
Y145807D03*
Y155807D03*
Y165807D03*
Y175807D03*
Y185807D03*
Y195807D03*
Y205807D03*
Y215807D03*
Y225807D03*
Y235807D03*
Y245807D03*
Y255807D03*
Y265807D03*
Y275807D03*
Y285807D03*
Y335807D03*
Y345807D03*
Y355807D03*
Y365807D03*
Y375807D03*
Y385807D03*
X422485Y65807D03*
Y75807D03*
Y85807D03*
Y95807D03*
Y105807D03*
Y115807D03*
Y125807D03*
Y135807D03*
Y145807D03*
Y155807D03*
Y165807D03*
Y175807D03*
Y185807D03*
Y195807D03*
Y205807D03*
Y215807D03*
Y225807D03*
Y235807D03*
Y245807D03*
Y255807D03*
Y265807D03*
Y275807D03*
Y285807D03*
Y335807D03*
Y345807D03*
Y355807D03*
Y365807D03*
Y375807D03*
Y385807D03*
X432485Y65807D03*
Y75807D03*
Y85807D03*
Y95807D03*
Y105807D03*
Y115807D03*
Y125807D03*
Y135807D03*
Y145807D03*
Y155807D03*
Y165807D03*
Y175807D03*
Y185807D03*
Y195807D03*
Y205807D03*
Y215807D03*
Y225807D03*
Y235807D03*
Y245807D03*
Y255807D03*
Y265807D03*
Y275807D03*
Y285807D03*
Y335807D03*
Y345807D03*
Y355807D03*
Y365807D03*
Y375807D03*
Y385807D03*
D02*
D19*
X145989Y30217D03*
X155989D03*
X165989D03*
X185989D03*
X195989D03*
X205989D03*
X215989D03*
X225989D03*
X235989D03*
X245989D03*
X255989D03*
X265989D03*
X275989D03*
X285989D03*
X295989D03*
X305989D03*
X315989D03*
X325989D03*
X335989D03*
X345989D03*
X355989D03*
X365989D03*
X375989D03*
X385989D03*
D02*
D70*
X256124Y83834D03*
D02*
D71*
X206124D03*
X216124D03*
X226124D03*
X236124D03*
X246124D03*
D02*
D20*
X145772Y301082D03*
Y321082D03*
X145794Y401082D03*
Y421082D03*
X155772Y301082D03*
Y321082D03*
X155794Y401082D03*
Y421082D03*
X165772Y301082D03*
Y321082D03*
X165794Y401082D03*
Y421082D03*
X175772Y301082D03*
Y321082D03*
X175794Y401082D03*
Y421082D03*
X185772Y301082D03*
Y321082D03*
X185794Y401082D03*
Y421082D03*
X195772Y301082D03*
Y321082D03*
X195794Y401082D03*
Y421082D03*
X205772Y301082D03*
Y321082D03*
X205794Y401082D03*
Y421082D03*
X215772Y301082D03*
Y321082D03*
X215794Y401082D03*
Y421082D03*
X225772Y301082D03*
Y321082D03*
X225794Y401082D03*
Y421082D03*
X235772Y301082D03*
Y321082D03*
X235794Y401082D03*
Y421082D03*
X245772Y301082D03*
Y321082D03*
X245794Y401082D03*
Y421082D03*
X255772Y301082D03*
Y321082D03*
X255794Y401082D03*
Y421082D03*
X265772Y301082D03*
Y321082D03*
X265794Y401082D03*
Y421082D03*
X275772Y301082D03*
Y321082D03*
X275794Y401082D03*
Y421082D03*
X285772Y301082D03*
Y321082D03*
X285794Y401082D03*
Y421082D03*
X295772Y301082D03*
Y321082D03*
X295794Y401082D03*
Y421082D03*
X305772Y301082D03*
Y321082D03*
X305794Y401082D03*
Y421082D03*
X315772Y301082D03*
Y321082D03*
X315794Y401082D03*
Y421082D03*
X325772Y301082D03*
Y321082D03*
X325794Y401082D03*
Y421082D03*
X335772Y301082D03*
Y321082D03*
X335794Y401082D03*
Y421082D03*
X345772Y301082D03*
Y321082D03*
X345794Y401082D03*
Y421082D03*
X355772Y301082D03*
Y321082D03*
X355794Y401082D03*
Y421082D03*
X365772Y301082D03*
Y321082D03*
X365794Y401082D03*
Y421082D03*
X375772Y301082D03*
Y321082D03*
X375794Y401082D03*
Y421082D03*
X385772Y301082D03*
Y321082D03*
X385794Y401082D03*
Y421082D03*
D02*
D21*
X112012Y311082D03*
X112035Y411082D03*
X419532Y311082D03*
X419554Y411082D03*
D02*
D22*
X135772Y265906D03*
Y275906D03*
Y366123D03*
Y376123D03*
X375772Y266031D03*
Y276031D03*
Y366123D03*
Y376123D03*
D02*
D93*
X175989Y33169D03*
D02*
D94*
X239855Y105334D03*
Y108483D03*
Y111633D03*
Y114783D03*
Y117932D03*
Y121082D03*
Y124231D03*
Y127381D03*
Y130531D03*
Y133680D03*
Y136830D03*
X285036Y105334D03*
Y108483D03*
Y111633D03*
Y114783D03*
Y117932D03*
Y121082D03*
Y124231D03*
Y127381D03*
Y130531D03*
Y133680D03*
Y136830D03*
D02*
D95*
X246697Y98491D03*
Y143672D03*
X249847Y98491D03*
Y143672D03*
X252996Y98491D03*
Y143672D03*
X256146Y98491D03*
Y143672D03*
X259296Y98491D03*
Y143672D03*
X262445Y98491D03*
Y143672D03*
X265595Y98491D03*
Y143672D03*
X268744Y98491D03*
Y143672D03*
X271894Y98491D03*
Y143672D03*
X275044Y98491D03*
Y143672D03*
X278193Y98491D03*
Y143672D03*
D02*
D96*
X184945Y151332D03*
Y158332D03*
X194945Y151332D03*
Y158332D03*
X224945Y151332D03*
Y158332D03*
X234945Y151332D03*
Y158332D03*
X294627Y107582D03*
Y114582D03*
D02*
D97*
X206207Y147463D03*
Y158487D03*
X209947D03*
X213687Y147463D03*
Y158487D03*
D02*
D98*
X198046Y70167D03*
Y74497D03*
X204345Y70167D03*
Y74497D03*
X219278Y70167D03*
Y74497D03*
X225577Y70167D03*
Y74497D03*
X254098Y155167D03*
Y159497D03*
X260397Y155167D03*
Y159497D03*
D02*
D99*
X200211Y70167D03*
Y74497D03*
X202180Y70167D03*
Y74497D03*
X221443Y70167D03*
Y74497D03*
X223411Y70167D03*
Y74497D03*
X256263Y155167D03*
Y159497D03*
X258231Y155167D03*
Y159497D03*
X0Y0D02*
M02*
