G04 DesignSpark PCB PRO Gerber Version 10.0 Build 5299*
%FSLAX35Y35*%
%MOIN*%
%ADD108R,0.06893X0.35633*%
%ADD120R,0.06200X0.06200*%
%ADD110R,0.06696X0.06696*%
%ADD12C,0.00500*%
%ADD112C,0.06106*%
%ADD111C,0.06696*%
%ADD107C,0.08074*%
%ADD24R,2.58583X0.41339*%
%ADD113C,0.20869*%
X0Y0D02*
D02*
D12*
X142450Y8169D02*
G75*
G02*
X137170Y13449I0J5280D01*
G01*
Y55807D01*
X112485D01*
G75*
G02*
X107485Y60807I0J5000D01*
G01*
Y100807D01*
G75*
G03*
X102485Y105807I-5000J0D01*
G01*
X63735D01*
G75*
G02*
X57485Y112057I0J6250D01*
G01*
Y453582D01*
G75*
G02*
X63735Y459832I6250J0D01*
G01*
X436235D01*
G75*
G02*
X442485Y453582I0J-6250D01*
G01*
Y63075D01*
G75*
G02*
X435217Y55807I-7268J0D01*
G01*
X394807D01*
Y13667D01*
G75*
G02*
X389310Y8169I-5497J0D01*
G01*
X142450D01*
D02*
D24*
X265548Y28005D03*
D02*
D107*
X67445Y426082D03*
X67485Y115996D03*
Y125996D03*
Y135996D03*
Y145996D03*
Y155996D03*
Y165996D03*
Y175996D03*
Y185996D03*
Y195996D03*
Y206088D03*
Y216072D03*
Y225807D03*
Y235807D03*
Y245807D03*
Y255807D03*
Y265807D03*
Y275807D03*
Y285807D03*
Y295807D03*
Y305807D03*
Y315807D03*
Y325807D03*
Y335807D03*
Y345807D03*
Y355807D03*
Y365807D03*
Y375807D03*
Y385807D03*
Y396009D03*
Y406009D03*
Y416009D03*
X77445Y325807D03*
Y385807D03*
X77485Y115996D03*
Y125996D03*
Y135996D03*
Y145996D03*
Y155996D03*
Y165996D03*
Y175996D03*
Y185996D03*
Y195996D03*
Y206088D03*
Y216072D03*
Y225807D03*
Y235807D03*
Y245807D03*
Y255807D03*
Y265807D03*
Y275807D03*
Y285807D03*
Y295807D03*
Y305807D03*
Y315807D03*
Y335807D03*
Y345807D03*
Y355807D03*
Y365807D03*
Y375807D03*
Y396009D03*
Y406009D03*
Y416009D03*
Y425962D03*
X87445Y185996D03*
Y225807D03*
Y325807D03*
Y365807D03*
Y385807D03*
X87485Y115996D03*
Y125996D03*
Y135996D03*
Y145996D03*
Y155996D03*
Y165996D03*
Y175996D03*
Y195996D03*
Y206088D03*
Y216072D03*
Y235807D03*
Y245807D03*
Y255807D03*
Y265807D03*
Y275807D03*
Y285807D03*
Y295807D03*
Y305807D03*
Y315807D03*
Y335807D03*
Y345807D03*
Y355807D03*
Y375807D03*
Y396009D03*
Y406009D03*
Y416009D03*
Y426082D03*
X97437Y116121D03*
Y126121D03*
Y136121D03*
Y146121D03*
Y156121D03*
Y166121D03*
Y176121D03*
Y186121D03*
Y196121D03*
X97445Y345807D03*
Y355807D03*
Y385807D03*
X97485Y206088D03*
Y216072D03*
Y225807D03*
Y235807D03*
Y245807D03*
Y255807D03*
Y265807D03*
Y275807D03*
Y285807D03*
Y335807D03*
Y365807D03*
Y375807D03*
X107437Y116121D03*
Y126121D03*
Y136121D03*
Y146121D03*
Y156121D03*
Y166121D03*
Y176121D03*
Y186121D03*
Y196121D03*
X107445Y245807D03*
Y275807D03*
X107469Y336008D03*
Y346008D03*
Y356008D03*
Y366008D03*
Y376008D03*
Y386008D03*
X107485Y206088D03*
Y216072D03*
Y225807D03*
Y235807D03*
Y255807D03*
Y265807D03*
Y285807D03*
X117437Y126121D03*
Y136121D03*
Y146121D03*
Y156121D03*
Y166121D03*
Y176121D03*
Y186121D03*
Y196121D03*
X117445Y116121D03*
X117453Y206338D03*
Y216322D03*
Y226057D03*
Y236057D03*
Y246057D03*
Y256057D03*
Y266057D03*
Y276057D03*
Y286057D03*
X117469Y336008D03*
Y346008D03*
Y356008D03*
Y366008D03*
Y376008D03*
Y386008D03*
X127445Y116082D03*
Y126121D03*
Y136082D03*
Y146082D03*
Y156082D03*
Y206082D03*
Y256082D03*
X352445Y106082D03*
Y156082D03*
Y206082D03*
Y256082D03*
X362445Y196082D03*
X362485Y105807D03*
Y115807D03*
Y125807D03*
Y135807D03*
Y145807D03*
Y155807D03*
Y165807D03*
Y175807D03*
Y185807D03*
Y205807D03*
Y215807D03*
Y225807D03*
Y235807D03*
Y245807D03*
Y255807D03*
X372485Y105807D03*
Y115807D03*
Y125807D03*
Y135807D03*
Y145807D03*
Y155807D03*
Y165807D03*
Y175807D03*
Y185807D03*
Y195807D03*
Y205807D03*
Y215807D03*
Y225807D03*
Y235807D03*
Y245807D03*
Y255807D03*
X382485Y105807D03*
Y115807D03*
Y125807D03*
Y135807D03*
Y145807D03*
Y155807D03*
Y165807D03*
Y175807D03*
Y185807D03*
Y195807D03*
Y205807D03*
Y215807D03*
Y225807D03*
Y235807D03*
Y245807D03*
Y255807D03*
X392485Y105807D03*
Y115807D03*
Y125807D03*
Y135807D03*
Y145807D03*
Y155807D03*
Y165807D03*
Y175807D03*
Y185807D03*
Y195807D03*
Y205807D03*
Y215807D03*
Y225807D03*
Y235807D03*
Y245807D03*
Y255807D03*
Y265807D03*
Y275807D03*
Y285807D03*
X402485Y65807D03*
Y75807D03*
Y85807D03*
Y95807D03*
Y105807D03*
Y115807D03*
Y125807D03*
Y135807D03*
Y145807D03*
Y155807D03*
Y165807D03*
Y175807D03*
Y185807D03*
Y195807D03*
Y205807D03*
Y215807D03*
Y225807D03*
Y235807D03*
Y245807D03*
Y255807D03*
Y265807D03*
Y275807D03*
Y285807D03*
Y335807D03*
Y345807D03*
Y355807D03*
Y365807D03*
Y375807D03*
Y385807D03*
X412485Y65807D03*
Y75807D03*
Y85807D03*
Y95807D03*
Y105807D03*
Y115807D03*
Y125807D03*
Y135807D03*
Y145807D03*
Y155807D03*
Y165807D03*
Y175807D03*
Y185807D03*
Y195807D03*
Y205807D03*
Y215807D03*
Y225807D03*
Y235807D03*
Y245807D03*
Y255807D03*
Y265807D03*
Y275807D03*
Y285807D03*
Y335807D03*
Y345807D03*
Y355807D03*
Y365807D03*
Y375807D03*
Y385807D03*
X422485Y65807D03*
Y75807D03*
Y85807D03*
Y95807D03*
Y105807D03*
Y115807D03*
Y125807D03*
Y135807D03*
Y145807D03*
Y155807D03*
Y165807D03*
Y175807D03*
Y185807D03*
Y195807D03*
Y205807D03*
Y215807D03*
Y225807D03*
Y235807D03*
Y245807D03*
Y255807D03*
Y265807D03*
Y275807D03*
Y285807D03*
Y335807D03*
Y345807D03*
Y355807D03*
Y365807D03*
Y375807D03*
Y385807D03*
X432485Y65807D03*
Y75807D03*
Y85807D03*
Y95807D03*
Y105807D03*
Y115807D03*
Y125807D03*
Y135807D03*
Y145807D03*
Y155807D03*
Y165807D03*
Y175807D03*
Y185807D03*
Y195807D03*
Y205807D03*
Y215807D03*
Y225807D03*
Y235807D03*
Y245807D03*
Y255807D03*
Y265807D03*
Y275807D03*
Y285807D03*
Y335807D03*
Y345807D03*
Y355807D03*
Y365807D03*
Y375807D03*
Y385807D03*
D02*
D108*
X145989Y30217D03*
X155989D03*
X165989D03*
X175989D03*
X185989D03*
X195989D03*
X205989D03*
X215989D03*
X225989D03*
X235989D03*
X245989D03*
X255989D03*
X265989D03*
X275989D03*
X285989D03*
X295989D03*
X305989D03*
X315989D03*
X325989D03*
X335989D03*
X345989D03*
X355989D03*
X365989D03*
X375989D03*
X385989D03*
D02*
D110*
X256124Y83834D03*
D02*
D111*
X206124D03*
X216124D03*
X226124D03*
X236124D03*
X246124D03*
D02*
D112*
X145772Y301082D03*
Y321082D03*
X145794Y401082D03*
Y421082D03*
X155772Y301082D03*
Y321082D03*
X155794Y401082D03*
Y421082D03*
X165772Y301082D03*
Y321082D03*
X165794Y401082D03*
Y421082D03*
X175772Y301082D03*
Y321082D03*
X175794Y401082D03*
Y421082D03*
X185772Y301082D03*
Y321082D03*
X185794Y401082D03*
Y421082D03*
X195772Y301082D03*
Y321082D03*
X195794Y401082D03*
Y421082D03*
X205772Y301082D03*
Y321082D03*
X205794Y401082D03*
Y421082D03*
X215772Y301082D03*
Y321082D03*
X215794Y401082D03*
Y421082D03*
X225772Y301082D03*
Y321082D03*
X225794Y401082D03*
Y421082D03*
X235772Y301082D03*
Y321082D03*
X235794Y401082D03*
Y421082D03*
X245772Y301082D03*
Y321082D03*
X245794Y401082D03*
Y421082D03*
X255772Y301082D03*
Y321082D03*
X255794Y401082D03*
Y421082D03*
X265772Y301082D03*
Y321082D03*
X265794Y401082D03*
Y421082D03*
X275772Y301082D03*
Y321082D03*
X275794Y401082D03*
Y421082D03*
X285772Y301082D03*
Y321082D03*
X285794Y401082D03*
Y421082D03*
X295772Y301082D03*
Y321082D03*
X295794Y401082D03*
Y421082D03*
X305772Y301082D03*
Y321082D03*
X305794Y401082D03*
Y421082D03*
X315772Y301082D03*
Y321082D03*
X315794Y401082D03*
Y421082D03*
X325772Y301082D03*
Y321082D03*
X325794Y401082D03*
Y421082D03*
X335772Y301082D03*
Y321082D03*
X335794Y401082D03*
Y421082D03*
X345772Y301082D03*
Y321082D03*
X345794Y401082D03*
Y421082D03*
X355772Y301082D03*
Y321082D03*
X355794Y401082D03*
Y421082D03*
X365772Y301082D03*
Y321082D03*
X365794Y401082D03*
Y421082D03*
X375772Y301082D03*
Y321082D03*
X375794Y401082D03*
Y421082D03*
X385772Y301082D03*
Y321082D03*
X385794Y401082D03*
Y421082D03*
D02*
D113*
X112012Y311082D03*
X112035Y411082D03*
X419532Y311082D03*
X419554Y411082D03*
D02*
D120*
X135772Y265906D03*
Y275906D03*
Y366123D03*
Y376123D03*
X375772Y266031D03*
Y276031D03*
Y366123D03*
Y376123D03*
X0Y0D02*
M02*
